# Made in Blockbench 5.0.7
mtllib peso_livre.mtl

o pe_diant
v -0.24437500000000006 -0.380625 -0.30745353811564713
v -0.244375 -0.380625 -0.1937035381156471
v -0.24437500000000006 -0.494375 -0.30745353811564713
v -0.244375 -0.494375 -0.1937035381156471
v 0.24437499999999998 -0.380625 -0.19370353811564717
v 0.24437499999999998 -0.380625 -0.3074535381156472
v 0.24437499999999998 -0.494375 -0.19370353811564717
v 0.24437499999999998 -0.494375 -0.3074535381156472
vt 0.03125 0.375
vt 0.15625 0.375
vt 0.15625 0.3125
vt 0.03125 0.3125
vt 0 0.375
vt 0.03125 0.375
vt 0.03125 0.3125
vt 0 0.3125
vt 0.1875 0.375
vt 0.3125 0.375
vt 0.3125 0.3125
vt 0.1875 0.3125
vt 0.15625 0.375
vt 0.1875 0.375
vt 0.1875 0.3125
vt 0.15625 0.3125
vt 0.15625 0.375
vt 0.03125 0.375
vt 0.03125 0.4375
vt 0.15625 0.4375
vt 0.28125 0.4375
vt 0.15625 0.4375
vt 0.15625 0.375
vt 0.28125 0.375
vn 1.2246467991473532e-16 0 1
vn -1 0 1.2246467991473532e-16
vn -1.2246467991473532e-16 0 -1
vn 1 0 -1.2246467991473532e-16
vn 0 1 0
vn 0 -1 0
usemtl m_3dc8c070-21c0-dbd4-460a-24eca098a5de
f 4/4/1 7/3/1 5/2/1 2/1/1
f 3/8/2 4/7/2 2/6/2 1/5/2
f 8/12/3 3/11/3 1/10/3 6/9/3
f 7/16/4 8/15/4 6/14/4 5/13/4
f 6/20/5 1/19/5 2/18/5 5/17/5
f 7/24/6 4/23/6 3/22/6 8/21/6
o cube
v -0.06250000000000001 0.4894721273338193 -0.03754824551805791
v -0.0625 0.5270603522718533 0.08166637332547044
v -0.06249999999999997 -0.4046375139926435 0.24436344151719808
v -0.06249999999999995 -0.3670492890546094 0.36357806036072643
v 0.06250000000000001 0.5270603522718533 0.08166637332547044
v 0.06249999999999999 0.4894721273338193 -0.03754824551805791
v 0.06250000000000004 -0.3670492890546094 0.36357806036072643
v 0.06250000000000003 -0.4046375139926435 0.24436344151719808
vt 0.125 0.9375
vt 0.15625 0.9375
vt 0.15625 0.46875
vt 0.125 0.46875
vt 0.09375 0.9375
vt 0.125 0.9375
vt 0.125 0.46875
vt 0.09375 0.46875
vt 0.1875 0.9375
vt 0.21875 0.9375
vt 0.21875 0.46875
vt 0.1875 0.46875
vt 0.15625 0.9375
vt 0.1875 0.9375
vt 0.1875 0.46875
vt 0.15625 0.46875
vt 0.15625 0.9375
vt 0.125 0.9375
vt 0.125 1
vt 0.15625 1
vt 0.1875 1
vt 0.15625 1
vt 0.15625 0.9375
vt 0.1875 0.9375
vn 1.16796641102639e-16 0.30070579950427306 0.9537169507482269
vn -1 0 1.224646799147353e-16
vn -1.16796641102639e-16 -0.30070579950427306 -0.9537169507482269
vn 1 0 -1.224646799147353e-16
vn -3.6825839484795376e-17 0.9537169507482269 -0.30070579950427306
vn 3.6825839484795376e-17 -0.9537169507482269 0.30070579950427306
usemtl m_3dc8c070-21c0-dbd4-460a-24eca098a5de
f 12/28/7 15/27/7 13/26/7 10/25/7
f 11/32/8 12/31/8 10/30/8 9/29/8
f 16/36/9 11/35/9 9/34/9 14/33/9
f 15/40/10 16/39/10 14/38/10 13/37/10
f 14/44/11 9/43/11 10/42/11 13/41/11
f 15/48/12 12/47/12 11/46/12 16/45/12
o cube
v -0.056875 0.5387983367707001 -0.01375757125278168
v -0.056874999999999995 0.504593052077089 0.09472773189482916
v -0.05687500000000004 -0.3445819888598451 -0.2922863180436146
v -0.05687500000000003 -0.37878727355345615 -0.18380101489600376
v 0.05687500000000001 0.504593052077089 0.09472773189482916
v 0.056875 0.5387983367707001 -0.01375757125278168
v 0.056874999999999974 -0.37878727355345615 -0.18380101489600376
v 0.05687499999999997 -0.3445819888598451 -0.2922863180436146
vt 0.125 0.9375
vt 0.15625 0.9375
vt 0.15625 0.46875
vt 0.125 0.46875
vt 0.09375 0.9375
vt 0.125 0.9375
vt 0.125 0.46875
vt 0.09375 0.46875
vt 0.1875 0.9375
vt 0.21875 0.9375
vt 0.21875 0.46875
vt 0.1875 0.46875
vt 0.15625 0.9375
vt 0.1875 0.9375
vt 0.1875 0.46875
vt 0.15625 0.46875
vt 0.15625 0.9375
vt 0.125 0.9375
vt 0.125 1
vt 0.15625 1
vt 0.1875 1
vt 0.15625 1
vt 0.15625 0.9375
vt 0.1875 0.9375
vn 1.16796641102639e-16 -0.30070579950427306 0.9537169507482269
vn -1 0 1.224646799147353e-16
vn -1.16796641102639e-16 0.30070579950427306 -0.9537169507482269
vn 1 0 -1.224646799147353e-16
vn 3.6825839484795376e-17 0.9537169507482269 0.30070579950427306
vn -3.6825839484795376e-17 -0.9537169507482269 -0.30070579950427306
usemtl m_3dc8c070-21c0-dbd4-460a-24eca098a5de
f 20/52/13 23/51/13 21/50/13 18/49/13
f 19/56/14 20/55/14 18/54/14 17/53/14
f 24/60/15 19/59/15 17/58/15 22/57/15
f 23/64/16 24/63/16 22/62/16 21/61/16
f 22/68/17 17/67/17 18/66/17 21/65/17
f 23/72/18 20/71/18 19/70/18 24/69/18
o pe_diant
v -0.24437500000000006 0.181875 -0.24495353811564713
v -0.244375 0.181875 -0.1312035381156471
v -0.24437500000000006 0.06812499999999999 -0.24495353811564713
v -0.244375 0.06812499999999999 -0.1312035381156471
v 0.24437499999999998 0.181875 -0.1312035381156472
v 0.24437499999999998 0.181875 -0.2449535381156472
v 0.24437499999999998 0.06812499999999999 -0.1312035381156472
v 0.24437499999999998 0.06812499999999999 -0.2449535381156472
vt 0.265625 0.53125
vt 0.390625 0.53125
vt 0.390625 0.46875
vt 0.265625 0.46875
vt 0.234375 0.53125
vt 0.265625 0.53125
vt 0.265625 0.46875
vt 0.234375 0.46875
vt 0.421875 0.53125
vt 0.546875 0.53125
vt 0.546875 0.46875
vt 0.421875 0.46875
vt 0.390625 0.53125
vt 0.421875 0.53125
vt 0.421875 0.46875
vt 0.390625 0.46875
vt 0.390625 0.53125
vt 0.265625 0.53125
vt 0.265625 0.59375
vt 0.390625 0.59375
vt 0.515625 0.59375
vt 0.390625 0.59375
vt 0.390625 0.53125
vt 0.515625 0.53125
vn 1.2246467991473532e-16 0 1
vn -1 0 1.2246467991473532e-16
vn -1.2246467991473532e-16 0 -1
vn 1 0 -1.2246467991473532e-16
vn 0 1 0
vn 0 -1 0
usemtl m_3dc8c070-21c0-dbd4-460a-24eca098a5de
f 28/76/19 31/75/19 29/74/19 26/73/19
f 27/80/20 28/79/20 26/78/20 25/77/20
f 32/84/21 27/83/21 25/82/21 30/81/21
f 31/88/22 32/87/22 30/86/22 29/85/22
f 30/92/23 25/91/23 26/90/23 29/89/23
f 31/96/24 28/95/24 27/94/24 32/93/24
o pe_diant
v -0.369375 0.306875 -0.36995353811564713
v -0.369375 0.306875 -0.0062035381156471114
v -0.369375 -0.05687500000000001 -0.36995353811564713
v -0.369375 -0.05687500000000001 -0.0062035381156471114
v -0.19312499999999996 0.306875 -0.006203538115647139
v -0.19312500000000002 0.306875 -0.36995353811564713
v -0.19312499999999996 -0.05687500000000001 -0.006203538115647139
v -0.19312500000000002 -0.05687500000000001 -0.36995353811564713
vt 0.328125 0.8125
vt 0.375 0.8125
vt 0.375 0.625
vt 0.328125 0.625
vt 0.234375 0.8125
vt 0.328125 0.8125
vt 0.328125 0.625
vt 0.234375 0.625
vt 0.46875 0.8125
vt 0.515625 0.8125
vt 0.515625 0.625
vt 0.46875 0.625
vt 0.375 0.8125
vt 0.46875 0.8125
vt 0.46875 0.625
vt 0.375 0.625
vt 0.375 0.8125
vt 0.328125 0.8125
vt 0.328125 1
vt 0.375 1
vt 0.421875 1
vt 0.375 1
vt 0.375 0.8125
vt 0.421875 0.8125
vn 1.2246467991473532e-16 0 1
vn -1 0 1.2246467991473532e-16
vn -1.2246467991473532e-16 0 -1
vn 1 0 -1.2246467991473532e-16
vn 0 1 0
vn 0 -1 0
usemtl m_3dc8c070-21c0-dbd4-460a-24eca098a5de
f 36/100/25 39/99/25 37/98/25 34/97/25
f 35/104/26 36/103/26 34/102/26 33/101/26
f 40/108/27 35/107/27 33/106/27 38/105/27
f 39/112/28 40/111/28 38/110/28 37/109/28
f 38/116/29 33/115/29 34/114/29 37/113/29
f 39/120/30 36/119/30 35/118/30 40/117/30
o pe_diant
v 0.19312499999999996 0.306875 -0.3699535381156472
v 0.19312500000000002 0.306875 -0.006203538115647167
v 0.19312499999999996 -0.05687500000000001 -0.3699535381156472
v 0.19312500000000002 -0.05687500000000001 -0.006203538115647167
v 0.369375 0.306875 -0.006203538115647195
v 0.369375 0.306875 -0.36995353811564724
v 0.369375 -0.05687500000000001 -0.006203538115647195
v 0.369375 -0.05687500000000001 -0.36995353811564724
vt 0.328125 0.8125
vt 0.375 0.8125
vt 0.375 0.625
vt 0.328125 0.625
vt 0.234375 0.8125
vt 0.328125 0.8125
vt 0.328125 0.625
vt 0.234375 0.625
vt 0.46875 0.8125
vt 0.515625 0.8125
vt 0.515625 0.625
vt 0.46875 0.625
vt 0.375 0.8125
vt 0.46875 0.8125
vt 0.46875 0.625
vt 0.375 0.625
vt 0.375 0.8125
vt 0.328125 0.8125
vt 0.328125 1
vt 0.375 1
vt 0.421875 1
vt 0.375 1
vt 0.375 0.8125
vt 0.421875 0.8125
vn 1.2246467991473532e-16 0 1
vn -1 0 1.2246467991473532e-16
vn -1.2246467991473532e-16 0 -1
vn 1 0 -1.2246467991473532e-16
vn 0 1 0
vn 0 -1 0
usemtl m_3dc8c070-21c0-dbd4-460a-24eca098a5de
f 44/124/31 47/123/31 45/122/31 42/121/31
f 43/128/32 44/127/32 42/126/32 41/125/32
f 48/132/33 43/131/33 41/130/33 46/129/33
f 47/136/34 48/135/34 46/134/34 45/133/34
f 46/140/35 41/139/35 42/138/35 45/137/35
f 47/144/36 44/143/36 43/142/36 48/141/36
o pe_diant
v -0.244375 0.369375 0.19254646188435287
v -0.24437499999999995 0.369375 0.3062964618843529
v -0.244375 0.255625 0.19254646188435287
v -0.24437499999999995 0.255625 0.3062964618843529
v 0.24437500000000004 0.369375 0.30629646188435283
v 0.24437500000000004 0.369375 0.1925464618843528
v 0.24437500000000004 0.255625 0.30629646188435283
v 0.24437500000000004 0.255625 0.1925464618843528
vt 0.265625 0.53125
vt 0.390625 0.53125
vt 0.390625 0.46875
vt 0.265625 0.46875
vt 0.234375 0.53125
vt 0.265625 0.53125
vt 0.265625 0.46875
vt 0.234375 0.46875
vt 0.421875 0.53125
vt 0.546875 0.53125
vt 0.546875 0.46875
vt 0.421875 0.46875
vt 0.390625 0.53125
vt 0.421875 0.53125
vt 0.421875 0.46875
vt 0.390625 0.46875
vt 0.390625 0.53125
vt 0.265625 0.53125
vt 0.265625 0.59375
vt 0.390625 0.59375
vt 0.515625 0.59375
vt 0.390625 0.59375
vt 0.390625 0.53125
vt 0.515625 0.53125
vn 1.2246467991473532e-16 0 1
vn -1 0 1.2246467991473532e-16
vn -1.2246467991473532e-16 0 -1
vn 1 0 -1.2246467991473532e-16
vn 0 1 0
vn 0 -1 0
usemtl m_3dc8c070-21c0-dbd4-460a-24eca098a5de
f 52/148/37 55/147/37 53/146/37 50/145/37
f 51/152/38 52/151/38 50/150/38 49/149/38
f 56/156/39 51/155/39 49/154/39 54/153/39
f 55/160/40 56/159/40 54/158/40 53/157/40
f 54/164/41 49/163/41 50/162/41 53/161/41
f 55/168/42 52/167/42 51/166/42 56/165/42
o pe_diant
v 0.19312499999999996 0.494375 0.06754646188435282
v 0.19312500000000002 0.494375 0.43129646188435283
v 0.19312499999999996 0.130625 0.06754646188435282
v 0.19312500000000002 0.130625 0.43129646188435283
v 0.369375 0.494375 0.4312964618843528
v 0.369375 0.494375 0.06754646188435279
v 0.369375 0.130625 0.4312964618843528
v 0.369375 0.130625 0.06754646188435279
vt 0.328125 0.8125
vt 0.375 0.8125
vt 0.375 0.625
vt 0.328125 0.625
vt 0.234375 0.8125
vt 0.328125 0.8125
vt 0.328125 0.625
vt 0.234375 0.625
vt 0.46875 0.8125
vt 0.515625 0.8125
vt 0.515625 0.625
vt 0.46875 0.625
vt 0.375 0.8125
vt 0.46875 0.8125
vt 0.46875 0.625
vt 0.375 0.625
vt 0.375 0.8125
vt 0.328125 0.8125
vt 0.328125 1
vt 0.375 1
vt 0.421875 1
vt 0.375 1
vt 0.375 0.8125
vt 0.421875 0.8125
vn 1.2246467991473532e-16 0 1
vn -1 0 1.2246467991473532e-16
vn -1.2246467991473532e-16 0 -1
vn 1 0 -1.2246467991473532e-16
vn 0 1 0
vn 0 -1 0
usemtl m_3dc8c070-21c0-dbd4-460a-24eca098a5de
f 60/172/43 63/171/43 61/170/43 58/169/43
f 59/176/44 60/175/44 58/174/44 57/173/44
f 64/180/45 59/179/45 57/178/45 62/177/45
f 63/184/46 64/183/46 62/182/46 61/181/46
f 62/188/47 57/187/47 58/186/47 61/185/47
f 63/192/48 60/191/48 59/190/48 64/189/48
o pe_diant
v -0.369375 0.494375 0.06754646188435287
v -0.36937499999999995 0.494375 0.4312964618843529
v -0.369375 0.130625 0.06754646188435287
v -0.36937499999999995 0.130625 0.4312964618843529
v -0.19312499999999994 0.494375 0.4312964618843529
v -0.193125 0.494375 0.06754646188435284
v -0.19312499999999994 0.130625 0.4312964618843529
v -0.193125 0.130625 0.06754646188435284
vt 0.328125 0.8125
vt 0.375 0.8125
vt 0.375 0.625
vt 0.328125 0.625
vt 0.234375 0.8125
vt 0.328125 0.8125
vt 0.328125 0.625
vt 0.234375 0.625
vt 0.46875 0.8125
vt 0.515625 0.8125
vt 0.515625 0.625
vt 0.46875 0.625
vt 0.375 0.8125
vt 0.46875 0.8125
vt 0.46875 0.625
vt 0.375 0.625
vt 0.375 0.8125
vt 0.328125 0.8125
vt 0.328125 1
vt 0.375 1
vt 0.421875 1
vt 0.375 1
vt 0.375 0.8125
vt 0.421875 0.8125
vn 1.2246467991473532e-16 0 1
vn -1 0 1.2246467991473532e-16
vn -1.2246467991473532e-16 0 -1
vn 1 0 -1.2246467991473532e-16
vn 0 1 0
vn 0 -1 0
usemtl m_3dc8c070-21c0-dbd4-460a-24eca098a5de
f 68/196/49 71/195/49 69/194/49 66/193/49
f 67/200/50 68/199/50 66/198/50 65/197/50
f 72/204/51 67/203/51 65/202/51 70/201/51
f 71/208/52 72/207/52 70/206/52 69/205/52
f 70/212/53 65/211/53 66/210/53 69/209/53
f 71/216/54 68/215/54 67/214/54 72/213/54
o pe_diant
v -0.24999999999999997 -0.375 0.24942146188435288
v -0.24999999999999994 -0.375 0.3744214618843529
v -0.24999999999999997 -0.5 0.24942146188435288
v -0.24999999999999994 -0.5 0.3744214618843529
v 0.25 -0.375 0.3744214618843528
v 0.25 -0.375 0.24942146188435282
v 0.25 -0.5 0.3744214618843528
v 0.25 -0.5 0.24942146188435282
vt 0.03125 0.375
vt 0.15625 0.375
vt 0.15625 0.3125
vt 0.03125 0.3125
vt 0 0.375
vt 0.03125 0.375
vt 0.03125 0.3125
vt 0 0.3125
vt 0.1875 0.375
vt 0.3125 0.375
vt 0.3125 0.3125
vt 0.1875 0.3125
vt 0.15625 0.375
vt 0.1875 0.375
vt 0.1875 0.3125
vt 0.15625 0.3125
vt 0.15625 0.375
vt 0.03125 0.375
vt 0.03125 0.4375
vt 0.15625 0.4375
vt 0.28125 0.4375
vt 0.15625 0.4375
vt 0.15625 0.375
vt 0.28125 0.375
vn 1.2246467991473532e-16 0 1
vn -1 0 1.2246467991473532e-16
vn -1.2246467991473532e-16 0 -1
vn 1 0 -1.2246467991473532e-16
vn 0 1 0
vn 0 -1 0
usemtl m_3dc8c070-21c0-dbd4-460a-24eca098a5de
f 76/220/55 79/219/55 77/218/55 74/217/55
f 75/224/56 76/223/56 74/222/56 73/221/56
f 80/228/57 75/227/57 73/226/57 78/225/57
f 79/232/58 80/231/58 78/230/58 77/229/58
f 78/236/59 73/235/59 74/234/59 77/233/59
f 79/240/60 76/239/60 75/238/60 80/237/60