# Made in Blockbench 5.0.7
mtllib arca.mtl

o 2
v -0.12499999999999994 1.9375 0.43750000000000006
v 0.43750000000000006 1.9375 0.43749999999999994
v -0.12499999999999994 0.5 0.43750000000000006
v 0.43750000000000006 0.5 0.43749999999999994
v 0.43749999999999994 1.9375 -0.06250000000000006
v -0.12500000000000006 1.9375 -0.062499999999999944
v 0.43749999999999994 0.5 -0.06250000000000006
v -0.12500000000000006 0.5 -0.062499999999999944
vt 0.0703125 0.3671875
vt 0.1328125 0.3671875
vt 0.1328125 0.1875
vt 0.0703125 0.1875
vt 0 0.3671875
vt 0.0703125 0.3671875
vt 0.0703125 0.1875
vt 0 0.1875
vt 0.203125 0.3671875
vt 0.265625 0.3671875
vt 0.265625 0.1875
vt 0.203125 0.1875
vt 0.1328125 0.3671875
vt 0.203125 0.3671875
vt 0.203125 0.1875
vt 0.1328125 0.1875
vt 0.1328125 0.3671875
vt 0.0703125 0.3671875
vt 0.0703125 0.4375
vt 0.1328125 0.4375
vt 0.1953125 0.4375
vt 0.1328125 0.4375
vt 0.1328125 0.3671875
vt 0.1953125 0.3671875
vn 1 0 -2.220446049250313e-16
vn 2.220446049250313e-16 0 1
vn -1 0 2.220446049250313e-16
vn -2.220446049250313e-16 0 -1
vn 0 1 0
vn 0 -1 0
usemtl m_c017ea4c-ee99-84a6-f866-02653c9a32d4
f 4/4/1 7/3/1 5/2/1 2/1/1
f 3/8/2 4/7/2 2/6/2 1/5/2
f 8/12/3 3/11/3 1/10/3 6/9/3
f 7/16/4 8/15/4 6/14/4 5/13/4
f 6/20/5 1/19/5 2/18/5 5/17/5
f 7/24/6 4/23/6 3/22/6 8/21/6
o 3
v 0.5 0.25 0.4375
v 0.5 0.25 -0.1875
v 0.5 -0.5 0.4375
v 0.5 -0.5 -0.1875
v -1.5 0.25 -0.1875
v -1.5 0.25 0.4375
v -1.5 -0.5 -0.1875
v -1.5 -0.5 0.4375
vt 0.078125 0.921875
vt 0.328125 0.921875
vt 0.328125 0.828125
vt 0.078125 0.828125
vt 0 0.921875
vt 0.078125 0.921875
vt 0.078125 0.828125
vt 0 0.828125
vt 0.40625 0.921875
vt 0.65625 0.921875
vt 0.65625 0.828125
vt 0.40625 0.828125
vt 0.328125 0.921875
vt 0.40625 0.921875
vt 0.40625 0.828125
vt 0.328125 0.828125
vt 0.328125 0.921875
vt 0.078125 0.921875
vt 0.078125 1
vt 0.328125 1
vt 0.578125 1
vt 0.328125 1
vt 0.328125 0.921875
vt 0.578125 0.921875
vn 0 0 -1
vn 1 0 0
vn 0 0 1
vn -1 0 0
vn 0 1 0
vn 0 -1 0
usemtl m_c017ea4c-ee99-84a6-f866-02653c9a32d4
f 12/28/7 15/27/7 13/26/7 10/25/7
f 11/32/8 12/31/8 10/30/8 9/29/8
f 16/36/9 11/35/9 9/34/9 14/33/9
f 15/40/10 16/39/10 14/38/10 13/37/10
f 14/44/11 9/43/11 10/42/11 13/41/11
f 15/48/12 12/47/12 11/46/12 16/45/12
o 4
v 0.5 0.5 0.4375
v 0.5 0.5 -0.1875
v 0.5 0.25 0.4375
v 0.5 0.25 -0.1875
v -1.5 0.5 -0.1875
v -1.5 0.5 0.4375
v -1.5 0.25 -0.1875
v -1.5 0.25 0.4375
vt 0.078125 0.921875
vt 0.328125 0.921875
vt 0.328125 0.890625
vt 0.078125 0.890625
vt 0 0.921875
vt 0.078125 0.921875
vt 0.078125 0.890625
vt 0 0.890625
vt 0.40625 0.921875
vt 0.65625 0.921875
vt 0.65625 0.890625
vt 0.40625 0.890625
vt 0.328125 0.921875
vt 0.40625 0.921875
vt 0.40625 0.890625
vt 0.328125 0.890625
vt 0.328125 0.921875
vt 0.078125 0.921875
vt 0.078125 1
vt 0.328125 1
vt 0.578125 1
vt 0.328125 1
vt 0.328125 0.921875
vt 0.578125 0.921875
vn 0 0 -1
vn 1 0 0
vn 0 0 1
vn -1 0 0
vn 0 1 0
vn 0 -1 0
usemtl m_c017ea4c-ee99-84a6-f866-02653c9a32d4
f 20/52/13 23/51/13 21/50/13 18/49/13
f 19/56/14 20/55/14 18/54/14 17/53/14
f 24/60/15 19/59/15 17/58/15 22/57/15
f 23/64/16 24/63/16 22/62/16 21/61/16
f 22/68/17 17/67/17 18/66/17 21/65/17
f 23/72/18 20/71/18 19/70/18 24/69/18
o 7
v -0.125 0.875 0.421875
v -0.125 0.875 -0.015625
v -0.125 0.8125 0.421875
v -0.125 0.8125 -0.015625
v -0.875 0.875 -0.015625
v -0.875 0.875 0.421875
v -0.875 0.8125 -0.015625
v -0.875 0.8125 0.421875
vt 0.421875 0.828125
vt 0.515625 0.828125
vt 0.515625 0.8203125
vt 0.421875 0.8203125
vt 0.3671875 0.828125
vt 0.421875 0.828125
vt 0.421875 0.8203125
vt 0.3671875 0.8203125
vt 0.5703125 0.828125
vt 0.6640625 0.828125
vt 0.6640625 0.8203125
vt 0.5703125 0.8203125
vt 0.515625 0.828125
vt 0.5703125 0.828125
vt 0.5703125 0.8203125
vt 0.515625 0.8203125
vt 0.515625 0.828125
vt 0.421875 0.828125
vt 0.421875 0.8828125
vt 0.515625 0.8828125
vt 0.609375 0.8828125
vt 0.515625 0.8828125
vt 0.515625 0.828125
vt 0.609375 0.828125
vn 0 0 -1
vn 1 0 0
vn 0 0 1
vn -1 0 0
vn 0 1 0
vn 0 -1 0
usemtl m_c017ea4c-ee99-84a6-f866-02653c9a32d4
f 28/76/19 31/75/19 29/74/19 26/73/19
f 27/80/20 28/79/20 26/78/20 25/77/20
f 32/84/21 27/83/21 25/82/21 30/81/21
f 31/88/22 32/87/22 30/86/22 29/85/22
f 30/92/23 25/91/23 26/90/23 29/89/23
f 31/96/24 28/95/24 27/94/24 32/93/24
o 8
v -0.125 1.25 0.375
v -0.125 1.25 -0.0625
v -0.125 1.1875 0.375
v -0.125 1.1875 -0.0625
v -0.875 1.25 -0.0625
v -0.875 1.25 0.375
v -0.875 1.1875 -0.0625
v -0.875 1.1875 0.375
vt 0.421875 0.828125
vt 0.515625 0.828125
vt 0.515625 0.8203125
vt 0.421875 0.8203125
vt 0.3671875 0.828125
vt 0.421875 0.828125
vt 0.421875 0.8203125
vt 0.3671875 0.8203125
vt 0.5703125 0.828125
vt 0.6640625 0.828125
vt 0.6640625 0.8203125
vt 0.5703125 0.8203125
vt 0.515625 0.828125
vt 0.5703125 0.828125
vt 0.5703125 0.8203125
vt 0.515625 0.8203125
vt 0.515625 0.828125
vt 0.421875 0.828125
vt 0.421875 0.8828125
vt 0.515625 0.8828125
vt 0.609375 0.8828125
vt 0.515625 0.8828125
vt 0.515625 0.828125
vt 0.609375 0.828125
vn 0 0 -1
vn 1 0 0
vn 0 0 1
vn -1 0 0
vn 0 1 0
vn 0 -1 0
usemtl m_c017ea4c-ee99-84a6-f866-02653c9a32d4
f 36/100/25 39/99/25 37/98/25 34/97/25
f 35/104/26 36/103/26 34/102/26 33/101/26
f 40/108/27 35/107/27 33/106/27 38/105/27
f 39/112/28 40/111/28 38/110/28 37/109/28
f 38/116/29 33/115/29 34/114/29 37/113/29
f 39/120/30 36/119/30 35/118/30 40/117/30
o 9
v -0.125 1.9375 0.4375
v -0.125 1.9375 0.375
v -0.125 0.5 0.4375
v -0.125 0.5 0.375
v -0.875 1.9375 0.375
v -0.875 1.9375 0.4375
v -0.875 0.5 0.375
v -0.875 0.5 0.4375
vt 0.5546875 0.8125
vt 0.6640625 0.8125
vt 0.6640625 0.640625
vt 0.5546875 0.640625
vt 0.5546875 0.8203125
vt 0.6640625 0.8203125
vt 0.6640625 0.6484375
vt 0.5546875 0.6484375
vt 0.53125 0.875
vt 0.421875 0.875
vt 0.421875 0.8828125
vt 0.53125 0.8828125
vt 0.6328125 0.890625
vt 0.5234375 0.890625
vt 0.5234375 0.8828125
vt 0.6328125 0.8828125
vn 0 0 -1
vn 0 0 1
vn 0 1 0
vn 0 -1 0
usemtl m_c017ea4c-ee99-84a6-f866-02653c9a32d4
f 44/124/31 47/123/31 45/122/31 42/121/31
f 48/128/32 43/127/32 41/126/32 46/125/32
f 46/132/33 41/131/33 42/130/33 45/129/33
f 47/136/34 44/135/34 43/134/34 48/133/34
o 3
v -1.4375 1.9375 0.43750000000000006
v -0.875 1.9375 0.43749999999999994
v -1.4375 0.5 0.43750000000000006
v -0.875 0.5 0.43749999999999994
v -0.875 1.9375 -0.06250000000000006
v -1.4375 1.9375 -0.062499999999999944
v -0.875 0.5 -0.06250000000000006
v -1.4375 0.5 -0.062499999999999944
vt 0.0703125 0.3671875
vt 0.1328125 0.3671875
vt 0.1328125 0.1875
vt 0.0703125 0.1875
vt 0 0.3671875
vt 0.0703125 0.3671875
vt 0.0703125 0.1875
vt 0 0.1875
vt 0.203125 0.3671875
vt 0.265625 0.3671875
vt 0.265625 0.1875
vt 0.203125 0.1875
vt 0.1328125 0.3671875
vt 0.203125 0.3671875
vt 0.203125 0.1875
vt 0.1328125 0.1875
vt 0.1328125 0.3671875
vt 0.0703125 0.3671875
vt 0.0703125 0.4375
vt 0.1328125 0.4375
vt 0.1953125 0.4375
vt 0.1328125 0.4375
vt 0.1328125 0.3671875
vt 0.1953125 0.3671875
vn 1 0 -2.220446049250313e-16
vn 2.220446049250313e-16 0 1
vn -1 0 2.220446049250313e-16
vn -2.220446049250313e-16 0 -1
vn 0 1 0
vn 0 -1 0
usemtl m_c017ea4c-ee99-84a6-f866-02653c9a32d4
f 52/140/35 55/139/35 53/138/35 50/137/35
f 51/144/36 52/143/36 50/142/36 49/141/36
f 56/148/37 51/147/37 49/146/37 54/145/37
f 55/152/38 56/151/38 54/150/38 53/149/38
f 54/156/39 49/155/39 50/154/39 53/153/39
f 55/160/40 52/159/40 51/158/40 56/157/40
o 9
v -0.125 1.9375 0.375
v -0.125 1.9375 -0.0625
v -0.125 1.875 0.375
v -0.125 1.875 -0.0625
v -0.875 1.9375 -0.0625
v -0.875 1.9375 0.375
v -0.875 1.875 -0.0625
v -0.875 1.875 0.375
vt 0.421875 0.828125
vt 0.515625 0.828125
vt 0.515625 0.8203125
vt 0.421875 0.8203125
vt 0.3671875 0.828125
vt 0.421875 0.828125
vt 0.421875 0.8203125
vt 0.3671875 0.8203125
vt 0.5703125 0.828125
vt 0.6640625 0.828125
vt 0.6640625 0.8203125
vt 0.5703125 0.8203125
vt 0.515625 0.828125
vt 0.5703125 0.828125
vt 0.5703125 0.8203125
vt 0.515625 0.8203125
vt 0.515625 0.828125
vt 0.421875 0.828125
vt 0.421875 0.8828125
vt 0.515625 0.8828125
vt 0.609375 0.8828125
vt 0.515625 0.8828125
vt 0.515625 0.828125
vt 0.609375 0.828125
vn 0 0 -1
vn 1 0 0
vn 0 0 1
vn -1 0 0
vn 0 1 0
vn 0 -1 0
usemtl m_c017ea4c-ee99-84a6-f866-02653c9a32d4
f 60/164/41 63/163/41 61/162/41 58/161/41
f 59/168/42 60/167/42 58/166/42 57/165/42
f 64/172/43 59/171/43 57/170/43 62/169/43
f 63/176/44 64/175/44 62/174/44 61/173/44
f 62/180/45 57/179/45 58/178/45 61/177/45
f 63/184/46 60/183/46 59/182/46 64/181/46