# Made in Blockbench 5.0.7
mtllib armario.mtl

o cube
v 0.15625 0.3125 0.484375
v 0.15625 0.3125 0.046875
v 0.15625 -0.375 0.484375
v 0.15625 -0.375 0.046875
v -1.15625 0.3125 0.046875
v -1.15625 0.3125 0.484375
v -1.15625 -0.375 0.046875
v -1.15625 -0.375 0.484375
vt 0.0546875 0.8046875
vt 0.21875 0.8046875
vt 0.21875 0.71875
vt 0.0546875 0.71875
vt 0 0.8046875
vt 0.0546875 0.8046875
vt 0.0546875 0.71875
vt 0 0.71875
vt 0.2734375 0.8046875
vt 0.4375 0.8046875
vt 0.4375 0.71875
vt 0.2734375 0.71875
vt 0.21875 0.8046875
vt 0.2734375 0.8046875
vt 0.2734375 0.71875
vt 0.21875 0.71875
vt 0.21875 0.8046875
vt 0.0546875 0.8046875
vt 0.0546875 0.859375
vt 0.21875 0.859375
vt 0.3828125 0.859375
vt 0.21875 0.859375
vt 0.21875 0.8046875
vt 0.3828125 0.8046875
vn 0 0 -1
vn 1 0 0
vn 0 0 1
vn -1 0 0
vn 0 1 0
vn 0 -1 0
usemtl m_3447c0f6-8bd9-7d5c-a6d3-c6415761a2ae
f 4/4/1 7/3/1 5/2/1 2/1/1
f 3/8/2 4/7/2 2/6/2 1/5/2
f 8/12/3 3/11/3 1/10/3 6/9/3
f 7/16/4 8/15/4 6/14/4 5/13/4
f 6/20/5 1/19/5 2/18/5 5/17/5
f 7/24/6 4/23/6 3/22/6 8/21/6
o cube
v 0.15625 1.875 0.484375
v 0.15625 1.875 0.046875
v 0.15625 1.1875 0.484375
v 0.15625 1.1875 0.046875
v -1.15625 1.875 0.046875
v -1.15625 1.875 0.484375
v -1.15625 1.1875 0.046875
v -1.15625 1.1875 0.484375
vt 0.0546875 0.9453125
vt 0.21875 0.9453125
vt 0.21875 0.859375
vt 0.0546875 0.859375
vt 0 0.9453125
vt 0.0546875 0.9453125
vt 0.0546875 0.859375
vt 0 0.859375
vt 0.2734375 0.9453125
vt 0.4375 0.9453125
vt 0.4375 0.859375
vt 0.2734375 0.859375
vt 0.21875 0.9453125
vt 0.2734375 0.9453125
vt 0.2734375 0.859375
vt 0.21875 0.859375
vt 0.21875 0.9453125
vt 0.0546875 0.9453125
vt 0.0546875 1
vt 0.21875 1
vt 0.3828125 1
vt 0.21875 1
vt 0.21875 0.9453125
vt 0.3828125 0.9453125
vn 0 0 -1
vn 1 0 0
vn 0 0 1
vn -1 0 0
vn 0 1 0
vn 0 -1 0
usemtl m_3447c0f6-8bd9-7d5c-a6d3-c6415761a2ae
f 12/28/7 15/27/7 13/26/7 10/25/7
f 11/32/8 12/31/8 10/30/8 9/29/8
f 16/36/9 11/35/9 9/34/9 14/33/9
f 15/40/10 16/39/10 14/38/10 13/37/10
f 14/44/11 9/43/11 10/42/11 13/41/11
f 15/48/12 12/47/12 11/46/12 16/45/12
o cube
v 0.15625 0.875 0.421875
v 0.15625 0.875 -0.015625
v 0.15625 0.8125 0.421875
v 0.15625 0.8125 -0.015625
v -1.15625 0.875 -0.015625
v -1.15625 0.875 0.421875
v -1.15625 0.8125 -0.015625
v -1.15625 0.8125 0.421875
vt 0.2734375 0.6640625
vt 0.4375 0.6640625
vt 0.4375 0.65625
vt 0.2734375 0.65625
vt 0.21875 0.6640625
vt 0.2734375 0.6640625
vt 0.2734375 0.65625
vt 0.21875 0.65625
vt 0.4921875 0.6640625
vt 0.65625 0.6640625
vt 0.65625 0.65625
vt 0.4921875 0.65625
vt 0.4375 0.6640625
vt 0.4921875 0.6640625
vt 0.4921875 0.65625
vt 0.4375 0.65625
vt 0.4375 0.6640625
vt 0.2734375 0.6640625
vt 0.2734375 0.71875
vt 0.4375 0.71875
vt 0.6015625 0.71875
vt 0.4375 0.71875
vt 0.4375 0.6640625
vt 0.6015625 0.6640625
vn 0 0 -1
vn 1 0 0
vn 0 0 1
vn -1 0 0
vn 0 1 0
vn 0 -1 0
usemtl m_3447c0f6-8bd9-7d5c-a6d3-c6415761a2ae
f 20/52/13 23/51/13 21/50/13 18/49/13
f 19/56/14 20/55/14 18/54/14 17/53/14
f 24/60/15 19/59/15 17/58/15 22/57/15
f 23/64/16 24/63/16 22/62/16 21/61/16
f 22/68/17 17/67/17 18/66/17 21/65/17
f 23/72/18 20/71/18 19/70/18 24/69/18
o cube
v 0.21875 1.9375 0.484375
v 0.21875 1.9375 -0.015625
v 0.21875 -0.5 0.484375
v 0.21875 -0.5 -0.015625
v 0.15625 1.9375 -0.015625
v 0.15625 1.9375 0.484375
v 0.15625 -0.5 -0.015625
v 0.15625 -0.5 0.484375
vt 0.203125 0.65625
vt 0.2109375 0.65625
vt 0.2109375 0.3515625
vt 0.203125 0.3515625
vt 0.140625 0.65625
vt 0.203125 0.65625
vt 0.203125 0.3515625
vt 0.140625 0.3515625
vt 0.2734375 0.65625
vt 0.28125 0.65625
vt 0.28125 0.3515625
vt 0.2734375 0.3515625
vt 0.2109375 0.65625
vt 0.2734375 0.65625
vt 0.2734375 0.3515625
vt 0.2109375 0.3515625
vt 0.2109375 0.65625
vt 0.203125 0.65625
vt 0.203125 0.71875
vt 0.2109375 0.71875
vt 0.21875 0.71875
vt 0.2109375 0.71875
vt 0.2109375 0.65625
vt 0.21875 0.65625
vn 0 0 -1
vn 1 0 0
vn 0 0 1
vn -1 0 0
vn 0 1 0
vn 0 -1 0
usemtl m_3447c0f6-8bd9-7d5c-a6d3-c6415761a2ae
f 28/76/19 31/75/19 29/74/19 26/73/19
f 27/80/20 28/79/20 26/78/20 25/77/20
f 32/84/21 27/83/21 25/82/21 30/81/21
f 31/88/22 32/87/22 30/86/22 29/85/22
f 30/92/23 25/91/23 26/90/23 29/89/23
f 31/96/24 28/95/24 27/94/24 32/93/24
o cube
v -1.15625 1.9375 0.484375
v -1.15625 1.9375 -0.015625
v -1.15625 -0.5 0.484375
v -1.15625 -0.5 -0.015625
v -1.21875 1.9375 -0.015625
v -1.21875 1.9375 0.484375
v -1.21875 -0.5 -0.015625
v -1.21875 -0.5 0.484375
vt 0.0625 0.65625
vt 0.0703125 0.65625
vt 0.0703125 0.3515625
vt 0.0625 0.3515625
vt 0 0.65625
vt 0.0625 0.65625
vt 0.0625 0.3515625
vt 0 0.3515625
vt 0.1328125 0.65625
vt 0.140625 0.65625
vt 0.140625 0.3515625
vt 0.1328125 0.3515625
vt 0.0703125 0.65625
vt 0.1328125 0.65625
vt 0.1328125 0.3515625
vt 0.0703125 0.3515625
vt 0.0703125 0.65625
vt 0.0625 0.65625
vt 0.0625 0.71875
vt 0.0703125 0.71875
vt 0.078125 0.71875
vt 0.0703125 0.71875
vt 0.0703125 0.65625
vt 0.078125 0.65625
vn 0 0 -1
vn 1 0 0
vn 0 0 1
vn -1 0 0
vn 0 1 0
vn 0 -1 0
usemtl m_3447c0f6-8bd9-7d5c-a6d3-c6415761a2ae
f 36/100/25 39/99/25 37/98/25 34/97/25
f 35/104/26 36/103/26 34/102/26 33/101/26
f 40/108/27 35/107/27 33/106/27 38/105/27
f 39/112/28 40/111/28 38/110/28 37/109/28
f 38/116/29 33/115/29 34/114/29 37/113/29
f 39/120/30 36/119/30 35/118/30 40/117/30
o cube
v 0.15625 1.1875 0.484375
v 0.15625 1.1875 0.421875
v 0.15625 0.3125 0.484375
v 0.15625 0.3125 0.421875
v -1.15625 1.1875 0.421875
v -1.15625 1.1875 0.484375
v -1.15625 0.3125 0.421875
v -1.15625 0.3125 0.484375
vt 0.2890625 0.6484375
vt 0.453125 0.6484375
vt 0.453125 0.5390625
vt 0.2890625 0.5390625
vt 0.28125 0.6484375
vt 0.2890625 0.6484375
vt 0.2890625 0.5390625
vt 0.28125 0.5390625
vt 0.4609375 0.6484375
vt 0.625 0.6484375
vt 0.625 0.5390625
vt 0.4609375 0.5390625
vt 0.453125 0.6484375
vt 0.4609375 0.6484375
vt 0.4609375 0.5390625
vt 0.453125 0.5390625
vt 0.453125 0.6484375
vt 0.2890625 0.6484375
vt 0.2890625 0.65625
vt 0.453125 0.65625
vt 0.6171875 0.65625
vt 0.453125 0.65625
vt 0.453125 0.6484375
vt 0.6171875 0.6484375
vn 0 0 -1
vn 1 0 0
vn 0 0 1
vn -1 0 0
vn 0 1 0
vn 0 -1 0
usemtl m_3447c0f6-8bd9-7d5c-a6d3-c6415761a2ae
f 44/124/31 47/123/31 45/122/31 42/121/31
f 43/128/32 44/127/32 42/126/32 41/125/32
f 48/132/33 43/131/33 41/130/33 46/129/33
f 47/136/34 48/135/34 46/134/34 45/133/34
f 46/140/35 41/139/35 42/138/35 45/137/35
f 47/144/36 44/143/36 43/142/36 48/141/36
o cube
v -1.27563003884018 0.3125 -0.6305955144887307
v -1.3343608276392993 0.3125 -0.6092192555308765
v -1.27563003884018 -0.375 -0.6305955144887307
v -1.3343608276392993 -0.375 -0.6092192555308765
v -1.1205982380607566 0.3125 -0.02191136753968375
v -1.0618674492616373 0.3125 -0.04328762649753803
v -1.1205982380607566 -0.375 -0.02191136753968375
v -1.0618674492616373 -0.375 -0.04328762649753803
vt 0.4453125 0.8046875
vt 0.5234375 0.8046875
vt 0.5234375 0.71875
vt 0.4453125 0.71875
vt 0.4375 0.8046875
vt 0.4453125 0.8046875
vt 0.4453125 0.71875
vt 0.4375 0.71875
vt 0.53125 0.8046875
vt 0.609375 0.8046875
vt 0.609375 0.71875
vt 0.53125 0.71875
vt 0.5234375 0.8046875
vt 0.53125 0.8046875
vt 0.53125 0.71875
vt 0.5234375 0.71875
vt 0.5234375 0.8046875
vt 0.4453125 0.8046875
vt 0.4453125 0.8125
vt 0.5234375 0.8125
vt 0.6015625 0.8125
vt 0.5234375 0.8125
vt 0.5234375 0.8046875
vt 0.6015625 0.8046875
vn -0.9396926207859085 0 0.34202014332566855
vn -0.34202014332566855 0 -0.9396926207859085
vn 0.9396926207859085 0 -0.34202014332566855
vn 0.34202014332566855 0 0.9396926207859085
vn 0 1 0
vn 0 -1 0
usemtl m_3447c0f6-8bd9-7d5c-a6d3-c6415761a2ae
f 52/148/37 55/147/37 53/146/37 50/145/37
f 51/152/38 52/151/38 50/150/38 49/149/38
f 56/156/39 51/155/39 49/154/39 54/153/39
f 55/160/40 56/159/40 54/158/40 53/157/40
f 54/164/41 49/163/41 50/162/41 53/161/41
f 55/168/42 52/167/42 51/166/42 56/165/42
o cube
v -1.3111507755756606 -0.03125000000000001 -0.5454501615816626
v -1.36988156437478 -0.03125000000000001 -0.5240739026238083
v -1.2809201802446637 -0.11963834764831843 -0.46239228353307826
v -1.339650969043783 -0.11963834764831843 -0.441016024575224
v -1.339650969043783 0.05713834764831843 -0.441016024575224
v -1.2809201802446637 0.05713834764831843 -0.46239228353307826
v -1.309420373712786 -0.031249999999999993 -0.35795814652663965
v -1.2506895849136668 -0.031249999999999993 -0.37933440548449393
vt 0.0078125 0.828125
vt 0.0234375 0.828125
vt 0.0234375 0.8125
vt 0.0078125 0.8125
vt 0 0.828125
vt 0.0078125 0.828125
vt 0.0078125 0.8125
vt 0 0.8125
vt 0.03125 0.828125
vt 0.046875 0.828125
vt 0.046875 0.8125
vt 0.03125 0.8125
vt 0.0234375 0.828125
vt 0.03125 0.828125
vt 0.03125 0.8125
vt 0.0234375 0.8125
vt 0.0234375 0.828125
vt 0.0078125 0.828125
vt 0.0078125 0.8359375
vt 0.0234375 0.8359375
vt 0.0390625 0.8359375
vt 0.0234375 0.8359375
vt 0.0234375 0.828125
vt 0.0390625 0.828125
vn -0.9396926207859084 0 0.34202014332566855
vn -0.24184476264797514 -0.7071067811865476 -0.6644630243886749
vn 0.9396926207859084 0 -0.34202014332566855
vn 0.24184476264797514 0.7071067811865476 0.6644630243886749
vn -0.2418447626479752 0.7071067811865475 -0.664463024388675
vn 0.2418447626479752 -0.7071067811865475 0.664463024388675
usemtl m_3447c0f6-8bd9-7d5c-a6d3-c6415761a2ae
f 60/172/43 63/171/43 61/170/43 58/169/43
f 59/176/44 60/175/44 58/174/44 57/173/44
f 64/180/45 59/179/45 57/178/45 62/177/45
f 63/184/46 64/183/46 62/182/46 61/181/46
f 62/188/47 57/187/47 58/186/47 61/185/47
f 63/192/48 60/191/48 59/190/48 64/189/48
o cube
v 0.1184882759403443 0.3125 -0.051683956157634096
v 0.17721906473946358 0.3125 -0.03030769719977982
v 0.1184882759403443 -0.375 -0.051683956157634096
v 0.17721906473946358 -0.375 -0.03030769719977982
v 0.39098165431800636 0.3125 -0.6176155851909726
v 0.33225086551888705 0.3125 -0.6389918441488268
v 0.39098165431800636 -0.375 -0.6176155851909726
v 0.33225086551888705 -0.375 -0.6389918441488268
vt 0.4453125 0.8984375
vt 0.5234375 0.8984375
vt 0.5234375 0.8125
vt 0.4453125 0.8125
vt 0.4375 0.8984375
vt 0.4453125 0.8984375
vt 0.4453125 0.8125
vt 0.4375 0.8125
vt 0.53125 0.8984375
vt 0.609375 0.8984375
vt 0.609375 0.8125
vt 0.53125 0.8125
vt 0.5234375 0.8984375
vt 0.53125 0.8984375
vt 0.53125 0.8125
vt 0.5234375 0.8125
vt 0.5234375 0.8984375
vt 0.4453125 0.8984375
vt 0.4453125 0.90625
vt 0.5234375 0.90625
vt 0.6015625 0.90625
vt 0.5234375 0.90625
vt 0.5234375 0.8984375
vt 0.6015625 0.8984375
vn 0.9396926207859085 0 0.34202014332566855
vn -0.34202014332566855 0 0.9396926207859085
vn -0.9396926207859085 0 -0.34202014332566855
vn 0.34202014332566855 0 -0.9396926207859085
vn 0 1 0
vn 0 -1 0
usemtl m_3447c0f6-8bd9-7d5c-a6d3-c6415761a2ae
f 68/196/49 71/195/49 69/194/49 66/193/49
f 67/200/50 68/199/50 66/198/50 65/197/50
f 72/204/51 67/203/51 65/202/51 70/201/51
f 71/208/52 72/207/52 70/206/52 69/205/52
f 70/212/53 65/211/53 66/210/53 69/209/53
f 71/216/54 68/215/54 67/214/54 72/213/54
o cube
v 0.3073104115923737 -0.03125000000000001 -0.38773073514459
v 0.366041200391493 -0.03125000000000001 -0.3663544761867357
v 0.33754100692337063 -0.11963834764831843 -0.47078861319317433
v 0.3962717957224899 -0.11963834764831843 -0.44941235423532006
v 0.3962717957224899 0.05713834764831843 -0.44941235423532006
v 0.33754100692337063 0.05713834764831843 -0.47078861319317433
v 0.42650239105348675 -0.031249999999999993 -0.5324702322839043
v 0.3677716022543675 -0.031249999999999993 -0.5538464912417587
vt 0.0078125 0.9921875
vt 0.0234375 0.9921875
vt 0.0234375 0.9765625
vt 0.0078125 0.9765625
vt 0 0.9921875
vt 0.0078125 0.9921875
vt 0.0078125 0.9765625
vt 0 0.9765625
vt 0.03125 0.9921875
vt 0.046875 0.9921875
vt 0.046875 0.9765625
vt 0.03125 0.9765625
vt 0.0234375 0.9921875
vt 0.03125 0.9921875
vt 0.03125 0.9765625
vt 0.0234375 0.9765625
vt 0.0234375 0.9921875
vt 0.0078125 0.9921875
vt 0.0078125 1
vt 0.0234375 1
vt 0.0390625 1
vt 0.0234375 1
vt 0.0234375 0.9921875
vt 0.0390625 0.9921875
vn 0.9396926207859084 0 0.34202014332566855
vn -0.24184476264797514 -0.7071067811865476 0.6644630243886749
vn -0.9396926207859084 0 -0.34202014332566855
vn 0.24184476264797514 0.7071067811865476 -0.6644630243886749
vn -0.2418447626479752 0.7071067811865475 0.664463024388675
vn 0.2418447626479752 -0.7071067811865475 -0.664463024388675
usemtl m_3447c0f6-8bd9-7d5c-a6d3-c6415761a2ae
f 76/220/55 79/219/55 77/218/55 74/217/55
f 75/224/56 76/223/56 74/222/56 73/221/56
f 80/228/57 75/227/57 73/226/57 78/225/57
f 79/232/58 80/231/58 78/230/58 77/229/58
f 78/236/59 73/235/59 74/234/59 77/233/59
f 79/240/60 76/239/60 75/238/60 80/237/60
o cube
v 0.12755834101711377 1.875 -0.062384216862502825
v 0.18027030638041913 1.875 -0.02880299134082634
v 0.12755834101711377 1.1875 -0.062384216862502825
v 0.18027030638041913 1.1875 -0.02880299134082634
v 0.516082561597184 1.875 -0.55592264497388
v 0.4633705962338786 1.875 -0.5895038704955564
v 0.516082561597184 1.1875 -0.55592264497388
v 0.4633705962338786 1.1875 -0.5895038704955564
vt 0.2890625 0.53125
vt 0.3671875 0.53125
vt 0.3671875 0.4453125
vt 0.2890625 0.4453125
vt 0.28125 0.53125
vt 0.2890625 0.53125
vt 0.2890625 0.4453125
vt 0.28125 0.4453125
vt 0.375 0.53125
vt 0.453125 0.53125
vt 0.453125 0.4453125
vt 0.375 0.4453125
vt 0.3671875 0.53125
vt 0.375 0.53125
vt 0.375 0.4453125
vt 0.3671875 0.4453125
vt 0.3671875 0.53125
vt 0.2890625 0.53125
vt 0.2890625 0.5390625
vt 0.3671875 0.5390625
vt 0.4453125 0.5390625
vt 0.3671875 0.5390625
vt 0.3671875 0.53125
vt 0.4453125 0.53125
vn 0.8433914458128858 0 0.5372996083468238
vn -0.5372996083468238 0 0.8433914458128858
vn -0.8433914458128858 0 -0.5372996083468238
vn 0.5372996083468238 0 -0.8433914458128858
vn 0 1 0
vn 0 -1 0
usemtl m_3447c0f6-8bd9-7d5c-a6d3-c6415761a2ae
f 84/244/61 87/243/61 85/242/61 82/241/61
f 83/248/62 84/247/62 82/246/62 81/245/62
f 88/252/63 83/251/63 81/250/63 86/249/63
f 87/256/64 88/255/64 86/254/64 85/253/64
f 86/260/65 81/259/65 82/258/65 85/257/65
f 87/264/66 84/263/66 83/262/66 88/261/66
o cube
v 0.38463847321912836 1.5625 -0.3495967552494893
v 0.4373504385824337 1.5625 -0.31601552972781277
v 0.4321294977929928 1.4741116523516815 -0.42414273156561655
v 0.48484146315629817 1.4741116523516815 -0.3905615060439401
v 0.4848414631562981 1.6508883476483185 -0.3905615060439401
v 0.43212949779299276 1.6508883476483185 -0.42414273156561655
v 0.5323324877301625 1.5625 -0.4651074823600673
v 0.47962052236685715 1.5625 -0.4986887078817438
vt 0.0078125 0.8515625
vt 0.0234375 0.8515625
vt 0.0234375 0.8359375
vt 0.0078125 0.8359375
vt 0 0.8515625
vt 0.0078125 0.8515625
vt 0.0078125 0.8359375
vt 0 0.8359375
vt 0.03125 0.8515625
vt 0.046875 0.8515625
vt 0.046875 0.8359375
vt 0.03125 0.8359375
vt 0.0234375 0.8515625
vt 0.03125 0.8515625
vt 0.03125 0.8359375
vt 0.0234375 0.8359375
vt 0.0234375 0.8515625
vt 0.0078125 0.8515625
vt 0.0078125 0.859375
vt 0.0234375 0.859375
vt 0.0390625 0.859375
vt 0.0234375 0.859375
vt 0.0234375 0.8515625
vt 0.0390625 0.8515625
vn 0.8433914458128858 8.326672684688673e-17 0.5372996083468238
vn -0.37992819659091515 -0.7071067811865477 0.5963678105290182
vn -0.8433914458128858 -8.326672684688673e-17 -0.5372996083468238
vn 0.37992819659091515 0.7071067811865477 -0.5963678105290182
vn -0.37992819659091515 0.7071067811865476 0.5963678105290181
vn 0.37992819659091515 -0.7071067811865476 -0.5963678105290181
usemtl m_3447c0f6-8bd9-7d5c-a6d3-c6415761a2ae
f 92/268/67 95/267/67 93/266/67 90/265/67
f 91/272/68 92/271/68 90/270/68 89/269/68
f 96/276/69 91/275/69 89/274/69 94/273/69
f 95/280/70 96/279/70 94/278/70 93/277/70
f 94/284/71 89/283/71 90/282/71 93/281/71
f 95/288/72 92/287/72 91/286/72 96/285/72
o cube
v -1.4153299834730404 1.875 -0.5631478878139038
v -1.4680419488363459 1.875 -0.5295666622922274
v -1.4153299834730404 1.1875 -0.5631478878139038
v -1.4680419488363459 1.1875 -0.5295666622922274
v -1.132229693619581 1.875 -0.0024470086591736606
v -1.0795177282562756 1.875 -0.03602823418085015
v -1.132229693619581 1.1875 -0.0024470086591736606
v -1.0795177282562756 1.1875 -0.03602823418085015
vt 0.4453125 0.9921875
vt 0.5234375 0.9921875
vt 0.5234375 0.90625
vt 0.4453125 0.90625
vt 0.4375 0.9921875
vt 0.4453125 0.9921875
vt 0.4453125 0.90625
vt 0.4375 0.90625
vt 0.53125 0.9921875
vt 0.609375 0.9921875
vt 0.609375 0.90625
vt 0.53125 0.90625
vt 0.5234375 0.9921875
vt 0.53125 0.9921875
vt 0.53125 0.90625
vt 0.5234375 0.90625
vt 0.5234375 0.9921875
vt 0.4453125 0.9921875
vt 0.4453125 1
vt 0.5234375 1
vt 0.6015625 1
vt 0.5234375 1
vt 0.5234375 0.9921875
vt 0.6015625 0.9921875
vn -0.8433914458128858 0 0.5372996083468238
vn -0.5372996083468238 0 -0.8433914458128858
vn 0.8433914458128858 0 -0.5372996083468238
vn 0.5372996083468238 0 0.8433914458128858
vn 0 1 0
vn 0 -1 0
usemtl m_3447c0f6-8bd9-7d5c-a6d3-c6415761a2ae
f 100/292/73 103/291/73 101/290/73 98/289/73
f 99/296/74 100/295/74 98/294/74 97/293/74
f 104/300/75 99/299/75 97/298/75 102/297/75
f 103/304/76 104/303/76 102/302/76 101/301/76
f 102/308/77 97/307/77 98/306/77 101/305/77
f 103/312/78 100/311/78 99/310/78 104/309/78
o cube
v -1.4315799096060189 1.5625 -0.4723327252000912
v -1.4842918749693244 1.5625 -0.43875149967841465
v -1.3840888850321544 1.4741116523516815 -0.39778674888396387
v -1.43680085039546 1.4741116523516815 -0.3642055233622874
v -1.43680085039546 1.6508883476483185 -0.3642055233622874
v -1.3840888850321544 1.6508883476483185 -0.39778674888396387
v -1.3893098258215955 1.5625 -0.2896595470461601
v -1.3365978604582902 1.5625 -0.32324077256783657
vt 0.0078125 0.96875
vt 0.0234375 0.96875
vt 0.0234375 0.953125
vt 0.0078125 0.953125
vt 0 0.96875
vt 0.0078125 0.96875
vt 0.0078125 0.953125
vt 0 0.953125
vt 0.03125 0.96875
vt 0.046875 0.96875
vt 0.046875 0.953125
vt 0.03125 0.953125
vt 0.0234375 0.96875
vt 0.03125 0.96875
vt 0.03125 0.953125
vt 0.0234375 0.953125
vt 0.0234375 0.96875
vt 0.0078125 0.96875
vt 0.0078125 0.9765625
vt 0.0234375 0.9765625
vt 0.0390625 0.9765625
vt 0.0234375 0.9765625
vt 0.0234375 0.96875
vt 0.0390625 0.96875
vn -0.8433914458128858 -8.326672684688673e-17 0.5372996083468238
vn -0.37992819659091515 -0.7071067811865477 -0.5963678105290182
vn 0.8433914458128858 8.326672684688673e-17 -0.5372996083468238
vn 0.37992819659091515 0.7071067811865477 0.5963678105290182
vn -0.37992819659091515 0.7071067811865476 -0.5963678105290181
vn 0.37992819659091515 -0.7071067811865476 0.5963678105290181
usemtl m_3447c0f6-8bd9-7d5c-a6d3-c6415761a2ae
f 108/316/79 111/315/79 109/314/79 106/313/79
f 107/320/80 108/319/80 106/318/80 105/317/80
f 112/324/81 107/323/81 105/322/81 110/321/81
f 111/328/82 112/327/82 110/326/82 109/325/82
f 110/332/83 105/331/83 106/330/83 109/329/83
f 111/336/84 108/335/84 107/334/84 112/333/84