# Made in Blockbench 5.0.5
mtllib bandeira_janela_flamengo.mtl

o bandeira
v 0.5 0.515625 0.484375
v 0.5 0.515625 0.484375
v 0.5 -1.484375 0.484375
v 0.5 -1.484375 0.484375
v -0.5 0.515625 0.484375
v -0.5 0.515625 0.484375
v -0.5 -1.484375 0.484375
v -0.5 -1.484375 0.484375
vt 0 1
vt 1 1
vt 1 0
vt 0 0
vn 0 0 -1
usemtl m_e9786995-83c0-ebb8-b6e1-f88f1c13a07d
f 4/4/1 7/3/1 5/2/1 2/1/1
o bandeira_top
v 0.5 0.5156250000000002 1.484375
v 0.5 0.5156250000000002 1.484375
v 0.5 0.515625 0.484375
v 0.5 0.515625 0.484375
v -0.5 0.5156250000000002 1.484375
v -0.5 0.5156250000000002 1.484375
v -0.5 0.515625 0.484375
v -0.5 0.515625 0.484375
vt 0 0.5
vt 1 0.5
vt 1 0
vt 0 0
vn 0 1 -2.220446049250313e-16
usemtl m_e9786995-83c0-ebb8-b6e1-f88f1c13a07d
f 12/8/2 15/7/2 13/6/2 10/5/2