# Made in Blockbench 5.0.7
mtllib barraca_praia.mtl

o Block1
v -1.5000000000000002 0.5 -1.4774299999999998
v -1.4999999999999998 0.5 1.5225700000000002
v -1.5000000000000002 -0.1875 -1.4774299999999998
v -1.4999999999999998 -0.1875 1.5225700000000002
v 1.5000000000000002 0.5 1.5225699999999998
v 1.4999999999999998 0.5 -1.4774300000000002
v 1.5000000000000002 -0.1875 1.5225699999999998
v 1.4999999999999998 -0.1875 -1.4774300000000002
vt 0.5625 0.8125
vt 0.75 0.8125
vt 0.75 0.76953125
vt 0.5625 0.76953125
vt 0.375 0.8125
vt 0.5625 0.8125
vt 0.5625 0.76953125
vt 0.375 0.76953125
vt 0.1875 0.8125
vt 0.375 0.8125
vt 0.375 0.76953125
vt 0.1875 0.76953125
vt 0 0.8125
vt 0.1875 0.8125
vt 0.1875 0.76953125
vt 0 0.76953125
vt 0.1875 1
vt 0.375 1
vt 0.375 0.8125
vt 0.1875 0.8125
vt 0.375 1
vt 0.5625 1
vt 0.5625 0.8125
vt 0.375 0.8125
vn 1.2246467991473532e-16 0 1
vn -1 0 1.2246467991473532e-16
vn -1.2246467991473532e-16 0 -1
vn 1 0 -1.2246467991473532e-16
vn 0 1 0
vn 0 -1 0
usemtl m_d5d51dca-c1f7-e806-dd8c-30830daa5578
f 4/4/1 7/3/1 5/2/1 2/1/1
f 3/8/2 4/7/2 2/6/2 1/5/2
f 8/12/3 3/11/3 1/10/3 6/9/3
f 7/16/4 8/15/4 6/14/4 5/13/4
f 6/20/5 1/19/5 2/18/5 5/17/5
f 7/24/6 4/23/6 3/22/6 8/21/6
o teto
v -1.5 2.5960311393217834 -1.4711561343364654
v -1.5 3.3356130973680074 0.11488249297767195
v -1.5 2.5393869026319926 -1.4447424929776718
v -1.5 3.2789688606782166 0.1412961343364657
v 1.5 3.3356130973680074 0.11488249297767161
v 1.5 2.5960311393217834 -1.4711561343364656
v 1.5 3.2789688606782166 0.14129613433646537
v 1.5 2.5393869026319926 -1.444742492977672
vt 0.40625 0.66015625
vt 0.59375 0.66015625
vt 0.59375 0.65625
vt 0.40625 0.65625
vt 0.296875 0.66015625
vt 0.40625 0.66015625
vt 0.40625 0.65625
vt 0.296875 0.65625
vt 0.109375 0.66015625
vt 0.296875 0.66015625
vt 0.296875 0.65625
vt 0.109375 0.65625
vt 0 0.66015625
vt 0.109375 0.66015625
vt 0.109375 0.65625
vt 0 0.65625
vt 0.109375 0.76953125
vt 0.296875 0.76953125
vt 0.296875 0.66015625
vt 0.109375 0.66015625
vt 0.296875 0.76953125
vt 0.484375 0.76953125
vt 0.484375 0.66015625
vt 0.296875 0.66015625
vn 1.1099069304367545e-16 0.42261826174069944 0.9063077870366499
vn -1 6.162975822039155e-33 1.2246467991473532e-16
vn -1.1099069304367545e-16 -0.42261826174069944 -0.9063077870366499
vn 1 -6.162975822039155e-33 -1.2246467991473532e-16
vn -5.175581015019659e-17 0.9063077870366499 -0.42261826174069944
vn 5.175581015019659e-17 -0.9063077870366499 0.42261826174069944
usemtl m_d5d51dca-c1f7-e806-dd8c-30830daa5578
f 12/28/7 15/27/7 13/26/7 10/25/7
f 11/32/8 12/31/8 10/30/8 9/29/8
f 16/36/9 11/35/9 9/34/9 14/33/9
f 15/40/10 16/39/10 14/38/10 13/37/10
f 14/44/11 9/43/11 10/42/11 13/41/11
f 15/48/12 12/47/12 11/46/12 16/45/12
o teto
v -1.4999999999999998 3.2778898367902847 0.12880334220628986
v -1.4999999999999998 2.5275483402833543 1.5701959461209003
v -1.4999999999999998 3.2224516597166457 0.09994405387910021
v -1.4999999999999998 2.4721101632097153 1.5413366577937104
v 1.5000000000000002 2.5275483402833543 1.5701959461208999
v 1.5000000000000002 3.2778898367902847 0.12880334220628942
v 1.5000000000000002 2.4721101632097153 1.54133665779371
v 1.5000000000000002 3.2224516597166457 0.09994405387909977
vt 0.390625 0.5546875
vt 0.578125 0.5546875
vt 0.578125 0.55078125
vt 0.390625 0.55078125
vt 0.2890625 0.5546875
vt 0.390625 0.5546875
vt 0.390625 0.55078125
vt 0.2890625 0.55078125
vt 0.1015625 0.5546875
vt 0.2890625 0.5546875
vt 0.2890625 0.55078125
vt 0.1015625 0.55078125
vt 0 0.5546875
vt 0.1015625 0.5546875
vt 0.1015625 0.55078125
vt 0 0.55078125
vt 0.1015625 0.65625
vt 0.2890625 0.65625
vt 0.2890625 0.5546875
vt 0.1015625 0.5546875
vt 0.2890625 0.65625
vt 0.4765625 0.65625
vt 0.4765625 0.5546875
vt 0.2890625 0.5546875
vn 1.0862749776607361e-16 -0.4617486132350339 0.8870108331782217
vn -1 6.162975822039155e-33 1.2246467991473532e-16
vn -1.0862749776607361e-16 0.4617486132350339 -0.8870108331782217
vn 1 -6.162975822039155e-33 -1.2246467991473532e-16
vn 5.654789612090135e-17 0.8870108331782217 0.4617486132350339
vn -5.654789612090135e-17 -0.8870108331782217 -0.4617486132350339
usemtl m_d5d51dca-c1f7-e806-dd8c-30830daa5578
f 20/52/13 23/51/13 21/50/13 18/49/13
f 19/56/14 20/55/14 18/54/14 17/53/14
f 24/60/15 19/59/15 17/58/15 22/57/15
f 23/64/16 24/63/16 22/62/16 21/61/16
f 22/68/17 17/67/17 18/66/17 21/65/17
f 23/72/18 20/71/18 19/70/18 24/69/18
o balcao
v -1.5 0.5 -1.4774299999999998
v -1.5 0.5 -0.4774299999999998
v -1.5 0.5 -1.4774299999999998
v -1.5 0.5 -0.4774299999999998
v 1.5 0.5 -0.4774300000000002
v 1.5 0.5 -1.4774300000000002
v 1.5 0.5 -0.4774300000000002
v 1.5 0.5 -1.4774300000000002
vt 0.4765625 0.65625
vt 0.6640625 0.65625
vt 0.6640625 0.59375
vt 0.4765625 0.59375
vn 0 1 0
usemtl m_d5d51dca-c1f7-e806-dd8c-30830daa5578
f 30/76/19 25/75/19 26/74/19 29/73/19
o pe_frente
v -1.5 -0.1875 -1.4461799999999998
v -1.5 -0.1875 -1.3211799999999998
v -1.5 -0.5 -1.4461799999999998
v -1.5 -0.5 -1.3211799999999998
v 1.5 -0.1875 -1.3211800000000002
v 1.5 -0.1875 -1.4461800000000002
v 1.5 -0.5 -1.3211800000000002
v 1.5 -0.5 -1.4461800000000002
vt 0.6796875 0.765625
vt 0.8671875 0.765625
vt 0.8671875 0.74609375
vt 0.6796875 0.74609375
vt 0.67578125 0.765625
vt 0.6796875 0.765625
vt 0.6796875 0.74609375
vt 0.67578125 0.74609375
vt 0.48828125 0.765625
vt 0.67578125 0.765625
vt 0.67578125 0.74609375
vt 0.48828125 0.74609375
vt 0.484375 0.765625
vt 0.48828125 0.765625
vt 0.48828125 0.74609375
vt 0.484375 0.74609375
vt 0.48828125 0.76953125
vt 0.67578125 0.76953125
vt 0.67578125 0.765625
vt 0.48828125 0.765625
vt 0.67578125 0.76953125
vt 0.86328125 0.76953125
vt 0.86328125 0.765625
vt 0.67578125 0.765625
vn 1.2246467991473532e-16 0 1
vn -1 0 1.2246467991473532e-16
vn -1.2246467991473532e-16 0 -1
vn 1 0 -1.2246467991473532e-16
vn 0 1 0
vn 0 -1 0
usemtl m_d5d51dca-c1f7-e806-dd8c-30830daa5578
f 36/80/20 39/79/20 37/78/20 34/77/20
f 35/84/21 36/83/21 34/82/21 33/81/21
f 40/88/22 35/87/22 33/86/22 38/85/22
f 39/92/23 40/91/23 38/90/23 37/89/23
f 38/96/24 33/95/24 34/94/24 37/93/24
f 39/100/25 36/99/25 35/98/25 40/97/25
o haste1
v -1.5 2.9375 -0.5711799999999998
v -1.5 2.9375 -0.44617999999999985
v -1.5 0.5 -0.5711799999999998
v -1.5 0.5 -0.44617999999999985
v 1.5 2.9375 -0.4461800000000002
v 1.5 2.9375 -0.5711800000000002
v 1.5 0.5 -0.4461800000000002
v 1.5 0.5 -0.5711800000000002
vt 0.57421875 0.54296875
vt 0.38671875 0.54296875
vt 0.38671875 0.390625
vt 0.57421875 0.390625
vt 0.58203125 0.54296875
vt 0.57421875 0.54296875
vt 0.57421875 0.390625
vt 0.58203125 0.390625
vt 0.76953125 0.54296875
vt 0.58203125 0.54296875
vt 0.58203125 0.390625
vt 0.76953125 0.390625
vt 0.38671875 0.54296875
vt 0.37890625 0.54296875
vt 0.37890625 0.390625
vt 0.38671875 0.390625
vt 0.38671875 0.54296875
vt 0.57421875 0.54296875
vt 0.57421875 0.55078125
vt 0.38671875 0.55078125
vt 0.57421875 0.55078125
vt 0.76171875 0.55078125
vt 0.76171875 0.54296875
vt 0.57421875 0.54296875
vn 1.2246467991473532e-16 0 1
vn -1 0 1.2246467991473532e-16
vn -1.2246467991473532e-16 0 -1
vn 1 0 -1.2246467991473532e-16
vn 0 1 0
vn 0 -1 0
usemtl m_d5d51dca-c1f7-e806-dd8c-30830daa5578
f 44/104/26 47/103/26 45/102/26 42/101/26
f 43/108/27 44/107/27 42/106/27 41/105/27
f 48/112/28 43/111/28 41/110/28 46/109/28
f 47/116/29 48/115/29 46/114/29 45/113/29
f 46/120/30 41/119/30 42/118/30 45/117/30
f 47/124/31 44/123/31 43/122/31 48/121/31
o haste2
v -1.4999999999999998 2.5 1.3975700000000002
v -1.4999999999999998 2.5 1.5225700000000002
v -1.4999999999999998 -0.5 1.3975700000000002
v -1.4999999999999998 -0.5 1.5225700000000002
v 1.5000000000000002 2.5 1.5225699999999998
v 1.5000000000000002 2.5 1.3975699999999998
v 1.5000000000000002 -0.5 1.5225699999999998
v 1.5000000000000002 -0.5 1.3975699999999998
vt 0.1953125 0.5390625
vt 0.0078125 0.5390625
vt 0.0078125 0.3515625
vt 0.1953125 0.3515625
vt 0.203125 0.5390625
vt 0.1953125 0.5390625
vt 0.1953125 0.3515625
vt 0.203125 0.3515625
vt 0.390625 0.5390625
vt 0.203125 0.5390625
vt 0.203125 0.3515625
vt 0.390625 0.3515625
vt 0.0078125 0.5390625
vt 0 0.5390625
vt 0 0.3515625
vt 0.0078125 0.3515625
vt 0.0078125 0.5390625
vt 0.1953125 0.5390625
vt 0.1953125 0.546875
vt 0.0078125 0.546875
vt 0.1953125 0.546875
vt 0.3828125 0.546875
vt 0.3828125 0.5390625
vt 0.1953125 0.5390625
vn 1.2246467991473532e-16 0 1
vn -1 0 1.2246467991473532e-16
vn -1.2246467991473532e-16 0 -1
vn 1 0 -1.2246467991473532e-16
vn 0 1 0
vn 0 -1 0
usemtl m_d5d51dca-c1f7-e806-dd8c-30830daa5578
f 52/128/32 55/127/32 53/126/32 50/125/32
f 51/132/33 52/131/33 50/130/33 49/129/33
f 56/136/34 51/135/34 49/134/34 54/133/34
f 55/140/35 56/139/35 54/138/35 53/137/35
f 54/144/36 49/143/36 50/142/36 53/141/36
f 55/148/37 52/147/37 51/146/37 56/145/37
o bandeiras1
v -1.5 2.59375 -1.4774299999999998
v -1.5 2.59375 -1.4774299999999998
v -1.5 2.28125 -1.4774299999999998
v -1.5 2.28125 -1.4774299999999998
v 1.5 2.59375 -1.4774300000000002
v 1.5 2.59375 -1.4774300000000002
v 1.5 2.28125 -1.4774300000000002
v 1.5 2.28125 -1.4774300000000002
vt 0.6640625 0.5546875
vt 0.8515625 0.5546875
vt 0.8515625 0.57421875
vt 0.6640625 0.57421875
vt 0.6640625 0.5546875
vt 0.6640625 0.5546875
vt 0.6640625 0.57421875
vt 0.6640625 0.57421875
vt 0.4765625 0.5546875
vt 0.6640625 0.5546875
vt 0.6640625 0.57421875
vt 0.4765625 0.57421875
vt 0.4765625 0.5546875
vt 0.4765625 0.5546875
vt 0.4765625 0.57421875
vt 0.4765625 0.57421875
vt 0.4765625 0.5546875
vt 0.6640625 0.5546875
vt 0.6640625 0.5546875
vt 0.4765625 0.5546875
vt 0.6640625 0.5546875
vt 0.8515625 0.5546875
vt 0.8515625 0.5546875
vt 0.6640625 0.5546875
vn 1.2246467991473532e-16 0 1
vn -1 0 1.2246467991473532e-16
vn -1.2246467991473532e-16 0 -1
vn 1 0 -1.2246467991473532e-16
vn 0 1 0
vn 0 -1 0
usemtl m_d5d51dca-c1f7-e806-dd8c-30830daa5578
f 60/152/38 63/151/38 61/150/38 58/149/38
f 59/156/39 60/155/39 58/154/39 57/153/39
f 64/160/40 59/159/40 57/158/40 62/157/40
f 63/164/41 64/163/41 62/162/41 61/161/41
f 62/168/42 57/167/42 58/166/42 61/165/42
f 63/172/43 60/171/43 59/170/43 64/169/43
o bandeiras2
v -1.4999999999999998 2.499881084315367 1.5198463830391358
v -1.4999999999999998 2.499881084315367 1.5198463830391358
v -1.4999999999999998 2.1885702411616967 1.547082552647779
v -1.4999999999999998 2.1885702411616967 1.547082552647779
v 1.5000000000000002 2.499881084315367 1.5198463830391356
v 1.5000000000000002 2.499881084315367 1.5198463830391356
v 1.5000000000000002 2.1885702411616967 1.5470825526477787
v 1.5000000000000002 2.1885702411616967 1.5470825526477787
vt 0.6640625 0.5546875
vt 0.8515625 0.5546875
vt 0.8515625 0.57421875
vt 0.6640625 0.57421875
vt 0.6640625 0.5546875
vt 0.6640625 0.5546875
vt 0.6640625 0.57421875
vt 0.6640625 0.57421875
vt 0.4765625 0.5546875
vt 0.6640625 0.5546875
vt 0.6640625 0.57421875
vt 0.4765625 0.57421875
vt 0.4765625 0.5546875
vt 0.4765625 0.5546875
vt 0.4765625 0.57421875
vt 0.4765625 0.57421875
vt 0.4765625 0.5546875
vt 0.6640625 0.5546875
vt 0.6640625 0.5546875
vt 0.4765625 0.5546875
vt 0.6640625 0.5546875
vt 0.8515625 0.5546875
vt 0.8515625 0.5546875
vt 0.6640625 0.5546875
vn 1.2199866483456202e-16 0.08715574274765818 0.9961946980917455
vn -1 0 1.2246467991473535e-16
vn -1.2199866483456202e-16 -0.08715574274765818 -0.9961946980917455
vn 1 0 -1.2246467991473535e-16
vn -1.0673500138322974e-17 0.9961946980917455 -0.08715574274765818
vn 1.0673500138322974e-17 -0.9961946980917455 0.08715574274765818
usemtl m_d5d51dca-c1f7-e806-dd8c-30830daa5578
f 68/176/44 71/175/44 69/174/44 66/173/44
f 67/180/45 68/179/45 66/178/45 65/177/45
f 72/184/46 67/183/46 65/182/46 70/181/46
f 71/188/47 72/187/47 70/186/47 69/185/47
f 70/192/48 65/191/48 66/190/48 69/189/48
f 71/196/49 68/195/49 67/194/49 72/193/49
o panela
v -0.78125 0.65625 -1.19618
v -0.78125 0.65625 -0.88368
v -0.78125 0.46875 -1.19618
v -0.78125 0.46875 -0.88368
v -0.46875 0.65625 -0.88368
v -0.46875 0.65625 -1.19618
v -0.46875 0.46875 -0.88368
v -0.46875 0.46875 -1.19618
vt 0.1484375 0.8515625
vt 0.16796875 0.8515625
vt 0.16796875 0.83984375
vt 0.1484375 0.83984375
vt 0.12890625 0.8515625
vt 0.1484375 0.8515625
vt 0.1484375 0.83984375
vt 0.12890625 0.83984375
vt 0.109375 0.8515625
vt 0.12890625 0.8515625
vt 0.12890625 0.83984375
vt 0.109375 0.83984375
vt 0.08984375 0.8515625
vt 0.109375 0.8515625
vt 0.109375 0.83984375
vt 0.08984375 0.83984375
vt 0.109375 0.87109375
vt 0.12890625 0.87109375
vt 0.12890625 0.8515625
vt 0.109375 0.8515625
vt 0.12890625 0.87109375
vt 0.1484375 0.87109375
vt 0.1484375 0.8515625
vt 0.12890625 0.8515625
vn 1.2246467991473532e-16 0 1
vn -1 0 1.2246467991473532e-16
vn -1.2246467991473532e-16 0 -1
vn 1 0 -1.2246467991473532e-16
vn 0 1 0
vn 0 -1 0
usemtl m_d5d51dca-c1f7-e806-dd8c-30830daa5578
f 76/200/50 79/199/50 77/198/50 74/197/50
f 75/204/51 76/203/51 74/202/51 73/201/51
f 80/208/52 75/207/52 73/206/52 78/205/52
f 79/212/53 80/211/53 78/210/53 77/209/53
f 78/216/54 73/215/54 74/214/54 77/213/54
f 79/220/55 76/219/55 75/218/55 80/217/55
o grade
v -1.4375 0.84375 -1.35243
v -1.4375 0.84375 -1.35243
v -1.4375 0.53125 -1.35243
v -1.4375 0.53125 -1.35243
v -0.8125 0.84375 -1.35243
v -0.8125 0.84375 -1.35243
v -0.8125 0.53125 -1.35243
v -0.8125 0.53125 -1.35243
vt 0.1484375 0.984375
vt 0.1875 0.984375
vt 0.1875 0.96484375
vt 0.1484375 0.96484375
vt 0.1484375 0.984375
vt 0.1484375 0.984375
vt 0.1484375 0.96484375
vt 0.1484375 0.96484375
vt 0.109375 0.984375
vt 0.1484375 0.984375
vt 0.1484375 0.96484375
vt 0.109375 0.96484375
vt 0.109375 0.984375
vt 0.109375 0.984375
vt 0.109375 0.96484375
vt 0.109375 0.96484375
vt 0.109375 0.984375
vt 0.1484375 0.984375
vt 0.1484375 0.984375
vt 0.109375 0.984375
vt 0.1484375 0.984375
vt 0.1875 0.984375
vt 0.1875 0.984375
vt 0.1484375 0.984375
vn 1.2246467991473532e-16 0 1
vn -1 0 1.2246467991473532e-16
vn -1.2246467991473532e-16 0 -1
vn 1 0 -1.2246467991473532e-16
vn 0 1 0
vn 0 -1 0
usemtl m_d5d51dca-c1f7-e806-dd8c-30830daa5578
f 84/224/56 87/223/56 85/222/56 82/221/56
f 83/228/57 84/227/57 82/226/57 81/225/57
f 88/232/58 83/231/58 81/230/58 86/229/58
f 87/236/59 88/235/59 86/234/59 85/233/59
f 86/240/60 81/239/60 82/238/60 85/237/60
f 87/244/61 84/243/61 83/242/61 88/241/61
o haste pipoca
v -1.40625 1.03125 -0.9461799999999999
v -1.40625 1.03125 -0.8211799999999999
v -1.40625 0.53125 -0.9461799999999999
v -1.40625 0.53125 -0.8211799999999999
v -1.28125 1.03125 -0.8211799999999999
v -1.28125 1.03125 -0.9461799999999999
v -1.28125 0.53125 -0.8211799999999999
v -1.28125 0.53125 -0.9461799999999999
vt 0.08984375 0.6171875
vt 0.09375 0.6171875
vt 0.09375 0.58203125
vt 0.08984375 0.58203125
vt 0.0859375 0.6171875
vt 0.08984375 0.6171875
vt 0.08984375 0.58203125
vt 0.0859375 0.58203125
vt 0.08203125 0.6171875
vt 0.0859375 0.6171875
vt 0.0859375 0.58203125
vt 0.08203125 0.58203125
vt 0.078125 0.6171875
vt 0.08203125 0.6171875
vt 0.08203125 0.58203125
vt 0.078125 0.58203125
vt 0.08203125 0.62109375
vt 0.0859375 0.62109375
vt 0.0859375 0.6171875
vt 0.08203125 0.6171875
vt 0.0859375 0.62109375
vt 0.08984375 0.62109375
vt 0.08984375 0.6171875
vt 0.0859375 0.6171875
vn 1.2246467991473532e-16 0 1
vn -1 0 1.2246467991473532e-16
vn -1.2246467991473532e-16 0 -1
vn 1 0 -1.2246467991473532e-16
vn 0 1 0
vn 0 -1 0
usemtl m_d5d51dca-c1f7-e806-dd8c-30830daa5578
f 92/248/62 95/247/62 93/246/62 90/245/62
f 91/252/63 92/251/63 90/250/63 89/249/63
f 96/256/64 91/255/64 89/254/64 94/253/64
f 95/260/65 96/259/65 94/258/65 93/257/65
f 94/264/66 89/263/66 90/262/66 93/261/66
f 95/268/67 92/267/67 91/266/67 96/265/67
o Block
v -1.46875 1.28125 -1.0086799999999998
v -1.46875 1.28125 -0.7586799999999999
v -1.46875 0.96875 -1.0086799999999998
v -1.46875 0.96875 -0.7586799999999999
v -1.21875 1.28125 -0.7586799999999999
v -1.21875 1.28125 -1.00868
v -1.21875 0.96875 -0.7586799999999999
v -1.21875 0.96875 -1.00868
vt 0.17578125 0.828125
vt 0.1875 0.828125
vt 0.1875 0.81640625
vt 0.17578125 0.81640625
vt 0.1640625 0.828125
vt 0.17578125 0.828125
vt 0.17578125 0.81640625
vt 0.1640625 0.81640625
vt 0.15234375 0.828125
vt 0.1640625 0.828125
vt 0.1640625 0.81640625
vt 0.15234375 0.81640625
vt 0.140625 0.828125
vt 0.15234375 0.828125
vt 0.15234375 0.81640625
vt 0.140625 0.81640625
vt 0.15234375 0.83984375
vt 0.1640625 0.83984375
vt 0.1640625 0.828125
vt 0.15234375 0.828125
vt 0.1640625 0.83984375
vt 0.17578125 0.83984375
vt 0.17578125 0.828125
vt 0.1640625 0.828125
vn 1.2246467991473532e-16 0 1
vn -1 0 1.2246467991473532e-16
vn -1.2246467991473532e-16 0 -1
vn 1 0 -1.2246467991473532e-16
vn 0 1 0
vn 0 -1 0
usemtl m_d5d51dca-c1f7-e806-dd8c-30830daa5578
f 100/272/68 103/271/68 101/270/68 98/269/68
f 99/276/69 100/275/69 98/274/69 97/273/69
f 104/280/70 99/279/70 97/278/70 102/277/70
f 103/284/71 104/283/71 102/282/71 101/281/71
f 102/288/72 97/287/72 98/286/72 101/285/72
f 103/292/73 100/291/73 99/290/73 104/289/73
o guardanapo
v 0.59375 0.65625 -1.10243
v 0.59375 0.65625 -0.97743
v 0.59375 0.46875 -1.10243
v 0.59375 0.46875 -0.97743
v 1.03125 0.65625 -0.97743
v 1.03125 0.65625 -1.10243
v 1.03125 0.46875 -0.97743
v 1.03125 0.46875 -1.10243
vt 0.04296875 0.703125
vt 0.0703125 0.703125
vt 0.0703125 0.69140625
vt 0.04296875 0.69140625
vt 0.03515625 0.703125
vt 0.04296875 0.703125
vt 0.04296875 0.69140625
vt 0.03515625 0.69140625
vt 0.0078125 0.703125
vt 0.03515625 0.703125
vt 0.03515625 0.69140625
vt 0.0078125 0.69140625
vt 0 0.703125
vt 0.0078125 0.703125
vt 0.0078125 0.69140625
vt 0 0.69140625
vt 0.0078125 0.7109375
vt 0.03515625 0.7109375
vt 0.03515625 0.703125
vt 0.0078125 0.703125
vt 0.03515625 0.7109375
vt 0.0625 0.7109375
vt 0.0625 0.703125
vt 0.03515625 0.703125
vn 1.2246467991473532e-16 0 1
vn -1 0 1.2246467991473532e-16
vn -1.2246467991473532e-16 0 -1
vn 1 0 -1.2246467991473532e-16
vn 0 1 0
vn 0 -1 0
usemtl m_d5d51dca-c1f7-e806-dd8c-30830daa5578
f 108/296/74 111/295/74 109/294/74 106/293/74
f 107/300/75 108/299/75 106/298/75 105/297/75
f 112/304/76 107/303/76 105/302/76 110/301/76
f 111/308/77 112/307/77 110/306/77 109/305/77
f 110/312/78 105/311/78 106/310/78 109/309/78
f 111/316/79 108/315/79 107/314/79 112/313/79
o guardanapob
v 0.5 0.59375 -1.13368
v 0.5 0.59375 -0.94618
v 0.5 0.53125 -1.13368
v 0.5 0.53125 -0.94618
v 1.125 0.59375 -0.94618
v 1.125 0.59375 -1.13368
v 1.125 0.53125 -0.94618
v 1.125 0.53125 -1.13368
vt 0.14453125 0.98828125
vt 0.18359375 0.98828125
vt 0.18359375 0.984375
vt 0.14453125 0.984375
vt 0.1328125 0.98828125
vt 0.14453125 0.98828125
vt 0.14453125 0.984375
vt 0.1328125 0.984375
vt 0.09375 0.98828125
vt 0.1328125 0.98828125
vt 0.1328125 0.984375
vt 0.09375 0.984375
vt 0.08203125 0.98828125
vt 0.09375 0.98828125
vt 0.09375 0.984375
vt 0.08203125 0.984375
vt 0.09375 1
vt 0.1328125 1
vt 0.1328125 0.98828125
vt 0.09375 0.98828125
vt 0.1328125 1
vt 0.171875 1
vt 0.171875 0.98828125
vt 0.1328125 0.98828125
vn 1.2246467991473532e-16 0 1
vn -1 0 1.2246467991473532e-16
vn -1.2246467991473532e-16 0 -1
vn 1 0 -1.2246467991473532e-16
vn 0 1 0
vn 0 -1 0
usemtl m_d5d51dca-c1f7-e806-dd8c-30830daa5578
f 116/320/80 119/319/80 117/318/80 114/317/80
f 115/324/81 116/323/81 114/322/81 113/321/81
f 120/328/82 115/327/82 113/326/82 118/325/82
f 119/332/83 120/331/83 118/330/83 117/329/83
f 118/336/84 113/335/84 114/334/84 117/333/84
f 119/340/85 116/339/85 115/338/85 120/337/85
o manivela1
v -0.625 0.71875 -1.07118
v -0.625 0.71875 -1.00868
v -0.625 0.65625 -1.07118
v -0.625 0.65625 -1.00868
v -0.5 0.71875 -1.00868
v -0.5 0.71875 -1.07118
v -0.5 0.65625 -1.00868
v -0.5 0.65625 -1.07118
vt 0.14453125 0.86328125
vt 0.15234375 0.86328125
vt 0.15234375 0.859375
vt 0.14453125 0.859375
vt 0.140625 0.86328125
vt 0.14453125 0.86328125
vt 0.14453125 0.859375
vt 0.140625 0.859375
vt 0.1328125 0.86328125
vt 0.140625 0.86328125
vt 0.140625 0.859375
vt 0.1328125 0.859375
vt 0.12890625 0.86328125
vt 0.1328125 0.86328125
vt 0.1328125 0.859375
vt 0.12890625 0.859375
vt 0.1328125 0.8671875
vt 0.140625 0.8671875
vt 0.140625 0.86328125
vt 0.1328125 0.86328125
vt 0.140625 0.8671875
vt 0.1484375 0.8671875
vt 0.1484375 0.86328125
vt 0.140625 0.86328125
vn 1.2246467991473532e-16 0 1
vn -1 0 1.2246467991473532e-16
vn -1.2246467991473532e-16 0 -1
vn 1 0 -1.2246467991473532e-16
vn 0 1 0
vn 0 -1 0
usemtl m_d5d51dca-c1f7-e806-dd8c-30830daa5578
f 124/344/86 127/343/86 125/342/86 122/341/86
f 123/348/87 124/347/87 122/346/87 121/345/87
f 128/352/88 123/351/88 121/350/88 126/349/88
f 127/356/89 128/355/89 126/354/89 125/353/89
f 126/360/90 121/359/90 122/358/90 125/357/90
f 127/364/91 124/363/91 123/362/91 128/361/91
o manivela2
v -0.5000000000000001 0.78125 -1.07118
v -0.5 0.78125 -1.00868
v -0.5000000000000001 0.71875 -1.07118
v -0.5 0.71875 -1.00868
v -0.43750000000000006 0.78125 -1.00868
v -0.43750000000000006 0.78125 -1.07118
v -0.43750000000000006 0.71875 -1.00868
v -0.43750000000000006 0.71875 -1.07118
vt 0.09765625 0.96484375
vt 0.1015625 0.96484375
vt 0.1015625 0.9609375
vt 0.09765625 0.9609375
vt 0.09375 0.96484375
vt 0.09765625 0.96484375
vt 0.09765625 0.9609375
vt 0.09375 0.9609375
vt 0.08984375 0.96484375
vt 0.09375 0.96484375
vt 0.09375 0.9609375
vt 0.08984375 0.9609375
vt 0.0859375 0.96484375
vt 0.08984375 0.96484375
vt 0.08984375 0.9609375
vt 0.0859375 0.9609375
vt 0.08984375 0.96875
vt 0.09375 0.96875
vt 0.09375 0.96484375
vt 0.08984375 0.96484375
vt 0.09375 0.96875
vt 0.09765625 0.96875
vt 0.09765625 0.96484375
vt 0.09375 0.96484375
vn 1.2246467991473532e-16 0 1
vn -1 0 1.2246467991473532e-16
vn -1.2246467991473532e-16 0 -1
vn 1 0 -1.2246467991473532e-16
vn 0 1 0
vn 0 -1 0
usemtl m_d5d51dca-c1f7-e806-dd8c-30830daa5578
f 132/368/92 135/367/92 133/366/92 130/365/92
f 131/372/93 132/371/93 130/370/93 129/369/93
f 136/376/94 131/375/94 129/374/94 134/373/94
f 135/380/95 136/379/95 134/378/95 133/377/95
f 134/384/96 129/383/96 130/382/96 133/381/96
f 135/388/97 132/387/97 131/386/97 136/385/97
o panela
v -1.0625 0.96875 -0.97743
v -1.0625 0.96875 -0.78993
v -1.0625 0.53125 -0.97743
v -1.0625 0.53125 -0.78993
v -0.875 0.96875 -0.78993
v -0.875 0.96875 -0.97743
v -0.875 0.53125 -0.78993
v -0.875 0.53125 -0.97743
vt 0.1796875 0.9140625
vt 0.1875 0.9140625
vt 0.1875 0.89453125
vt 0.1796875 0.89453125
vt 0.171875 0.9140625
vt 0.1796875 0.9140625
vt 0.1796875 0.89453125
vt 0.171875 0.89453125
vt 0.1640625 0.9140625
vt 0.171875 0.9140625
vt 0.171875 0.89453125
vt 0.1640625 0.89453125
vt 0.15625 0.9140625
vt 0.1640625 0.9140625
vt 0.1640625 0.89453125
vt 0.15625 0.89453125
vt 0.1640625 0.921875
vt 0.171875 0.921875
vt 0.171875 0.9140625
vt 0.1640625 0.9140625
vt 0.171875 0.921875
vt 0.1796875 0.921875
vt 0.1796875 0.9140625
vt 0.171875 0.9140625
vn 1.2246467991473532e-16 0 1
vn -1 0 1.2246467991473532e-16
vn -1.2246467991473532e-16 0 -1
vn 1 0 -1.2246467991473532e-16
vn 0 1 0
vn 0 -1 0
usemtl m_d5d51dca-c1f7-e806-dd8c-30830daa5578
f 140/392/98 143/391/98 141/390/98 138/389/98
f 139/396/99 140/395/99 138/394/99 137/393/99
f 144/400/100 139/399/100 137/398/100 142/397/100
f 143/404/101 144/403/101 142/402/101 141/401/101
f 142/408/102 137/407/102 138/406/102 141/405/102
f 143/412/103 140/411/103 139/410/103 144/409/103
o head
v -0.25 1.5 -0.35243
v -0.24999999999999992 1.5 0.14756999999999998
v -0.25 1 -0.35243
v -0.24999999999999992 1 0.14756999999999998
v 0.2500000000000001 1.5 0.1475699999999999
v 0.25 1.5 -0.35243000000000013
v 0.2500000000000001 1 0.1475699999999999
v 0.25 1 -0.35243000000000013
vt 0.09375 0.21875
vt 0.125 0.21875
vt 0.125 0.1875
vt 0.09375 0.1875
vt 0.0625 0.21875
vt 0.09375 0.21875
vt 0.09375 0.1875
vt 0.0625 0.1875
vt 0.03125 0.21875
vt 0.0625 0.21875
vt 0.0625 0.1875
vt 0.03125 0.1875
vt 0 0.21875
vt 0.03125 0.21875
vt 0.03125 0.1875
vt 0 0.1875
vt 0.03125 0.25
vt 0.0625 0.25
vt 0.0625 0.21875
vt 0.03125 0.21875
vt 0.0625 0.25
vt 0.09375 0.25
vt 0.09375 0.21875
vt 0.0625 0.21875
vn 1.2246467991473532e-16 0 1
vn -1 0 1.2246467991473532e-16
vn -1.2246467991473532e-16 0 -1
vn 1 0 -1.2246467991473532e-16
vn 0 1 0
vn 0 -1 0
usemtl m_d5d51dca-c1f7-e806-dd8c-30830daa5578
f 148/416/104 151/415/104 149/414/104 146/413/104
f 147/420/105 148/419/105 146/418/105 145/417/105
f 152/424/106 147/423/106 145/422/106 150/421/106
f 151/428/107 152/427/107 150/426/107 149/425/107
f 150/432/108 145/431/108 146/430/108 149/429/108
f 151/436/109 148/435/109 147/434/109 152/433/109
o arml
v -0.45631562499999995 1.0462382657465996 -0.05852719434823141
v -0.4563156249999999 0.8310971943482314 0.06880826574659947
v -0.456315625 0.6642318854621069 -0.7039504085433357
v -0.456315625 0.44909081406373874 -0.5766149484485048
v -0.2688156249999999 0.8310971943482314 0.06880826574659944
v -0.26881562499999995 1.0462382657465996 -0.058527194348231434
v -0.268815625 0.44909081406373874 -0.5766149484485048
v -0.268815625 0.6642318854621069 -0.7039504085433357
vt 0.18359375 0.171875
vt 0.171875 0.171875
vt 0.171875 0.125
vt 0.18359375 0.125
vt 0.19921875 0.171875
vt 0.18359375 0.171875
vt 0.18359375 0.125
vt 0.19921875 0.125
vt 0.2109375 0.171875
vt 0.19921875 0.171875
vt 0.19921875 0.125
vt 0.2109375 0.125
vt 0.171875 0.171875
vt 0.15625 0.171875
vt 0.15625 0.125
vt 0.171875 0.125
vt 0.171875 0.171875
vt 0.18359375 0.171875
vt 0.18359375 0.1875
vt 0.171875 0.1875
vt 0.18359375 0.1875
vt 0.1953125 0.1875
vt 0.1953125 0.171875
vt 0.18359375 0.171875
vn 6.237638544923606e-17 -0.8605642855934724 0.5093418403793235
vn -1 0 1.2246467991473532e-16
vn -6.237638544923606e-17 0.8605642855934724 -0.5093418403793235
vn 1 0 -1.2246467991473532e-16
vn 1.0538872978125747e-16 0.5093418403793235 0.8605642855934724
vn -1.0538872978125747e-16 -0.5093418403793235 -0.8605642855934724
usemtl m_d5d51dca-c1f7-e806-dd8c-30830daa5578
f 156/440/110 159/439/110 157/438/110 154/437/110
f 155/444/111 156/443/111 154/442/111 153/441/111
f 160/448/112 155/447/112 153/446/112 158/445/112
f 159/452/113 160/451/113 158/450/113 157/449/113
f 158/456/114 153/455/114 154/454/114 157/453/114
f 159/460/115 156/459/115 155/458/115 160/457/115
o armR
v 0.23118437500000005 1.0462382657465996 -0.05852719434823149
v 0.23118437500000008 0.8310971943482314 0.06880826574659939
v 0.23118437499999997 0.6642318854621069 -0.7039504085433358
v 0.231184375 0.44909081406373874 -0.5766149484485049
v 0.4186843750000001 0.8310971943482314 0.06880826574659936
v 0.41868437500000005 1.0462382657465996 -0.05852719434823152
v 0.418684375 0.44909081406373874 -0.5766149484485049
v 0.418684375 0.6642318854621069 -0.7039504085433358
vt 0.18359375 0.171875
vt 0.171875 0.171875
vt 0.171875 0.125
vt 0.18359375 0.125
vt 0.19921875 0.171875
vt 0.18359375 0.171875
vt 0.18359375 0.125
vt 0.19921875 0.125
vt 0.2109375 0.171875
vt 0.19921875 0.171875
vt 0.19921875 0.125
vt 0.2109375 0.125
vt 0.171875 0.171875
vt 0.15625 0.171875
vt 0.15625 0.125
vt 0.171875 0.125
vt 0.171875 0.171875
vt 0.18359375 0.171875
vt 0.18359375 0.1875
vt 0.171875 0.1875
vt 0.18359375 0.1875
vt 0.1953125 0.1875
vt 0.1953125 0.171875
vt 0.18359375 0.171875
vn 6.237638544923606e-17 -0.8605642855934724 0.5093418403793235
vn -1 0 1.2246467991473532e-16
vn -6.237638544923606e-17 0.8605642855934724 -0.5093418403793235
vn 1 0 -1.2246467991473532e-16
vn 1.0538872978125747e-16 0.5093418403793235 0.8605642855934724
vn -1.0538872978125747e-16 -0.5093418403793235 -0.8605642855934724
usemtl m_d5d51dca-c1f7-e806-dd8c-30830daa5578
f 164/464/116 167/463/116 165/462/116 162/461/116
f 163/468/117 164/467/117 162/466/117 161/465/117
f 168/472/118 163/471/118 161/470/118 166/469/118
f 167/476/119 168/475/119 166/474/119 165/473/119
f 166/480/120 161/479/120 162/478/120 165/477/120
f 167/484/121 164/483/121 163/482/121 168/481/121
o body
v 0.2500000000000001 1 0.022569999999999868
v 0.25 1 -0.22743000000000013
v 0.2500000000000001 0.25 0.022569999999999868
v 0.25 0.25 -0.22743000000000013
v -0.25 1 -0.22743000000000002
v -0.24999999999999992 1 0.02256999999999998
v -0.25 0.25 -0.22743000000000002
v -0.24999999999999992 0.25 0.02256999999999998
vt 0.109375 0.171875
vt 0.078125 0.171875
vt 0.078125 0.125
vt 0.109375 0.125
vt 0.125 0.171875
vt 0.109375 0.171875
vt 0.109375 0.125
vt 0.125 0.125
vt 0.15625 0.171875
vt 0.125 0.171875
vt 0.125 0.125
vt 0.15625 0.125
vt 0.078125 0.171875
vt 0.0625 0.171875
vt 0.0625 0.125
vt 0.078125 0.125
vt 0.078125 0.171875
vt 0.109375 0.171875
vt 0.109375 0.1875
vt 0.078125 0.1875
vt 0.109375 0.1875
vt 0.140625 0.1875
vt 0.140625 0.171875
vt 0.109375 0.171875
vn -2.4492935982947064e-16 0 -1
vn 1 0 -2.4492935982947064e-16
vn 2.4492935982947064e-16 0 1
vn -1 0 2.4492935982947064e-16
vn 0 1 0
vn 0 -1 0
usemtl m_d5d51dca-c1f7-e806-dd8c-30830daa5578
f 172/488/122 175/487/122 173/486/122 170/485/122
f 171/492/123 172/491/123 170/490/123 169/489/123
f 176/496/124 171/495/124 169/494/124 174/493/124
f 175/500/125 176/499/125 174/498/125 173/497/125
f 174/504/126 169/503/126 170/502/126 173/501/126
f 175/508/127 172/507/127 171/506/127 176/505/127
o perna2
v -0.0031906249999999192 0.25 0.02256999999999991
v -0.0031906249999999747 0.25 -0.22743000000000008
v -0.0031906249999999192 -0.5 0.02256999999999991
v -0.0031906249999999747 -0.5 -0.22743000000000008
v -0.253190625 0.25 -0.22743000000000002
v -0.2531906249999999 0.25 0.022569999999999965
v -0.253190625 -0.5 -0.22743000000000002
v -0.2531906249999999 -0.5 0.022569999999999965
vt 0.03125 0.171875
vt 0.015625 0.171875
vt 0.015625 0.125
vt 0.03125 0.125
vt 0.046875 0.171875
vt 0.03125 0.171875
vt 0.03125 0.125
vt 0.046875 0.125
vt 0.0625 0.171875
vt 0.046875 0.171875
vt 0.046875 0.125
vt 0.0625 0.125
vt 0.015625 0.171875
vt 0 0.171875
vt 0 0.125
vt 0.015625 0.125
vt 0.015625 0.171875
vt 0.03125 0.171875
vt 0.03125 0.1875
vt 0.015625 0.1875
vt 0.03125 0.1875
vt 0.046875 0.1875
vt 0.046875 0.171875
vt 0.03125 0.171875
vn -2.4492935982947064e-16 0 -1
vn 1 0 -2.4492935982947064e-16
vn 2.4492935982947064e-16 0 1
vn -1 0 2.4492935982947064e-16
vn 0 1 0
vn 0 -1 0
usemtl m_d5d51dca-c1f7-e806-dd8c-30830daa5578
f 180/512/128 183/511/128 181/510/128 178/509/128
f 179/516/129 180/515/129 178/514/129 177/513/129
f 184/520/130 179/519/130 177/518/130 182/517/130
f 183/524/131 184/523/131 182/522/131 181/521/131
f 182/528/132 177/527/132 178/526/132 181/525/132
f 183/532/133 180/531/133 179/530/133 184/529/133
o perna1
v 0.24680937500000008 0.25 0.022569999999999882
v 0.24680937500000003 0.25 -0.22743000000000013
v 0.24680937500000008 -0.5 0.022569999999999882
v 0.24680937500000003 -0.5 -0.22743000000000013
v -0.0031906249999999747 0.25 -0.22743000000000008
v -0.0031906249999999192 0.25 0.022569999999999937
v -0.0031906249999999747 -0.5 -0.22743000000000008
v -0.0031906249999999192 -0.5 0.022569999999999937
vt 0.03125 0.171875
vt 0.015625 0.171875
vt 0.015625 0.125
vt 0.03125 0.125
vt 0.046875 0.171875
vt 0.03125 0.171875
vt 0.03125 0.125
vt 0.046875 0.125
vt 0.0625 0.171875
vt 0.046875 0.171875
vt 0.046875 0.125
vt 0.0625 0.125
vt 0.015625 0.171875
vt 0 0.171875
vt 0 0.125
vt 0.015625 0.125
vt 0.015625 0.171875
vt 0.03125 0.171875
vt 0.03125 0.1875
vt 0.015625 0.1875
vt 0.03125 0.1875
vt 0.046875 0.1875
vt 0.046875 0.171875
vt 0.03125 0.171875
vn -2.4492935982947064e-16 0 -1
vn 1 0 -2.4492935982947064e-16
vn 2.4492935982947064e-16 0 1
vn -1 0 2.4492935982947064e-16
vn 0 1 0
vn 0 -1 0
usemtl m_d5d51dca-c1f7-e806-dd8c-30830daa5578
f 188/536/134 191/535/134 189/534/134 186/533/134
f 187/540/135 188/539/135 186/538/135 185/537/135
f 192/544/136 187/543/136 185/542/136 190/541/136
f 191/548/137 192/547/137 190/546/137 189/545/137
f 190/552/138 185/551/138 186/550/138 189/549/138
f 191/556/139 188/555/139 187/554/139 192/553/139