# Made in Blockbench 5.0.7
mtllib botijão_capinha.mtl

o cube
v -0.28781249999999997 0.28562500000000013 -0.27327986032617757
v -0.28781249999999986 0.285625 0.32047013967382243
v -0.2878125000000001 -0.37062499999999987 -0.2732798603261776
v -0.28781249999999997 -0.370625 0.3204701396738224
v 0.30593750000000014 0.2856249999999999 0.3204701396738224
v 0.30593750000000003 0.285625 -0.2732798603261776
v 0.30593750000000003 -0.3706250000000001 0.3204701396738223
v 0.3059374999999999 -0.370625 -0.2732798603261777
vt 0.15625 0.640625
vt 0.296875 0.640625
vt 0.296875 0.484375
vt 0.15625 0.484375
vt 0.15625 0.640625
vt 0.296875 0.640625
vt 0.296875 0.484375
vt 0.15625 0.484375
vt 0.015625 0.640625
vt 0.15625 0.640625
vt 0.15625 0.484375
vt 0.015625 0.484375
vt 0.171875 0.96875
vt 0.3125 0.96875
vt 0.3125 0.828125
vt 0.171875 0.828125
vt 0.3125 0.828125
vt 0.171875 0.828125
vt 0.171875 0.96875
vt 0.3125 0.96875
vt 0.15625 0.96875
vt 0.015625 0.96875
vt 0.015625 0.828125
vt 0.15625 0.828125
vn 1.224646799147353e-16 -1.2246467991473535e-16 1
vn -1 1.224646799147353e-16 1.2246467991473535e-16
vn -1.224646799147353e-16 1.2246467991473535e-16 -1
vn 1 -1.224646799147353e-16 -1.2246467991473535e-16
vn 1.2246467991473535e-16 1 1.224646799147353e-16
vn -1.2246467991473535e-16 -1 -1.224646799147353e-16
usemtl m_e15af349-545f-22a6-26f3-96348d6a8ef4
f 4/4/1 7/3/1 5/2/1 2/1/1
f 3/8/2 4/7/2 2/6/2 1/5/2
f 8/12/3 3/11/3 1/10/3 6/9/3
f 7/16/4 8/15/4 6/14/4 5/13/4
f 6/20/5 1/19/5 2/18/5 5/17/5
f 7/24/6 4/23/6 3/22/6 8/21/6
o cube
v -0.04028743531310092 0.5635148739878109 0.09359415762881187
v 0.022212564686899076 0.5635148742214207 0.09359415825962462
v -0.040287435546710736 0.5160904970832025 0.13430261467657595
v 0.022212564453289257 0.5160904973168123 0.13430261530738868
v 0.022212565948524568 0.48209796012589257 -0.0012545955495920497
v -0.040287434051475425 0.48209795989228277 -0.001254596180404799
v 0.02221256571491475 0.43467358322128424 0.03945386149817201
v -0.040287434285085244 0.43467358298767445 0.03945386086735926
vt 0.546875 0.859375
vt 0.578125 0.859375
vt 0.578125 0.84375
vt 0.546875 0.84375
vt 0.53125 0.859375
vt 0.546875 0.859375
vt 0.546875 0.84375
vt 0.53125 0.84375
vt 0.578125 0.859375
vt 0.546875 0.859375
vt 0.546875 0.84375
vt 0.578125 0.84375
vt 0.53125 0.859375
vt 0.546875 0.859375
vt 0.546875 0.84375
vt 0.53125 0.84375
vt 0.578125 0.84375
vt 0.546875 0.84375
vt 0.546875 0.859375
vt 0.578125 0.859375
vt 0.578125 0.859375
vt 0.546875 0.859375
vt 0.546875 0.84375
vt 0.578125 0.84375
vn 1 3.737757032471703e-9 1.0093003957762433e-8
vn -1.0093003907536568e-8 0.651335312764225 0.7587900304737335
vn -1 -3.737757032471703e-9 -1.0093003957762433e-8
vn 1.0093003907536568e-8 -0.651335312764225 -0.7587900304737335
vn 3.737757168095794e-9 0.7587900304737336 -0.651335312764225
vn -3.737757168095794e-9 -0.7587900304737336 0.651335312764225
usemtl m_e15af349-545f-22a6-26f3-96348d6a8ef4
f 12/28/7 15/27/7 13/26/7 10/25/7
f 11/32/8 12/31/8 10/30/8 9/29/8
f 16/36/9 11/35/9 9/34/9 14/33/9
f 15/40/10 16/39/10 14/38/10 13/37/10
f 14/44/11 9/43/11 10/42/11 13/41/11
f 15/48/12 12/47/12 11/46/12 16/45/12
o cube
v -0.04043460952276135 0.563514875210628 0.6560941277071175
v 0.02206538833795479 0.563514875210628 0.656110480397357
v -0.04043460952276136 0.501014875210628 0.6560941277071175
v 0.022065388337954784 0.501014875210628 0.656110480397357
v 0.022212562550110424 0.563514875210628 0.09361049965091173
v -0.04028743531060572 0.563514875210628 0.09359414696067225
v 0.022212562550110417 0.501014875210628 0.09361049965091173
v -0.040287435310605725 0.501014875210628 0.09359414696067225
vt 0.546875 0.84375
vt 0.6875 0.84375
vt 0.6875 0.828125
vt 0.546875 0.828125
vt 0.53125 0.84375
vt 0.546875 0.84375
vt 0.546875 0.828125
vt 0.53125 0.828125
vt 0.6875 0.84375
vt 0.546875 0.84375
vt 0.546875 0.828125
vt 0.6875 0.828125
vt 0.53125 0.859375
vt 0.546875 0.859375
vt 0.546875 0.84375
vt 0.53125 0.84375
vt 0.6875 0.828125
vt 0.546875 0.828125
vt 0.546875 0.84375
vt 0.6875 0.84375
vt 0.6875 0.84375
vt 0.546875 0.84375
vt 0.546875 0.828125
vt 0.6875 0.828125
vn 0.9999999657714582 -1.2249671775456272e-16 0.0002616430438322378
vn -0.0002616430438322378 -1.2243263369133307e-16 0.9999999657714582
vn -0.9999999657714582 1.2249671775456272e-16 -0.0002616430438322378
vn 0.0002616430438322378 1.2243263369133307e-16 -0.9999999657714582
vn 1.2246467991473532e-16 1 1.224646799147353e-16
vn -1.2246467991473532e-16 -1 -1.224646799147353e-16
usemtl m_e15af349-545f-22a6-26f3-96348d6a8ef4
f 20/52/13 23/51/13 21/50/13 18/49/13
f 19/56/14 20/55/14 18/54/14 17/53/14
f 24/60/15 19/59/15 17/58/15 22/57/15
f 23/64/16 24/63/16 22/62/16 21/61/16
f 22/68/17 17/67/17 18/66/17 21/65/17
f 23/72/18 20/71/18 19/70/18 24/69/18
o cube
v -0.27218749999999997 0.27000000000000013 -0.25765486032617757
v -0.27218749999999986 0.27 0.30484513967382243
v -0.2721875000000001 -0.35499999999999987 -0.2576548603261776
v -0.27218749999999997 -0.355 0.3048451396738224
v 0.29031250000000014 0.2699999999999999 0.3048451396738224
v 0.29031250000000003 0.27 -0.2576548603261776
v 0.29031250000000003 -0.3550000000000001 0.3048451396738223
v 0.2903124999999999 -0.355 -0.2576548603261777
vt 0.015625 0.828125
vt 0.15625 0.828125
vt 0.15625 0.671875
vt 0.015625 0.671875
vt 0.015625 0.828125
vt 0.15625 0.828125
vt 0.15625 0.671875
vt 0.015625 0.671875
vt 0.015625 0.828125
vt 0.15625 0.828125
vt 0.15625 0.671875
vt 0.015625 0.671875
vt 0.015625 0.828125
vt 0.15625 0.828125
vt 0.15625 0.671875
vt 0.015625 0.671875
vt 0.15625 0.828125
vt 0.015625 0.828125
vt 0.015625 0.96875
vt 0.15625 0.96875
vt 0.15625 0.96875
vt 0.015625 0.96875
vt 0.015625 0.828125
vt 0.15625 0.828125
vn 1.224646799147353e-16 -1.2246467991473535e-16 1
vn -1 1.224646799147353e-16 1.2246467991473535e-16
vn -1.224646799147353e-16 1.2246467991473535e-16 -1
vn 1 -1.224646799147353e-16 -1.2246467991473535e-16
vn 1.2246467991473535e-16 1 1.224646799147353e-16
vn -1.2246467991473535e-16 -1 -1.224646799147353e-16
usemtl m_e15af349-545f-22a6-26f3-96348d6a8ef4
f 28/76/19 31/75/19 29/74/19 26/73/19
f 27/80/20 28/79/20 26/78/20 25/77/20
f 32/84/21 27/83/21 25/82/21 30/81/21
f 31/88/22 32/87/22 30/86/22 29/85/22
f 30/92/23 25/91/23 26/90/23 29/89/23
f 31/96/24 28/95/24 27/94/24 32/93/24
o cube
v -0.2878750000000001 -0.3393124999999999 -0.27334236032617765
v -0.287875 -0.3393125 0.3205326396738224
v -0.2878750000000001 -0.49568749999999984 -0.27334236032617765
v -0.287875 -0.49568749999999995 0.3205326396738224
v 0.30600000000000005 -0.33931250000000013 0.32053263967382234
v 0.30599999999999994 -0.3393125 -0.2733423603261777
v 0.30600000000000005 -0.49568750000000006 0.3205326396738223
v 0.30599999999999994 -0.49568749999999995 -0.27334236032617776
vt 0.015625 0.46875
vt 0.15625 0.46875
vt 0.15625 0.4375
vt 0.015625 0.4375
vt 0.015625 0.46875
vt 0.15625 0.46875
vt 0.15625 0.4375
vt 0.015625 0.4375
vt 0.015625 0.46875
vt 0.15625 0.46875
vt 0.15625 0.4375
vt 0.015625 0.4375
vt 0.015625 0.46875
vt 0.15625 0.46875
vt 0.15625 0.4375
vt 0.015625 0.4375
vt 0.15625 0.828125
vt 0.015625 0.828125
vt 0.015625 0.96875
vt 0.15625 0.96875
vt 0.46875 0.984375
vt 0.328125 0.984375
vt 0.328125 0.84375
vt 0.46875 0.84375
vn 1.224646799147353e-16 -1.2246467991473535e-16 1
vn -1 1.224646799147353e-16 1.2246467991473535e-16
vn -1.224646799147353e-16 1.2246467991473535e-16 -1
vn 1 -1.224646799147353e-16 -1.2246467991473535e-16
vn 1.2246467991473535e-16 1 1.224646799147353e-16
vn -1.2246467991473535e-16 -1 -1.224646799147353e-16
usemtl m_e15af349-545f-22a6-26f3-96348d6a8ef4
f 36/100/25 39/99/25 37/98/25 34/97/25
f 35/104/26 36/103/26 34/102/26 33/101/26
f 40/108/27 35/107/27 33/106/27 38/105/27
f 39/112/28 40/111/28 38/110/28 37/109/28
f 38/116/29 33/115/29 34/114/29 37/113/29
f 39/120/30 36/119/30 35/118/30 40/117/30
o cube
v -0.22943749999999968 0.41068750000000004 -0.20255694130471028
v -0.22943749999999963 0.4106875 0.26631805869528974
v -0.2294374999999997 0.2543125000000001 -0.20255694130471028
v -0.22943749999999966 0.25431250000000005 0.2663180586952897
v 0.23943750000000033 0.4106874999999999 0.2663180586952897
v 0.23943750000000028 0.4106875 -0.20255694130471033
v 0.23943750000000033 0.2543125 0.2663180586952897
v 0.23943750000000028 0.25431250000000005 -0.20255694130471033
vt 0.015625 0.4375
vt 0.125 0.4375
vt 0.125 0.46875
vt 0.015625 0.46875
vt 0.015625 0.4375
vt 0.125 0.4375
vt 0.125 0.46875
vt 0.015625 0.46875
vt 0.015625 0.4375
vt 0.125 0.4375
vt 0.125 0.46875
vt 0.015625 0.46875
vt 0.015625 0.4375
vt 0.125 0.4375
vt 0.125 0.46875
vt 0.015625 0.46875
vt 0.46875 0.84375
vt 0.328125 0.84375
vt 0.328125 0.984375
vt 0.46875 0.984375
vt 0.46875 0.984375
vt 0.328125 0.984375
vt 0.328125 0.84375
vt 0.46875 0.84375
vn 1.224646799147353e-16 -1.2246467991473535e-16 1
vn -1 1.224646799147353e-16 1.2246467991473535e-16
vn -1.224646799147353e-16 1.2246467991473535e-16 -1
vn 1 -1.224646799147353e-16 -1.2246467991473535e-16
vn 1.2246467991473535e-16 1 1.224646799147353e-16
vn -1.2246467991473535e-16 -1 -1.224646799147353e-16
usemtl m_e15af349-545f-22a6-26f3-96348d6a8ef4
f 44/124/31 47/123/31 45/122/31 42/121/31
f 43/128/32 44/127/32 42/126/32 41/125/32
f 48/132/33 43/131/33 41/130/33 46/129/33
f 47/136/34 48/135/34 46/134/34 45/133/34
f 46/140/35 41/139/35 42/138/35 45/137/35
f 47/144/36 44/143/36 43/142/36 48/141/36
o cube
v -0.18812500000000018 -0.35937499999999994 -0.1590597206523556
v -0.18812500000000013 -0.359375 0.2159402793476444
v -0.18812500000000018 -0.48437499999999994 -0.15905972065235563
v -0.18812500000000013 -0.484375 0.21594027934764437
v 0.18687499999999976 -0.35937500000000006 0.21594027934764434
v 0.1868749999999997 -0.359375 -0.15905972065235566
v 0.18687499999999976 -0.48437500000000006 0.21594027934764434
v 0.1868749999999997 -0.484375 -0.15905972065235566
vt 0.40625 0.65625
vt 0.5 0.65625
vt 0.5 0.625
vt 0.40625 0.625
vt 0.40625 0.65625
vt 0.5 0.65625
vt 0.5 0.625
vt 0.40625 0.625
vt 0.40625 0.65625
vt 0.5 0.65625
vt 0.5 0.625
vt 0.40625 0.625
vt 0.40625 0.65625
vt 0.5 0.65625
vt 0.5 0.625
vt 0.40625 0.625
vt 0.5 0.65625
vt 0.40625 0.65625
vt 0.40625 0.75
vt 0.5 0.75
vt 0.5 0.75
vt 0.40625 0.75
vt 0.40625 0.65625
vt 0.5 0.65625
vn 1.224646799147353e-16 -1.2246467991473535e-16 1
vn -1 1.224646799147353e-16 1.2246467991473535e-16
vn -1.224646799147353e-16 1.2246467991473535e-16 -1
vn 1 -1.224646799147353e-16 -1.2246467991473535e-16
vn 1.2246467991473535e-16 1 1.224646799147353e-16
vn -1.2246467991473535e-16 -1 -1.224646799147353e-16
usemtl m_e15af349-545f-22a6-26f3-96348d6a8ef4
f 52/148/37 55/147/37 53/146/37 50/145/37
f 51/152/38 52/151/38 50/150/38 49/149/38
f 56/156/39 51/155/39 49/154/39 54/153/39
f 55/160/40 56/159/40 54/158/40 53/157/40
f 54/164/41 49/163/41 50/162/41 53/161/41
f 55/168/42 52/167/42 51/166/42 56/165/42
o cube
v -0.188125 0.38875 -0.1590597206523554
v -0.18812499999999993 0.38874999999999993 0.2159402793476446
v -0.188125 0.26375 -0.1590597206523554
v -0.18812499999999993 0.26374999999999993 0.2159402793476446
v 0.18687499999999996 0.3887499999999999 0.21594027934764454
v 0.1868749999999999 0.38874999999999993 -0.15905972065235546
v 0.18687499999999996 0.2637499999999999 0.21594027934764454
v 0.1868749999999999 0.26374999999999993 -0.15905972065235546
vt 0.25 0.671875
vt 0.34375 0.671875
vt 0.34375 0.640625
vt 0.25 0.640625
vt 0.25 0.671875
vt 0.34375 0.671875
vt 0.34375 0.640625
vt 0.25 0.640625
vt 0.25 0.671875
vt 0.34375 0.671875
vt 0.34375 0.640625
vt 0.25 0.640625
vt 0.25 0.671875
vt 0.34375 0.671875
vt 0.34375 0.640625
vt 0.25 0.640625
vt 0.34375 0.671875
vt 0.25 0.671875
vt 0.25 0.765625
vt 0.34375 0.765625
vt 0.34375 0.765625
vt 0.25 0.765625
vt 0.25 0.671875
vt 0.34375 0.671875
vn 1.224646799147353e-16 -1.2246467991473535e-16 1
vn -1 1.224646799147353e-16 1.2246467991473535e-16
vn -1.224646799147353e-16 1.2246467991473535e-16 -1
vn 1 -1.224646799147353e-16 -1.2246467991473535e-16
vn 1.2246467991473535e-16 1 1.224646799147353e-16
vn -1.2246467991473535e-16 -1 -1.224646799147353e-16
usemtl m_e15af349-545f-22a6-26f3-96348d6a8ef4
f 60/172/43 63/171/43 61/170/43 58/169/43
f 59/176/44 60/175/44 58/174/44 57/173/44
f 64/180/45 59/179/45 57/178/45 62/177/45
f 63/184/46 64/183/46 62/182/46 61/181/46
f 62/188/47 57/187/47 58/186/47 61/185/47
f 63/192/48 60/191/48 59/190/48 64/189/48
o cube
v -0.061562499999999964 0.43000000000000016 -0.01015486032617774
v -0.061562499999999964 0.43000000000000016 0.05234513967382226
v -0.06156249999999999 0.30500000000000016 -0.010154860326177753
v -0.06156249999999999 0.30500000000000016 0.05234513967382225
v 0.06343750000000004 0.43000000000000016 0.05234513967382225
v 0.06343750000000002 0.43000000000000016 -0.010154860326177753
v 0.06343750000000002 0.30500000000000016 0.05234513967382223
v 0.06343750000000001 0.30500000000000016 -0.010154860326177767
vt 0.5625 0.921875
vt 0.59375 0.921875
vt 0.59375 0.890625
vt 0.5625 0.890625
vt 0.546875 0.921875
vt 0.5625 0.921875
vt 0.5625 0.890625
vt 0.546875 0.890625
vt 0.5625 0.921875
vt 0.59375 0.921875
vt 0.59375 0.890625
vt 0.5625 0.890625
vt 0.546875 0.921875
vt 0.5625 0.921875
vt 0.5625 0.890625
vt 0.546875 0.890625
vt 0.578125 0.875
vt 0.546875 0.875
vt 0.546875 0.890625
vt 0.578125 0.890625
vt 0.578125 0.890625
vt 0.546875 0.890625
vt 0.546875 0.875
vt 0.578125 0.875
vn 1.224646799147353e-16 -1.2246467991473535e-16 1
vn -1 1.224646799147353e-16 1.2246467991473535e-16
vn -1.224646799147353e-16 1.2246467991473535e-16 -1
vn 1 -1.224646799147353e-16 -1.2246467991473535e-16
vn 1.2246467991473535e-16 1 1.224646799147353e-16
vn -1.2246467991473535e-16 -1 -1.224646799147353e-16
usemtl m_e15af349-545f-22a6-26f3-96348d6a8ef4
f 68/196/49 71/195/49 69/194/49 66/193/49
f 67/200/50 68/199/50 66/198/50 65/197/50
f 72/204/51 67/203/51 65/202/51 70/201/51
f 71/208/52 72/207/52 70/206/52 69/205/52
f 70/212/53 65/211/53 66/210/53 69/209/53
f 71/216/54 68/215/54 67/214/54 72/213/54
o cube
v -0.04031249999999997 0.48249999999999993 -0.008092360326177654
v -0.04031249999999997 0.48249999999999993 0.054407639673822346
v -0.0403125 0.29499999999999993 -0.008092360326177682
v -0.04031249999999999 0.29499999999999993 0.054407639673822325
v 0.022187500000000034 0.48249999999999993 0.05440763967382234
v 0.022187500000000027 0.48249999999999993 -0.008092360326177661
v 0.02218750000000001 0.29499999999999993 0.05440763967382231
v 0.022187500000000002 0.29499999999999993 -0.008092360326177689
vt 0.359375 0.8125
vt 0.375 0.8125
vt 0.375 0.765625
vt 0.359375 0.765625
vt 0.359375 0.8125
vt 0.375 0.8125
vt 0.375 0.765625
vt 0.359375 0.765625
vt 0.359375 0.8125
vt 0.375 0.8125
vt 0.375 0.765625
vt 0.359375 0.765625
vt 0.359375 0.8125
vt 0.375 0.8125
vt 0.375 0.765625
vt 0.359375 0.765625
vt 0.375 0.8125
vt 0.359375 0.8125
vt 0.359375 0.828125
vt 0.375 0.828125
vt 0.390625 0.828125
vt 0.375 0.828125
vt 0.375 0.8125
vt 0.390625 0.8125
vn 1.224646799147353e-16 -1.2246467991473535e-16 1
vn -1 1.224646799147353e-16 1.2246467991473535e-16
vn -1.224646799147353e-16 1.2246467991473535e-16 -1
vn 1 -1.224646799147353e-16 -1.2246467991473535e-16
vn 1.2246467991473535e-16 1 1.224646799147353e-16
vn -1.2246467991473535e-16 -1 -1.224646799147353e-16
usemtl m_e15af349-545f-22a6-26f3-96348d6a8ef4
f 76/220/55 79/219/55 77/218/55 74/217/55
f 75/224/56 76/223/56 74/222/56 73/221/56
f 80/228/57 75/227/57 73/226/57 78/225/57
f 79/232/58 80/231/58 78/230/58 77/229/58
f 78/236/59 73/235/59 74/234/59 77/233/59
f 79/240/60 76/239/60 75/238/60 80/237/60