# Made in Blockbench 5.0.7
mtllib cadeira.mtl

o Block
v -0.37499999999999994 0.5 0.18750000000000006
v -0.37499999999999994 0.5 0.31250000000000006
v -0.37499999999999994 0 0.18750000000000006
v -0.37499999999999994 0 0.31250000000000006
v 0.37500000000000006 0.5 0.31249999999999994
v 0.37500000000000006 0.5 0.18749999999999994
v 0.37500000000000006 0 0.31249999999999994
v 0.37500000000000006 0 0.18749999999999994
vt 0.15625 0.4375
vt 0.34375 0.4375
vt 0.34375 0.1875
vt 0.15625 0.1875
vt 0.171875 0.4375
vt 0.203125 0.4375
vt 0.203125 0.1875
vt 0.171875 0.1875
vt 0.015625 0.4375
vt 0.203125 0.4375
vt 0.203125 0.1875
vt 0.015625 0.1875
vt 0.0625 0.4375
vt 0.09375 0.4375
vt 0.09375 0.1875
vt 0.0625 0.1875
vt 0 0.375
vt 0.1875 0.375
vt 0.1875 0.3125
vt 0 0.3125
vt 0.171875 0.46875
vt 0.359375 0.46875
vt 0.359375 0.40625
vt 0.171875 0.40625
vn 1.2246467991473532e-16 0 1
vn -1 0 1.2246467991473532e-16
vn -1.2246467991473532e-16 0 -1
vn 1 0 -1.2246467991473532e-16
vn 0 1 0
vn 0 -1 0
usemtl m_fdc50c5f-83e9-10e3-70af-3ba2b5ab33bb
f 4/4/1 7/3/1 5/2/1 2/1/1
f 3/8/2 4/7/2 2/6/2 1/5/2
f 8/12/3 3/11/3 1/10/3 6/9/3
f 7/16/4 8/15/4 6/14/4 5/13/4
f 6/20/5 1/19/5 2/18/5 5/17/5
f 7/24/6 4/23/6 3/22/6 8/21/6
o Block1
v -0.37500000000000006 0 -0.31249999999999994
v -0.37499999999999994 0 0.31250000000000006
v -0.37500000000000006 -0.5 -0.31249999999999994
v -0.37499999999999994 -0.5 0.31250000000000006
v 0.37500000000000006 0 0.31249999999999994
v 0.37499999999999994 0 -0.31250000000000006
v 0.37500000000000006 -0.5 0.31249999999999994
v 0.37499999999999994 -0.5 -0.31250000000000006
vt 0.34375 0.6875
vt 0.15625 0.6875
vt 0.15625 0.4375
vt 0.34375 0.4375
vt 0.5 0.6875
vt 0.34375 0.6875
vt 0.34375 0.4375
vt 0.5 0.4375
vt 0.6875 0.6875
vt 0.5 0.6875
vt 0.5 0.4375
vt 0.6875 0.4375
vt 0.15625 0.6875
vt 0 0.6875
vt 0 0.4375
vt 0.15625 0.4375
vt 0.15625 0.6875
vt 0.34375 0.6875
vt 0.34375 1
vt 0.15625 1
vt 0.34375 1
vt 0.53125 1
vt 0.53125 0.6875
vt 0.34375 0.6875
vn 1.2246467991473532e-16 0 1
vn -1 0 1.2246467991473532e-16
vn -1.2246467991473532e-16 0 -1
vn 1 0 -1.2246467991473532e-16
vn 0 1 0
vn 0 -1 0
usemtl m_fdc50c5f-83e9-10e3-70af-3ba2b5ab33bb
f 12/28/7 15/27/7 13/26/7 10/25/7
f 11/32/8 12/31/8 10/30/8 9/29/8
f 16/36/9 11/35/9 9/34/9 14/33/9
f 15/40/10 16/39/10 14/38/10 13/37/10
f 14/44/11 9/43/11 10/42/11 13/41/11
f 15/48/12 12/47/12 11/46/12 16/45/12