# Made in Blockbench 5.0.7
mtllib cadeira_praia.mtl

o assento1
v -0.37500000000000006 0.03125000000000007 -0.29687499999999994
v -0.37500000000000006 0.15625000000000006 -0.29687499999999994
v -0.37499999999999994 0.03124999999999993 0.32812500000000006
v -0.37499999999999994 0.15624999999999992 0.32812500000000006
v 0.37499999999999994 0.15625000000000006 -0.29687500000000006
v 0.37499999999999994 0.03125000000000007 -0.29687500000000006
v 0.37500000000000006 0.15624999999999992 0.32812499999999994
v 0.37500000000000006 0.03124999999999993 0.32812499999999994
vt 0.453125 0.984375
vt 0.640625 0.984375
vt 0.640625 0.828125
vt 0.453125 0.828125
vt 0.4375 0.984375
vt 0.46875 0.984375
vt 0.46875 0.828125
vt 0.4375 0.828125
vt 0.65625 0.984375
vt 0.84375 0.984375
vt 0.84375 0.828125
vt 0.65625 0.828125
vt 0.640625 0.984375
vt 0.671875 0.984375
vt 0.671875 0.828125
vt 0.640625 0.828125
vt 0.640625 0.96875
vt 0.453125 0.96875
vt 0.453125 1
vt 0.640625 1
vt 0.828125 1
vt 0.640625 1
vt 0.640625 0.96875
vt 0.828125 0.96875
vn 2.719262146893782e-32 1 2.220446049250313e-16
vn -1 -2.5407181807812022e-33 1.2246467991473532e-16
vn -2.719262146893782e-32 -1 -2.220446049250313e-16
vn 1 2.5407181807812022e-33 -1.2246467991473532e-16
vn -1.2246467991473532e-16 2.220446049250313e-16 -1
vn 1.2246467991473532e-16 -2.220446049250313e-16 1
usemtl m_3edf64c2-8596-3ada-5ac4-d138fddae9ea
f 4/4/1 7/3/1 5/2/1 2/1/1
f 3/8/2 4/7/2 2/6/2 1/5/2
f 8/12/3 3/11/3 1/10/3 6/9/3
f 7/16/4 8/15/4 6/14/4 5/13/4
f 6/20/5 1/19/5 2/18/5 5/17/5
f 7/24/6 4/23/6 3/22/6 8/21/6
o assento2
v -0.37499999999999994 1.020055629666278 0.5355482253287711
v -0.37499999999999994 0.9877032279552307 0.6562889479683471
v -0.37499999999999994 0.17487057118924543 0.3090814133514411
v -0.37499999999999994 0.1425181694781983 0.4298221359910172
v 0.37500000000000006 0.9877032279552307 0.6562889479683471
v 0.37500000000000006 1.020055629666278 0.5355482253287711
v 0.37500000000000006 0.1425181694781983 0.42982213599101715
v 0.37500000000000006 0.17487057118924543 0.30908141335144107
vt 0.015625 0.984375
vt 0.203125 0.984375
vt 0.203125 0.765625
vt 0.015625 0.765625
vt 0 0.984375
vt 0.03125 0.984375
vt 0.03125 0.765625
vt 0 0.765625
vt 0.21875 0.984375
vt 0.40625 0.984375
vt 0.40625 0.765625
vt 0.21875 0.765625
vt 0.203125 0.984375
vt 0.234375 0.984375
vt 0.234375 0.765625
vt 0.203125 0.765625
vt 0.203125 0.96875
vt 0.015625 0.96875
vt 0.015625 1
vt 0.203125 1
vt 0.390625 1
vt 0.203125 1
vt 0.203125 0.96875
vt 0.390625 0.96875
vn 1.1829179160583614e-16 -0.2588192136883771 0.9659257811166084
vn -1 -1.232595164407831e-32 1.2246467991473535e-16
vn -1.1829179160583614e-16 0.2588192136883771 -0.9659257811166084
vn 1 1.232595164407831e-32 -1.2246467991473535e-16
vn 3.169621216013059e-17 0.9659257811166084 0.2588192136883771
vn -3.169621216013059e-17 -0.9659257811166084 -0.2588192136883771
usemtl m_3edf64c2-8596-3ada-5ac4-d138fddae9ea
f 12/28/7 15/27/7 13/26/7 10/25/7
f 11/32/8 12/31/8 10/30/8 9/29/8
f 16/36/9 11/35/9 9/34/9 14/33/9
f 15/40/10 16/39/10 14/38/10 13/37/10
f 14/44/11 9/43/11 10/42/11 13/41/11
f 15/48/12 12/47/12 11/46/12 16/45/12
o peTr
v 0.37875003074666774 0.35862136678394385 -0.07383460414083892
v 0.3787500094067975 0.3846103281361637 -0.1961030542325628
v 0.37875000126312636 -0.4361235588122735 -0.24276285293026628
v 0.3787499799232561 -0.41013459746005365 -0.36503130302199016
v -0.37874999059319137 0.3846103281361637 -0.19610292202387192
v -0.3787499692533211 0.35862136678394385 -0.07383447193214804
v -0.37875002007673275 -0.41013459746005365 -0.3650311708132993
v -0.3787499987368625 -0.4361235588122735 -0.2427627207215754
vt 0.03125 0.71875
vt 0.21875 0.71875
vt 0.21875 0.515625
vt 0.03125 0.515625
vt 0 0.71875
vt 0.03125 0.71875
vt 0.03125 0.515625
vt 0 0.515625
vt 0.25 0.71875
vt 0.4375 0.71875
vt 0.4375 0.515625
vt 0.25 0.515625
vt 0.21875 0.71875
vt 0.25 0.71875
vt 0.25 0.515625
vt 0.21875 0.515625
vt 0.21875 0.71875
vt 0.03125 0.71875
vt 0.03125 0.75
vt 0.21875 0.75
vt 0.40625 0.75
vt 0.21875 0.75
vt 0.21875 0.71875
vt 0.40625 0.71875
vn -1.7071896207870797e-7 0.20791169081775984 -0.9781476007337907
vn 0.9999999999999849 1.058791184067875e-22 -1.7453292524628678e-7
vn 1.7071896207870797e-7 -0.20791169081775984 0.9781476007337907
vn -0.9999999999999849 -1.058791184067875e-22 1.7453292524628678e-7
vn 3.628743559132501e-8 0.9781476007338058 0.2079116908177561
vn -3.628743559132501e-8 -0.9781476007338058 -0.2079116908177561
usemtl m_3edf64c2-8596-3ada-5ac4-d138fddae9ea
f 20/52/13 23/51/13 21/50/13 18/49/13
f 19/56/14 20/55/14 18/54/14 17/53/14
f 24/60/15 19/59/15 17/58/15 22/57/15
f 23/64/16 24/63/16 22/62/16 21/61/16
f 22/68/17 17/67/17 18/66/17 21/65/17
f 23/72/18 20/71/18 19/70/18 24/69/18
o peFr
v -0.3787499999999999 0.34045745645157266 0.21900859171250087
v -0.3787499999999999 0.37280983708938764 0.33974931999863445
v -0.3787499999999999 -0.44435727740829534 0.42929906585829875
v -0.3787499999999999 -0.41200489677048036 0.5500397941444323
v 0.37875000000000003 0.37280983708938764 0.33974931999863434
v 0.37875000000000003 0.34045745645157266 0.2190085917125008
v 0.37875000000000003 -0.41200489677048036 0.5500397941444322
v 0.37875000000000003 -0.44435727740829534 0.4292990658582987
vt 0.03125 0.71875
vt 0.21875 0.71875
vt 0.21875 0.515625
vt 0.03125 0.515625
vt 0 0.71875
vt 0.03125 0.71875
vt 0.03125 0.515625
vt 0 0.515625
vt 0.25 0.71875
vt 0.4375 0.71875
vt 0.4375 0.515625
vt 0.25 0.515625
vt 0.21875 0.71875
vt 0.25 0.71875
vt 0.25 0.515625
vt 0.21875 0.515625
vt 0.21875 0.71875
vt 0.03125 0.71875
vt 0.03125 0.75
vt 0.21875 0.75
vt 0.40625 0.75
vt 0.21875 0.75
vt 0.21875 0.71875
vt 0.40625 0.71875
vn 1.1829179713786698e-16 0.2588190451025205 0.9659258262890684
vn -1 -1.2325951644078307e-32 1.224646799147353e-16
vn -1.1829179713786698e-16 -0.2588190451025205 -0.9659258262890684
vn 1 1.2325951644078307e-32 -1.224646799147353e-16
vn -3.169619151431762e-17 0.9659258262890684 -0.2588190451025205
vn 3.169619151431762e-17 -0.9659258262890684 0.2588190451025205
usemtl m_3edf64c2-8596-3ada-5ac4-d138fddae9ea
f 28/76/19 31/75/19 29/74/19 26/73/19
f 27/80/20 28/79/20 26/78/20 25/77/20
f 32/84/21 27/83/21 25/82/21 30/81/21
f 31/88/22 32/87/22 30/86/22 29/85/22
f 30/92/23 25/91/23 26/90/23 29/89/23
f 31/96/24 28/95/24 27/94/24 32/93/24
o encostoL
v 0.3125 0.40625 -0.140625
v 0.3125 0.40625 0.296875
v 0.3125 0.28125 -0.140625
v 0.3125 0.28125 0.296875
v 0.4375 0.40625 0.296875
v 0.4375 0.40625 -0.140625
v 0.4375 0.28125 0.296875
v 0.4375 0.28125 -0.140625
vt 0.109375 0.40625
vt 0.140625 0.40625
vt 0.140625 0.375
vt 0.109375 0.375
vt 0 0.40625
vt 0.109375 0.40625
vt 0.109375 0.375
vt 0 0.375
vt 0.25 0.40625
vt 0.28125 0.40625
vt 0.28125 0.375
vt 0.25 0.375
vt 0.140625 0.40625
vt 0.25 0.40625
vt 0.25 0.375
vt 0.140625 0.375
vt 0.140625 0.40625
vt 0.109375 0.40625
vt 0.109375 0.515625
vt 0.140625 0.515625
vt 0.171875 0.515625
vt 0.140625 0.515625
vt 0.140625 0.40625
vt 0.171875 0.40625
vn 1.2246467991473532e-16 3.1114823876291857e-49 1
vn -1 -2.5407181807812022e-33 1.2246467991473532e-16
vn -1.2246467991473532e-16 -3.1114823876291857e-49 -1
vn 1 2.5407181807812022e-33 -1.2246467991473532e-16
vn 0 1 0
vn 0 -1 0
usemtl m_3edf64c2-8596-3ada-5ac4-d138fddae9ea
f 36/100/25 39/99/25 37/98/25 34/97/25
f 35/104/26 36/103/26 34/102/26 33/101/26
f 40/108/27 35/107/27 33/106/27 38/105/27
f 39/112/28 40/111/28 38/110/28 37/109/28
f 38/116/29 33/115/29 34/114/29 37/113/29
f 39/120/30 36/119/30 35/118/30 40/117/30
o encostoR
v -0.4375 0.40625 -0.1406249999999999
v -0.4375 0.40625 0.2968750000000001
v -0.4375 0.28125 -0.1406249999999999
v -0.4375 0.28125 0.2968750000000001
v -0.3125 0.40625 0.2968750000000001
v -0.3125 0.40625 -0.1406249999999999
v -0.3125 0.28125 0.2968750000000001
v -0.3125 0.28125 -0.1406249999999999
vt 0.109375 0.40625
vt 0.140625 0.40625
vt 0.140625 0.375
vt 0.109375 0.375
vt 0 0.40625
vt 0.109375 0.40625
vt 0.109375 0.375
vt 0 0.375
vt 0.25 0.40625
vt 0.28125 0.40625
vt 0.28125 0.375
vt 0.25 0.375
vt 0.140625 0.40625
vt 0.25 0.40625
vt 0.25 0.375
vt 0.140625 0.375
vt 0.140625 0.40625
vt 0.109375 0.40625
vt 0.109375 0.515625
vt 0.140625 0.515625
vt 0.171875 0.515625
vt 0.140625 0.515625
vt 0.140625 0.40625
vt 0.171875 0.40625
vn 1.2246467991473532e-16 3.1114823876291857e-49 1
vn -1 -2.5407181807812022e-33 1.2246467991473532e-16
vn -1.2246467991473532e-16 -3.1114823876291857e-49 -1
vn 1 2.5407181807812022e-33 -1.2246467991473532e-16
vn 0 1 0
vn 0 -1 0
usemtl m_3edf64c2-8596-3ada-5ac4-d138fddae9ea
f 44/124/31 47/123/31 45/122/31 42/121/31
f 43/128/32 44/127/32 42/126/32 41/125/32
f 48/132/33 43/131/33 41/130/33 46/129/33
f 47/136/34 48/135/34 46/134/34 45/133/34
f 46/140/35 41/139/35 42/138/35 45/137/35
f 47/144/36 44/143/36 43/142/36 48/141/36