# Made in Blockbench 5.0.7
mtllib carrinho_milho.mtl

o corpo
v -0.4652781249999999 0.5125 0.43055562500000005
v 0.659721875 0.5125 0.4305556249999998
v -0.4652781249999999 -0.17500000000000004 0.43055562500000005
v 0.659721875 -0.17500000000000004 0.4305556249999998
v 0.659721875 0.5125 -0.4444443750000002
v -0.4652781250000001 0.5125 -0.44444437499999995
v 0.659721875 -0.17500000000000004 -0.4444443750000002
v -0.4652781250000001 -0.17500000000000004 -0.44444437499999995
vt 0.140625 0.859375
vt 0.25 0.859375
vt 0.25 0.7734375
vt 0.140625 0.7734375
vt 0 0.859375
vt 0.140625 0.859375
vt 0.140625 0.7734375
vt 0 0.7734375
vt 0.390625 0.859375
vt 0.5 0.859375
vt 0.5 0.7734375
vt 0.390625 0.7734375
vt 0.25 0.859375
vt 0.390625 0.859375
vt 0.390625 0.7734375
vt 0.25 0.7734375
vt 0.25 0.859375
vt 0.140625 0.859375
vt 0.140625 1
vt 0.25 1
vt 0.359375 1
vt 0.25 1
vt 0.25 0.859375
vt 0.359375 0.859375
vn 1 0 -2.220446049250313e-16
vn 2.220446049250313e-16 0 1
vn -1 0 2.220446049250313e-16
vn -2.220446049250313e-16 0 -1
vn 0 1 0
vn 0 -1 0
usemtl m_f5fd81a9-a921-a303-872e-4164b2466c16
f 4/4/1 7/3/1 5/2/1 2/1/1
f 3/8/2 4/7/2 2/6/2 1/5/2
f 8/12/3 3/11/3 1/10/3 6/9/3
f 7/16/4 8/15/4 6/14/4 5/13/4
f 6/20/5 1/19/5 2/18/5 5/17/5
f 7/24/6 4/23/6 3/22/6 8/21/6
o tampa
v -0.152778125 0.6375 0.243055625
v 0.472221875 0.6375 0.24305562499999983
v -0.152778125 0.5125 0.243055625
v 0.472221875 0.5125 0.24305562499999983
v 0.472221875 0.6375 -0.25694437500000017
v -0.152778125 0.6375 -0.256944375
v 0.472221875 0.5125 -0.25694437500000017
v -0.152778125 0.5125 -0.256944375
vt 0.4453125 0.921875
vt 0.5078125 0.921875
vt 0.5078125 0.90625
vt 0.4453125 0.90625
vt 0.3671875 0.921875
vt 0.4453125 0.921875
vt 0.4453125 0.90625
vt 0.3671875 0.90625
vt 0.5859375 0.921875
vt 0.6484375 0.921875
vt 0.6484375 0.90625
vt 0.5859375 0.90625
vt 0.5078125 0.921875
vt 0.5859375 0.921875
vt 0.5859375 0.90625
vt 0.5078125 0.90625
vt 0.5078125 0.921875
vt 0.4453125 0.921875
vt 0.4453125 1
vt 0.5078125 1
vt 0.5703125 1
vt 0.5078125 1
vt 0.5078125 0.921875
vt 0.5703125 0.921875
vn 1 0 -2.220446049250313e-16
vn 2.220446049250313e-16 0 1
vn -1 0 2.220446049250313e-16
vn -2.220446049250313e-16 0 -1
vn 0 1 0
vn 0 -1 0
usemtl m_f5fd81a9-a921-a303-872e-4164b2466c16
f 12/28/7 15/27/7 13/26/7 10/25/7
f 11/32/8 12/31/8 10/30/8 9/29/8
f 16/36/9 11/35/9 9/34/9 14/33/9
f 15/40/10 16/39/10 14/38/10 13/37/10
f 14/44/11 9/43/11 10/42/11 13/41/11
f 15/48/12 12/47/12 11/46/12 16/45/12
o corpo
v -0.3402781249999999 0.7625 0.430555625
v 0.659721875 0.7625 0.4305556249999998
v -0.3402781249999999 0.5125 0.430555625
v 0.659721875 0.5125 0.4305556249999998
v 0.659721875 0.7625 0.3055556249999998
v -0.3402781249999999 0.7625 0.305555625
v 0.659721875 0.5125 0.3055556249999998
v -0.3402781249999999 0.5125 0.305555625
vt 0.2890625 0.640625
vt 0.3046875 0.640625
vt 0.3046875 0.609375
vt 0.2890625 0.609375
vt 0.1640625 0.640625
vt 0.2890625 0.640625
vt 0.2890625 0.609375
vt 0.1640625 0.609375
vt 0.4296875 0.640625
vt 0.4453125 0.640625
vt 0.4453125 0.609375
vt 0.4296875 0.609375
vt 0.3046875 0.640625
vt 0.4296875 0.640625
vt 0.4296875 0.609375
vt 0.3046875 0.609375
vt 0.3046875 0.640625
vt 0.2890625 0.640625
vt 0.2890625 0.765625
vt 0.3046875 0.765625
vt 0.3203125 0.765625
vt 0.3046875 0.765625
vt 0.3046875 0.640625
vt 0.3203125 0.640625
vn 1 0 -2.220446049250313e-16
vn 2.220446049250313e-16 0 1
vn -1 0 2.220446049250313e-16
vn -2.220446049250313e-16 0 -1
vn 0 1 0
vn 0 -1 0
usemtl m_f5fd81a9-a921-a303-872e-4164b2466c16
f 20/52/13 23/51/13 21/50/13 18/49/13
f 19/56/14 20/55/14 18/54/14 17/53/14
f 24/60/15 19/59/15 17/58/15 22/57/15
f 23/64/16 24/63/16 22/62/16 21/61/16
f 22/68/17 17/67/17 18/66/17 21/65/17
f 23/72/18 20/71/18 19/70/18 24/69/18
o cube
v -0.465278125 1.7 0.43055562500000005
v -0.340278125 1.7 0.43055562500000005
v -0.465278125 0.5125 0.43055562500000005
v -0.340278125 0.5125 0.43055562500000005
v -0.340278125 1.7 0.30555562500000005
v -0.465278125 1.7 0.30555562500000005
v -0.340278125 0.5125 0.30555562500000005
v -0.465278125 0.5125 0.30555562500000005
vt 0.46875 0.75
vt 0.484375 0.75
vt 0.484375 0.6015625
vt 0.46875 0.6015625
vt 0.453125 0.75
vt 0.46875 0.75
vt 0.46875 0.6015625
vt 0.453125 0.6015625
vt 0.5 0.75
vt 0.515625 0.75
vt 0.515625 0.6015625
vt 0.5 0.6015625
vt 0.484375 0.75
vt 0.5 0.75
vt 0.5 0.6015625
vt 0.484375 0.6015625
vt 0.484375 0.75
vt 0.46875 0.75
vt 0.46875 0.765625
vt 0.484375 0.765625
vt 0.5 0.765625
vt 0.484375 0.765625
vt 0.484375 0.75
vt 0.5 0.75
vn 1 0 -2.220446049250313e-16
vn 2.220446049250313e-16 0 1
vn -1 0 2.220446049250313e-16
vn -2.220446049250313e-16 0 -1
vn 0 1 0
vn 0 -1 0
usemtl m_f5fd81a9-a921-a303-872e-4164b2466c16
f 28/76/19 31/75/19 29/74/19 26/73/19
f 27/80/20 28/79/20 26/78/20 25/77/20
f 32/84/21 27/83/21 25/82/21 30/81/21
f 31/88/22 32/87/22 30/86/22 29/85/22
f 30/92/23 25/91/23 26/90/23 29/89/23
f 31/96/24 28/95/24 27/94/24 32/93/24
o Block
v -1.4652781249999998 1.91875 1.4305556250000002
v 0.6597218750000002 1.91875 1.4305556249999998
v -1.4652781249999998 1.73125 1.4305556250000002
v 0.6597218750000002 1.73125 1.4305556249999998
v 0.6597218749999998 1.91875 -0.6944443750000002
v -1.4652781250000002 1.91875 -0.6944443749999998
v 0.6597218749999998 1.73125 -0.6944443750000002
v -1.4652781250000002 1.73125 -0.6944443749999998
vt 0.0234375 0.546875
vt 0.2890625 0.546875
vt 0.2890625 0.5234375
vt 0.0234375 0.5234375
vt 0.0234375 0.546875
vt 0.2890625 0.546875
vt 0.2890625 0.5234375
vt 0.0234375 0.5234375
vt 0.0234375 0.546875
vt 0.2890625 0.546875
vt 0.2890625 0.5234375
vt 0.0234375 0.5234375
vt 0.0234375 0.546875
vt 0.2890625 0.546875
vt 0.2890625 0.5234375
vt 0.0234375 0.5234375
vt 0.0234375 0.5234375
vt 0.2890625 0.5234375
vt 0.2890625 0.2578125
vt 0.0234375 0.2578125
vn 1 0 -2.220446049250313e-16
vn 2.220446049250313e-16 0 1
vn -1 0 2.220446049250313e-16
vn -2.220446049250313e-16 0 -1
vn 0 1 0
usemtl m_f5fd81a9-a921-a303-872e-4164b2466c16
f 36/100/25 39/99/25 37/98/25 34/97/25
f 35/104/26 36/103/26 34/102/26 33/101/26
f 40/108/27 35/107/27 33/106/27 38/105/27
f 39/112/28 40/111/28 38/110/28 37/109/28
f 38/116/29 33/115/29 34/114/29 37/113/29
o Block2
v -0.4027781249999999 1.91875 0.930555625
v -0.4027781249999999 1.91875 0.930555625
v -0.4027781249999999 1.35625 0.930555625
v -0.4027781249999999 1.35625 0.930555625
v -0.4027781250000001 1.91875 -0.19444437499999995
v -0.4027781250000001 1.91875 -0.19444437499999995
v -0.4027781250000001 1.35625 -0.19444437499999995
v -0.4027781250000001 1.35625 -0.19444437499999995
vt 0.1484375 0.1875
vt 0.2890625 0.1875
vt 0.2890625 0.1171875
vt 0.1484375 0.1171875
vt 0.2890625 0.2578125
vt 0.2890625 0.2578125
vt 0.2890625 0.1875
vt 0.2890625 0.1875
vt 0.1484375 0.2578125
vt 0.2890625 0.2578125
vt 0.2890625 0.1875
vt 0.1484375 0.1875
vt 0.1484375 0.2578125
vt 0.1484375 0.2578125
vt 0.1484375 0.1875
vt 0.1484375 0.1875
vt 0.1484375 0.2578125
vt 0.2890625 0.2578125
vt 0.2890625 0.2578125
vt 0.1484375 0.2578125
vn 1 0 -2.220446049250313e-16
vn 2.220446049250313e-16 0 1
vn -1 0 2.220446049250313e-16
vn -2.220446049250313e-16 0 -1
vn 0 1 0
usemtl m_f5fd81a9-a921-a303-872e-4164b2466c16
f 44/120/30 47/119/30 45/118/30 42/117/30
f 43/124/31 44/123/31 42/122/31 41/121/31
f 48/128/32 43/127/32 41/126/32 46/125/32
f 47/132/33 48/131/33 46/130/33 45/129/33
f 46/136/34 41/135/34 42/134/34 45/133/34
o Block2
v 0.15972185574912257 1.91875 0.36820278897918757
v 0.15972185574912257 1.91875 0.36820278897918757
v 0.15972185574912257 1.35625 0.36820278897918757
v 0.15972185574912257 1.35625 0.36820278897918757
v -0.9652781057491225 1.91875 0.36790846102081254
v -0.9652781057491225 1.91875 0.36790846102081254
v -0.9652781057491225 1.35625 0.36790846102081254
v -0.9652781057491225 1.35625 0.36790846102081254
vt 0.1484375 0.1875
vt 0.2890625 0.1875
vt 0.2890625 0.1171875
vt 0.1484375 0.1171875
vt 0.2890625 0.2578125
vt 0.2890625 0.2578125
vt 0.2890625 0.1875
vt 0.2890625 0.1875
vt 0.1484375 0.2578125
vt 0.2890625 0.2578125
vt 0.2890625 0.1875
vt 0.1484375 0.1875
vt 0.1484375 0.2578125
vt 0.1484375 0.2578125
vt 0.1484375 0.1875
vt 0.1484375 0.1875
vt 0.1484375 0.2578125
vt 0.2890625 0.2578125
vt 0.2890625 0.2578125
vt 0.1484375 0.2578125
vn 0.0002616248518889641 0 -0.9999999657762179
vn 0.9999999657762179 0 0.0002616248518889641
vn -0.0002616248518889641 0 0.9999999657762179
vn -0.9999999657762179 0 -0.0002616248518889641
vn 0 1 0
usemtl m_f5fd81a9-a921-a303-872e-4164b2466c16
f 52/140/35 55/139/35 53/138/35 50/137/35
f 51/144/36 52/143/36 50/142/36 49/141/36
f 56/148/37 51/147/37 49/146/37 54/145/37
f 55/152/38 56/151/38 54/150/38 53/149/38
f 54/156/39 49/155/39 50/154/39 53/153/39
o roda
v 0.03472187500000001 0.012499999999999956 -0.44506937500000004
v 0.534721875 0.012499999999999956 -0.44506937500000016
v 0.03472187500000001 -0.48750000000000004 -0.44506937500000004
v 0.534721875 -0.48750000000000004 -0.44506937500000016
v 0.5347218749999998 0.012499999999999956 -0.5700693750000001
v 0.03472187499999979 0.012499999999999956 -0.5700693750000001
v 0.5347218749999998 -0.48750000000000004 -0.5700693750000001
v 0.03472187499999979 -0.48750000000000004 -0.5700693750000001
vt 0.0625 0.703125
vt 0.078125 0.703125
vt 0.078125 0.640625
vt 0.0625 0.640625
vt 0 0.703125
vt 0.0625 0.703125
vt 0.0625 0.640625
vt 0 0.640625
vt 0.140625 0.703125
vt 0.15625 0.703125
vt 0.15625 0.640625
vt 0.140625 0.640625
vt 0.078125 0.703125
vt 0.140625 0.703125
vt 0.140625 0.640625
vt 0.078125 0.640625
vt 0.078125 0.703125
vt 0.0625 0.703125
vt 0.0625 0.765625
vt 0.078125 0.765625
vt 0.09375 0.765625
vt 0.078125 0.765625
vt 0.078125 0.703125
vt 0.09375 0.703125
vn 1 0 -2.220446049250313e-16
vn 2.220446049250313e-16 0 1
vn -1 0 2.220446049250313e-16
vn -2.220446049250313e-16 0 -1
vn 0 1 0
vn 0 -1 0
usemtl m_f5fd81a9-a921-a303-872e-4164b2466c16
f 60/160/40 63/159/40 61/158/40 58/157/40
f 59/164/41 60/163/41 58/162/41 57/161/41
f 64/168/42 59/167/42 57/166/42 62/165/42
f 63/172/43 64/171/43 62/170/43 61/169/43
f 62/176/44 57/175/44 58/174/44 61/173/44
f 63/180/45 60/179/45 59/178/45 64/177/45
o roda
v 0.034721875000000235 0.012499999999999956 0.5561806249999999
v 0.5347218750000002 0.012499999999999956 0.5561806249999999
v 0.034721875000000235 -0.48750000000000004 0.5561806249999999
v 0.5347218750000002 -0.48750000000000004 0.5561806249999999
v 0.534721875 0.012499999999999956 0.4311806249999998
v 0.03472187500000001 0.012499999999999956 0.43118062499999993
v 0.534721875 -0.48750000000000004 0.4311806249999998
v 0.03472187500000001 -0.48750000000000004 0.43118062499999993
vt 0.078125 0.703125
vt 0.0625 0.703125
vt 0.0625 0.640625
vt 0.078125 0.640625
vt 0.140625 0.703125
vt 0.078125 0.703125
vt 0.078125 0.640625
vt 0.140625 0.640625
vt 0.15625 0.703125
vt 0.140625 0.703125
vt 0.140625 0.640625
vt 0.15625 0.640625
vt 0.0625 0.703125
vt 0 0.703125
vt 0 0.640625
vt 0.0625 0.640625
vt 0.0625 0.703125
vt 0.078125 0.703125
vt 0.078125 0.765625
vt 0.0625 0.765625
vt 0.078125 0.765625
vt 0.09375 0.765625
vt 0.09375 0.703125
vt 0.078125 0.703125
vn 1 0 -2.220446049250313e-16
vn 2.220446049250313e-16 0 1
vn -1 0 2.220446049250313e-16
vn -2.220446049250313e-16 0 -1
vn 0 1 0
vn 0 -1 0
usemtl m_f5fd81a9-a921-a303-872e-4164b2466c16
f 68/184/46 71/183/46 69/182/46 66/181/46
f 67/188/47 68/187/47 66/186/47 65/185/47
f 72/192/48 67/191/48 65/190/48 70/189/48
f 71/196/49 72/195/49 70/194/49 69/193/49
f 70/200/50 65/199/50 66/198/50 69/197/50
f 71/204/51 68/203/51 67/202/51 72/201/51
o handle
v -0.7777781249999999 0.5125 0.4305556250000001
v -0.3402781249999999 0.5125 0.43055562500000005
v -0.7777781249999999 -0.48750000000000004 0.4305556250000001
v -0.3402781249999999 -0.48750000000000004 0.43055562500000005
v -0.3402781250000001 0.5125 -0.44444437499999995
v -0.7777781250000001 0.5125 -0.4444443749999999
v -0.3402781250000001 -0.48750000000000004 -0.44444437499999995
v -0.7777781250000001 -0.48750000000000004 -0.4444443749999999
vt 0.7109375 0.953125
vt 0.8203125 0.953125
vt 0.8203125 0.828125
vt 0.7109375 0.828125
vt 0.65625 0.953125
vt 0.7109375 0.953125
vt 0.7109375 0.828125
vt 0.65625 0.828125
vt 0.875 0.953125
vt 0.984375 0.953125
vt 0.984375 0.828125
vt 0.875 0.828125
vt 0.8203125 0.953125
vt 0.875 0.953125
vt 0.875 0.828125
vt 0.8203125 0.828125
vt 0.8203125 0.953125
vt 0.7109375 0.953125
vt 0.7109375 1.0078125
vt 0.8203125 1.0078125
vt 0.9296875 1.0078125
vt 0.8203125 1.0078125
vt 0.8203125 0.953125
vt 0.9296875 0.953125
vn 1 0 -2.220446049250313e-16
vn 2.220446049250313e-16 0 1
vn -1 0 2.220446049250313e-16
vn -2.220446049250313e-16 0 -1
vn 0 1 0
vn 0 -1 0
usemtl m_f5fd81a9-a921-a303-872e-4164b2466c16
f 76/208/52 79/207/52 77/206/52 74/205/52
f 75/212/53 76/211/53 74/210/53 73/209/53
f 80/216/54 75/215/54 73/214/54 78/213/54
f 79/220/55 80/219/55 78/218/55 77/217/55
f 78/224/56 73/223/56 74/222/56 77/221/56
f 79/228/57 76/227/57 75/226/57 80/225/57