# Made in Blockbench 5.0.7
mtllib cooler.mtl

o copo
v 0.21686109210186222 0.08125000000000004 0.15174482341440776
v 0.160478754694811 0.08125000000000004 -0.027077104850884798
v 0.21686109210186222 -0.16875 0.15174482341440776
v 0.160478754694811 -0.16875 -0.027077104850884798
v -0.01834317357048154 0.08125000000000004 0.029305232556166405
v 0.03803916383656969 0.08125000000000004 0.20812716082145896
v -0.01834317357048154 -0.16875 0.029305232556166405
v 0.03803916383656969 -0.16875 0.20812716082145896
vt 0.328125 0.953125
vt 0.375 0.953125
vt 0.375 0.890625
vt 0.328125 0.890625
vt 0.28125 0.953125
vt 0.328125 0.953125
vt 0.328125 0.890625
vt 0.28125 0.890625
vt 0.421875 0.953125
vt 0.46875 0.953125
vt 0.46875 0.890625
vt 0.421875 0.890625
vt 0.375 0.953125
vt 0.421875 0.953125
vt 0.421875 0.890625
vt 0.375 0.890625
vt 0.375 0.953125
vt 0.328125 0.953125
vt 0.328125 1
vt 0.375 1
vt 0.421875 1
vt 0.375 1
vt 0.375 0.953125
vt 0.421875 0.953125
vn -0.3007057995042732 0 -0.9537169507482269
vn 0.9537169507482269 0 -0.3007057995042732
vn 0.3007057995042732 0 0.9537169507482269
vn -0.9537169507482269 0 0.3007057995042732
vn 0 1 0
vn 0 -1 0
usemtl m_1c5348cb-4b7c-c154-b441-36953a7b32c9
f 4/4/1 7/3/1 5/2/1 2/1/1
f 3/8/2 4/7/2 2/6/2 1/5/2
f 8/12/3 3/11/3 1/10/3 6/9/3
f 7/16/4 8/15/4 6/14/4 5/13/4
f 6/20/5 1/19/5 2/18/5 5/17/5
f 7/24/6 4/23/6 3/22/6 8/21/6
o cooler
v 0.4904160478277587 -0.046875 0.26837534466397306
v -0.011463333979406465 -0.046875 -0.44838269408889464
v 0.4904160478277587 -0.484375 0.26837534466397306
v -0.011463333979406465 -0.484375 -0.44838269408889464
v -0.47223635889196436 -0.046875 -0.1257459486414313
v 0.029643022915200767 -0.046875 0.5910120901114364
v -0.47223635889196436 -0.484375 -0.1257459486414313
v 0.029643022915200767 -0.484375 0.5910120901114364
vt 0.5 0.78125
vt 0.640625 0.78125
vt 0.640625 0.671875
vt 0.5 0.671875
vt 0.28125 0.78125
vt 0.5 0.78125
vt 0.5 0.671875
vt 0.28125 0.671875
vt 0.859375 0.78125
vt 1 0.78125
vt 1 0.671875
vt 0.859375 0.671875
vt 0.640625 0.78125
vt 0.859375 0.78125
vt 0.859375 0.671875
vt 0.640625 0.671875
vt 0.640625 0.78125
vt 0.5 0.78125
vt 0.5 1
vt 0.640625 1
vt 0.78125 1
vt 0.640625 1
vt 0.640625 0.78125
vt 0.78125 0.78125
vn -0.573576436351046 0 -0.8191520442889919
vn 0.8191520442889919 0 -0.573576436351046
vn 0.573576436351046 0 0.8191520442889919
vn -0.8191520442889919 0 0.573576436351046
vn 0 1 0
vn 0 -1 0
usemtl m_1c5348cb-4b7c-c154-b441-36953a7b32c9
f 12/28/7 15/27/7 13/26/7 10/25/7
f 11/32/8 12/31/8 10/30/8 9/29/8
f 16/36/9 11/35/9 9/34/9 14/33/9
f 15/40/10 16/39/10 14/38/10 13/37/10
f 14/44/11 9/43/11 10/42/11 13/41/11
f 15/48/12 12/47/12 11/46/12 16/45/12
o Brahma
v 0.04762647383058938 -0.062170457088816355 -0.024299441537589006
v 0.0394478386995889 -0.062170457088816355 -0.21162098308418736
v -0.03346113043868271 -0.42828145975879134 -0.02075908027700024
v -0.041639765569683185 -0.42828145975879134 -0.20808062182359865
v -0.14343343435990574 -0.021588029475422044 -0.20363621426210077
v -0.13525479922890526 -0.021588029475422044 -0.016314672715502354
v -0.22452103862917783 -0.387699032145397 -0.20009585300151206
v -0.21634240349817735 -0.387699032145397 -0.0127743114549137
vt 0.046875 0.953125
vt 0.09375 0.953125
vt 0.09375 0.859375
vt 0.046875 0.859375
vt 0 0.953125
vt 0.046875 0.953125
vt 0.046875 0.859375
vt 0 0.859375
vt 0.140625 0.953125
vt 0.1875 0.953125
vt 0.1875 0.859375
vt 0.140625 0.859375
vt 0.09375 0.953125
vt 0.140625 0.953125
vt 0.140625 0.859375
vt 0.09375 0.859375
vt 0.09375 0.953125
vt 0.046875 0.953125
vt 0.046875 1
vt 0.09375 1
vt 0.140625 1
vt 0.09375 1
vt 0.09375 0.953125
vt 0.140625 0.953125
vn -0.043619387365335924 1.387778780781446e-17 -0.9990482215818579
vn 0.9753667896506382 -0.21643961393810282 -0.04258543371779504
vn 0.043619387365335924 -1.387778780781446e-17 0.9990482215818579
vn -0.9753667896506382 0.21643961393810282 0.04258543371779504
vn 0.2162336113847255 0.9762960071199334 -0.009440963361569861
vn -0.2162336113847255 -0.9762960071199334 0.009440963361569861
usemtl m_1c5348cb-4b7c-c154-b441-36953a7b32c9
f 20/52/13 23/51/13 21/50/13 18/49/13
f 19/56/14 20/55/14 18/54/14 17/53/14
f 24/60/15 19/59/15 17/58/15 22/57/15
f 23/64/16 24/63/16 22/62/16 21/61/16
f 22/68/17 17/67/17 18/66/17 21/65/17
f 23/72/18 20/71/18 19/70/18 24/69/18
o Brahma2
v 0.06930563287444949 0.18712464891258196 -0.05670799151578919
v 0.0638532094537825 0.18712464891258196 -0.1815890192135214
v 0.015247230028268131 -0.05694935286740134 -0.054347750675396725
v 0.009794806607601146 -0.05694935286740134 -0.17922877837312895
v -0.058067639252547265 0.21417960065484482 -0.17626583999879702
v -0.05261521583188028 0.21417960065484482 -0.0513848123010648
v -0.11212604209872862 -0.029894401125138484 -0.17390559915840456
v -0.10667361867806163 -0.029894401125138484 -0.049024571460672337
vt 0.3125 0.53125
vt 0.34375 0.53125
vt 0.34375 0.46875
vt 0.3125 0.46875
vt 0.28125 0.53125
vt 0.3125 0.53125
vt 0.3125 0.46875
vt 0.28125 0.46875
vt 0.375 0.53125
vt 0.40625 0.53125
vt 0.40625 0.46875
vt 0.375 0.46875
vt 0.34375 0.53125
vt 0.375 0.53125
vt 0.375 0.46875
vt 0.34375 0.46875
vt 0.34375 0.53125
vt 0.3125 0.53125
vt 0.3125 0.5625
vt 0.34375 0.5625
vt 0.375 0.5625
vt 0.34375 0.5625
vt 0.34375 0.53125
vt 0.375 0.53125
vn -0.043619387365335924 1.387778780781446e-17 -0.9990482215818579
vn 0.9753667896506382 -0.21643961393810282 -0.04258543371779504
vn 0.043619387365335924 -1.387778780781446e-17 0.9990482215818579
vn -0.9753667896506382 0.21643961393810282 0.04258543371779504
vn 0.2162336113847255 0.9762960071199334 -0.009440963361569861
vn -0.2162336113847255 -0.9762960071199334 0.009440963361569861
usemtl m_1c5348cb-4b7c-c154-b441-36953a7b32c9
f 28/76/19 31/75/19 29/74/19 26/73/19
f 27/80/20 28/79/20 26/78/20 25/77/20
f 32/84/21 27/83/21 25/82/21 30/81/21
f 31/88/22 32/87/22 30/86/22 29/85/22
f 30/92/23 25/91/23 26/90/23 29/89/23
f 31/96/24 28/95/24 27/94/24 32/93/24
o Brahma
v 0.014335882654001653 -0.032379417777614716 0.1791098893529085
v -0.07036544377788556 -0.015228542762424246 0.012713426689508756
v 0.06363230851511892 -0.3987722032933884 0.11625140448959426
v -0.021069017916768296 -0.38162132827819795 -0.05014505817380549
v -0.23581755437188412 -0.051300403910850556 0.09321603492849645
v -0.1511162279399969 -0.06845127892604103 0.2596124975918962
v -0.18652112851076685 -0.4176931894266243 0.030357550065182204
v -0.10181980207887964 -0.4348440644418148 0.19675401272858195
vt 0.046875 0.8125
vt 0.09375 0.8125
vt 0.09375 0.71875
vt 0.046875 0.71875
vt 0 0.8125
vt 0.046875 0.8125
vt 0.046875 0.71875
vt 0 0.71875
vt 0.140625 0.8125
vt 0.1875 0.8125
vt 0.1875 0.71875
vt 0.140625 0.71875
vt 0.09375 0.8125
vt 0.140625 0.8125
vt 0.140625 0.71875
vt 0.09375 0.71875
vt 0.09375 0.8125
vt 0.046875 0.8125
vt 0.046875 0.859375
vt 0.09375 0.859375
vt 0.140625 0.859375
vt 0.09375 0.859375
vt 0.09375 0.8125
vt 0.140625 0.8125
vn -0.4517404076367324 0.09147133341434914 -0.8874478008714655
vn 0.8824112565013253 0.1923832594582739 -0.429347243941268
vn 0.4517404076367324 -0.09147133341434914 0.8874478008714655
vn -0.8824112565013253 -0.1923832594582739 0.429347243941268
vn -0.13145713562964606 0.9770474280420636 0.16762262630217137
vn 0.13145713562964606 -0.9770474280420636 -0.16762262630217137
usemtl m_1c5348cb-4b7c-c154-b441-36953a7b32c9
f 36/100/25 39/99/25 37/98/25 34/97/25
f 35/104/26 36/103/26 34/102/26 33/101/26
f 40/108/27 35/107/27 33/106/27 38/105/27
f 39/112/28 40/111/28 38/110/28 37/109/28
f 38/116/29 33/115/29 34/114/29 37/113/29
f 39/120/30 36/119/30 35/118/30 40/117/30
o Brahma3
v -0.060250533136871565 0.20712730917304797 0.2063448714465058
v -0.11671808409146311 0.21856122584984164 0.09541389633757263
v -0.027386249229460063 -0.03713454783746786 0.16443921487096297
v -0.08385380018405159 -0.025700631160674225 0.0535082397620298
v -0.22701949115412878 0.1945133184175574 0.14908230183023113
v -0.17055194019953723 0.18307940174076373 0.2600132769391643
v -0.19415520724671725 -0.049748538592958455 0.1071766452546883
v -0.13768765629212573 -0.06118245526975209 0.21810762036362147
vt 0.171875 0.53125
vt 0.203125 0.53125
vt 0.203125 0.46875
vt 0.171875 0.46875
vt 0.140625 0.53125
vt 0.171875 0.53125
vt 0.171875 0.46875
vt 0.140625 0.46875
vt 0.234375 0.53125
vt 0.265625 0.53125
vt 0.265625 0.46875
vt 0.234375 0.46875
vt 0.203125 0.53125
vt 0.234375 0.53125
vt 0.234375 0.46875
vt 0.203125 0.46875
vt 0.203125 0.53125
vt 0.171875 0.53125
vt 0.171875 0.5625
vt 0.203125 0.5625
vt 0.234375 0.5625
vt 0.203125 0.5625
vt 0.203125 0.53125
vt 0.234375 0.53125
vn -0.4517404076367324 0.09147133341434914 -0.8874478008714655
vn 0.8824112565013253 0.1923832594582739 -0.429347243941268
vn 0.4517404076367324 -0.09147133341434914 0.8874478008714655
vn -0.8824112565013253 -0.1923832594582739 0.429347243941268
vn -0.13145713562964606 0.9770474280420636 0.16762262630217137
vn 0.13145713562964606 -0.9770474280420636 -0.16762262630217137
usemtl m_1c5348cb-4b7c-c154-b441-36953a7b32c9
f 44/124/31 47/123/31 45/122/31 42/121/31
f 43/128/32 44/127/32 42/126/32 41/125/32
f 48/132/33 43/131/33 41/130/33 46/129/33
f 47/136/34 48/135/34 46/134/34 45/133/34
f 46/140/35 41/139/35 42/138/35 45/137/35
f 47/144/36 44/143/36 43/142/36 48/141/36
o Brahma
v 0.23512647383058916 -0.062170457088816355 0.3819505584624109
v 0.22694783869958868 -0.062170457088816355 0.19462901691581264
v 0.15403886956131707 -0.42828145975879134 0.38549091972299965
v 0.1458602344303166 -0.42828145975879134 0.19816937817640135
v 0.044066565640094035 -0.021588029475422044 0.20261378573789923
v 0.05224520077109451 -0.021588029475422044 0.38993532728449753
v -0.03702103862917805 -0.387699032145397 0.20615414699848794
v -0.02884240349817757 -0.387699032145397 0.3934756885450862
vt 0.046875 0.671875
vt 0.09375 0.671875
vt 0.09375 0.578125
vt 0.046875 0.578125
vt 0 0.671875
vt 0.046875 0.671875
vt 0.046875 0.578125
vt 0 0.578125
vt 0.140625 0.671875
vt 0.1875 0.671875
vt 0.1875 0.578125
vt 0.140625 0.578125
vt 0.09375 0.671875
vt 0.140625 0.671875
vt 0.140625 0.578125
vt 0.09375 0.578125
vt 0.09375 0.671875
vt 0.046875 0.671875
vt 0.046875 0.71875
vt 0.09375 0.71875
vt 0.140625 0.71875
vt 0.09375 0.71875
vt 0.09375 0.671875
vt 0.140625 0.671875
vn -0.043619387365335924 1.387778780781446e-17 -0.9990482215818579
vn 0.9753667896506382 -0.21643961393810282 -0.04258543371779504
vn 0.043619387365335924 -1.387778780781446e-17 0.9990482215818579
vn -0.9753667896506382 0.21643961393810282 0.04258543371779504
vn 0.2162336113847255 0.9762960071199334 -0.009440963361569861
vn -0.2162336113847255 -0.9762960071199334 0.009440963361569861
usemtl m_1c5348cb-4b7c-c154-b441-36953a7b32c9
f 52/148/37 55/147/37 53/146/37 50/145/37
f 51/152/38 52/151/38 50/150/38 49/149/38
f 56/156/39 51/155/39 49/154/39 54/153/39
f 55/160/40 56/159/40 54/158/40 53/157/40
f 54/164/41 49/163/41 50/162/41 53/161/41
f 55/168/42 52/167/42 51/166/42 56/165/42
o Brahma3
v 0.25953184458478284 0.18712464891258196 0.34948252233307686
v 0.25407942116411586 0.18712464891258196 0.22460149463534462
v 0.2054734417386015 -0.05694935286740134 0.3518427631734693
v 0.2000210183179345 -0.05694935286740134 0.2269617354757371
v 0.13215857245778612 0.21417960065484482 0.229924673850069
v 0.13761099587845307 0.21417960065484482 0.3548057015478012
v 0.07810016961160474 -0.029894401125138484 0.23228491469046147
v 0.08355259303227172 -0.029894401125138484 0.3571659423881937
vt 0.03125 0.53125
vt 0.0625 0.53125
vt 0.0625 0.46875
vt 0.03125 0.46875
vt 0 0.53125
vt 0.03125 0.53125
vt 0.03125 0.46875
vt 0 0.46875
vt 0.09375 0.53125
vt 0.125 0.53125
vt 0.125 0.46875
vt 0.09375 0.46875
vt 0.0625 0.53125
vt 0.09375 0.53125
vt 0.09375 0.46875
vt 0.0625 0.46875
vt 0.0625 0.53125
vt 0.03125 0.53125
vt 0.03125 0.5625
vt 0.0625 0.5625
vt 0.09375 0.5625
vt 0.0625 0.5625
vt 0.0625 0.53125
vt 0.09375 0.53125
vn -0.043619387365335924 1.387778780781446e-17 -0.9990482215818579
vn 0.9753667896506382 -0.21643961393810282 -0.04258543371779504
vn 0.043619387365335924 -1.387778780781446e-17 0.9990482215818579
vn -0.9753667896506382 0.21643961393810282 0.04258543371779504
vn 0.2162336113847255 0.9762960071199334 -0.009440963361569861
vn -0.2162336113847255 -0.9762960071199334 0.009440963361569861
usemtl m_1c5348cb-4b7c-c154-b441-36953a7b32c9
f 60/172/43 63/171/43 61/170/43 58/169/43
f 59/176/44 60/175/44 58/174/44 57/173/44
f 64/180/45 59/179/45 57/178/45 62/177/45
f 63/184/46 64/183/46 62/182/46 61/181/46
f 62/188/47 57/187/47 58/186/47 61/185/47
f 63/192/48 60/191/48 59/190/48 64/189/48