# Made in Blockbench 5.0.7
mtllib enxada.mtl

o cube
v 0.21875 -0.37553959918355706 -0.04421016240106679
v 0.21875 -0.37553959918355706 -0.04421016240106679
v 0.21875 -0.5001486832226965 0.24237111084428448
v 0.21875 -0.5001486832226965 0.24237111084428448
v -0.21875 -0.37553959918355706 -0.04421016240106679
v -0.21875 -0.37553959918355706 -0.04421016240106679
v -0.21875 -0.5001486832226965 0.24237111084428448
v -0.21875 -0.5001486832226965 0.24237111084428448
vt 0 1
vt 0.21875 1
vt 0.21875 0.84375
vt 0 0.84375
vn 0 -0.917060074385124 -0.3987490689252463
usemtl m_1e2ca8a3-bbac-108c-72a9-117d5630702e
f 4/4/1 7/3/1 5/2/1 2/1/1
o cube
v 0 0.8593995961350209 0.5117882181254886
v 0 0.883250720557089 0.3890848201945306
v 0 -0.490337781105517 0.2494258494827395
v 0 -0.4664866566834489 0.1267224515517815
v 0 0.883250720557089 0.3890848201945306
v 0 0.8593995961350209 0.5117882181254886
v 0 -0.4664866566834489 0.1267224515517815
v 0 -0.490337781105517 0.2494258494827395
vt 0.09375 0.84375
vt 0.125 0.84375
vt 0.125 0.15625
vt 0.09375 0.15625
vt 0.09375 0.84375
vt 0.125 0.84375
vt 0.125 0.15625
vt 0.09375 0.15625
vt 0.09375 0.84375
vt 0.125 0.84375
vt 0.125 0.15625
vt 0.09375 0.15625
vt 0.09375 0.84375
vt 0.125 0.84375
vt 0.125 0.15625
vt 0.09375 0.15625
vt 0.09375 0.84375
vt 0.125 0.84375
vt 0.125 0.8125
vt 0.09375 0.8125
vt 0.09375 0.84375
vt 0.125 0.84375
vt 0.125 0.8125
vt 0.09375 0.8125
vn 0 0.1908089953765448 -0.981627183447664
vn 1 0 0
vn 0 -0.1908089953765448 0.981627183447664
vn -1 0 0
vn 0 0.981627183447664 0.1908089953765448
vn 0 -0.981627183447664 -0.1908089953765448
usemtl m_1e2ca8a3-bbac-108c-72a9-117d5630702e
f 12/8/2 15/7/2 13/6/2 10/5/2
f 11/12/3 12/11/3 10/10/3 9/9/3
f 16/16/4 11/15/4 9/14/4 14/13/4
f 15/20/5 16/19/5 14/18/5 13/17/5
f 14/24/6 9/23/6 10/22/6 13/21/6
f 15/28/7 12/27/7 11/26/7 16/25/7