# Made in Blockbench 5.0.7
mtllib estante.mtl

o Block
v 0.5 0.25 0.5
v 0.5 0.25 -0.1875
v 0.5 -0.5 0.5
v 0.5 -0.5 -0.1875
v -0.5 0.25 -0.1875
v -0.5 0.25 0.5
v -0.5 -0.5 -0.1875
v -0.5 -0.5 0.5
vt 0.078125 0.9140625
vt 0.203125 0.9140625
vt 0.203125 0.8203125
vt 0.078125 0.8203125
vt 0 0.9140625
vt 0.078125 0.9140625
vt 0.078125 0.8203125
vt 0 0.8203125
vt 0.2890625 0.9140625
vt 0.4140625 0.9140625
vt 0.4140625 0.8203125
vt 0.2890625 0.8203125
vt 0.203125 0.9140625
vt 0.2890625 0.9140625
vt 0.2890625 0.8203125
vt 0.203125 0.8203125
vt 0.20703125 0.91796875
vt 0.08203125 0.91796875
vt 0.08203125 1
vt 0.20703125 1
vt 0.33203125 0.91796875
vt 0.20703125 0.91796875
vt 0.20703125 1
vt 0.33203125 1
vn 0 0 -1
vn 1 0 0
vn 0 0 1
vn -1 0 0
vn 0 1 0
vn 0 -1 0
usemtl m_f3c403ac-9710-4763-8ca6-72247bb83c69
f 4/4/1 7/3/1 5/2/1 2/1/1
f 3/8/2 4/7/2 2/6/2 1/5/2
f 8/12/3 3/11/3 1/10/3 6/9/3
f 7/16/4 8/15/4 6/14/4 5/13/4
f 6/20/5 1/19/5 2/18/5 5/17/5
f 7/24/6 4/23/6 3/22/6 8/21/6
o Block
v -1.3125 2 0.4375
v -1.3125 2 -0.0625
v -1.3125 0.25 0.4375
v -1.3125 0.25 -0.0625
v -1.375 2 -0.0625
v -1.375 2 0.4375
v -1.375 0.25 -0.0625
v -1.375 0.25 0.4375
vt 0 0.8203125
vt 0.00390625 0.8203125
vt 0.00390625 0.6015625
vt 0 0.6015625
vt 0 0.8203125
vt 0.0546875 0.8203125
vt 0.0546875 0.6015625
vt 0 0.6015625
vt 0 0.8203125
vt 0.00390625 0.8203125
vt 0.00390625 0.6015625
vt 0 0.6015625
vt 0 0.8203125
vt 0.0546875 0.8203125
vt 0.0546875 0.6015625
vt 0 0.6015625
vt 0.00390625 0.76171875
vt 0 0.76171875
vt 0 0.8203125
vt 0.00390625 0.8203125
vt 0.00390625 0.76171875
vt 0 0.76171875
vt 0 0.8203125
vt 0.00390625 0.8203125
vn 0 0 -1
vn 1 0 0
vn 0 0 1
vn -1 0 0
vn 0 1 0
vn 0 -1 0
usemtl m_f3c403ac-9710-4763-8ca6-72247bb83c69
f 12/28/7 15/27/7 13/26/7 10/25/7
f 11/32/8 12/31/8 10/30/8 9/29/8
f 16/36/9 11/35/9 9/34/9 14/33/9
f 15/40/10 16/39/10 14/38/10 13/37/10
f 14/44/11 9/43/11 10/42/11 13/41/11
f 15/48/12 12/47/12 11/46/12 16/45/12
o Block
v 0.375 2 0.4375
v 0.375 2 -0.0625
v 0.375 0.25 0.4375
v 0.375 0.25 -0.0625
v 0.3125 2 -0.0625
v 0.3125 2 0.4375
v 0.3125 0.25 -0.0625
v 0.3125 0.25 0.4375
vt 0 0.8203125
vt 0.00390625 0.8203125
vt 0.00390625 0.6015625
vt 0 0.6015625
vt 0 0.8203125
vt 0.0546875 0.8203125
vt 0.0546875 0.6015625
vt 0 0.6015625
vt 0 0.8203125
vt 0.00390625 0.8203125
vt 0.00390625 0.6015625
vt 0 0.6015625
vt 0 0.8203125
vt 0.0546875 0.8203125
vt 0.0546875 0.6015625
vt 0 0.6015625
vt 0.00390625 0.76171875
vt 0 0.76171875
vt 0 0.8203125
vt 0.00390625 0.8203125
vt 0.00390625 0.76171875
vt 0 0.76171875
vt 0 0.8203125
vt 0.00390625 0.8203125
vn 0 0 -1
vn 1 0 0
vn 0 0 1
vn -1 0 0
vn 0 1 0
vn 0 -1 0
usemtl m_f3c403ac-9710-4763-8ca6-72247bb83c69
f 20/52/13 23/51/13 21/50/13 18/49/13
f 19/56/14 20/55/14 18/54/14 17/53/14
f 24/60/15 19/59/15 17/58/15 22/57/15
f 23/64/16 24/63/16 22/62/16 21/61/16
f 22/68/17 17/67/17 18/66/17 21/65/17
f 23/72/18 20/71/18 19/70/18 24/69/18
o Block
v 0.3125 1.5625 0.4375
v 0.3125 1.5625 -0.0625
v 0.3125 1.5 0.4375
v 0.3125 1.5 -0.0625
v -1.3125 1.5625 -0.0625
v -1.3125 1.5625 0.4375
v -1.3125 1.5 -0.0625
v -1.3125 1.5 0.4375
vt 0 0.81640625
vt 0.00390625 0.81640625
vt 0.00390625 0.59765625
vt 0 0.59765625
vt 0 0.81640625
vt 0.05859375 0.81640625
vt 0.05859375 0.59765625
vt 0 0.59765625
vt 0 0.81640625
vt 0.00390625 0.81640625
vt 0.00390625 0.59765625
vt 0 0.59765625
vt 0 0.81640625
vt 0.05859375 0.81640625
vt 0.05859375 0.59765625
vt 0 0.59765625
vt 0.00390625 0.7578125
vt 0 0.7578125
vt 0 0.81640625
vt 0.00390625 0.81640625
vt 0.00390625 0.7578125
vt 0 0.7578125
vt 0 0.81640625
vt 0.00390625 0.81640625
vn 0 0 -1
vn 1 0 0
vn 0 0 1
vn -1 0 0
vn 0 1 0
vn 0 -1 0
usemtl m_f3c403ac-9710-4763-8ca6-72247bb83c69
f 28/76/19 31/75/19 29/74/19 26/73/19
f 27/80/20 28/79/20 26/78/20 25/77/20
f 32/84/21 27/83/21 25/82/21 30/81/21
f 31/88/22 32/87/22 30/86/22 29/85/22
f 30/92/23 25/91/23 26/90/23 29/89/23
f 31/96/24 28/95/24 27/94/24 32/93/24
o Block
v -1.3125 1.0625000000000002 0.4375
v -1.3125 1.0625000000000002 -0.0625
v 0.3125 1.0624999999999998 0.4375
v 0.3125 1.0624999999999998 -0.0625
v -1.3125 1.0000000000000002 -0.0625
v -1.3125 1.0000000000000002 0.4375
v 0.3125 0.9999999999999998 -0.0625
v 0.3125 0.9999999999999998 0.4375
vt 0 0.8203125
vt 0.00390625 0.8203125
vt 0.00390625 0.6015625
vt 0 0.6015625
vt 0 0.8203125
vt 0.05859375 0.8203125
vt 0.05859375 0.6015625
vt 0 0.6015625
vt 0 0.8203125
vt 0.00390625 0.8203125
vt 0.00390625 0.6015625
vt 0 0.6015625
vt 0 0.8203125
vt 0.05859375 0.8203125
vt 0.05859375 0.6015625
vt 0 0.6015625
vt 0.00390625 0.76171875
vt 0 0.76171875
vt 0 0.8203125
vt 0.00390625 0.8203125
vt 0.00390625 0.76171875
vt 0 0.76171875
vt 0 0.8203125
vt 0.00390625 0.8203125
vn 0 0 -1
vn 2.220446049250313e-16 1 0
vn 0 0 1
vn -2.220446049250313e-16 -1 0
vn -1 2.220446049250313e-16 0
vn 1 -2.220446049250313e-16 0
usemtl m_f3c403ac-9710-4763-8ca6-72247bb83c69
f 36/100/25 39/99/25 37/98/25 34/97/25
f 35/104/26 36/103/26 34/102/26 33/101/26
f 40/108/27 35/107/27 33/106/27 38/105/27
f 39/112/28 40/111/28 38/110/28 37/109/28
f 38/116/29 33/115/29 34/114/29 37/113/29
f 39/120/30 36/119/30 35/118/30 40/117/30
o Block
v -0.4375 1.8125 0.4375
v -0.4375 1.8125 0
v -0.4375 1.5625 0.4375
v -0.4375 1.5625 0
v -0.5 1.8125 0
v -0.5 1.8125 0.4375
v -0.5 1.5625 0
v -0.5 1.5625 0.4375
vt 0 0.8203125
vt 0.00390625 0.8203125
vt 0.00390625 0.765625
vt 0 0.765625
vt 0 0.8203125
vt 0.0546875 0.8203125
vt 0.0546875 0.765625
vt 0 0.765625
vt 0 0.8203125
vt 0.00390625 0.8203125
vt 0.00390625 0.765625
vt 0 0.765625
vt 0 0.8203125
vt 0.0546875 0.8203125
vt 0.0546875 0.765625
vt 0 0.765625
vt 0.00390625 0.76171875
vt 0 0.76171875
vt 0 0.8203125
vt 0.00390625 0.8203125
vt 0.00390625 0.76171875
vt 0 0.76171875
vt 0 0.8203125
vt 0.00390625 0.8203125
vn 0 0 -1
vn 1 0 0
vn 0 0 1
vn -1 0 0
vn 0 1 0
vn 0 -1 0
usemtl m_f3c403ac-9710-4763-8ca6-72247bb83c69
f 44/124/31 47/123/31 45/122/31 42/121/31
f 43/128/32 44/127/32 42/126/32 41/125/32
f 48/132/33 43/131/33 41/130/33 46/129/33
f 47/136/34 48/135/34 46/134/34 45/133/34
f 46/140/35 41/139/35 42/138/35 45/137/35
f 47/144/36 44/143/36 43/142/36 48/141/36
o Block
v -0.828125 1.5 0.4375
v -0.828125 1.5 0
v -0.828125 1.0625 0.4375
v -0.828125 1.0625 0
v -0.890625 1.5 0
v -0.890625 1.5 0.4375
v -0.890625 1.0625 0
v -0.890625 1.0625 0.4375
vt 0 0.8203125
vt 0.00390625 0.8203125
vt 0.00390625 0.765625
vt 0 0.765625
vt 0 0.8203125
vt 0.0546875 0.8203125
vt 0.0546875 0.765625
vt 0 0.765625
vt 0 0.8203125
vt 0.00390625 0.8203125
vt 0.00390625 0.765625
vt 0 0.765625
vt 0 0.8203125
vt 0.0546875 0.8203125
vt 0.0546875 0.765625
vt 0 0.765625
vt 0.00390625 0.76171875
vt 0 0.76171875
vt 0 0.8203125
vt 0.00390625 0.8203125
vt 0.00390625 0.76171875
vt 0 0.76171875
vt 0 0.8203125
vt 0.00390625 0.8203125
vn 0 0 -1
vn 1 0 0
vn 0 0 1
vn -1 0 0
vn 0 1 0
vn 0 -1 0
usemtl m_f3c403ac-9710-4763-8ca6-72247bb83c69
f 52/148/37 55/147/37 53/146/37 50/145/37
f 51/152/38 52/151/38 50/150/38 49/149/38
f 56/156/39 51/155/39 49/154/39 54/153/39
f 55/160/40 56/159/40 54/158/40 53/157/40
f 54/164/41 49/163/41 50/162/41 53/161/41
f 55/168/42 52/167/42 51/166/42 56/165/42
o Block
v -0.0625 1.5 0.4375
v -0.0625 1.5 0
v -0.0625 1.0625 0.4375
v -0.0625 1.0625 0
v -0.125 1.5 0
v -0.125 1.5 0.4375
v -0.125 1.0625 0
v -0.125 1.0625 0.4375
vt 0 0.8203125
vt 0.00390625 0.8203125
vt 0.00390625 0.765625
vt 0 0.765625
vt 0 0.8203125
vt 0.0546875 0.8203125
vt 0.0546875 0.765625
vt 0 0.765625
vt 0 0.8203125
vt 0.00390625 0.8203125
vt 0.00390625 0.765625
vt 0 0.765625
vt 0 0.8203125
vt 0.0546875 0.8203125
vt 0.0546875 0.765625
vt 0 0.765625
vt 0.00390625 0.76171875
vt 0 0.76171875
vt 0 0.8203125
vt 0.00390625 0.8203125
vt 0.00390625 0.76171875
vt 0 0.76171875
vt 0 0.8203125
vt 0.00390625 0.8203125
vn 0 0 -1
vn 1 0 0
vn 0 0 1
vn -1 0 0
vn 0 1 0
vn 0 -1 0
usemtl m_f3c403ac-9710-4763-8ca6-72247bb83c69
f 60/172/43 63/171/43 61/170/43 58/169/43
f 59/176/44 60/175/44 58/174/44 57/173/44
f 64/180/45 59/179/45 57/178/45 62/177/45
f 63/184/46 64/183/46 62/182/46 61/181/46
f 62/188/47 57/187/47 58/186/47 61/185/47
f 63/192/48 60/191/48 59/190/48 64/189/48
o Block
v -0.625 1 0.4375
v -0.625 1 -0.0625
v -0.625 0.25 0.4375
v -0.625 0.25 -0.0625
v -1.375 1 -0.0625
v -1.375 1 0.4375
v -1.375 0.25 -0.0625
v -1.375 0.25 0.4375
vt 0.125 0.7578125
vt 0.21875 0.7578125
vt 0.21875 0.6640625
vt 0.125 0.6640625
vt 0.06640625 0.7578125
vt 0.125 0.7578125
vt 0.125 0.6640625
vt 0.06640625 0.6640625
vt 0.2734375 0.7578125
vt 0.3671875 0.7578125
vt 0.3671875 0.6640625
vt 0.2734375 0.6640625
vt 0.21875 0.640625
vt 0.26171875 0.640625
vt 0.26171875 0.625
vt 0.21875 0.625
vt 0.21875 0.7578125
vt 0.125 0.7578125
vt 0.125 0.81640625
vt 0.21875 0.81640625
vt 0.3125 0.7578125
vt 0.21875 0.7578125
vt 0.21875 0.81640625
vt 0.3125 0.81640625
vn 0 0 -1
vn 1 0 0
vn 0 0 1
vn -1 0 0
vn 0 1 0
vn 0 -1 0
usemtl m_f3c403ac-9710-4763-8ca6-72247bb83c69
f 68/196/49 71/195/49 69/194/49 66/193/49
f 67/200/50 68/199/50 66/198/50 65/197/50
f 72/204/51 67/203/51 65/202/51 70/201/51
f 71/208/52 72/207/52 70/206/52 69/205/52
f 70/212/53 65/211/53 66/210/53 69/209/53
f 71/216/54 68/215/54 67/214/54 72/213/54
o Block
v 0.3125 2.0625 -0.0625
v 0.3125 2.0625 -0.0625
v 0.3125 1.875 -0.0625
v 0.3125 1.875 -0.0625
v -1.3125 2.0625 -0.0625
v -1.3125 2.0625 -0.0625
v -1.3125 1.875 -0.0625
v -1.3125 1.875 -0.0625
vt 0 0.59375
vt 0.203125 0.59375
vt 0.203125 0.5703125
vt 0 0.5703125
vt 0 0.59375
vt 0 0.59375
vt 0 0.5703125
vt 0 0.5703125
vt 0.21484375 0.59375
vt 0.4296875 0.59375
vt 0.4296875 0.5703125
vt 0.21484375 0.5703125
vt 0.21484375 0.59375
vt 0.21484375 0.59375
vt 0.21484375 0.5703125
vt 0.21484375 0.5703125
vt 0.21484375 0.59375
vt 0 0.59375
vt 0 0.59375
vt 0.21484375 0.59375
vt 0.4296875 0.59375
vt 0.21484375 0.59375
vt 0.21484375 0.59375
vt 0.4296875 0.59375
vn 0 0 -1
vn 1 0 0
vn 0 0 1
vn -1 0 0
vn 0 1 0
vn 0 -1 0
usemtl m_f3c403ac-9710-4763-8ca6-72247bb83c69
f 76/220/55 79/219/55 77/218/55 74/217/55
f 75/224/56 76/223/56 74/222/56 73/221/56
f 80/228/57 75/227/57 73/226/57 78/225/57
f 79/232/58 80/231/58 78/230/58 77/229/58
f 78/236/59 73/235/59 74/234/59 77/233/59
f 79/240/60 76/239/60 75/238/60 80/237/60
o Block
v -0.5 0.25 0.5
v -0.5 0.25 -0.1875
v -0.5 -0.5 0.5
v -0.5 -0.5 -0.1875
v -1.5 0.25 -0.1875
v -1.5 0.25 0.5
v -1.5 -0.5 -0.1875
v -1.5 -0.5 0.5
vt 0.078125 0.9140625
vt 0.203125 0.9140625
vt 0.203125 0.8203125
vt 0.078125 0.8203125
vt 0 0.9140625
vt 0.078125 0.9140625
vt 0.078125 0.8203125
vt 0 0.8203125
vt 0.2890625 0.9140625
vt 0.4140625 0.9140625
vt 0.4140625 0.8203125
vt 0.2890625 0.8203125
vt 0.203125 0.9140625
vt 0.2890625 0.9140625
vt 0.2890625 0.8203125
vt 0.203125 0.8203125
vt 0.20703125 0.91796875
vt 0.08203125 0.91796875
vt 0.08203125 1
vt 0.20703125 1
vt 0.33203125 0.91796875
vt 0.20703125 0.91796875
vt 0.20703125 1
vt 0.33203125 1
vn 0 0 -1
vn 1 0 0
vn 0 0 1
vn -1 0 0
vn 0 1 0
vn 0 -1 0
usemtl m_f3c403ac-9710-4763-8ca6-72247bb83c69
f 84/244/61 87/243/61 85/242/61 82/241/61
f 83/248/62 84/247/62 82/246/62 81/245/62
f 88/252/63 83/251/63 81/250/63 86/249/63
f 87/256/64 88/255/64 86/254/64 85/253/64
f 86/260/65 81/259/65 82/258/65 85/257/65
f 87/264/66 84/263/66 83/262/66 88/261/66
o Block
v 0.3125 1.875 0.4375
v 0.3125 1.875 -0.0625
v 0.3125 1.8125 0.4375
v 0.3125 1.8125 -0.0625
v -1.3125 1.875 -0.0625
v -1.3125 1.875 0.4375
v -1.3125 1.8125 -0.0625
v -1.3125 1.8125 0.4375
vt 0 0.81640625
vt 0.00390625 0.81640625
vt 0.00390625 0.59765625
vt 0 0.59765625
vt 0 0.81640625
vt 0.05859375 0.81640625
vt 0.05859375 0.59765625
vt 0 0.59765625
vt 0 0.81640625
vt 0.00390625 0.81640625
vt 0.00390625 0.59765625
vt 0 0.59765625
vt 0 0.81640625
vt 0.05859375 0.81640625
vt 0.05859375 0.59765625
vt 0 0.59765625
vt 0.00390625 0.7578125
vt 0 0.7578125
vt 0 0.81640625
vt 0.00390625 0.81640625
vt 0.00390625 0.7578125
vt 0 0.7578125
vt 0 0.81640625
vt 0.00390625 0.81640625
vn 0 0 -1
vn 1 0 0
vn 0 0 1
vn -1 0 0
vn 0 1 0
vn 0 -1 0
usemtl m_f3c403ac-9710-4763-8ca6-72247bb83c69
f 92/268/67 95/267/67 93/266/67 90/265/67
f 91/272/68 92/271/68 90/270/68 89/269/68
f 96/276/69 91/275/69 89/274/69 94/273/69
f 95/280/70 96/279/70 94/278/70 93/277/70
f 94/284/71 89/283/71 90/282/71 93/281/71
f 95/288/72 92/287/72 91/286/72 96/285/72
o Block1
v 0.2562080845732315 0.3453200765530976 -0.01742210117295602
v 0.23606141336311562 0.3704299866530516 -0.07099311996039104
v 0.23813829902535188 0.17381531673652945 -0.09101456145602387
v 0.217991627815236 0.19892522683648345 -0.14458558024345888
v 0.17720496124572804 0.3676853131608057 -0.05014522290638036
v 0.19735163245584392 0.3425754030608517 0.003425795881054655
v 0.1591351756978484 0.1961805533442376 -0.12373768318944821
v 0.1792818469079643 0.1710706432442836 -0.07016666440201319
vt 0 1
vt 0.00390625 1
vt 0.00390625 0.96875
vt 0 0.96875
vt 0 1
vt 0.00390625 1
vt 0.00390625 0.96875
vt 0 0.96875
vt 0 1
vt 0.00390625 1
vt 0.00390625 0.96875
vt 0 0.96875
vt 0 1
vt 0.00390625 1
vt 0.00390625 0.96875
vt 0 0.96875
vt 0.00390625 0.99609375
vt 0 0.99609375
vt 0 1
vt 0.00390625 1
vt 0.00390625 0.99609375
vt 0 0.99609375
vt 0 1
vt 0.00390625 1
vn -0.32234673936185443 0.40175856159926393 -0.8571363005989605
vn 0.9417032338782012 0.0439147758759339 -0.3335663528641707
vn 0.32234673936185443 -0.40175856159926393 0.8571363005989605
vn -0.9417032338782012 -0.0439147758759339 0.3335663528641707
vn 0.09637218958869126 0.9146920523550303 0.3924931215096952
vn -0.09637218958869126 -0.9146920523550303 -0.3924931215096952
usemtl m_f3c403ac-9710-4763-8ca6-72247bb83c69
f 100/292/73 103/291/73 101/290/73 98/289/73
f 99/296/74 100/295/74 98/294/74 97/293/74
f 104/300/75 99/299/75 97/298/75 102/297/75
f 103/304/76 104/303/76 102/302/76 101/301/76
f 102/308/77 97/307/77 98/306/77 101/305/77
f 103/312/78 100/311/78 99/310/78 104/309/78
o Block1
v 0.2571396130239724 0.43185831100698435 -0.0013420005297175575
v 0.23809200428818272 0.41256612405202797 -0.0576558542776478
v 0.29277255185352846 0.19431999275358003 0.06798217297212478
v 0.27372494311773876 0.17502780579862365 0.011668319224194479
v 0.17923555217079512 0.40982145055978214 -0.03680795722363711
v 0.19828316090658493 0.4291136375147385 0.019505896524293187
v 0.2148684910003512 0.17228313230637776 0.03251621627820517
v 0.23391609973614097 0.19157531926133414 0.08883007002613547
vt 0 1
vt 0.00390625 1
vt 0.00390625 0.96875
vt 0 0.96875
vt 0 1
vt 0.00390625 1
vt 0.00390625 0.96875
vt 0 0.96875
vt 0 1
vt 0.00390625 1
vt 0.00390625 0.96875
vt 0 0.96875
vt 0 1
vt 0.00390625 1
vt 0.00390625 0.96875
vt 0 0.96875
vt 0.00390625 0.99609375
vt 0 0.99609375
vt 0 1
vt 0.00390625 1
vt 0.00390625 0.99609375
vt 0 0.99609375
vt 0 1
vt 0.00390625 1
vn -0.30476173977263593 -0.3086749912793021 -0.9010216599668841
vn 0.9417032338782013 0.04391477587593387 -0.3335663528641707
vn 0.30476173977263593 0.3086749912793021 0.9010216599668841
vn -0.9417032338782013 -0.04391477587593387 0.3335663528641707
vn -0.14253175531822404 0.9501532730136173 -0.27729669400736917
vn 0.14253175531822404 -0.9501532730136173 0.27729669400736917
usemtl m_f3c403ac-9710-4763-8ca6-72247bb83c69
f 108/316/79 111/315/79 109/314/79 106/313/79
f 107/320/80 108/319/80 106/318/80 105/317/80
f 112/324/81 107/323/81 105/322/81 110/321/81
f 111/328/82 112/327/82 110/326/82 109/325/82
f 110/332/83 105/331/83 106/330/83 109/329/83
f 111/336/84 108/335/84 107/334/84 112/333/84
o Block1
v -0.3029281068518043 0.3536811963825444 0.18186590132699976
v -0.3230747791131774 0.37879109650475556 0.1282948782581298
v -0.3209978818509113 0.1821764234184607 0.10827346909365287
v -0.3411445541122844 0.20728632354067184 0.054702446024782914
v -0.38193123123056494 0.3760464230125097 0.14914277531214049
v -0.36178455896919187 0.35093652289029853 0.20271379838101045
v -0.40000100622967194 0.20454165004842595 0.0755503430787936
v -0.3798543339682988 0.1794317499262148 0.12912136614766356
vt 0 1
vt 0.00390625 1
vt 0.00390625 0.96875
vt 0 0.96875
vt 0 1
vt 0.00390625 1
vt 0.00390625 0.96875
vt 0 0.96875
vt 0 1
vt 0.00390625 1
vt 0.00390625 0.96875
vt 0 0.96875
vt 0 1
vt 0.00390625 1
vt 0.00390625 0.96875
vt 0 0.96875
vt 0.00390625 0.99609375
vt 0 0.99609375
vt 0 1
vt 0.00390625 1
vt 0.00390625 0.99609375
vt 0 0.99609375
vt 0 1
vt 0.00390625 1
vn -0.3223467561819697 0.40175840195537826 -0.85713636910192
vn 0.9417032338782012 0.04391477587593391 -0.33356635286417075
vn 0.3223467561819697 -0.40175840195537826 0.85713636910192
vn -0.9417032338782012 -0.04391477587593391 0.33356635286417075
vn 0.09637213332857045 0.9146921224751131 0.3924929719111833
vn -0.09637213332857045 -0.9146921224751131 -0.3924929719111833
usemtl m_f3c403ac-9710-4763-8ca6-72247bb83c69
f 116/340/85 119/339/85 117/338/85 114/337/85
f 115/344/86 116/343/86 114/342/86 113/341/86
f 120/348/87 115/347/87 113/346/87 118/345/87
f 119/352/88 120/351/88 118/350/88 117/349/88
f 118/356/89 113/355/89 114/354/89 117/353/89
f 119/360/90 116/359/90 115/358/90 120/357/90
o Block1
v -0.3019966943603355 0.42459402148986325 0.1979458654197573
v -0.32104430154134467 0.40530182417034283 0.14163201469666561
v -0.27527198026486427 0.2464402929011782 0.24993902503200313
v -0.29431958744587344 0.22714809558165772 0.19362517430891144
v -0.3799007536587322 0.40255715067809694 0.1624799117506763
v -0.36085314647772304 0.4218493479976174 0.218793762473768
v -0.35317603956326094 0.22440342208941189 0.21447307136292212
v -0.33412843238225176 0.24369561940893236 0.27078692208601385
vt 0 1
vt 0.00390625 1
vt 0.00390625 0.96875
vt 0 0.96875
vt 0 1
vt 0.00390625 1
vt 0.00390625 0.96875
vt 0 0.96875
vt 0 1
vt 0.00390625 1
vt 0.00390625 0.96875
vt 0 0.96875
vt 0 1
vt 0.00390625 1
vt 0.00390625 0.96875
vt 0 0.96875
vt 0.00390625 0.99609375
vt 0 0.99609375
vt 0 1
vt 0.00390625 1
vt 0.00390625 0.99609375
vt 0 0.99609375
vt 0 1
vt 0.00390625 1
vn -0.3047617148961472 -0.3086751571123274 -0.9010216115694673
vn 0.9417032338782013 0.043914775875933926 -0.33356635286417075
vn 0.3047617148961472 0.3086751571123274 0.9010216115694673
vn -0.9417032338782013 -0.043914775875933926 0.33356635286417075
vn -0.14253180850917982 0.9501532191396538 -0.27729685126531095
vn 0.14253180850917982 -0.9501532191396538 0.27729685126531095
usemtl m_f3c403ac-9710-4763-8ca6-72247bb83c69
f 124/364/91 127/363/91 125/362/91 122/361/91
f 123/368/92 124/367/92 122/366/92 121/365/92
f 128/372/93 123/371/93 121/370/93 126/369/93
f 127/376/94 128/375/94 126/374/94 125/373/94
f 126/380/95 121/379/95 122/378/95 125/377/95
f 127/384/96 124/383/96 123/382/96 128/381/96
o Block1
v 0.2826614489000886 0.8625 -0.01835590629644991
v 0.2616336586131248 0.8625 -0.07721235909176773
v 0.2826614489000886 0.36250000000000004 -0.01835590629644991
v 0.2616336586131248 0.36250000000000004 -0.07721235909176773
v -0.44464377493068874 0.8625 0.1751211243517975
v -0.42361598464372496 0.8625 0.2339775771471153
v -0.44464377493068874 0.36250000000000004 0.1751211243517975
v -0.42361598464372496 0.36250000000000004 0.2339775771471153
vt 0.015625 0.546875
vt 0.109375 0.546875
vt 0.109375 0.484375
vt 0.015625 0.484375
vt 0 0.546875
vt 0.01171875 0.546875
vt 0.01171875 0.421875
vt 0 0.421875
vt 0.203125 0.546875
vt 0.3828125 0.546875
vt 0.3828125 0.421875
vt 0.203125 0.421875
vt 0.19140625 0.546875
vt 0.203125 0.546875
vt 0.203125 0.421875
vt 0.19140625 0.421875
vt 0.19140625 0.546875
vt 0.01171875 0.546875
vt 0.01171875 0.55859375
vt 0.19140625 0.55859375
vt 0.37109375 0.546875
vt 0.19140625 0.546875
vt 0.19140625 0.55859375
vt 0.37109375 0.55859375
vn -0.33644464459142026 0 -0.9417032447250848
vn 0.9417032447250848 0 -0.33644464459142026
vn 0.33644464459142026 0 0.9417032447250848
vn -0.9417032447250848 0 0.33644464459142026
vn 0 1 0
vn 0 -1 0
usemtl m_f3c403ac-9710-4763-8ca6-72247bb83c69
f 132/388/97 135/387/97 133/386/97 130/385/97
f 131/392/98 132/391/98 130/390/98 129/389/98
f 136/396/99 131/395/99 129/394/99 134/393/99
f 135/400/100 136/399/100 134/398/100 133/397/100
f 134/404/101 129/403/101 130/402/101 133/401/101
f 135/408/102 132/407/102 131/406/102 136/405/102