# Made in Blockbench 5.0.7
mtllib guardaroupao_aberto.mtl

o Block
v 0.5 1.5125 0.25
v 0.5 1.5125 -0.25
v 0.5 -0.48750000000000004 0.25
v 0.5 -0.48750000000000004 -0.25
v -0.5 1.5125 -0.25
v -0.5 1.5125 0.25
v -0.5 -0.48750000000000004 -0.25
v -0.5 -0.48750000000000004 0.25
vt 0.046875 0.828125
vt 0.171875 0.828125
vt 0.171875 0.328125
vt 0.046875 0.328125
vt 0.421875 0.828125
vt 0.671875 0.828125
vt 0.671875 0.328125
vt 0.421875 0.328125
vt 0.046875 0.828125
vt 0.171875 0.828125
vt 0.171875 0.328125
vt 0.046875 0.328125
vt 0.171875 0.953125
vt 0.421875 0.953125
vt 0.421875 0.828125
vt 0.171875 0.828125
vt 0.171875 0.953125
vt 0.421875 0.953125
vt 0.421875 0.828125
vt 0.171875 0.828125
vn 1 0 0
vn 0 0 1
vn -1 0 0
vn 0 1 0
vn 0 -1 0
usemtl m_8789171d-84b6-5253-d000-935ced8ae23e
f 3/4/1 4/3/1 2/2/1 1/1/1
f 8/8/2 3/7/2 1/6/2 6/5/2
f 7/12/3 8/11/3 6/10/3 5/9/3
f 6/16/4 1/15/4 2/14/4 5/13/4
f 7/20/5 4/19/5 3/18/5 8/17/5
o cube
v 0.5 1.5125 -0.25
v 0.5 1.5125 -0.25
v 0.5 -0.48750000000000004 -0.25
v 0.5 -0.48750000000000004 -0.25
v 0.4347369038899743 1.5125 -0.7457224306869052
v 0.4347369038899743 1.5125 -0.7457224306869052
v 0.4347369038899743 -0.48750000000000004 -0.7457224306869052
v 0.4347369038899743 -0.48750000000000004 -0.7457224306869052
vt 0.171875 0.828125
vt 0.296875 0.828125
vt 0.296875 0.328125
vt 0.171875 0.328125
vn 0.9914448613738105 0 -0.13052619222005135
usemtl m_8789171d-84b6-5253-d000-935ced8ae23e
f 12/24/6 15/23/6 13/22/6 10/21/6
o cube
v -0.4347369038899743 1.5125 -0.7457224306869052
v -0.4347369038899743 1.5125 -0.7457224306869052
v -0.4347369038899743 -0.48750000000000004 -0.7457224306869052
v -0.4347369038899743 -0.48750000000000004 -0.7457224306869052
v -0.5 1.5125 -0.25
v -0.5 1.5125 -0.25
v -0.5 -0.48750000000000004 -0.25
v -0.5 -0.48750000000000004 -0.25
vt 0.296875 0.828125
vt 0.421875 0.828125
vt 0.421875 0.328125
vt 0.296875 0.328125
vn -0.9914448613738105 0 -0.13052619222005135
usemtl m_8789171d-84b6-5253-d000-935ced8ae23e
f 20/28/7 23/27/7 21/26/7 18/25/7