# Made in Blockbench 5.0.7
mtllib liq_off.mtl

o cube
v 0.21875 0.3125 0.21875
v 0.21875 0.3125 -0.21875
v 0.21875 -0.25 0.21875
v 0.21875 -0.25 -0.21875
v -0.21875 0.3125 -0.21875
v -0.21875 0.3125 0.21875
v -0.21875 -0.25 -0.21875
v -0.21875 -0.25 0.21875
vt 0.03125 0.6875
vt 0.25 0.6875
vt 0.25 0.40625
vt 0.03125 0.40625
vt 0.03125 0.6875
vt 0.25 0.6875
vt 0.25 0.40625
vt 0.03125 0.40625
vt 0.03125 0.6875
vt 0.25 0.6875
vt 0.25 0.40625
vt 0.03125 0.40625
vt 0.03125 0.6875
vt 0.25 0.6875
vt 0.25 0.40625
vt 0.03125 0.40625
vt 0.28125 1
vt 0.5 1
vt 0.5 0.78125
vt 0.28125 0.78125
vn 0 0 -1
vn 1 0 0
vn 0 0 1
vn -1 0 0
vn 0 -1 0
usemtl m_23f86ade-b2a0-9d04-8a50-a1d873c307e4
f 4/4/1 7/3/1 5/2/1 2/1/1
f 3/8/2 4/7/2 2/6/2 1/5/2
f 8/12/3 3/11/3 1/10/3 6/9/3
f 7/16/4 8/15/4 6/14/4 5/13/4
f 7/20/5 4/19/5 3/18/5 8/17/5
o cube
v 0.15625 -0.25 0.15625
v 0.15625 -0.25 -0.15625
v 0.15625 -0.5 0.15625
v 0.15625 -0.5 -0.15625
v -0.15625 -0.25 -0.15625
v -0.15625 -0.25 0.15625
v -0.15625 -0.5 -0.15625
v -0.15625 -0.5 0.15625
vt 0.0625 0.40625
vt 0.21875 0.40625
vt 0.21875 0.28125
vt 0.0625 0.28125
vt 0.0625 0.40625
vt 0.21875 0.40625
vt 0.21875 0.28125
vt 0.0625 0.28125
vt 0.0625 0.40625
vt 0.21875 0.40625
vt 0.21875 0.28125
vt 0.0625 0.28125
vt 0.0625 0.40625
vt 0.21875 0.40625
vt 0.21875 0.28125
vt 0.0625 0.28125
vt 0.0625 0.25
vt 0.21875 0.25
vt 0.21875 0.09375
vt 0.0625 0.09375
vt 0.0625 0.25
vt 0.21875 0.25
vt 0.21875 0.09375
vt 0.0625 0.09375
vn 0 0 -1
vn 1 0 0
vn 0 0 1
vn -1 0 0
vn 0 1 0
vn 0 -1 0
usemtl m_23f86ade-b2a0-9d04-8a50-a1d873c307e4
f 12/24/6 15/23/6 13/22/6 10/21/6
f 11/28/7 12/27/7 10/26/7 9/25/7
f 16/32/8 11/31/8 9/30/8 14/29/8
f 15/36/9 16/35/9 14/34/9 13/33/9
f 14/40/10 9/39/10 10/38/10 13/37/10
f 15/44/11 12/43/11 11/42/11 16/41/11
o cube
v 0.21875 0.375 0.21875
v 0.21875 0.375 -0.21875
v 0.21875 0.3125 0.21875
v 0.21875 0.3125 -0.21875
v -0.21875 0.375 -0.21875
v -0.21875 0.375 0.21875
v -0.21875 0.3125 -0.21875
v -0.21875 0.3125 0.21875
vt 0.03125 0.71875
vt 0.25 0.71875
vt 0.25 0.6875
vt 0.03125 0.6875
vt 0.03125 0.71875
vt 0.25 0.71875
vt 0.25 0.6875
vt 0.03125 0.6875
vt 0.03125 0.71875
vt 0.25 0.71875
vt 0.25 0.6875
vt 0.03125 0.6875
vt 0.03125 0.71875
vt 0.25 0.71875
vt 0.25 0.6875
vt 0.03125 0.6875
vt 0.03125 1
vt 0.25 1
vt 0.25 0.78125
vt 0.03125 0.78125
vt 0.03125 1
vt 0.25 1
vt 0.25 0.78125
vt 0.03125 0.78125
vn 0 0 -1
vn 1 0 0
vn 0 0 1
vn -1 0 0
vn 0 1 0
vn 0 -1 0
usemtl m_23f86ade-b2a0-9d04-8a50-a1d873c307e4
f 20/48/12 23/47/12 21/46/12 18/45/12
f 19/52/13 20/51/13 18/50/13 17/49/13
f 24/56/14 19/55/14 17/54/14 22/53/14
f 23/60/15 24/59/15 22/58/15 21/57/15
f 22/64/16 17/63/16 18/62/16 21/61/16
f 23/68/17 20/67/17 19/66/17 24/65/17
o cube
v 0.08496635503468593 -0.14787953796180942 0.03125
v 0.08496635503468593 -0.14787953796180942 -0.03125
v 0.08496635503468593 -0.14787953796180942 0.03125
v 0.08496635503468593 -0.14787953796180942 -0.03125
v -0.08496635503468593 -0.22712046203819058 -0.03125
v -0.08496635503468593 -0.22712046203819058 0.03125
v -0.08496635503468593 -0.22712046203819058 -0.03125
v -0.08496635503468593 -0.22712046203819058 0.03125
vt 0.53125 1
vt 0.5625 1
vt 0.5625 0.90625
vt 0.53125 0.90625
vn -0.42261826174069944 0.9063077870366499 0
usemtl m_23f86ade-b2a0-9d04-8a50-a1d873c307e4
f 30/72/18 25/71/18 26/70/18 29/69/18
o cube
v -0.03124999999999995 -0.1478795379618092 0.08496635503468582
v 0.031250000000000035 -0.1478795379618092 0.08496635503468579
v -0.03124999999999995 -0.1478795379618092 0.08496635503468582
v 0.031250000000000035 -0.1478795379618092 0.08496635503468579
v 0.03124999999999995 -0.2271204620381908 -0.08496635503468582
v -0.031250000000000035 -0.2271204620381908 -0.08496635503468579
v 0.03124999999999995 -0.2271204620381908 -0.08496635503468582
v -0.031250000000000035 -0.2271204620381908 -0.08496635503468579
vt 0.53125 1
vt 0.5625 1
vt 0.5625 0.90625
vt 0.53125 0.90625
vn -1.6252511561050632e-16 0.9063077870366488 -0.422618261740702
usemtl m_23f86ade-b2a0-9d04-8a50-a1d873c307e4
f 38/76/19 33/75/19 34/74/19 37/73/19
o cube
v 0.09375 0.4375 0.09375
v 0.09375 0.4375 -0.09375
v 0.09375 0.375 0.09375
v 0.09375 0.375 -0.09375
v -0.09375 0.4375 -0.09375
v -0.09375 0.4375 0.09375
v -0.09375 0.375 -0.09375
v -0.09375 0.375 0.09375
vt 0.09375 0.65625
vt 0.1875 0.65625
vt 0.1875 0.625
vt 0.09375 0.625
vt 0.09375 0.65625
vt 0.1875 0.65625
vt 0.1875 0.625
vt 0.09375 0.625
vt 0.09375 0.65625
vt 0.1875 0.65625
vt 0.1875 0.625
vt 0.09375 0.625
vt 0.09375 0.65625
vt 0.1875 0.65625
vt 0.1875 0.625
vt 0.09375 0.625
vt 0.09375 0.65625
vt 0.1875 0.65625
vt 0.1875 0.5625
vt 0.09375 0.5625
vt 0 1
vt 0 1
vt 0 1
vt 0 1
vn 0 0 -1
vn 1 0 0
vn 0 0 1
vn -1 0 0
vn 0 1 0
vn 0 -1 0
usemtl m_23f86ade-b2a0-9d04-8a50-a1d873c307e4
f 44/80/20 47/79/20 45/78/20 42/77/20
f 43/84/21 44/83/21 42/82/21 41/81/21
f 48/88/22 43/87/22 41/86/22 46/85/22
f 47/92/23 48/91/23 46/90/23 45/89/23
f 46/96/24 41/95/24 42/94/24 45/93/24
f 47/100/25 44/99/25 43/98/25 48/97/25