# Made in Blockbench 5.0.7
mtllib lixeira_open.mtl

o Block
v -0.31250000000000006 0.265625 -0.31249999999999994
v -0.31249999999999994 0.265625 0.31250000000000006
v -0.31250000000000006 -0.484375 -0.31249999999999994
v -0.31249999999999994 -0.484375 0.31250000000000006
v 0.31250000000000006 0.265625 0.31249999999999994
v 0.31249999999999994 0.265625 -0.31250000000000006
v 0.31250000000000006 -0.484375 0.31249999999999994
v 0.31249999999999994 -0.484375 -0.31250000000000006
vt 0 0.65625
vt 0.3125 0.65625
vt 0.3125 0.25
vt 0 0.25
vt 0 0.65625
vt 0.3125 0.65625
vt 0.3125 0.25
vt 0 0.25
vt 0 0.65625
vt 0.3125 0.65625
vt 0.3125 0.25
vt 0 0.25
vt 0 0.65625
vt 0.3125 0.65625
vt 0.3125 0.25
vt 0 0.25
vt 0.3125 0.6875
vt 0.625 0.6875
vt 0.625 0.375
vt 0.3125 0.375
vt 0.3125 1
vt 0.625 1
vt 0.625 0.6875
vt 0.3125 0.6875
vn 1.2246467991473532e-16 0 1
vn -1 0 1.2246467991473532e-16
vn -1.2246467991473532e-16 0 -1
vn 1 0 -1.2246467991473532e-16
vn 0 1 0
vn 0 -1 0
usemtl m_7b586040-5f59-98ca-fd6a-a08c8ee21ff0
f 4/4/1 7/3/1 5/2/1 2/1/1
f 3/8/2 4/7/2 2/6/2 1/5/2
f 8/12/3 3/11/3 1/10/3 6/9/3
f 7/16/4 8/15/4 6/14/4 5/13/4
f 6/20/5 1/19/5 2/18/5 5/17/5
f 7/24/6 4/23/6 3/22/6 8/21/6
o Block1
v -0.31249999999999994 0.924842926909029 0.24129364302552475
v -0.31249999999999994 0.32113928547836135 0.4030555462146002
v -0.31249999999999994 0.8924905462712139 0.1205529147393912
v -0.31249999999999994 0.28878690484054625 0.28231481792846663
v 0.31250000000000006 0.32113928547836135 0.4030555462146001
v 0.31250000000000006 0.924842926909029 0.24129364302552464
v 0.31250000000000006 0.28878690484054625 0.2823148179284666
v 0.31250000000000006 0.8924905462712139 0.12055291473939111
vt 0 0.6875
vt 0.3125 0.6875
vt 0.3125 0.65625
vt 0 0.65625
vt 0 0.6875
vt 0.3125 0.6875
vt 0.3125 0.65625
vt 0 0.65625
vt 0 0.6875
vt 0.3125 0.6875
vt 0.3125 0.65625
vt 0 0.65625
vt 0 0.6875
vt 0.3125 0.6875
vt 0.3125 0.65625
vt 0 0.65625
vt 0 1
vt 0.3125 1
vt 0.3125 0.6875
vt 0 0.6875
vn 3.169619151431765e-17 -0.9659258262890683 0.25881904510252074
vn -1 0 1.2246467991473532e-16
vn -3.169619151431765e-17 0.9659258262890683 -0.25881904510252074
vn 1 0 -1.2246467991473532e-16
vn 1.1829179713786698e-16 0.25881904510252074 0.9659258262890683
usemtl m_7b586040-5f59-98ca-fd6a-a08c8ee21ff0
f 12/28/7 15/27/7 13/26/7 10/25/7
f 11/32/8 12/31/8 10/30/8 9/29/8
f 16/36/9 11/35/9 9/34/9 14/33/9
f 15/40/10 16/39/10 14/38/10 13/37/10
f 14/44/11 9/43/11 10/42/11 13/41/11