# Made in Blockbench 5.0.7
mtllib maquina_lavar.mtl

o Block
v -0.49375 0.4687500000000002 -0.496875
v -0.49375 0.46875 0.503125
v -0.49375000000000013 -0.4687499999999999 -0.4968750000000001
v -0.49375000000000013 -0.46875 0.5031249999999998
v 0.50625 0.4687499999999998 0.503125
v 0.50625 0.46875 -0.496875
v 0.5062499999999999 -0.4687500000000001 0.5031249999999998
v 0.5062499999999999 -0.46875 -0.4968750000000001
vt 0.75 0.75
vt 1 0.75
vt 1 0.515625
vt 0.75 0.515625
vt 0.5 0.75
vt 0.75 0.75
vt 0.75 0.515625
vt 0.5 0.515625
vt 0.25 0.75
vt 0.5 0.75
vt 0.5 0.515625
vt 0.25 0.515625
vt 0 0.75
vt 0.25 0.75
vt 0.25 0.515625
vt 0 0.515625
vt 0.25 1
vt 0.5 1
vt 0.5 0.75
vt 0.25 0.75
vt 0.5 1
vt 0.75 1
vt 0.75 0.75
vt 0.5 0.75
vn -1.4997597826618576e-32 -1.2246467991473532e-16 1
vn -1 1.2246467991473532e-16 0
vn 1.4997597826618576e-32 1.2246467991473532e-16 -1
vn 1 -1.2246467991473532e-16 0
vn 1.2246467991473532e-16 1 1.2246467991473532e-16
vn -1.2246467991473532e-16 -1 -1.2246467991473532e-16
usemtl m_46e845da-86b9-ae8d-ea04-e2c2f6a5da43
f 4/4/1 7/3/1 5/2/1 2/1/1
f 3/8/2 4/7/2 2/6/2 1/5/2
f 8/12/3 3/11/3 1/10/3 6/9/3
f 7/16/4 8/15/4 6/14/4 5/13/4
f 6/20/5 1/19/5 2/18/5 5/17/5
f 7/24/6 4/23/6 3/22/6 8/21/6
o cube
v 0.5 0.6875 0.5
v 0.5 0.6875 0.375
v 0.5 0.4375 0.5
v 0.5 0.4375 0.375
v -0.5 0.6875 0.375
v -0.5 0.6875 0.5
v -0.5 0.4375 0.375
v -0.5 0.4375 0.5
vt 0 1
vt 0.25 1
vt 0.25 0.9375
vt 0 0.9375
vt 0 1
vt 0.03125 1
vt 0.03125 0.9375
vt 0 0.9375
vt 0 0.75
vt 0.25 0.75
vt 0.25 0.6875
vt 0 0.6875
vt 0.21875 1
vt 0.25 1
vt 0.25 0.9375
vt 0.21875 0.9375
vt 0.25 0.71875
vt 0 0.71875
vt 0 0.75
vt 0.25 0.75
vn 0 0 -1
vn 1 0 0
vn 0 0 1
vn -1 0 0
vn 0 1 0
usemtl m_46e845da-86b9-ae8d-ea04-e2c2f6a5da43
f 12/28/7 15/27/7 13/26/7 10/25/7
f 11/32/8 12/31/8 10/30/8 9/29/8
f 16/36/9 11/35/9 9/34/9 14/33/9
f 15/40/10 16/39/10 14/38/10 13/37/10
f 14/44/11 9/43/11 10/42/11 13/41/11