# Made in Blockbench 5.0.7
mtllib microondas_pizza_congelada.mtl

o microondas
v -0.1875 0.140625 0.3125
v -0.1875 0.140625 -0.375
v -0.1875 -0.484375 0.3125
v -0.1875 -0.484375 -0.375
v -0.1875 0.140625 -0.375
v -0.1875 0.140625 0.3125
v -0.1875 -0.484375 -0.375
v -0.1875 -0.484375 0.3125
vt 0 0.65625
vt 0.34375 0.65625
vt 0.34375 0.34375
vt 0 0.34375
vn 1 0 0
usemtl m_50f0e2fb-97cb-79f5-b4cd-c64201dffdd3
f 3/4/1 4/3/1 2/2/1 1/1/1
o microondas
v 0.5 0.140625 0.3125
v 0.5 0.140625 -0.375
v 0.5 -0.484375 0.3125
v 0.5 -0.484375 -0.375
v -0.5 0.140625 -0.375
v -0.5 0.140625 0.3125
v -0.5 -0.484375 -0.375
v -0.5 -0.484375 0.3125
vt 0 1
vt 0.5 1
vt 0.5 0.6875
vt 0 0.6875
vt 0 0.65625
vt 0.34375 0.65625
vt 0.34375 0.34375
vt 0 0.34375
vt 0 0.65625
vt 0.5 0.65625
vt 0.5 0.34375
vt 0 0.34375
vt 0 0.65625
vt 0.34375 0.65625
vt 0.34375 0.34375
vt 0 0.34375
vt 0 0.65625
vt 0.5 0.65625
vt 0.5 0.34375
vt 0 0.34375
vt 0 0.3125
vt 0.5 0.3125
vt 0.5 0
vt 0 0
vn 0 0 -1
vn 1 0 0
vn 0 0 1
vn -1 0 0
vn 0 1 0
vn 0 -1 0
usemtl m_50f0e2fb-97cb-79f5-b4cd-c64201dffdd3
f 12/8/2 15/7/2 13/6/2 10/5/2
f 11/12/3 12/11/3 10/10/3 9/9/3
f 16/16/4 11/15/4 9/14/4 14/13/4
f 15/20/5 16/19/5 14/18/5 13/17/5
f 14/24/6 9/23/6 10/22/6 13/21/6
f 15/28/7 12/27/7 11/26/7 16/25/7
o pizza_frozen
v 0.46875 -0.421875 0.25
v 0.46875 -0.421875 -0.375
v 0.46875 -0.421875 0.25
v 0.46875 -0.421875 -0.375
v -0.15625 -0.421875 -0.375
v -0.15625 -0.421875 0.25
v -0.15625 -0.421875 -0.375
v -0.15625 -0.421875 0.25
vt 0.53125 0.96875
vt 1 0.96875
vt 1 0.5
vt 0.53125 0.5
vn 0 1 0
usemtl m_50f0e2fb-97cb-79f5-b4cd-c64201dffdd3
f 22/32/8 17/31/8 18/30/8 21/29/8