# Made in Blockbench 5.0.7
mtllib pa.mtl

o cube
v 0.21875 -0.502878377892473 0.11049765683764556
v 0.21875 -0.502878377892473 0.11049765683764556
v 0.21875 -0.07574887477750204 0.20518998793556573
v 0.21875 -0.07574887477750204 0.20518998793556573
v -0.21875 -0.502878377892473 0.11049765683764556
v -0.21875 -0.502878377892473 0.11049765683764556
v -0.21875 -0.07574887477750204 0.20518998793556573
v -0.21875 -0.07574887477750204 0.20518998793556573
vt 0 1
vt 0.4375 1
vt 0.4375 0.78125
vt 0 0.78125
vn 0 -0.21643961393810318 0.9762960071199334
usemtl m_1e2ca8a3-bbac-108c-72a9-117d5630702e
f 4/4/1 7/3/1 5/2/1 2/1/1
o cube
v 0 1.2470432055822624 0.5271261428668583
v 0 1.2708943300043305 0.40442274493590036
v 0 -0.10269417165827553 0.26476377422410924
v 0 -0.07884304723620744 0.14206037629315127
v 0 1.2708943300043305 0.40442274493590036
v 0 1.2470432055822624 0.5271261428668583
v 0 -0.07884304723620744 0.14206037629315127
v 0 -0.10269417165827553 0.26476377422410924
vt 0.1875 0.78125
vt 0.25 0.78125
vt 0.25 0.09375
vt 0.1875 0.09375
vt 0.1875 0.78125
vt 0.25 0.78125
vt 0.25 0.09375
vt 0.1875 0.09375
vt 0.1875 0.78125
vt 0.25 0.78125
vt 0.25 0.09375
vt 0.1875 0.09375
vt 0.1875 0.78125
vt 0.25 0.78125
vt 0.25 0.09375
vt 0.1875 0.09375
vt 0.1875 0.78125
vt 0.25 0.78125
vt 0.25 0.75
vt 0.1875 0.75
vt 0.1875 0.78125
vt 0.25 0.78125
vt 0.25 0.75
vt 0.1875 0.75
vn 0 0.1908089953765448 -0.981627183447664
vn 1 0 0
vn 0 -0.1908089953765448 0.981627183447664
vn -1 0 0
vn 0 0.981627183447664 0.1908089953765448
vn 0 -0.981627183447664 -0.1908089953765448
usemtl m_1e2ca8a3-bbac-108c-72a9-117d5630702e
f 12/8/2 15/7/2 13/6/2 10/5/2
f 11/12/3 12/11/3 10/10/3 9/9/3
f 16/16/4 11/15/4 9/14/4 14/13/4
f 15/20/5 16/19/5 14/18/5 13/17/5
f 14/24/6 9/23/6 10/22/6 13/21/6
f 15/28/7 12/27/7 11/26/7 16/25/7