# Made in Blockbench 5.0.7
mtllib pia_vovo.mtl

o cube
v -0.09374999999999975 0.53125 0.35937499999999967
v -0.09374999999999975 0.53125 0.29687499999999967
v -0.09374999999999975 0.46875 0.35937499999999967
v -0.09374999999999975 0.46875 0.29687499999999967
v -0.15624999999999975 0.53125 0.29687499999999967
v -0.15624999999999975 0.53125 0.35937499999999967
v -0.15624999999999975 0.46875 0.29687499999999967
v -0.15624999999999975 0.46875 0.35937499999999967
vt 0.015625 0.984375
vt 0.0234375 0.984375
vt 0.0234375 0.9765625
vt 0.015625 0.9765625
vt 0.0078125 0.984375
vt 0.015625 0.984375
vt 0.015625 0.9765625
vt 0.0078125 0.9765625
vt 0.03125 0.984375
vt 0.0390625 0.984375
vt 0.0390625 0.9765625
vt 0.03125 0.9765625
vt 0.0234375 0.984375
vt 0.03125 0.984375
vt 0.03125 0.9765625
vt 0.0234375 0.9765625
vt 0.0234375 0.984375
vt 0.015625 0.984375
vt 0.015625 0.9921875
vt 0.0234375 0.9921875
vt 0.03125 0.9921875
vt 0.0234375 0.9921875
vt 0.0234375 0.984375
vt 0.03125 0.984375
vn 1.224646799147353e-16 -1.2246467991473535e-16 -1
vn 1 -1.224646799147353e-16 1.2246467991473535e-16
vn -1.224646799147353e-16 1.2246467991473535e-16 1
vn -1 1.224646799147353e-16 -1.2246467991473535e-16
vn 1.2246467991473535e-16 1 -1.224646799147353e-16
vn -1.2246467991473535e-16 -1 1.224646799147353e-16
usemtl m_600d649f-1986-d7ca-1fb2-d113df44f43e
f 4/4/1 7/3/1 5/2/1 2/1/1
f 3/8/2 4/7/2 2/6/2 1/5/2
f 8/12/3 3/11/3 1/10/3 6/9/3
f 7/16/4 8/15/4 6/14/4 5/13/4
f 6/20/5 1/19/5 2/18/5 5/17/5
f 7/24/6 4/23/6 3/22/6 8/21/6
o cube
v 0.2031250000000002 0.53125 0.35937499999999967
v 0.2031250000000002 0.53125 0.29687499999999967
v 0.2031250000000002 0.46875 0.35937499999999967
v 0.2031250000000002 0.46875 0.29687499999999967
v 0.14062500000000025 0.53125 0.29687499999999967
v 0.14062500000000025 0.53125 0.35937499999999967
v 0.14062500000000025 0.46875 0.29687499999999967
v 0.14062500000000025 0.46875 0.35937499999999967
vt 0.015625 0.984375
vt 0.0234375 0.984375
vt 0.0234375 0.9765625
vt 0.015625 0.9765625
vt 0.0078125 0.984375
vt 0.015625 0.984375
vt 0.015625 0.9765625
vt 0.0078125 0.9765625
vt 0.03125 0.984375
vt 0.0390625 0.984375
vt 0.0390625 0.9765625
vt 0.03125 0.9765625
vt 0.0234375 0.984375
vt 0.03125 0.984375
vt 0.03125 0.9765625
vt 0.0234375 0.9765625
vt 0.0234375 0.984375
vt 0.015625 0.984375
vt 0.015625 0.9921875
vt 0.0234375 0.9921875
vt 0.03125 0.9921875
vt 0.0234375 0.9921875
vt 0.0234375 0.984375
vt 0.03125 0.984375
vn 1.224646799147353e-16 -1.2246467991473535e-16 -1
vn 1 -1.224646799147353e-16 1.2246467991473535e-16
vn -1.224646799147353e-16 1.2246467991473535e-16 1
vn -1 1.224646799147353e-16 -1.2246467991473535e-16
vn 1.2246467991473535e-16 1 -1.224646799147353e-16
vn -1.2246467991473535e-16 -1 1.224646799147353e-16
usemtl m_600d649f-1986-d7ca-1fb2-d113df44f43e
f 12/28/7 15/27/7 13/26/7 10/25/7
f 11/32/8 12/31/8 10/30/8 9/29/8
f 16/36/9 11/35/9 9/34/9 14/33/9
f 15/40/10 16/39/10 14/38/10 13/37/10
f 14/44/11 9/43/11 10/42/11 13/41/11
f 15/48/12 12/47/12 11/46/12 16/45/12
o cube
v -1.375 0.4062500000000001 0.4374999999999995
v -1.375 0.40625 -0.5000000000000004
v -1.375 -0.5312499999999998 0.4374999999999996
v -1.375 -0.5312499999999999 -0.5000000000000003
v -1.5 0.4062500000000001 -0.5000000000000006
v -1.5 0.4062500000000002 0.4374999999999995
v -1.5 -0.5312499999999999 -0.5000000000000004
v -1.5 -0.5312499999999998 0.4374999999999996
vt 0.4140625 0.5234375
vt 0.4296875 0.5234375
vt 0.4296875 0.40625
vt 0.4140625 0.40625
vt 0.4140625 0.5234375
vt 0.53125 0.5234375
vt 0.53125 0.40625
vt 0.4140625 0.40625
vt 0.4140625 0.5234375
vt 0.4296875 0.5234375
vt 0.4296875 0.40625
vt 0.4140625 0.40625
vt 0.4140625 0.5234375
vt 0.53125 0.5234375
vt 0.53125 0.40625
vt 0.4140625 0.40625
vt 0.4140625 0.5234375
vt 0.4296875 0.5234375
vt 0.4296875 0.40625
vt 0.4140625 0.40625
vt 0.4140625 0.5234375
vt 0.4296875 0.5234375
vt 0.4296875 0.40625
vt 0.4140625 0.40625
vn 1.224646799147353e-16 -1.2246467991473535e-16 -1
vn 1 -1.224646799147353e-16 1.2246467991473535e-16
vn -1.224646799147353e-16 1.2246467991473535e-16 1
vn -1 1.224646799147353e-16 -1.2246467991473535e-16
vn 1.2246467991473535e-16 1 -1.224646799147353e-16
vn -1.2246467991473535e-16 -1 1.224646799147353e-16
usemtl m_600d649f-1986-d7ca-1fb2-d113df44f43e
f 20/52/13 23/51/13 21/50/13 18/49/13
f 19/56/14 20/55/14 18/54/14 17/53/14
f 24/60/15 19/59/15 17/58/15 22/57/15
f 23/64/16 24/63/16 22/62/16 21/61/16
f 22/68/17 17/67/17 18/66/17 21/65/17
f 23/72/18 20/71/18 19/70/18 24/69/18
o cube
v 1.5 0.4062499999999999 0.43749999999999983
v 1.5 0.4062499999999998 -0.5000000000000001
v 1.5 -0.5312500000000001 0.43749999999999994
v 1.5 -0.5312500000000002 -0.5
v 1.3750000000000002 0.4062499999999998 -0.5000000000000002
v 1.375 0.4062499999999999 0.43749999999999983
v 1.375 -0.5312500000000002 -0.5
v 1.375 -0.5312500000000001 0.43749999999999994
vt 0.25 0.5234375
vt 0.265625 0.5234375
vt 0.265625 0.40625
vt 0.25 0.40625
vt 0.25 0.5234375
vt 0.3671875 0.5234375
vt 0.3671875 0.40625
vt 0.25 0.40625
vt 0.25 0.5234375
vt 0.265625 0.5234375
vt 0.265625 0.40625
vt 0.25 0.40625
vt 0.25 0.5234375
vt 0.3671875 0.5234375
vt 0.3671875 0.40625
vt 0.25 0.40625
vt 0.25 0.5234375
vt 0.265625 0.5234375
vt 0.265625 0.40625
vt 0.25 0.40625
vt 0.25 0.5234375
vt 0.265625 0.5234375
vt 0.265625 0.40625
vt 0.25 0.40625
vn 1.224646799147353e-16 -1.2246467991473535e-16 -1
vn 1 -1.224646799147353e-16 1.2246467991473535e-16
vn -1.224646799147353e-16 1.2246467991473535e-16 1
vn -1 1.224646799147353e-16 -1.2246467991473535e-16
vn 1.2246467991473535e-16 1 -1.224646799147353e-16
vn -1.2246467991473535e-16 -1 1.224646799147353e-16
usemtl m_600d649f-1986-d7ca-1fb2-d113df44f43e
f 28/76/19 31/75/19 29/74/19 26/73/19
f 27/80/20 28/79/20 26/78/20 25/77/20
f 32/84/21 27/83/21 25/82/21 30/81/21
f 31/88/22 32/87/22 30/86/22 29/85/22
f 30/92/23 25/91/23 26/90/23 29/89/23
f 31/96/24 28/95/24 27/94/24 32/93/24
o cube
v 1.3750000000000002 0.4062499999999998 -0.42187500000000017
v 1.3750000000000002 0.4062499999999998 -0.42187500000000017
v 1.3750000000000002 -0.4687500000000002 -0.42187500000000006
v 1.3750000000000002 -0.4687500000000002 -0.42187500000000006
v -1.3749999999999998 0.4062500000000001 -0.4218750000000005
v -1.3749999999999998 0.4062500000000001 -0.4218750000000005
v -1.3749999999999998 -0.4687499999999999 -0.4218750000000004
v -1.3749999999999998 -0.4687499999999999 -0.4218750000000004
vt 0.34375 0.75
vt 0.6875 0.75
vt 0.6875 0.640625
vt 0.34375 0.640625
vt 0.34375 0.75
vt 0.34375 0.75
vt 0.34375 0.640625
vt 0.34375 0.640625
vt 0 0.75
vt 0.34375 0.75
vt 0.34375 0.640625
vt 0 0.640625
vt 0 0.75
vt 0 0.75
vt 0 0.640625
vt 0 0.640625
vt 0 0.75
vt 0.34375 0.75
vt 0.34375 0.75
vt 0 0.75
vt 0.34375 0.75
vt 0.6875 0.75
vt 0.6875 0.75
vt 0.34375 0.75
vn 1.224646799147353e-16 -1.2246467991473535e-16 -1
vn 1 -1.224646799147353e-16 1.2246467991473535e-16
vn -1.224646799147353e-16 1.2246467991473535e-16 1
vn -1 1.224646799147353e-16 -1.2246467991473535e-16
vn 1.2246467991473535e-16 1 -1.224646799147353e-16
vn -1.2246467991473535e-16 -1 1.224646799147353e-16
usemtl m_600d649f-1986-d7ca-1fb2-d113df44f43e
f 36/100/25 39/99/25 37/98/25 34/97/25
f 35/104/26 36/103/26 34/102/26 33/101/26
f 40/108/27 35/107/27 33/106/27 38/105/27
f 39/112/28 40/111/28 38/110/28 37/109/28
f 38/116/29 33/115/29 34/114/29 37/113/29
f 39/120/30 36/119/30 35/118/30 40/117/30
o cube
v -0.5624999999999998 0.21875000000000006 -0.2500000000000004
v -0.5624999999999998 0.2187500000000001 0.3124999999999996
v -0.5624999999999998 0.46875 -0.2500000000000004
v -0.5624999999999998 0.4687500000000001 0.3124999999999996
v 0.5000000000000002 0.21874999999999997 0.3124999999999997
v 0.5000000000000002 0.21874999999999992 -0.2500000000000003
v 0.5000000000000002 0.46874999999999994 0.3124999999999997
v 0.5000000000000002 0.4687499999999999 -0.2500000000000003
vt 0.546875 0.5703125
vt 0.4140625 0.5703125
vt 0.4140625 0.5390625
vt 0.546875 0.5390625
vt 0.6171875 0.5703125
vt 0.546875 0.5703125
vt 0.546875 0.5390625
vt 0.6171875 0.5390625
vt 0.75 0.5703125
vt 0.6171875 0.5703125
vt 0.6171875 0.5390625
vt 0.75 0.5390625
vt 0.8203125 0.5703125
vt 0.75 0.5703125
vt 0.75 0.5390625
vt 0.8203125 0.5390625
vt 0.75 0.640625
vt 0.6171875 0.640625
vt 0.6171875 0.5703125
vt 0.75 0.5703125
vt 0.6171875 0.640625
vt 0.484375 0.640625
vt 0.484375 0.5703125
vt 0.6171875 0.5703125
vn 1.224646799147353e-16 -1.2246467991473535e-16 -1
vn 1 -1.224646799147353e-16 1.2246467991473535e-16
vn -1.224646799147353e-16 1.2246467991473535e-16 1
vn -1 1.224646799147353e-16 -1.2246467991473535e-16
vn 1.2246467991473535e-16 1 -1.224646799147353e-16
vn -1.2246467991473535e-16 -1 1.224646799147353e-16
usemtl m_600d649f-1986-d7ca-1fb2-d113df44f43e
f 44/124/31 47/123/31 45/122/31 42/121/31
f 43/128/32 44/127/32 42/126/32 41/125/32
f 48/132/33 43/131/33 41/130/33 46/129/33
f 47/136/34 48/135/34 46/134/34 45/133/34
f 46/140/35 41/139/35 42/138/35 45/137/35
f 47/144/36 44/143/36 43/142/36 48/141/36
o cube
v 0.23437500000000022 0.5625 0.39062499999999967
v 0.23437500000000022 0.5625 0.26562499999999967
v 0.23437500000000022 0.5 0.39062499999999967
v 0.23437500000000022 0.5 0.26562499999999967
v 0.10937500000000029 0.5625 0.26562499999999967
v 0.10937500000000028 0.5625 0.39062499999999967
v 0.10937500000000028 0.5 0.26562499999999967
v 0.10937500000000026 0.5 0.39062499999999967
vt 0.015625 0.96875
vt 0 0.96875
vt 0 0.9765625
vt 0.015625 0.9765625
vt 0 0.96875
vt -0.015625 0.96875
vt -0.015625 0.9765625
vt 0 0.9765625
vt 0.046875 0.96875
vt 0.03125 0.96875
vt 0.03125 0.9765625
vt 0.046875 0.9765625
vt 0.03125 0.96875
vt 0.015625 0.96875
vt 0.015625 0.9765625
vt 0.03125 0.9765625
vt 0.015625 0.984375
vt 0.03125 0.984375
vt 0.03125 0.96875
vt 0.015625 0.96875
vt 0.03125 0.96875
vt 0.046875 0.96875
vt 0.046875 0.984375
vt 0.03125 0.984375
vn 1.224646799147353e-16 -1.2246467991473535e-16 -1
vn 1 -1.224646799147353e-16 1.2246467991473535e-16
vn -1.224646799147353e-16 1.2246467991473535e-16 1
vn -1 1.224646799147353e-16 -1.2246467991473535e-16
vn 1.2246467991473535e-16 1 -1.224646799147353e-16
vn -1.2246467991473535e-16 -1 1.224646799147353e-16
usemtl m_600d649f-1986-d7ca-1fb2-d113df44f43e
f 52/148/37 55/147/37 53/146/37 50/145/37
f 51/152/38 52/151/38 50/150/38 49/149/38
f 56/156/39 51/155/39 49/154/39 54/153/39
f 55/160/40 56/159/40 54/158/40 53/157/40
f 54/164/41 49/163/41 50/162/41 53/161/41
f 55/168/42 52/167/42 51/166/42 56/165/42
o cube
v 1.5000000000000002 0.4687499999999998 0.43749999999999983
v 1.5000000000000002 0.46874999999999967 -0.5000000000000002
v 1.5000000000000002 0.4062499999999998 0.43749999999999983
v 1.5000000000000002 0.40624999999999967 -0.5000000000000002
v -1.4999999999999996 0.46875000000000006 -0.5000000000000004
v -1.4999999999999998 0.46875000000000017 0.4374999999999995
v -1.4999999999999996 0.40625000000000006 -0.5000000000000004
v -1.4999999999999998 0.40625000000000017 0.4374999999999995
vt 0.1171875 0.8828125
vt -0.2578125 0.8828125
vt -0.2578125 0.875
vt 0.1171875 0.875
vt 0 0.8828125
vt -0.1171875 0.8828125
vt -0.1171875 0.875
vt 0 0.875
vt 0.609375 0.8828125
vt 0.234375 0.8828125
vt 0.234375 0.875
vt 0.609375 0.875
vt 0.4921875 0.8828125
vt 0.375 0.8828125
vt 0.375 0.875
vt 0.4921875 0.875
vt 0.1171875 0.8828125
vt 0.4921875 0.8828125
vt 0.4921875 1
vt 0.1171875 1
vt 0.4921875 1
vt 0.8671875 1
vt 0.8671875 0.8828125
vt 0.4921875 0.8828125
vn 1.224646799147353e-16 -1.2246467991473535e-16 -1
vn 1 -1.224646799147353e-16 1.2246467991473535e-16
vn -1.224646799147353e-16 1.2246467991473535e-16 1
vn -1 1.224646799147353e-16 -1.2246467991473535e-16
vn 1.2246467991473535e-16 1 -1.224646799147353e-16
vn -1.2246467991473535e-16 -1 1.224646799147353e-16
usemtl m_600d649f-1986-d7ca-1fb2-d113df44f43e
f 60/172/43 63/171/43 61/170/43 58/169/43
f 59/176/44 60/175/44 58/174/44 57/173/44
f 64/180/45 59/179/45 57/178/45 62/177/45
f 63/184/46 64/183/46 62/182/46 61/181/46
f 62/188/47 57/187/47 58/186/47 61/185/47
f 63/192/48 60/191/48 59/190/48 64/189/48
o cube
v 0.07812500000000033 0.640625 0.446875029802322
v 0.07812500000000033 0.640625 0.321875029802322
v 0.07812500000000033 0.453125 0.446875029802322
v 0.07812500000000033 0.453125 0.321875029802322
v -0.04687499999999967 0.640625 0.32187502980232197
v -0.04687499999999967 0.640625 0.44687502980232197
v -0.04687499999999967 0.453125 0.321875029802322
v -0.04687499999999967 0.453125 0.446875029802322
vt 0.140625 0.9765625
vt 0.15625 0.9765625
vt 0.15625 0.953125
vt 0.140625 0.953125
vt 0.125 0.9765625
vt 0.140625 0.9765625
vt 0.140625 0.953125
vt 0.125 0.953125
vt 0.171875 0.9765625
vt 0.1875 0.9765625
vt 0.1875 0.953125
vt 0.171875 0.953125
vt 0.15625 0.9765625
vt 0.171875 0.9765625
vt 0.171875 0.953125
vt 0.15625 0.953125
vt 0.15625 0.9765625
vt 0.140625 0.9765625
vt 0.140625 0.9921875
vt 0.15625 0.9921875
vt 0.171875 0.9921875
vt 0.15625 0.9921875
vt 0.15625 0.9765625
vt 0.171875 0.9765625
vn 1.224646799147353e-16 -1.2246467991473535e-16 -1
vn 1 -1.224646799147353e-16 1.2246467991473535e-16
vn -1.224646799147353e-16 1.2246467991473535e-16 1
vn -1 1.224646799147353e-16 -1.2246467991473535e-16
vn 1.2246467991473535e-16 1 -1.224646799147353e-16
vn -1.2246467991473535e-16 -1 1.224646799147353e-16
usemtl m_600d649f-1986-d7ca-1fb2-d113df44f43e
f 68/196/49 71/195/49 69/194/49 66/193/49
f 67/200/50 68/199/50 66/198/50 65/197/50
f 72/204/51 67/203/51 65/202/51 70/201/51
f 71/208/52 72/207/52 70/206/52 69/205/52
f 70/212/53 65/211/53 66/210/53 69/209/53
f 71/216/54 68/215/54 67/214/54 72/213/54
o cube
v -0.062499999999999764 0.5625 0.39062499999999967
v -0.06249999999999975 0.5625 0.26562499999999967
v -0.062499999999999764 0.5 0.39062499999999967
v -0.06249999999999975 0.5 0.26562499999999967
v -0.18749999999999972 0.5625 0.26562499999999967
v -0.18749999999999975 0.5625 0.39062499999999967
v -0.18749999999999975 0.5 0.26562499999999967
v -0.18749999999999978 0.5 0.39062499999999967
vt 0.015625 0.984375
vt 0 0.984375
vt 0 0.9921875
vt 0.015625 0.9921875
vt 0 0.984375
vt -0.015625 0.984375
vt -0.015625 0.9921875
vt 0 0.9921875
vt 0.046875 0.984375
vt 0.03125 0.984375
vt 0.03125 0.9921875
vt 0.046875 0.9921875
vt 0.03125 0.984375
vt 0.015625 0.984375
vt 0.015625 0.9921875
vt 0.03125 0.9921875
vt 0.015625 1
vt 0.03125 1
vt 0.03125 0.984375
vt 0.015625 0.984375
vt 0.03125 0.984375
vt 0.046875 0.984375
vt 0.046875 1
vt 0.03125 1
vn 1.224646799147353e-16 -1.2246467991473535e-16 -1
vn 1 -1.224646799147353e-16 1.2246467991473535e-16
vn -1.224646799147353e-16 1.2246467991473535e-16 1
vn -1 1.224646799147353e-16 -1.2246467991473535e-16
vn 1.2246467991473535e-16 1 -1.224646799147353e-16
vn -1.2246467991473535e-16 -1 1.224646799147353e-16
usemtl m_600d649f-1986-d7ca-1fb2-d113df44f43e
f 76/220/55 79/219/55 77/218/55 74/217/55
f 75/224/56 76/223/56 74/222/56 73/221/56
f 80/228/57 75/227/57 73/226/57 78/225/57
f 79/232/58 80/231/58 78/230/58 77/229/58
f 78/236/59 73/235/59 74/234/59 77/233/59
f 79/240/60 76/239/60 75/238/60 80/237/60
o cube
v -0.012686862610280257 0.5820312360301614 0.3287500003352758
v -0.012686862610280257 0.5820312360301614 0.3287500003352758
v -0.012686862610280271 0.4570312360301614 0.3287500003352758
v -0.012686862610280271 0.4570312360301614 0.3287500003352758
v -0.012686862610280257 0.5820312360301614 0.3287500003352758
v -0.012686862610280257 0.5820312360301614 0.3287500003352758
v -0.012686862610280271 0.4570312360301614 0.3287500003352758
v -0.012686862610280271 0.4570312360301614 0.3287500003352758
vt 0.1875 0.921875
vt 0.1875 0.921875
vt 0.1875 0.90625
vt 0.1875 0.90625
vt 0.1875 0.921875
vt 0.1875 0.921875
vt 0.1875 0.90625
vt 0.1875 0.90625
vt 0.1875 0.921875
vt 0.1875 0.921875
vt 0.1875 0.90625
vt 0.1875 0.90625
vt 0.1875 0.921875
vt 0.1875 0.921875
vt 0.1875 0.90625
vt 0.1875 0.90625
vt 0.1875 0.921875
vt 0.1875 0.921875
vt 0.1875 0.921875
vt 0.1875 0.921875
vt 0.1875 0.921875
vt 0.1875 0.921875
vt 0.1875 0.921875
vt 0.1875 0.921875
vn 1.224646799147353e-16 -1.2246467991473535e-16 -1
vn 1 -1.224646799147353e-16 1.2246467991473535e-16
vn -1.224646799147353e-16 1.2246467991473535e-16 1
vn -1 1.224646799147353e-16 -1.2246467991473535e-16
vn 1.2246467991473535e-16 1 -1.224646799147353e-16
vn -1.2246467991473535e-16 -1 1.224646799147353e-16
usemtl m_600d649f-1986-d7ca-1fb2-d113df44f43e
f 84/244/61 87/243/61 85/242/61 82/241/61
f 83/248/62 84/247/62 82/246/62 81/245/62
f 88/252/63 83/251/63 81/250/63 86/249/63
f 87/256/64 88/255/64 86/254/64 85/253/64
f 86/260/65 81/259/65 82/258/65 85/257/65
f 87/264/66 84/263/66 83/262/66 88/261/66
o cube
v 0.04375000000000008 0.6875 0.40624999999999967
v 0.04375000000000011 0.6875 0.15624999999999967
v 0.043750000000000074 0.625 0.40624999999999967
v 0.0437500000000001 0.625 0.15624999999999967
v -0.018749999999999885 0.6875 0.15624999999999967
v -0.018749999999999916 0.6875 0.40624999999999967
v -0.018749999999999892 0.625 0.15624999999999967
v -0.018749999999999923 0.625 0.40624999999999967
vt 0.1640625 0.9609375
vt 0.171875 0.9609375
vt 0.171875 0.953125
vt 0.1640625 0.953125
vt 0.140625 0.953125
vt 0.171875 0.953125
vt 0.171875 0.9453125
vt 0.140625 0.9453125
vt 0.15625 0.953125
vt 0.1640625 0.953125
vt 0.1640625 0.9453125
vt 0.15625 0.9453125
vt 0.15625 0.953125
vt 0.1875 0.953125
vt 0.1875 0.9453125
vt 0.15625 0.9453125
vt 0.15625 0.921875
vt 0.1484375 0.921875
vt 0.1484375 0.953125
vt 0.15625 0.953125
vt 0.171875 0.921875
vt 0.1640625 0.921875
vt 0.1640625 0.890625
vt 0.171875 0.890625
vn 1.224646799147353e-16 -1.2246467991473535e-16 -1
vn 1 -1.224646799147353e-16 1.2246467991473535e-16
vn -1.224646799147353e-16 1.2246467991473535e-16 1
vn -1 1.224646799147353e-16 -1.2246467991473535e-16
vn 1.2246467991473535e-16 1 -1.224646799147353e-16
vn -1.2246467991473535e-16 -1 1.224646799147353e-16
usemtl m_600d649f-1986-d7ca-1fb2-d113df44f43e
f 92/268/67 95/267/67 93/266/67 90/265/67
f 91/272/68 92/271/68 90/270/68 89/269/68
f 96/276/69 91/275/69 89/274/69 94/273/69
f 95/280/70 96/279/70 94/278/70 93/277/70
f 94/284/71 89/283/71 90/282/71 93/281/71
f 95/288/72 92/287/72 91/286/72 96/285/72
o pia_vovo
v -1.3749999590205675 -0.37499999999999967 -0.4687501365980869
v -1.3750000409794207 -0.37499999999999967 0.46874986340190933
v -1.3749999590205675 -0.49999999999999967 -0.4687501365980869
v -1.3750000409794207 -0.49999999999999967 0.46874986340190933
v 1.3749999590205682 -0.37500000000000033 0.46875010381454524
v 1.3750000409794214 -0.37500000000000033 -0.468749896185451
v 1.3749999590205682 -0.5000000000000003 0.46875010381454524
v 1.3750000409794214 -0.5000000000000003 -0.468749896185451
vt 0.1171875 0.875
vt 0.4609375 0.875
vt 0.4609375 0.859375
vt 0.1171875 0.859375
vt 0.1171875 0.875
vt 0.234375 0.875
vt 0.234375 0.859375
vt 0.1171875 0.859375
vt 0.1171875 0.875
vt 0.4609375 0.875
vt 0.4609375 0.859375
vt 0.1171875 0.859375
vt 0.1171875 0.875
vt 0.234375 0.875
vt 0.234375 0.859375
vt 0.1171875 0.859375
vt 0.1171875 0.875
vt 0.4609375 0.875
vt 0.4609375 0.7578125
vt 0.1171875 0.7578125
vt 0.1171875 0.875
vt 0.4609375 0.875
vt 0.4609375 0.7578125
vt 0.1171875 0.7578125
vn -8.742277669594057e-8 2.1412404238419808e-23 0.9999999999999962
vn -0.9999999999999962 2.4492934912326737e-16 -8.742277669594057e-8
vn 8.742277669594057e-8 -2.1412404238419808e-23 -0.9999999999999962
vn 0.9999999999999962 -2.4492934912326737e-16 8.742277669594057e-8
vn 2.4492934912326836e-16 1 -4.25856815065792e-31
vn -2.4492934912326836e-16 -1 4.25856815065792e-31
usemtl m_600d649f-1986-d7ca-1fb2-d113df44f43e
f 100/292/73 103/291/73 101/290/73 98/289/73
f 99/296/74 100/295/74 98/294/74 97/293/74
f 104/300/75 99/299/75 97/298/75 102/297/75
f 103/304/76 104/303/76 102/302/76 101/301/76
f 102/308/77 97/307/77 98/306/77 101/305/77
f 103/312/78 100/311/78 99/310/78 104/309/78
o cube
v 0.043750000000000136 0.6217931509017944 0.21875000000000008
v 0.04375000000000014 0.6217931509017944 0.15624999999999986
v 0.04375000000000009 0.24679315090179443 0.2187500000000001
v 0.043750000000000094 0.24679315090179443 0.15624999999999992
v -0.018749999999999874 0.6217931509017944 0.15624999999999986
v -0.01874999999999988 0.6217931509017944 0.21875000000000008
v -0.01874999999999992 0.24679315090179443 0.1562499999999999
v -0.018749999999999926 0.24679315090179443 0.2187500000000001
vt 0.078125 1
vt 0.0859375 1
vt 0.0859375 0.9453125
vt 0.078125 0.9453125
vt 0.078125 1
vt 0.0859375 1
vt 0.0859375 0.9453125
vt 0.078125 0.9453125
vt 0.078125 1
vt 0.0859375 1
vt 0.0859375 0.9453125
vt 0.078125 0.9453125
vt 0.078125 1
vt 0.0859375 1
vt 0.0859375 0.9453125
vt 0.078125 0.9453125
vn 1.224646799147353e-16 -1.2246467991473535e-16 -1
vn 1 -1.224646799147353e-16 1.2246467991473535e-16
vn -1.224646799147353e-16 1.2246467991473535e-16 1
vn -1 1.224646799147353e-16 -1.2246467991473535e-16
usemtl m_600d649f-1986-d7ca-1fb2-d113df44f43e
f 108/316/79 111/315/79 109/314/79 106/313/79
f 107/320/80 108/319/80 106/318/80 105/317/80
f 112/324/81 107/323/81 105/322/81 110/321/81
f 111/328/82 112/327/82 110/326/82 109/325/82