# Made in Blockbench 5.0.7
mtllib pl_pote_planta.mtl

o cube
v 0.125 -0.25 0.125
v 0.125 -0.25 -0.1875
v 0.125 -0.5 0.125
v 0.125 -0.5 -0.1875
v -0.1875 -0.25 -0.1875
v -0.1875 -0.25 0.125
v -0.1875 -0.5 -0.1875
v -0.1875 -0.5 0.125
vt 0.03125 0.9375
vt 0.1875 0.9375
vt 0.1875 0.8125
vt 0.03125 0.8125
vt 0.03125 0.9375
vt 0.1875 0.9375
vt 0.1875 0.8125
vt 0.03125 0.8125
vt 0.03125 0.9375
vt 0.1875 0.9375
vt 0.1875 0.8125
vt 0.03125 0.8125
vt 0.03125 0.9375
vt 0.1875 0.9375
vt 0.1875 0.8125
vt 0.03125 0.8125
vt 0.03125 0.78125
vt 0.1875 0.78125
vt 0.1875 0.625
vt 0.03125 0.625
vn 0 0 -1
vn 1 0 0
vn 0 0 1
vn -1 0 0
vn 0 -1 0
usemtl m_bc29471e-2c43-cdaf-ed65-5cd8da5e6695
f 4/4/1 7/3/1 5/2/1 2/1/1
f 3/8/2 4/7/2 2/6/2 1/5/2
f 8/12/3 3/11/3 1/10/3 6/9/3
f 7/16/4 8/15/4 6/14/4 5/13/4
f 7/20/5 4/19/5 3/18/5 8/17/5
o cube
v 0.1875 -0.125 0.1875
v 0.1875 -0.125 -0.25
v 0.1875 -0.25 0.1875
v 0.1875 -0.25 -0.25
v -0.25 -0.125 -0.25
v -0.25 -0.125 0.1875
v -0.25 -0.25 -0.25
v -0.25 -0.25 0.1875
vt 0 1
vt 0.21875 1
vt 0.21875 0.9375
vt 0 0.9375
vt 0 1
vt 0.21875 1
vt 0.21875 0.9375
vt 0 0.9375
vt 0 1
vt 0.21875 1
vt 0.21875 0.9375
vt 0 0.9375
vt 0 1
vt 0.21875 1
vt 0.21875 0.9375
vt 0 0.9375
vt 0.5 0.5625
vt 0.28125 0.5625
vt 0.28125 0.78125
vt 0.5 0.78125
vt 0.5 1
vt 0.28125 1
vt 0.28125 0.78125
vt 0.5 0.78125
vn 0 0 -1
vn 1 0 0
vn 0 0 1
vn -1 0 0
vn 0 1 0
vn 0 -1 0
usemtl m_bc29471e-2c43-cdaf-ed65-5cd8da5e6695
f 12/24/6 15/23/6 13/22/6 10/21/6
f 11/28/7 12/27/7 10/26/7 9/25/7
f 16/32/8 11/31/8 9/30/8 14/29/8
f 15/36/9 16/35/9 14/34/9 13/33/9
f 14/40/10 9/39/10 10/38/10 13/37/10
f 15/44/11 12/43/11 11/42/11 16/41/11
o cube
v 0.625 0.875 -0.03125
v 0.625 0.875 -0.03125
v 0.625 -0.25 -0.03125
v 0.625 -0.25 -0.03125
v -0.625 0.875 -0.03125
v -0.625 0.875 -0.03125
v -0.625 -0.25 -0.03125
v -0.625 -0.25 -0.03125
vt 0 0.5625
vt 0.625 0.5625
vt 0.625 0
vt 0 0
vn 0 0 -1
usemtl m_bc29471e-2c43-cdaf-ed65-5cd8da5e6695
f 20/48/12 23/47/12 21/46/12 18/45/12
o cube
v -0.03124999999999986 0.875 0.625
v -0.03124999999999986 0.875 0.625
v -0.03124999999999986 -0.25 0.625
v -0.03124999999999986 -0.25 0.625
v -0.03125000000000014 0.875 -0.625
v -0.03125000000000014 0.875 -0.625
v -0.03125000000000014 -0.25 -0.625
v -0.03125000000000014 -0.25 -0.625
vt 0 0.5625
vt 0.625 0.5625
vt 0.625 0
vt 0 0
vn 1 0 -2.220446049250313e-16
usemtl m_bc29471e-2c43-cdaf-ed65-5cd8da5e6695
f 28/52/13 31/51/13 29/50/13 26/49/13