# Made in Blockbench 5.0.7
mtllib porta_opened.mtl

o porta
v 0.5 1.5 -0.12499999999999997
v 0.375 1.5 -0.125
v 0.5 -0.5 -0.12499999999999997
v 0.375 -0.5 -0.125
v 0.3749999999999998 1.5 0.875
v 0.4999999999999998 1.5 0.875
v 0.3749999999999998 -0.5 0.875
v 0.4999999999999998 -0.5 0.875
vt 0 1
vt 1 1
vt 1 0
vt 0 0
vt 0.9375 1
vt 1 1
vt 1 0
vt 0.9375 0
vt 0 1
vt 1 1
vt 1 0
vt 0 0
vt 0 1
vt 0.0625 1
vt 0.0625 0
vt 0 0
vt 0 1
vt 1 1
vt 1 0.96875
vt 0 0.96875
vt 0 0.03125
vt 1 0.03125
vt 1 0
vt 0 0
vn -1 0 -2.220446049250313e-16
vn 2.220446049250313e-16 0 -1
vn 1 0 2.220446049250313e-16
vn -2.220446049250313e-16 0 1
vn 0 1 0
vn 0 -1 0
usemtl m_231461cc-687a-c335-475a-d3c24d9a2a90
f 4/4/1 7/3/1 5/2/1 2/1/1
f 3/8/2 4/7/2 2/6/2 1/5/2
f 8/12/3 3/11/3 1/10/3 6/9/3
f 7/16/4 8/15/4 6/14/4 5/13/4
f 6/20/5 1/19/5 2/18/5 5/17/5
f 7/24/6 4/23/6 3/22/6 8/21/6