# Made in Blockbench 5.0.7
mtllib pula_pula.mtl

o cube
v 2.5 0.375 2.5
v 2.5 0.375 -2.5
v 2.5 0.25 2.5
v 2.5 0.25 -2.5
v -2.5 0.375 -2.5
v -2.5 0.375 2.5
v -2.5 0.25 -2.5
v -2.5 0.25 2.5
vt 0 0.68359375
vt 0.3125 0.68359375
vt 0.3125 0.67578125
vt 0 0.67578125
vt 0 0.66015625
vt 0.3125 0.66015625
vt 0.3125 0.65234375
vt 0 0.65234375
vt 0 0.6484375
vt 0.3125 0.6484375
vt 0.3125 0.640625
vt 0 0.640625
vt 0 0.671875
vt 0.3125 0.671875
vt 0.3125 0.6640625
vt 0 0.6640625
vt 0.3125 0.6875
vt 0 0.6875
vt 0 1
vt 0.3125 1
vt 0.3125 0.9921875
vt 0 0.9921875
vt 0 0.6796875
vt 0.3125 0.6796875
vn 0 0 -1
vn 1 0 0
vn 0 0 1
vn -1 0 0
vn 0 1 0
vn 0 -1 0
usemtl m_c80206b4-2bb4-fb9c-82fe-e858dcf2dafc
f 4/4/1 7/3/1 5/2/1 2/1/1
f 3/8/2 4/7/2 2/6/2 1/5/2
f 8/12/3 3/11/3 1/10/3 6/9/3
f 7/16/4 8/15/4 6/14/4 5/13/4
f 6/20/5 1/19/5 2/18/5 5/17/5
f 7/24/6 4/23/6 3/22/6 8/21/6
o cube
v 2.4375 2 -2.1875
v 2.4375 2 -2.4375
v 2.4375 -0.5 -2.1875
v 2.4375 -0.5 -2.4375
v 2.1875 2 -2.4375
v 2.1875 2 -2.1875
v 2.1875 -0.5 -2.4375
v 2.1875 -0.5 -2.1875
vt 0.640625 1
vt 0.65625 1
vt 0.65625 0.84375
vt 0.640625 0.84375
vt 0.640625 1
vt 0.65625 1
vt 0.65625 0.84375
vt 0.640625 0.84375
vt 0.640625 1
vt 0.65625 1
vt 0.65625 0.84375
vt 0.640625 0.84375
vt 0.640625 1
vt 0.65625 1
vt 0.65625 0.84375
vt 0.640625 0.84375
vt 0.65625 0.984375
vt 0.640625 0.984375
vt 0.640625 1
vt 0.65625 1
vn 0 0 -1
vn 1 0 0
vn 0 0 1
vn -1 0 0
vn 0 1 0
usemtl m_c80206b4-2bb4-fb9c-82fe-e858dcf2dafc
f 12/28/7 15/27/7 13/26/7 10/25/7
f 11/32/8 12/31/8 10/30/8 9/29/8
f 16/36/9 11/35/9 9/34/9 14/33/9
f 15/40/10 16/39/10 14/38/10 13/37/10
f 14/44/11 9/43/11 10/42/11 13/41/11
o cube
v 2.3125 1.8125 2.3125
v 2.3125 1.8125 -2.3125
v 2.3125 0.3125 2.3125
v 2.3125 0.3125 -2.3125
v -2.3125 1.8125 -2.3125
v -2.3125 1.8125 2.3125
v -2.3125 0.3125 -2.3125
v -2.3125 0.3125 2.3125
vt 0.31640625 1
vt 0.60546875 1
vt 0.60546875 0.90625
vt 0.31640625 0.90625
vt 0.31640625 0.7265625
vt 0.60546875 0.7265625
vt 0.60546875 0.63671875
vt 0.31640625 0.63671875
vt 0.31640625 0.8203125
vt 0.60546875 0.8203125
vt 0.60546875 0.73046875
vt 0.31640625 0.73046875
vt 0.31640625 0.91015625
vt 0.60546875 0.91015625
vt 0.60546875 0.8203125
vt 0.31640625 0.8203125
vn 0 0 -1
vn 1 0 0
vn 0 0 1
vn -1 0 0
usemtl m_c80206b4-2bb4-fb9c-82fe-e858dcf2dafc
f 20/48/12 23/47/12 21/46/12 18/45/12
f 19/52/13 20/51/13 18/50/13 17/49/13
f 24/56/14 19/55/14 17/54/14 22/53/14
f 23/60/15 24/59/15 22/58/15 21/57/15
o cube
v -2.1875 2 -2.1875
v -2.1875 2 -2.4375
v -2.1875 -0.5 -2.1875
v -2.1875 -0.5 -2.4375
v -2.4375 2 -2.4375
v -2.4375 2 -2.1875
v -2.4375 -0.5 -2.4375
v -2.4375 -0.5 -2.1875
vt 0.625 1
vt 0.640625 1
vt 0.640625 0.84375
vt 0.625 0.84375
vt 0.625 1
vt 0.640625 1
vt 0.640625 0.84375
vt 0.625 0.84375
vt 0.625 1
vt 0.640625 1
vt 0.640625 0.84375
vt 0.625 0.84375
vt 0.625 1
vt 0.640625 1
vt 0.640625 0.84375
vt 0.625 0.84375
vt 0.640625 0.984375
vt 0.625 0.984375
vt 0.625 1
vt 0.640625 1
vn 0 0 -1
vn 1 0 0
vn 0 0 1
vn -1 0 0
vn 0 1 0
usemtl m_c80206b4-2bb4-fb9c-82fe-e858dcf2dafc
f 28/64/16 31/63/16 29/62/16 26/61/16
f 27/68/17 28/67/17 26/66/17 25/65/17
f 32/72/18 27/71/18 25/70/18 30/69/18
f 31/76/19 32/75/19 30/74/19 29/73/19
f 30/80/20 25/79/20 26/78/20 29/77/20
o cube
v 2.4375 2 2.4375
v 2.4375 2 2.1875
v 2.4375 -0.5 2.4375
v 2.4375 -0.5 2.1875
v 2.1875 2 2.1875
v 2.1875 2 2.4375
v 2.1875 -0.5 2.1875
v 2.1875 -0.5 2.4375
vt 0.65625 1
vt 0.671875 1
vt 0.671875 0.84375
vt 0.65625 0.84375
vt 0.65625 1
vt 0.671875 1
vt 0.671875 0.84375
vt 0.65625 0.84375
vt 0.65625 1
vt 0.671875 1
vt 0.671875 0.84375
vt 0.65625 0.84375
vt 0.65625 1
vt 0.671875 1
vt 0.671875 0.84375
vt 0.65625 0.84375
vt 0.671875 0.984375
vt 0.65625 0.984375
vt 0.65625 1
vt 0.671875 1
vn 0 0 -1
vn 1 0 0
vn 0 0 1
vn -1 0 0
vn 0 1 0
usemtl m_c80206b4-2bb4-fb9c-82fe-e858dcf2dafc
f 36/84/21 39/83/21 37/82/21 34/81/21
f 35/88/22 36/87/22 34/86/22 33/85/22
f 40/92/23 35/91/23 33/90/23 38/89/23
f 39/96/24 40/95/24 38/94/24 37/93/24
f 38/100/25 33/99/25 34/98/25 37/97/25
o cube
v -2.1875 2 2.4375
v -2.1875 2 2.1875
v -2.1875 -0.5 2.4375
v -2.1875 -0.5 2.1875
v -2.4375 2 2.1875
v -2.4375 2 2.4375
v -2.4375 -0.5 2.1875
v -2.4375 -0.5 2.4375
vt 0.609375 1
vt 0.625 1
vt 0.625 0.84375
vt 0.609375 0.84375
vt 0.609375 1
vt 0.625 1
vt 0.625 0.84375
vt 0.609375 0.84375
vt 0.609375 1
vt 0.625 1
vt 0.625 0.84375
vt 0.609375 0.84375
vt 0.609375 1
vt 0.625 1
vt 0.625 0.84375
vt 0.609375 0.84375
vt 0.625 0.984375
vt 0.609375 0.984375
vt 0.609375 1
vt 0.625 1
vn 0 0 -1
vn 1 0 0
vn 0 0 1
vn -1 0 0
vn 0 1 0
usemtl m_c80206b4-2bb4-fb9c-82fe-e858dcf2dafc
f 44/104/26 47/103/26 45/102/26 42/101/26
f 43/108/27 44/107/27 42/106/27 41/105/27
f 48/112/28 43/111/28 41/110/28 46/109/28
f 47/116/29 48/115/29 46/114/29 45/113/29
f 46/120/30 41/119/30 42/118/30 45/117/30