# Made in Blockbench 5.0.7
mtllib rastelo.mtl

o cube
v 0 0.8378118150295037 0.4799640676082281
v 0 0.861662939451572 0.3572606696772701
v 0 -0.511925562211034 0.21760169896547898
v 0 -0.488074437788966 0.094898301034521
v 0 0.861662939451572 0.3572606696772701
v 0 0.8378118150295037 0.4799640676082281
v 0 -0.488074437788966 0.094898301034521
v 0 -0.511925562211034 0.21760169896547898
vt 0.1875 0.90625
vt 0.25 0.90625
vt 0.25 0.21875
vt 0.1875 0.21875
vt 0.1875 0.90625
vt 0.25 0.90625
vt 0.25 0.21875
vt 0.1875 0.21875
vt 0.1875 0.90625
vt 0.25 0.90625
vt 0.25 0.21875
vt 0.1875 0.21875
vt 0.1875 0.90625
vt 0.25 0.90625
vt 0.25 0.21875
vt 0.1875 0.21875
vt 0.1875 0.90625
vt 0.25 0.90625
vt 0.25 0.875
vt 0.1875 0.875
vt 0.1875 0.90625
vt 0.25 0.90625
vt 0.25 0.875
vt 0.1875 0.875
vn 0 0.1908089953765448 -0.981627183447664
vn 1 0 0
vn 0 -0.1908089953765448 0.981627183447664
vn -1 0 0
vn 0 0.981627183447664 0.1908089953765448
vn 0 -0.981627183447664 -0.1908089953765448
usemtl m_1e2ca8a3-bbac-108c-72a9-117d5630702e
f 4/4/1 7/3/1 5/2/1 2/1/1
f 3/8/2 4/7/2 2/6/2 1/5/2
f 8/12/3 3/11/3 1/10/3 6/9/3
f 7/16/4 8/15/4 6/14/4 5/13/4
f 6/20/5 1/19/5 2/18/5 5/17/5
f 7/24/6 4/23/6 3/22/6 8/21/6
o cube
v 0.21875 1.033792474136975 0.4543890552758513
v 0.21875 1.033792474136975 0.4543890552758513
v 0.21875 0.8497373772405379 0.4186123686427491
v 0.21875 0.8497373772405379 0.4186123686427491
v -0.21875 1.033792474136975 0.4543890552758513
v -0.21875 1.033792474136975 0.4543890552758513
v -0.21875 0.8497373772405379 0.4186123686427491
v -0.21875 0.8497373772405379 0.4186123686427491
vt 0 1
vt 0.4375 1
vt 0.4375 0.90625
vt 0 0.90625
vn 0 0.1908089953765448 -0.981627183447664
usemtl m_1e2ca8a3-bbac-108c-72a9-117d5630702e
f 12/28/7 15/27/7 13/26/7 10/25/7