# Made in Blockbench 5.0.5
mtllib orelhao_classico.mtl

o cube
v 0.46562499999999996 1.7415902697779275 -0.2289361562904028
v 0.46562499999999996 1.6764722031528285 -0.5982390636699808
v 0.46562499999999996 0.38747960938614134 0.009830088001626408
v 0.46562499999999996 0.32236154276104245 -0.3594728193779516
v -0.534375 1.6764722031528285 -0.5982390636699808
v -0.534375 1.7415902697779275 -0.2289361562904028
v -0.534375 0.32236154276104245 -0.3594728193779516
v -0.534375 0.38747960938614134 0.009830088001626408
vt 0.34375 0.90625
vt 0.09375 0.90625
vt 0.09375 0.5625
vt 0.34375 0.5625
vt 0.4375 0.90625
vt 0.34375 0.90625
vt 0.34375 0.5625
vt 0.4375 0.5625
vt 0.6875 0.90625
vt 0.4375 0.90625
vt 0.4375 0.5625
vt 0.6875 0.5625
vt 0.09375 0.90625
vt 0 0.90625
vt 0 0.5625
vt 0.09375 0.5625
vt 0.09375 0.90625
vt 0.34375 0.90625
vt 0.34375 1
vt 0.09375 1
vt 0.34375 1
vt 0.59375 1
vt 0.59375 0.90625
vt 0.34375 0.90625
vn 0 -0.17364817766693033 -0.984807753012208
vn 1 0 0
vn 0 0.17364817766693033 0.984807753012208
vn -1 0 0
vn 0 0.984807753012208 -0.17364817766693033
vn 0 -0.984807753012208 0.17364817766693033
usemtl m_0d419bd2-1a9e-fdb9-5edc-38eeb0ea6bb4
f 4/4/1 7/3/1 5/2/1 2/1/1
f 3/8/2 4/7/2 2/6/2 1/5/2
f 8/12/3 3/11/3 1/10/3 6/9/3
f 7/16/4 8/15/4 6/14/4 5/13/4
f 6/20/5 1/19/5 2/18/5 5/17/5
f 7/24/6 4/23/6 3/22/6 8/21/6
o cube
v 0.0625 1.25 0.3125
v 0.0625 1.25 0.125
v 0.0625 -0.5 0.3125
v 0.0625 -0.5 0.125
v -0.125 1.25 0.125
v -0.125 1.25 0.3125
v -0.125 -0.5 0.125
v -0.125 -0.5 0.3125
vt 0.546875 0.515625
vt 0.59375 0.515625
vt 0.59375 0.078125
vt 0.546875 0.078125
vt 0.5 0.515625
vt 0.546875 0.515625
vt 0.546875 0.078125
vt 0.5 0.078125
vt 0.640625 0.515625
vt 0.6875 0.515625
vt 0.6875 0.078125
vt 0.640625 0.078125
vt 0.59375 0.515625
vt 0.640625 0.515625
vt 0.640625 0.078125
vt 0.59375 0.078125
vt 0.59375 0.515625
vt 0.546875 0.515625
vt 0.546875 0.5625
vt 0.59375 0.5625
vt 0.640625 0.5625
vt 0.59375 0.5625
vt 0.59375 0.515625
vt 0.640625 0.515625
vn 0 0 -1
vn 1 0 0
vn 0 0 1
vn -1 0 0
vn 0 1 0
vn 0 -1 0
usemtl m_0d419bd2-1a9e-fdb9-5edc-38eeb0ea6bb4
f 12/28/7 15/27/7 13/26/7 10/25/7
f 11/32/8 12/31/8 10/30/8 9/29/8
f 16/36/9 11/35/9 9/34/9 14/33/9
f 15/40/10 16/39/10 14/38/10 13/37/10
f 14/44/11 9/43/11 10/42/11 13/41/11
f 15/48/12 12/47/12 11/46/12 16/45/12
o cube
v 0.340625 1.474536638602299 0.056143216342749214
v 0.340625 1.4338378469616124 -0.17467110076948705
v 0.340625 0.7359308238431431 0.18637934959294694
v 0.340625 0.6952320322024563 -0.04443496751928931
v -0.409375 1.4338378469616124 -0.17467110076948705
v -0.409375 1.474536638602299 0.056143216342749214
v -0.409375 0.6952320322024563 -0.04443496751928931
v -0.409375 0.7359308238431431 0.18637934959294694
vt 0.078125 0.515625
vt 0.265625 0.515625
vt 0.265625 0.328125
vt 0.078125 0.328125
vt 0.03125 0.515625
vt 0.078125 0.515625
vt 0.078125 0.328125
vt 0.03125 0.328125
vt 0.3125 0.515625
vt 0.5 0.515625
vt 0.5 0.328125
vt 0.3125 0.328125
vt 0.265625 0.515625
vt 0.3125 0.515625
vt 0.3125 0.328125
vt 0.265625 0.328125
vt 0.265625 0.515625
vt 0.078125 0.515625
vt 0.078125 0.5625
vt 0.265625 0.5625
vt 0.453125 0.5625
vt 0.265625 0.5625
vt 0.265625 0.515625
vt 0.453125 0.515625
vn 0 -0.17364817766693033 -0.984807753012208
vn 1 0 0
vn 0 0.17364817766693033 0.984807753012208
vn -1 0 0
vn 0 0.984807753012208 -0.17364817766693033
vn 0 -0.984807753012208 0.17364817766693033
usemtl m_0d419bd2-1a9e-fdb9-5edc-38eeb0ea6bb4
f 20/52/13 23/51/13 21/50/13 18/49/13
f 19/56/14 20/55/14 18/54/14 17/53/14
f 24/60/15 19/59/15 17/58/15 22/57/15
f 23/64/16 24/63/16 22/62/16 21/61/16
f 22/68/17 17/67/17 18/66/17 21/65/17
f 23/72/18 20/71/18 19/70/18 24/69/18