# Made in Blockbench 5.0.7
mtllib salgadinhos_caixa1.mtl

o bandeja
v 0.4375 -0.43125 0.4375
v 0.4375 -0.43125 -0.4375
v 0.4375 -0.49375 0.4375
v 0.4375 -0.49375 -0.4375
v -0.4375 -0.43125 -0.4375
v -0.4375 -0.43125 0.4375
v -0.4375 -0.49375 -0.4375
v -0.4375 -0.49375 0.4375
vt 0 1
vt 0.4375 1
vt 0.4375 0.96875
vt 0 0.96875
vt 0 1
vt 0.4375 1
vt 0.4375 0.96875
vt 0 0.96875
vt 0 1
vt 0.4375 1
vt 0.4375 0.96875
vt 0 0.96875
vt 0 1
vt 0.4375 1
vt 0.4375 0.96875
vt 0 0.96875
vt 0 1
vt 0.4375 1
vt 0.4375 0.5625
vt 0 0.5625
vn 0 0 -1
vn 1 0 0
vn 0 0 1
vn -1 0 0
vn 0 -1 0
usemtl m_b54f463b-2088-a772-0de0-3bd182ec8085
f 4/4/1 7/3/1 5/2/1 2/1/1
f 3/8/2 4/7/2 2/6/2 1/5/2
f 8/12/3 3/11/3 1/10/3 6/9/3
f 7/16/4 8/15/4 6/14/4 5/13/4
f 7/20/5 4/19/5 3/18/5 8/17/5
o cube
v 0.125 -0.4375 -0.25
v 0.125 -0.4375 -0.3125
v 0.125 -0.5 -0.25
v 0.125 -0.5 -0.3125
v 0.0625 -0.4375 -0.3125
v 0.0625 -0.4375 -0.25
v 0.0625 -0.5 -0.3125
v 0.0625 -0.5 -0.25
vt 0.5625 0.96875
vt 0.59375 0.96875
vt 0.59375 0.9375
vt 0.5625 0.9375
vt 0.53125 0.96875
vt 0.5625 0.96875
vt 0.5625 0.9375
vt 0.53125 0.9375
vt 0.625 0.96875
vt 0.65625 0.96875
vt 0.65625 0.9375
vt 0.625 0.9375
vt 0.59375 0.96875
vt 0.625 0.96875
vt 0.625 0.9375
vt 0.59375 0.9375
vt 0.59375 0.96875
vt 0.5625 0.96875
vt 0.5625 1
vt 0.59375 1
vt 0.625 1
vt 0.59375 1
vt 0.59375 0.96875
vt 0.625 0.96875
vn 0 0 -1
vn 1 0 0
vn 0 0 1
vn -1 0 0
vn 0 1 0
vn 0 -1 0
usemtl m_b54f463b-2088-a772-0de0-3bd182ec8085
f 12/24/6 15/23/6 13/22/6 10/21/6
f 11/28/7 12/27/7 10/26/7 9/25/7
f 16/32/8 11/31/8 9/30/8 14/29/8
f 15/36/9 16/35/9 14/34/9 13/33/9
f 14/40/10 9/39/10 10/38/10 13/37/10
f 15/44/11 12/43/11 11/42/11 16/41/11
o cube
v 0.25 -0.4375 -0.25
v 0.25 -0.4375 -0.3125
v 0.25 -0.5 -0.25
v 0.25 -0.5 -0.3125
v 0.1875 -0.4375 -0.3125
v 0.1875 -0.4375 -0.25
v 0.1875 -0.5 -0.3125
v 0.1875 -0.5 -0.25
vt 0.5625 0.875
vt 0.59375 0.875
vt 0.59375 0.84375
vt 0.5625 0.84375
vt 0.53125 0.875
vt 0.5625 0.875
vt 0.5625 0.84375
vt 0.53125 0.84375
vt 0.625 0.875
vt 0.65625 0.875
vt 0.65625 0.84375
vt 0.625 0.84375
vt 0.59375 0.875
vt 0.625 0.875
vt 0.625 0.84375
vt 0.59375 0.84375
vt 0.59375 0.875
vt 0.5625 0.875
vt 0.5625 0.90625
vt 0.59375 0.90625
vt 0.625 0.90625
vt 0.59375 0.90625
vt 0.59375 0.875
vt 0.625 0.875
vn 0 0 -1
vn 1 0 0
vn 0 0 1
vn -1 0 0
vn 0 1 0
vn 0 -1 0
usemtl m_b54f463b-2088-a772-0de0-3bd182ec8085
f 20/48/12 23/47/12 21/46/12 18/45/12
f 19/52/13 20/51/13 18/50/13 17/49/13
f 24/56/14 19/55/14 17/54/14 22/53/14
f 23/60/15 24/59/15 22/58/15 21/57/15
f 22/64/16 17/63/16 18/62/16 21/61/16
f 23/68/17 20/67/17 19/66/17 24/65/17
o cube
v 0.1875 -0.4375 -0.125
v 0.1875 -0.4375 -0.1875
v 0.1875 -0.5 -0.125
v 0.1875 -0.5 -0.1875
v 0.125 -0.4375 -0.1875
v 0.125 -0.4375 -0.125
v 0.125 -0.5 -0.1875
v 0.125 -0.5 -0.125
vt 0.71875 0.90625
vt 0.75 0.90625
vt 0.75 0.875
vt 0.71875 0.875
vt 0.6875 0.90625
vt 0.71875 0.90625
vt 0.71875 0.875
vt 0.6875 0.875
vt 0.78125 0.90625
vt 0.8125 0.90625
vt 0.8125 0.875
vt 0.78125 0.875
vt 0.75 0.90625
vt 0.78125 0.90625
vt 0.78125 0.875
vt 0.75 0.875
vt 0.75 0.90625
vt 0.71875 0.90625
vt 0.71875 0.9375
vt 0.75 0.9375
vt 0.78125 0.9375
vt 0.75 0.9375
vt 0.75 0.90625
vt 0.78125 0.90625
vn 0 0 -1
vn 1 0 0
vn 0 0 1
vn -1 0 0
vn 0 1 0
vn 0 -1 0
usemtl m_b54f463b-2088-a772-0de0-3bd182ec8085
f 28/72/18 31/71/18 29/70/18 26/69/18
f 27/76/19 28/75/19 26/74/19 25/73/19
f 32/80/20 27/79/20 25/78/20 30/77/20
f 31/84/21 32/83/21 30/82/21 29/81/21
f 30/88/22 25/87/22 26/86/22 29/85/22
f 31/92/23 28/91/23 27/90/23 32/89/23
o cube
v 0.0625 -0.4375 -0.125
v 0.0625 -0.4375 -0.1875
v 0.0625 -0.5 -0.125
v 0.0625 -0.5 -0.1875
v 0 -0.4375 -0.1875
v 0 -0.4375 -0.125
v 0 -0.5 -0.1875
v 0 -0.5 -0.125
vt 0.71875 0.8125
vt 0.75 0.8125
vt 0.75 0.78125
vt 0.71875 0.78125
vt 0.6875 0.8125
vt 0.71875 0.8125
vt 0.71875 0.78125
vt 0.6875 0.78125
vt 0.78125 0.8125
vt 0.8125 0.8125
vt 0.8125 0.78125
vt 0.78125 0.78125
vt 0.75 0.8125
vt 0.78125 0.8125
vt 0.78125 0.78125
vt 0.75 0.78125
vt 0.75 0.8125
vt 0.71875 0.8125
vt 0.71875 0.84375
vt 0.75 0.84375
vt 0.78125 0.84375
vt 0.75 0.84375
vt 0.75 0.8125
vt 0.78125 0.8125
vn 0 0 -1
vn 1 0 0
vn 0 0 1
vn -1 0 0
vn 0 1 0
vn 0 -1 0
usemtl m_b54f463b-2088-a772-0de0-3bd182ec8085
f 36/96/24 39/95/24 37/94/24 34/93/24
f 35/100/25 36/99/25 34/98/25 33/97/25
f 40/104/26 35/103/26 33/102/26 38/101/26
f 39/108/27 40/107/27 38/106/27 37/105/27
f 38/112/28 33/111/28 34/110/28 37/109/28
f 39/116/29 36/115/29 35/114/29 40/113/29
o cube
v 0.3125 -0.4375 0.0625
v 0.3125 -0.4375 0
v 0.3125 -0.5 0.0625
v 0.3125 -0.5 0
v 0.25 -0.4375 0
v 0.25 -0.4375 0.0625
v 0.25 -0.5 0
v 0.25 -0.5 0.0625
vt 0.5625 0.875
vt 0.59375 0.875
vt 0.59375 0.84375
vt 0.5625 0.84375
vt 0.53125 0.875
vt 0.5625 0.875
vt 0.5625 0.84375
vt 0.53125 0.84375
vt 0.625 0.875
vt 0.65625 0.875
vt 0.65625 0.84375
vt 0.625 0.84375
vt 0.59375 0.875
vt 0.625 0.875
vt 0.625 0.84375
vt 0.59375 0.84375
vt 0.59375 0.875
vt 0.5625 0.875
vt 0.5625 0.90625
vt 0.59375 0.90625
vt 0.625 0.90625
vt 0.59375 0.90625
vt 0.59375 0.875
vt 0.625 0.875
vn 0 0 -1
vn 1 0 0
vn 0 0 1
vn -1 0 0
vn 0 1 0
vn 0 -1 0
usemtl m_b54f463b-2088-a772-0de0-3bd182ec8085
f 44/120/30 47/119/30 45/118/30 42/117/30
f 43/124/31 44/123/31 42/122/31 41/121/31
f 48/128/32 43/127/32 41/126/32 46/125/32
f 47/132/33 48/131/33 46/130/33 45/129/33
f 46/136/34 41/135/34 42/134/34 45/133/34
f 47/140/35 44/139/35 43/138/35 48/137/35
o cube
v 0.125 -0.4375 0.1875
v 0.125 -0.4375 0.125
v 0.125 -0.5 0.1875
v 0.125 -0.5 0.125
v 0.0625 -0.4375 0.125
v 0.0625 -0.4375 0.1875
v 0.0625 -0.5 0.125
v 0.0625 -0.5 0.1875
vt 0.71875 0.8125
vt 0.75 0.8125
vt 0.75 0.78125
vt 0.71875 0.78125
vt 0.6875 0.8125
vt 0.71875 0.8125
vt 0.71875 0.78125
vt 0.6875 0.78125
vt 0.78125 0.8125
vt 0.8125 0.8125
vt 0.8125 0.78125
vt 0.78125 0.78125
vt 0.75 0.8125
vt 0.78125 0.8125
vt 0.78125 0.78125
vt 0.75 0.78125
vt 0.75 0.8125
vt 0.71875 0.8125
vt 0.71875 0.84375
vt 0.75 0.84375
vt 0.78125 0.84375
vt 0.75 0.84375
vt 0.75 0.8125
vt 0.78125 0.8125
vn 0 0 -1
vn 1 0 0
vn 0 0 1
vn -1 0 0
vn 0 1 0
vn 0 -1 0
usemtl m_b54f463b-2088-a772-0de0-3bd182ec8085
f 52/144/36 55/143/36 53/142/36 50/141/36
f 51/148/37 52/147/37 50/146/37 49/145/37
f 56/152/38 51/151/38 49/150/38 54/149/38
f 55/156/39 56/155/39 54/154/39 53/153/39
f 54/160/40 49/159/40 50/158/40 53/157/40
f 55/164/41 52/163/41 51/162/41 56/161/41
o cube
v 0.25 -0.4375 0.1875
v 0.25 -0.4375 0.125
v 0.25 -0.5 0.1875
v 0.25 -0.5 0.125
v 0.1875 -0.4375 0.125
v 0.1875 -0.4375 0.1875
v 0.1875 -0.5 0.125
v 0.1875 -0.5 0.1875
vt 0.71875 0.90625
vt 0.75 0.90625
vt 0.75 0.875
vt 0.71875 0.875
vt 0.6875 0.90625
vt 0.71875 0.90625
vt 0.71875 0.875
vt 0.6875 0.875
vt 0.78125 0.90625
vt 0.8125 0.90625
vt 0.8125 0.875
vt 0.78125 0.875
vt 0.75 0.90625
vt 0.78125 0.90625
vt 0.78125 0.875
vt 0.75 0.875
vt 0.75 0.90625
vt 0.71875 0.90625
vt 0.71875 0.9375
vt 0.75 0.9375
vt 0.78125 0.9375
vt 0.75 0.9375
vt 0.75 0.90625
vt 0.78125 0.90625
vn 0 0 -1
vn 1 0 0
vn 0 0 1
vn -1 0 0
vn 0 1 0
vn 0 -1 0
usemtl m_b54f463b-2088-a772-0de0-3bd182ec8085
f 60/168/42 63/167/42 61/166/42 58/165/42
f 59/172/43 60/171/43 58/170/43 57/169/43
f 64/176/44 59/175/44 57/174/44 62/173/44
f 63/180/45 64/179/45 62/178/45 61/177/45
f 62/184/46 57/183/46 58/182/46 61/181/46
f 63/188/47 60/187/47 59/186/47 64/185/47
o cube
v 0.1875 -0.4375 0.0625
v 0.1875 -0.4375 0
v 0.1875 -0.5 0.0625
v 0.1875 -0.5 0
v 0.125 -0.4375 0
v 0.125 -0.4375 0.0625
v 0.125 -0.5 0
v 0.125 -0.5 0.0625
vt 0.5625 0.96875
vt 0.59375 0.96875
vt 0.59375 0.9375
vt 0.5625 0.9375
vt 0.53125 0.96875
vt 0.5625 0.96875
vt 0.5625 0.9375
vt 0.53125 0.9375
vt 0.625 0.96875
vt 0.65625 0.96875
vt 0.65625 0.9375
vt 0.625 0.9375
vt 0.59375 0.96875
vt 0.625 0.96875
vt 0.625 0.9375
vt 0.59375 0.9375
vt 0.59375 0.96875
vt 0.5625 0.96875
vt 0.5625 1
vt 0.59375 1
vt 0.625 1
vt 0.59375 1
vt 0.59375 0.96875
vt 0.625 0.96875
vn 0 0 -1
vn 1 0 0
vn 0 0 1
vn -1 0 0
vn 0 1 0
vn 0 -1 0
usemtl m_b54f463b-2088-a772-0de0-3bd182ec8085
f 68/192/48 71/191/48 69/190/48 66/189/48
f 67/196/49 68/195/49 66/194/49 65/193/49
f 72/200/50 67/199/50 65/198/50 70/197/50
f 71/204/51 72/203/51 70/202/51 69/201/51
f 70/208/52 65/207/52 66/206/52 69/205/52
f 71/212/53 68/211/53 67/210/53 72/209/53
o cube
v -0.0625 -0.4375 0.1875
v -0.0625 -0.4375 0.125
v -0.0625 -0.5 0.1875
v -0.0625 -0.5 0.125
v -0.125 -0.4375 0.125
v -0.125 -0.4375 0.1875
v -0.125 -0.5 0.125
v -0.125 -0.5 0.1875
vt 0.5625 0.875
vt 0.59375 0.875
vt 0.59375 0.84375
vt 0.5625 0.84375
vt 0.53125 0.875
vt 0.5625 0.875
vt 0.5625 0.84375
vt 0.53125 0.84375
vt 0.625 0.875
vt 0.65625 0.875
vt 0.65625 0.84375
vt 0.625 0.84375
vt 0.59375 0.875
vt 0.625 0.875
vt 0.625 0.84375
vt 0.59375 0.84375
vt 0.59375 0.875
vt 0.5625 0.875
vt 0.5625 0.90625
vt 0.59375 0.90625
vt 0.625 0.90625
vt 0.59375 0.90625
vt 0.59375 0.875
vt 0.625 0.875
vn 0 0 -1
vn 1 0 0
vn 0 0 1
vn -1 0 0
vn 0 1 0
vn 0 -1 0
usemtl m_b54f463b-2088-a772-0de0-3bd182ec8085
f 76/216/54 79/215/54 77/214/54 74/213/54
f 75/220/55 76/219/55 74/218/55 73/217/55
f 80/224/56 75/223/56 73/222/56 78/221/56
f 79/228/57 80/227/57 78/226/57 77/225/57
f 78/232/58 73/231/58 74/230/58 77/229/58
f 79/236/59 76/235/59 75/234/59 80/233/59
o cube
v -0.25 -0.4375 0.3125
v -0.25 -0.4375 0.25
v -0.25 -0.5 0.3125
v -0.25 -0.5 0.25
v -0.3125 -0.4375 0.25
v -0.3125 -0.4375 0.3125
v -0.3125 -0.5 0.25
v -0.3125 -0.5 0.3125
vt 0.71875 0.8125
vt 0.75 0.8125
vt 0.75 0.78125
vt 0.71875 0.78125
vt 0.6875 0.8125
vt 0.71875 0.8125
vt 0.71875 0.78125
vt 0.6875 0.78125
vt 0.78125 0.8125
vt 0.8125 0.8125
vt 0.8125 0.78125
vt 0.78125 0.78125
vt 0.75 0.8125
vt 0.78125 0.8125
vt 0.78125 0.78125
vt 0.75 0.78125
vt 0.75 0.8125
vt 0.71875 0.8125
vt 0.71875 0.84375
vt 0.75 0.84375
vt 0.78125 0.84375
vt 0.75 0.84375
vt 0.75 0.8125
vt 0.78125 0.8125
vn 0 0 -1
vn 1 0 0
vn 0 0 1
vn -1 0 0
vn 0 1 0
vn 0 -1 0
usemtl m_b54f463b-2088-a772-0de0-3bd182ec8085
f 84/240/60 87/239/60 85/238/60 82/237/60
f 83/244/61 84/243/61 82/242/61 81/241/61
f 88/248/62 83/247/62 81/246/62 86/245/62
f 87/252/63 88/251/63 86/250/63 85/249/63
f 86/256/64 81/255/64 82/254/64 85/253/64
f 87/260/65 84/259/65 83/258/65 88/257/65
o cube
v -0.125 -0.4375 0.3125
v -0.125 -0.4375 0.25
v -0.125 -0.5 0.3125
v -0.125 -0.5 0.25
v -0.1875 -0.4375 0.25
v -0.1875 -0.4375 0.3125
v -0.1875 -0.5 0.25
v -0.1875 -0.5 0.3125
vt 0.71875 0.90625
vt 0.75 0.90625
vt 0.75 0.875
vt 0.71875 0.875
vt 0.6875 0.90625
vt 0.71875 0.90625
vt 0.71875 0.875
vt 0.6875 0.875
vt 0.78125 0.90625
vt 0.8125 0.90625
vt 0.8125 0.875
vt 0.78125 0.875
vt 0.75 0.90625
vt 0.78125 0.90625
vt 0.78125 0.875
vt 0.75 0.875
vt 0.75 0.90625
vt 0.71875 0.90625
vt 0.71875 0.9375
vt 0.75 0.9375
vt 0.78125 0.9375
vt 0.75 0.9375
vt 0.75 0.90625
vt 0.78125 0.90625
vn 0 0 -1
vn 1 0 0
vn 0 0 1
vn -1 0 0
vn 0 1 0
vn 0 -1 0
usemtl m_b54f463b-2088-a772-0de0-3bd182ec8085
f 92/264/66 95/263/66 93/262/66 90/261/66
f 91/268/67 92/267/67 90/266/67 89/265/67
f 96/272/68 91/271/68 89/270/68 94/269/68
f 95/276/69 96/275/69 94/274/69 93/273/69
f 94/280/70 89/279/70 90/278/70 93/277/70
f 95/284/71 92/283/71 91/282/71 96/281/71
o cube
v -0.1875 -0.4375 0.1875
v -0.1875 -0.4375 0.125
v -0.1875 -0.5 0.1875
v -0.1875 -0.5 0.125
v -0.25 -0.4375 0.125
v -0.25 -0.4375 0.1875
v -0.25 -0.5 0.125
v -0.25 -0.5 0.1875
vt 0.5625 0.96875
vt 0.59375 0.96875
vt 0.59375 0.9375
vt 0.5625 0.9375
vt 0.53125 0.96875
vt 0.5625 0.96875
vt 0.5625 0.9375
vt 0.53125 0.9375
vt 0.625 0.96875
vt 0.65625 0.96875
vt 0.65625 0.9375
vt 0.625 0.9375
vt 0.59375 0.96875
vt 0.625 0.96875
vt 0.625 0.9375
vt 0.59375 0.9375
vt 0.59375 0.96875
vt 0.5625 0.96875
vt 0.5625 1
vt 0.59375 1
vt 0.625 1
vt 0.59375 1
vt 0.59375 0.96875
vt 0.625 0.96875
vn 0 0 -1
vn 1 0 0
vn 0 0 1
vn -1 0 0
vn 0 1 0
vn 0 -1 0
usemtl m_b54f463b-2088-a772-0de0-3bd182ec8085
f 100/288/72 103/287/72 101/286/72 98/285/72
f 99/292/73 100/291/73 98/290/73 97/289/73
f 104/296/74 99/295/74 97/294/74 102/293/74
f 103/300/75 104/299/75 102/298/75 101/297/75
f 102/304/76 97/303/76 98/302/76 101/301/76
f 103/308/77 100/307/77 99/306/77 104/305/77
o cube
v -0.125 -0.4375 -0.125
v -0.125 -0.4375 -0.1875
v -0.125 -0.5 -0.125
v -0.125 -0.5 -0.1875
v -0.1875 -0.4375 -0.1875
v -0.1875 -0.4375 -0.125
v -0.1875 -0.5 -0.1875
v -0.1875 -0.5 -0.125
vt 0.5625 0.875
vt 0.59375 0.875
vt 0.59375 0.84375
vt 0.5625 0.84375
vt 0.53125 0.875
vt 0.5625 0.875
vt 0.5625 0.84375
vt 0.53125 0.84375
vt 0.625 0.875
vt 0.65625 0.875
vt 0.65625 0.84375
vt 0.625 0.84375
vt 0.59375 0.875
vt 0.625 0.875
vt 0.625 0.84375
vt 0.59375 0.84375
vt 0.59375 0.875
vt 0.5625 0.875
vt 0.5625 0.90625
vt 0.59375 0.90625
vt 0.625 0.90625
vt 0.59375 0.90625
vt 0.59375 0.875
vt 0.625 0.875
vn 0 0 -1
vn 1 0 0
vn 0 0 1
vn -1 0 0
vn 0 1 0
vn 0 -1 0
usemtl m_b54f463b-2088-a772-0de0-3bd182ec8085
f 108/312/78 111/311/78 109/310/78 106/309/78
f 107/316/79 108/315/79 106/314/79 105/313/79
f 112/320/80 107/319/80 105/318/80 110/317/80
f 111/324/81 112/323/81 110/322/81 109/321/81
f 110/328/82 105/327/82 106/326/82 109/325/82
f 111/332/83 108/331/83 107/330/83 112/329/83
o cube
v -0.3125 -0.4375 0
v -0.3125 -0.4375 -0.0625
v -0.3125 -0.5 0
v -0.3125 -0.5 -0.0625
v -0.375 -0.4375 -0.0625
v -0.375 -0.4375 0
v -0.375 -0.5 -0.0625
v -0.375 -0.5 0
vt 0.71875 0.8125
vt 0.75 0.8125
vt 0.75 0.78125
vt 0.71875 0.78125
vt 0.6875 0.8125
vt 0.71875 0.8125
vt 0.71875 0.78125
vt 0.6875 0.78125
vt 0.78125 0.8125
vt 0.8125 0.8125
vt 0.8125 0.78125
vt 0.78125 0.78125
vt 0.75 0.8125
vt 0.78125 0.8125
vt 0.78125 0.78125
vt 0.75 0.78125
vt 0.75 0.8125
vt 0.71875 0.8125
vt 0.71875 0.84375
vt 0.75 0.84375
vt 0.78125 0.84375
vt 0.75 0.84375
vt 0.75 0.8125
vt 0.78125 0.8125
vn 0 0 -1
vn 1 0 0
vn 0 0 1
vn -1 0 0
vn 0 1 0
vn 0 -1 0
usemtl m_b54f463b-2088-a772-0de0-3bd182ec8085
f 116/336/84 119/335/84 117/334/84 114/333/84
f 115/340/85 116/339/85 114/338/85 113/337/85
f 120/344/86 115/343/86 113/342/86 118/341/86
f 119/348/87 120/347/87 118/346/87 117/345/87
f 118/352/88 113/351/88 114/350/88 117/349/88
f 119/356/89 116/355/89 115/354/89 120/353/89
o cube
v -0.1875 -0.4375 0
v -0.1875 -0.4375 -0.0625
v -0.1875 -0.5 0
v -0.1875 -0.5 -0.0625
v -0.25 -0.4375 -0.0625
v -0.25 -0.4375 0
v -0.25 -0.5 -0.0625
v -0.25 -0.5 0
vt 0.71875 0.90625
vt 0.75 0.90625
vt 0.75 0.875
vt 0.71875 0.875
vt 0.6875 0.90625
vt 0.71875 0.90625
vt 0.71875 0.875
vt 0.6875 0.875
vt 0.78125 0.90625
vt 0.8125 0.90625
vt 0.8125 0.875
vt 0.78125 0.875
vt 0.75 0.90625
vt 0.78125 0.90625
vt 0.78125 0.875
vt 0.75 0.875
vt 0.75 0.90625
vt 0.71875 0.90625
vt 0.71875 0.9375
vt 0.75 0.9375
vt 0.78125 0.9375
vt 0.75 0.9375
vt 0.75 0.90625
vt 0.78125 0.90625
vn 0 0 -1
vn 1 0 0
vn 0 0 1
vn -1 0 0
vn 0 1 0
vn 0 -1 0
usemtl m_b54f463b-2088-a772-0de0-3bd182ec8085
f 124/360/90 127/359/90 125/358/90 122/357/90
f 123/364/91 124/363/91 122/362/91 121/361/91
f 128/368/92 123/367/92 121/366/92 126/365/92
f 127/372/93 128/371/93 126/370/93 125/369/93
f 126/376/94 121/375/94 122/374/94 125/373/94
f 127/380/95 124/379/95 123/378/95 128/377/95
o cube
v -0.25 -0.4375 -0.125
v -0.25 -0.4375 -0.1875
v -0.25 -0.5 -0.125
v -0.25 -0.5 -0.1875
v -0.3125 -0.4375 -0.1875
v -0.3125 -0.4375 -0.125
v -0.3125 -0.5 -0.1875
v -0.3125 -0.5 -0.125
vt 0.5625 0.96875
vt 0.59375 0.96875
vt 0.59375 0.9375
vt 0.5625 0.9375
vt 0.53125 0.96875
vt 0.5625 0.96875
vt 0.5625 0.9375
vt 0.53125 0.9375
vt 0.625 0.96875
vt 0.65625 0.96875
vt 0.65625 0.9375
vt 0.625 0.9375
vt 0.59375 0.96875
vt 0.625 0.96875
vt 0.625 0.9375
vt 0.59375 0.9375
vt 0.59375 0.96875
vt 0.5625 0.96875
vt 0.5625 1
vt 0.59375 1
vt 0.625 1
vt 0.59375 1
vt 0.59375 0.96875
vt 0.625 0.96875
vn 0 0 -1
vn 1 0 0
vn 0 0 1
vn -1 0 0
vn 0 1 0
vn 0 -1 0
usemtl m_b54f463b-2088-a772-0de0-3bd182ec8085
f 132/384/96 135/383/96 133/382/96 130/381/96
f 131/388/97 132/387/97 130/386/97 129/385/97
f 136/392/98 131/391/98 129/390/98 134/389/98
f 135/396/99 136/395/99 134/394/99 133/393/99
f 134/400/100 129/399/100 130/398/100 133/397/100
f 135/404/101 132/403/101 131/402/101 136/401/101