# Made in Blockbench 5.0.7
mtllib salgadinhos_caixa5.mtl

o bandeja
v 0.4375 -0.43125 0.4375
v 0.4375 -0.43125 -0.4375
v 0.4375 -0.49375 0.4375
v 0.4375 -0.49375 -0.4375
v -0.4375 -0.43125 -0.4375
v -0.4375 -0.43125 0.4375
v -0.4375 -0.49375 -0.4375
v -0.4375 -0.49375 0.4375
vt 0 1
vt 0.4375 1
vt 0.4375 0.96875
vt 0 0.96875
vt 0 1
vt 0.4375 1
vt 0.4375 0.96875
vt 0 0.96875
vt 0 1
vt 0.4375 1
vt 0.4375 0.96875
vt 0 0.96875
vt 0 1
vt 0.4375 1
vt 0.4375 0.96875
vt 0 0.96875
vt 0 1
vt 0.4375 1
vt 0.4375 0.5625
vt 0 0.5625
vn 0 0 -1
vn 1 0 0
vn 0 0 1
vn -1 0 0
vn 0 -1 0
usemtl m_b54f463b-2088-a772-0de0-3bd182ec8085
f 4/4/1 7/3/1 5/2/1 2/1/1
f 3/8/2 4/7/2 2/6/2 1/5/2
f 8/12/3 3/11/3 1/10/3 6/9/3
f 7/16/4 8/15/4 6/14/4 5/13/4
f 7/20/5 4/19/5 3/18/5 8/17/5