# Made in Blockbench 5.0.7
mtllib salgadinhos_caixa4.mtl

o bandeja
v 0.4375 -0.43125 0.4375
v 0.4375 -0.43125 -0.4375
v 0.4375 -0.49375 0.4375
v 0.4375 -0.49375 -0.4375
v -0.4375 -0.43125 -0.4375
v -0.4375 -0.43125 0.4375
v -0.4375 -0.49375 -0.4375
v -0.4375 -0.49375 0.4375
vt 0 1
vt 0.4375 1
vt 0.4375 0.96875
vt 0 0.96875
vt 0 1
vt 0.4375 1
vt 0.4375 0.96875
vt 0 0.96875
vt 0 1
vt 0.4375 1
vt 0.4375 0.96875
vt 0 0.96875
vt 0 1
vt 0.4375 1
vt 0.4375 0.96875
vt 0 0.96875
vt 0 1
vt 0.4375 1
vt 0.4375 0.5625
vt 0 0.5625
vn 0 0 -1
vn 1 0 0
vn 0 0 1
vn -1 0 0
vn 0 -1 0
usemtl m_b54f463b-2088-a772-0de0-3bd182ec8085
f 4/4/1 7/3/1 5/2/1 2/1/1
f 3/8/2 4/7/2 2/6/2 1/5/2
f 8/12/3 3/11/3 1/10/3 6/9/3
f 7/16/4 8/15/4 6/14/4 5/13/4
f 7/20/5 4/19/5 3/18/5 8/17/5
o cube
v -0.125 -0.4375 -0.125
v -0.125 -0.4375 -0.1875
v -0.125 -0.5 -0.125
v -0.125 -0.5 -0.1875
v -0.1875 -0.4375 -0.1875
v -0.1875 -0.4375 -0.125
v -0.1875 -0.5 -0.1875
v -0.1875 -0.5 -0.125
vt 0.5625 0.875
vt 0.59375 0.875
vt 0.59375 0.84375
vt 0.5625 0.84375
vt 0.53125 0.875
vt 0.5625 0.875
vt 0.5625 0.84375
vt 0.53125 0.84375
vt 0.625 0.875
vt 0.65625 0.875
vt 0.65625 0.84375
vt 0.625 0.84375
vt 0.59375 0.875
vt 0.625 0.875
vt 0.625 0.84375
vt 0.59375 0.84375
vt 0.59375 0.875
vt 0.5625 0.875
vt 0.5625 0.90625
vt 0.59375 0.90625
vt 0.625 0.90625
vt 0.59375 0.90625
vt 0.59375 0.875
vt 0.625 0.875
vn 0 0 -1
vn 1 0 0
vn 0 0 1
vn -1 0 0
vn 0 1 0
vn 0 -1 0
usemtl m_b54f463b-2088-a772-0de0-3bd182ec8085
f 12/24/6 15/23/6 13/22/6 10/21/6
f 11/28/7 12/27/7 10/26/7 9/25/7
f 16/32/8 11/31/8 9/30/8 14/29/8
f 15/36/9 16/35/9 14/34/9 13/33/9
f 14/40/10 9/39/10 10/38/10 13/37/10
f 15/44/11 12/43/11 11/42/11 16/41/11
o cube
v -0.3125 -0.4375 0
v -0.3125 -0.4375 -0.0625
v -0.3125 -0.5 0
v -0.3125 -0.5 -0.0625
v -0.375 -0.4375 -0.0625
v -0.375 -0.4375 0
v -0.375 -0.5 -0.0625
v -0.375 -0.5 0
vt 0.71875 0.8125
vt 0.75 0.8125
vt 0.75 0.78125
vt 0.71875 0.78125
vt 0.6875 0.8125
vt 0.71875 0.8125
vt 0.71875 0.78125
vt 0.6875 0.78125
vt 0.78125 0.8125
vt 0.8125 0.8125
vt 0.8125 0.78125
vt 0.78125 0.78125
vt 0.75 0.8125
vt 0.78125 0.8125
vt 0.78125 0.78125
vt 0.75 0.78125
vt 0.75 0.8125
vt 0.71875 0.8125
vt 0.71875 0.84375
vt 0.75 0.84375
vt 0.78125 0.84375
vt 0.75 0.84375
vt 0.75 0.8125
vt 0.78125 0.8125
vn 0 0 -1
vn 1 0 0
vn 0 0 1
vn -1 0 0
vn 0 1 0
vn 0 -1 0
usemtl m_b54f463b-2088-a772-0de0-3bd182ec8085
f 20/48/12 23/47/12 21/46/12 18/45/12
f 19/52/13 20/51/13 18/50/13 17/49/13
f 24/56/14 19/55/14 17/54/14 22/53/14
f 23/60/15 24/59/15 22/58/15 21/57/15
f 22/64/16 17/63/16 18/62/16 21/61/16
f 23/68/17 20/67/17 19/66/17 24/65/17
o cube
v -0.1875 -0.4375 0
v -0.1875 -0.4375 -0.0625
v -0.1875 -0.5 0
v -0.1875 -0.5 -0.0625
v -0.25 -0.4375 -0.0625
v -0.25 -0.4375 0
v -0.25 -0.5 -0.0625
v -0.25 -0.5 0
vt 0.71875 0.90625
vt 0.75 0.90625
vt 0.75 0.875
vt 0.71875 0.875
vt 0.6875 0.90625
vt 0.71875 0.90625
vt 0.71875 0.875
vt 0.6875 0.875
vt 0.78125 0.90625
vt 0.8125 0.90625
vt 0.8125 0.875
vt 0.78125 0.875
vt 0.75 0.90625
vt 0.78125 0.90625
vt 0.78125 0.875
vt 0.75 0.875
vt 0.75 0.90625
vt 0.71875 0.90625
vt 0.71875 0.9375
vt 0.75 0.9375
vt 0.78125 0.9375
vt 0.75 0.9375
vt 0.75 0.90625
vt 0.78125 0.90625
vn 0 0 -1
vn 1 0 0
vn 0 0 1
vn -1 0 0
vn 0 1 0
vn 0 -1 0
usemtl m_b54f463b-2088-a772-0de0-3bd182ec8085
f 28/72/18 31/71/18 29/70/18 26/69/18
f 27/76/19 28/75/19 26/74/19 25/73/19
f 32/80/20 27/79/20 25/78/20 30/77/20
f 31/84/21 32/83/21 30/82/21 29/81/21
f 30/88/22 25/87/22 26/86/22 29/85/22
f 31/92/23 28/91/23 27/90/23 32/89/23
o cube
v -0.25 -0.4375 -0.125
v -0.25 -0.4375 -0.1875
v -0.25 -0.5 -0.125
v -0.25 -0.5 -0.1875
v -0.3125 -0.4375 -0.1875
v -0.3125 -0.4375 -0.125
v -0.3125 -0.5 -0.1875
v -0.3125 -0.5 -0.125
vt 0.5625 0.96875
vt 0.59375 0.96875
vt 0.59375 0.9375
vt 0.5625 0.9375
vt 0.53125 0.96875
vt 0.5625 0.96875
vt 0.5625 0.9375
vt 0.53125 0.9375
vt 0.625 0.96875
vt 0.65625 0.96875
vt 0.65625 0.9375
vt 0.625 0.9375
vt 0.59375 0.96875
vt 0.625 0.96875
vt 0.625 0.9375
vt 0.59375 0.9375
vt 0.59375 0.96875
vt 0.5625 0.96875
vt 0.5625 1
vt 0.59375 1
vt 0.625 1
vt 0.59375 1
vt 0.59375 0.96875
vt 0.625 0.96875
vn 0 0 -1
vn 1 0 0
vn 0 0 1
vn -1 0 0
vn 0 1 0
vn 0 -1 0
usemtl m_b54f463b-2088-a772-0de0-3bd182ec8085
f 36/96/24 39/95/24 37/94/24 34/93/24
f 35/100/25 36/99/25 34/98/25 33/97/25
f 40/104/26 35/103/26 33/102/26 38/101/26
f 39/108/27 40/107/27 38/106/27 37/105/27
f 38/112/28 33/111/28 34/110/28 37/109/28
f 39/116/29 36/115/29 35/114/29 40/113/29