# Made in Blockbench 5.0.7
mtllib StFNpcLayBed.mtl

o Body
v -0.145 -0.7950000000000002 0.30000000000000004
v -0.14500000000000007 -0.39500000000000013 0.30000000000000004
v -0.14499999999999993 -0.39500000000000013 0.9
v -0.14499999999999985 -0.7950000000000002 0.9
v -0.345 -0.7950000000000002 0.30000000000000004
v -0.34499999999999986 -0.7950000000000002 0.9
v -0.3450000000000001 -0.39500000000000013 0.30000000000000004
v -0.345 -0.39500000000000013 0.9
vt 0.3125 0.5
vt 0.4375 0.5
vt 0.4375 0.6875
vt 0.3125 0.6875
vt 0.25 0.5
vt 0.3125 0.5
vt 0.3125 0.6875
vt 0.25 0.6875
vt 0.5 0.5
vt 0.625 0.5
vt 0.625 0.6875
vt 0.5 0.6875
vt 0.4375 0.5
vt 0.5 0.5
vt 0.5 0.6875
vt 0.4375 0.6875
vt 0.4375 0.75
vt 0.3125 0.75
vt 0.3125 0.6875
vt 0.4375 0.6875
vt 0.5625 0.6875
vt 0.4375 0.6875
vt 0.4375 0.75
vt 0.5625 0.75
vn 1 2.0816681711721683e-16 -2.312964634635743e-16
vn 0 -1 0
vn -1 -2.7755575615628914e-16 1.8503717077085943e-16
vn 0 1 0
vn 0 0 1
vn 0 0 -1
usemtl none
f 1/1/1 2/2/1 3/3/1 4/4/1
f 5/5/2 1/6/2 4/7/2 6/8/2
f 7/9/3 5/10/3 6/11/3 8/12/3
f 2/13/4 7/14/4 8/15/4 3/16/4
f 8/17/5 6/18/5 4/19/5 3/20/5
f 2/21/6 1/22/6 5/23/6 7/24/6
o Body
v -0.13249999999999998 -0.8075000000000001 0.28750000000000003
v -0.13250000000000006 -0.38250000000000006 0.28750000000000003
v -0.13249999999999992 -0.38250000000000006 0.9125000000000001
v -0.13249999999999984 -0.8075000000000001 0.9125000000000001
v -0.3575 -0.8075000000000001 0.28750000000000003
v -0.3574999999999999 -0.8075000000000001 0.9125000000000001
v -0.3575000000000001 -0.3825000000000002 0.28750000000000003
v -0.35749999999999993 -0.3825000000000002 0.9125000000000001
vt 0.3125 0.25
vt 0.4375 0.25
vt 0.4375 0.4375
vt 0.3125 0.4375
vt 0.25 0.25
vt 0.3125 0.25
vt 0.3125 0.4375
vt 0.25 0.4375
vt 0.5 0.25
vt 0.625 0.25
vt 0.625 0.4375
vt 0.5 0.4375
vt 0.4375 0.25
vt 0.5 0.25
vt 0.5 0.4375
vt 0.4375 0.4375
vt 0.4375 0.5
vt 0.3125 0.5
vt 0.3125 0.4375
vt 0.4375 0.4375
vt 0.5625 0.4375
vt 0.4375 0.4375
vt 0.4375 0.5
vt 0.5625 0.5
vn 1 1.959217102279688e-16 -2.220446049250313e-16
vn 0 -1 0
vn -1 -2.6122894697062513e-16 1.7763568394002506e-16
vn -4.934324553889584e-16 1 1.3147681753683527e-31
vn 0 0 1
vn 0 0 -1
usemtl none
f 9/25/7 10/26/7 11/27/7 12/28/7
f 13/29/8 9/30/8 12/31/8 14/32/8
f 15/33/9 13/34/9 14/35/9 16/36/9
f 10/37/10 15/38/10 16/39/10 11/40/10
f 16/41/11 14/42/11 12/43/11 11/44/11
f 10/45/12 9/46/12 13/47/12 15/48/12
o Head
v -0.044999999999999846 -0.7950000000000002 0.9
v -0.04499999999999993 -0.3950000000000001 0.9
v -0.044999999999999846 -0.3950000000000001 1.3
v -0.044999999999999755 -0.7950000000000002 1.3
v -0.44499999999999984 -0.7950000000000002 0.9
v -0.4449999999999998 -0.7950000000000002 1.3
v -0.44499999999999995 -0.3950000000000002 0.9
v -0.44499999999999984 -0.3950000000000002 1.3
vt 0.125 0.75
vt 0.25 0.75
vt 0.25 0.875
vt 0.125 0.875
vt 0 0.75
vt 0.125 0.75
vt 0.125 0.875
vt 0 0.875
vt 0.375 0.75
vt 0.5 0.75
vt 0.5 0.875
vt 0.375 0.875
vt 0.25 0.75
vt 0.375 0.75
vt 0.375 0.875
vt 0.25 0.875
vt 0.25 1
vt 0.125 1
vt 0.125 0.875
vt 0.25 0.875
vt 0.375 0.875
vt 0.25 0.875
vt 0.25 1
vt 0.375 1
vn 1 2.0816681711721685e-16 -2.0816681711721685e-16
vn 0 -1 0
vn -1 -2.7755575615628914e-16 1.3877787807814457e-16
vn -2.775557561562891e-16 1 7.703719777548942e-32
vn 0 0 1
vn 0 0 -1
usemtl none
f 17/49/13 18/50/13 19/51/13 20/52/13
f 21/53/14 17/54/14 20/55/14 22/56/14
f 23/57/15 21/58/15 22/59/15 24/60/15
f 18/61/16 23/62/16 24/63/16 19/64/16
f 24/65/17 22/66/17 20/67/17 19/68/17
f 18/69/18 17/70/18 21/71/18 23/72/18
o Hat
v -0.01999999999999984 -0.8200000000000002 0.875
v -0.01999999999999993 -0.3700000000000001 0.875
v -0.01999999999999984 -0.3700000000000001 1.3250000000000002
v -0.019999999999999754 -0.8200000000000002 1.3250000000000002
v -0.46999999999999986 -0.8200000000000002 0.875
v -0.46999999999999975 -0.8200000000000002 1.3250000000000002
v -0.47 -0.37000000000000016 0.875
v -0.46999999999999986 -0.37000000000000016 1.3250000000000002
vt 0.625 0.75
vt 0.75 0.75
vt 0.75 0.875
vt 0.625 0.875
vt 0.5 0.75
vt 0.625 0.75
vt 0.625 0.875
vt 0.5 0.875
vt 0.875 0.75
vt 1 0.75
vt 1 0.875
vt 0.875 0.875
vt 0.75 0.75
vt 0.875 0.75
vt 0.875 0.875
vt 0.75 0.875
vt 0.75 1
vt 0.625 1
vt 0.625 0.875
vt 0.75 0.875
vt 0.875 0.875
vt 0.75 0.875
vt 0.75 1
vt 0.875 1
vn 1 2.0045693500176435e-16 -2.004569350017643e-16
vn 0 -1 0
vn -1 -2.467162276944792e-16 2.4671622769447914e-16
vn -1.233581138472396e-16 1 3.043444850389705e-32
vn 0 0 1
vn 0 0 -1
usemtl none
f 25/73/19 26/74/19 27/75/19 28/76/19
f 29/77/20 25/78/20 28/79/20 30/80/20
f 31/81/21 29/82/21 30/83/21 32/84/21
f 26/85/22 31/86/22 32/87/22 27/88/22
f 32/89/23 30/90/23 28/91/23 27/92/23
f 26/93/24 25/94/24 29/95/24 31/96/24
o Left
v 0.10994921179793526 -0.5629947027019068 0.5016891442841346
v 0.14118051247795776 -0.42204080958399237 0.4609877208110229
v -0.20204866111650982 -0.216828723588901 0.9082926885402021
v -0.23327996179653235 -0.35778261670681544 0.9489941120133137
v -0.04872145626050417 -0.5629947027018553 0.37993685848264125
v -0.39195062985497175 -0.357782616706764 0.8272418262118205
v -0.017490155580481614 -0.42204080958394086 0.3392354350095295
v -0.3607193291749493 -0.21682872358884953 0.7865404027387086
vt 0.5625 0
vt 0.609375 0
vt 0.609375 0.1875
vt 0.5625 0.1875
vt 0.5 0
vt 0.5625 0
vt 0.5625 0.1875
vt 0.5 0.1875
vt 0.671875 0
vt 0.71875 0
vt 0.71875 0.1875
vt 0.671875 0.1875
vt 0.609375 0
vt 0.671875 0
vt 0.671875 0.1875
vt 0.609375 0.1875
vt 0.609375 0.25
vt 0.5625 0.25
vt 0.5625 0.1875
vt 0.609375 0.1875
vt 0.65625 0.1875
vt 0.609375 0.1875
vt 0.609375 0.25
vt 0.65625 0.25
vn 0.7933533402921972 -2.5745223854024703e-13 0.6087614290074672
vn -0.2082086712001503 -0.9396926207860964 0.2713428231540783
vn -0.7933533402921973 2.5754861206669004e-13 -0.6087614290074671
vn 0.2082086712001504 0.9396926207860964 -0.2713428231540782
vn -0.5720486226574455 0.3420201433251527 0.7455082795486322
vn 0.5720486226574457 -0.34202014332515196 -0.7455082795486324
usemtl none
f 33/97/25 34/98/25 35/99/25 36/100/25
f 37/101/26 33/102/26 36/103/26 38/104/26
f 39/105/27 37/106/27 38/107/27 40/108/27
f 34/109/28 39/110/28 40/111/28 35/112/28
f 40/113/29 38/114/29 36/115/29 35/116/29
f 34/117/30 33/118/30 37/119/30 39/120/30
o Left
v 0.12499272459067852 -0.5796569686353564 0.5034388919281024
v 0.16163745072190494 -0.4142710673770035 0.45568255505298466
v -0.19646498706165613 -0.20016645765545818 0.9223707380504282
v -0.23310971319288265 -0.36555235891381105 0.970127074925546
v -0.054305130315357886 -0.5796569686352983 0.3658588089724151
v -0.412407568098919 -0.365552358913753 0.8325469919698585
v -0.01766040418413146 -0.4142710673769454 0.3181024720972973
v -0.37576284196769244 -0.2001664576554001 0.7847906550947408
vt 0.796875 0
vt 0.84375 0
vt 0.84375 0.1875
vt 0.796875 0.1875
vt 0.734375 0
vt 0.796875 0
vt 0.796875 0.1875
vt 0.734375 0.1875
vt 0.90625 0
vt 0.953125 0
vt 0.953125 0.1875
vt 0.90625 0.1875
vt 0.84375 0
vt 0.90625 0
vt 0.90625 0.1875
vt 0.84375 0.1875
vt 0.84375 0.25
vt 0.796875 0.25
vt 0.796875 0.1875
vt 0.84375 0.1875
vt 0.890625 0.1875
vt 0.84375 0.1875
vt 0.84375 0.25
vt 0.890625 0.25
vn 0.7933533402921973 -2.573523745175077e-13 0.6087614290074671
vn -0.2082086712001503 -0.9396926207860964 0.2713428231540785
vn -0.7933533402921972 2.572736494105891e-13 -0.6087614290074672
vn 0.20820867120014996 0.9396926207860964 -0.27134282315407876
vn -0.5720486226574464 0.34202014332515246 0.7455082795486317
vn 0.5720486226574458 -0.3420201433251521 -0.7455082795486323
usemtl none
f 41/121/31 42/122/31 43/123/31 44/124/31
f 45/125/32 41/126/32 44/127/32 46/128/32
f 47/129/33 45/130/33 46/131/33 48/132/33
f 42/133/34 47/134/34 48/135/34 43/136/34
f 48/137/35 46/138/35 44/139/35 43/140/35
f 42/141/36 41/142/36 45/143/36 47/144/36
o Right
v 0.3833167354566921 -0.7450000000000001 0.5233327375208224
v 0.3833167354566921 -0.5950000000000001 0.5233327375208224
v -0.04704859103660384 -0.5950000000000001 0.9414065177944947
v -0.047048591036603804 -0.7450000000000001 0.9414065177944947
v 0.24395880869880135 -0.7450000000000001 0.3798776286897238
v -0.18640651779449458 -0.7450000000000001 0.7979514089633961
v 0.24395880869880135 -0.5950000000000001 0.3798776286897238
v -0.1864065177944946 -0.5950000000000001 0.7979514089633961
vt 0.6875 0.5
vt 0.734375 0.5
vt 0.734375 0.6875
vt 0.6875 0.6875
vt 0.625 0.5
vt 0.6875 0.5
vt 0.6875 0.6875
vt 0.625 0.6875
vt 0.796875 0.5
vt 0.84375 0.5
vt 0.84375 0.6875
vt 0.796875 0.6875
vt 0.734375 0.5
vt 0.796875 0.5
vt 0.796875 0.6875
vt 0.734375 0.6875
vt 0.734375 0.75
vt 0.6875 0.75
vt 0.6875 0.6875
vt 0.734375 0.6875
vt 0.78125 0.6875
vt 0.734375 0.6875
vt 0.734375 0.75
vt 0.78125 0.75
vn 0.6967896337894538 0 0.7172755441554932
vn 0 -1 0
vn -0.6967896337894538 0 -0.7172755441554932
vn 0 1 0
vn -0.717275544155493 -1.3272263735366106e-16 0.696789633789454
vn 0.7172755441554932 0 -0.6967896337894537
usemtl none
f 49/145/37 50/146/37 51/147/37 52/148/37
f 53/149/38 49/150/38 52/151/38 54/152/38
f 55/153/39 53/154/39 54/155/39 56/156/39
f 50/157/40 55/158/40 56/159/40 51/160/40
f 56/161/41 54/162/41 52/163/41 51/164/41
f 50/165/42 49/166/42 53/167/42 55/168/42
o Right
v 0.40169958276997647 -0.758 0.523599054355581
v 0.40169958276997636 -0.5820000000000001 0.523599054355581
v -0.04731490787136244 -0.5820000000000002 0.959789365107779
v -0.04731490787136244 -0.7580000000000001 0.959789365107779
v 0.24422512553355996 -0.758 0.3614947813764396
v -0.20478936510777893 -0.7580000000000001 0.7976850921286377
v 0.24422512553355988 -0.5820000000000001 0.3614947813764396
v -0.20478936510777893 -0.5820000000000002 0.7976850921286377
vt 0.6875 0.25
vt 0.734375 0.25
vt 0.734375 0.4375
vt 0.6875 0.4375
vt 0.625 0.25
vt 0.6875 0.25
vt 0.6875 0.4375
vt 0.625 0.4375
vt 0.796875 0.25
vt 0.84375 0.25
vt 0.84375 0.4375
vt 0.796875 0.4375
vt 0.734375 0.25
vt 0.796875 0.25
vt 0.796875 0.4375
vt 0.734375 0.4375
vt 0.734375 0.5
vt 0.6875 0.5
vt 0.6875 0.4375
vt 0.734375 0.4375
vt 0.78125 0.4375
vt 0.734375 0.4375
vt 0.734375 0.5
vt 0.78125 0.5
vn 0.6967896337894537 4.3954084929158115e-16 0.7172755441554933
vn 1.2721019554664004e-16 -1 -1.2357697999252118e-16
vn -0.6967896337894537 -3.296556369686858e-16 -0.7172755441554933
vn -1.2721019554664002e-16 1 1.2357697999252116e-16
vn -0.7172755441554931 0 0.6967896337894539
vn 0.7172755441554932 4.524635364329358e-16 -0.6967896337894539
usemtl none
f 57/169/43 58/170/43 59/171/43 60/172/43
f 61/173/44 57/174/44 60/175/44 62/176/44
f 63/177/45 61/178/45 62/179/45 64/180/45
f 58/181/46 63/182/46 64/183/46 59/184/46
f 64/185/47 62/186/47 60/187/47 59/188/47
f 58/189/48 57/190/48 61/191/48 63/192/48
o Left
v 0.06133455618236763 -0.8244996563988851 -0.18179458685422253
v 0.04420737406621081 -0.6450713164975799 -0.2684671342554712
v -0.05532155301936015 -0.395440579494276 0.26798275885327233
v -0.03819437090320332 -0.5748689193955812 0.354655306254521
v -0.135149519895069 -0.8541901575090283 -0.20443265196201588
v -0.23467844698063997 -0.6045594205057243 0.3320172411467277
v -0.1522767020112258 -0.674761817607723 -0.29110519936326457
v -0.25180562909679677 -0.4251310806044192 0.24534469374547896
vt 0.3125 0
vt 0.375 0
vt 0.375 0.1875
vt 0.3125 0.1875
vt 0.25 0
vt 0.3125 0
vt 0.3125 0.1875
vt 0.25 0.1875
vt 0.4375 0
vt 0.5 0
vt 0.5 0.1875
vt 0.4375 0.1875
vt 0.375 0
vt 0.4375 0
vt 0.4375 0.1875
vt 0.375 0.1875
vt 0.375 0.25
vt 0.3125 0.25
vt 0.3125 0.1875
vt 0.375 0.1875
vt 0.4375 0.1875
vt 0.375 0.1875
vt 0.375 0.25
vt 0.4375 0.25
vn 0.9824203803871833 0.1484525055507157 0.11319032553896682
vn 0.08563591058078412 -0.8971416995065257 0.4333627370062438
vn -0.9824203803871833 -0.1484525055507157 -0.11319032553896685
vn -0.08563591058078407 0.8971416995065258 -0.4333627370062436
vn -0.1658815451426181 0.41605122833883995 0.8940831551812393
vn 0.1658815451426182 -0.41605122833883934 -0.8940831551812396
usemtl none
f 65/193/49 66/194/49 67/195/49 68/196/49
f 69/197/50 65/198/50 68/199/50 70/200/50
f 71/201/51 69/202/51 70/203/51 72/204/51
f 66/205/52 71/206/52 72/207/52 67/208/52
f 72/209/53 70/210/53 68/211/53 67/212/53
f 66/213/54 65/214/54 69/215/54 71/216/54
o Left
v 0.07737574805180521 -0.8396412818887156 -0.18631247805849083
v 0.05802203226054801 -0.6368872578002408 -0.28425245662190185
v -0.045819814998731 -0.376439188860127 0.27544359852155387
v -0.026466099207473805 -0.5791932129486018 0.37338357708496495
v -0.14465125791569808 -0.8731915481431772 -0.21189349163029725
v -0.24849310517497708 -0.6127434792030636 0.34780256351315847
v -0.16400497370695527 -0.6704375240547025 -0.3098334701937083
v -0.2678468209662343 -0.40998945511458873 0.2498625849497474
vt 0.0625 0
vt 0.125 0
vt 0.125 0.1875
vt 0.0625 0.1875
vt 0 0
vt 0.0625 0
vt 0.0625 0.1875
vt 0 0.1875
vt 0.1875 0
vt 0.25 0
vt 0.25 0.1875
vt 0.1875 0.1875
vt 0.125 0
vt 0.1875 0
vt 0.1875 0.1875
vt 0.125 0.1875
vt 0.125 0.25
vt 0.0625 0.25
vt 0.0625 0.1875
vt 0.125 0.1875
vt 0.1875 0.1875
vt 0.125 0.1875
vt 0.125 0.25
vt 0.1875 0.25
vn 0.9824203803871832 0.14845250555071574 0.11319032553896671
vn 0.0856359105807839 -0.8971416995065259 0.4333627370062437
vn -0.9824203803871832 -0.14845250555071574 -0.11319032553896677
vn -0.08563591058078382 0.8971416995065258 -0.43336273700624367
vn -0.16588154514261835 0.41605122833883984 0.8940831551812394
vn 0.16588154514261796 -0.41605122833883995 -0.8940831551812395
usemtl none
f 73/217/55 74/218/55 75/219/55 76/220/55
f 77/221/56 73/222/56 76/223/56 78/224/56
f 79/225/57 77/226/57 78/227/57 80/228/57
f 74/229/58 79/230/58 80/231/58 75/232/58
f 80/233/59 78/234/59 76/235/59 75/236/59
f 74/237/60 73/238/60 77/239/60 79/240/60
o Right
v -0.25070813129893754 -0.7900000000000001 -0.30824946957401794
v -0.2507081312989376 -0.5900000000000002 -0.30824946957401794
v -0.14651922469877926 -0.5900000000000002 0.28263518223330697
v -0.1465192246987792 -0.7900000000000001 0.28263518223330697
v -0.4476696819013792 -0.7900000000000003 -0.27351983404063174
v -0.34348077530122084 -0.7900000000000001 0.31736481776669306
v -0.44766968190137924 -0.5900000000000002 -0.27351983404063174
v -0.3434807753012209 -0.5900000000000002 0.31736481776669306
vt 0.0625 0.5
vt 0.125 0.5
vt 0.125 0.6875
vt 0.0625 0.6875
vt 0 0.5
vt 0.0625 0.5
vt 0.0625 0.6875
vt 0 0.6875
vt 0.1875 0.5
vt 0.25 0.5
vt 0.25 0.6875
vt 0.1875 0.6875
vt 0.125 0.5
vt 0.1875 0.5
vt 0.1875 0.6875
vt 0.125 0.6875
vt 0.125 0.75
vt 0.0625 0.75
vt 0.0625 0.6875
vt 0.125 0.6875
vt 0.1875 0.6875
vt 0.125 0.6875
vt 0.125 0.75
vt 0.1875 0.75
vn 0.984807753012208 2.7333906055587946e-16 -0.1736481776669305
vn 5.466781211117587e-16 -1 -9.639410251501306e-17
vn -0.984807753012208 -2.7333906055587936e-16 0.17364817766693058
vn 0 1 0
vn 0.17364817766693047 4.8197051257506536e-17 0.984807753012208
vn -0.17364817766693097 -4.819705125750668e-17 -0.984807753012208
usemtl none
f 81/241/61 82/242/61 83/243/61 84/244/61
f 85/245/62 81/246/62 84/247/62 86/248/62
f 87/249/63 85/250/63 86/251/63 88/252/63
f 82/253/64 87/254/64 88/255/64 83/256/64
f 88/257/65 86/258/65 84/259/65 83/260/65
f 82/261/66 81/262/66 85/263/66 87/264/66
o Right
v -0.2397574770317763 -0.8035000000000001 -0.32388862463818624
v -0.23975747703177636 -0.5765000000000001 -0.32388862463818624
v -0.1308800696346109 -0.5765000000000001 0.2935858365004682
v -0.13088006963461085 -0.8035000000000001 0.2935858365004682
v -0.46330883696554753 -0.8035000000000002 -0.284470488307793
v -0.3544314295683821 -0.8035000000000001 0.33300397283086147
v -0.46330883696554753 -0.5765000000000001 -0.284470488307793
v -0.35443142956838214 -0.5765000000000001 0.33300397283086147
vt 0.0625 0.25
vt 0.125 0.25
vt 0.125 0.4375
vt 0.0625 0.4375
vt 0 0.25
vt 0.0625 0.25
vt 0.0625 0.4375
vt 0 0.4375
vt 0.1875 0.25
vt 0.25 0.25
vt 0.25 0.4375
vt 0.1875 0.4375
vt 0.125 0.25
vt 0.1875 0.25
vt 0.1875 0.4375
vt 0.125 0.4375
vt 0.125 0.5
vt 0.0625 0.5
vt 0.0625 0.4375
vt 0.125 0.4375
vt 0.1875 0.4375
vt 0.125 0.4375
vt 0.125 0.5
vt 0.1875 0.5
vn 0.984807753012208 2.4082736612852813e-16 -0.17364817766693053
vn 4.816547322570563e-16 -1 -8.492872468283091e-17
vn -0.984807753012208 0 0.17364817766693053
vn 0 1 0
vn 0.17364817766693064 4.246436234141549e-17 0.984807753012208
vn -0.17364817766693064 -4.246436234141549e-17 -0.984807753012208
usemtl none
f 89/265/67 90/266/67 91/267/67 92/268/67
f 93/269/68 89/270/68 92/271/68 94/272/68
f 95/273/69 93/274/69 94/275/69 96/276/69
f 90/277/70 95/278/70 96/279/70 91/280/70
f 96/281/71 94/282/71 92/283/71 91/284/71
f 90/285/72 89/286/72 93/287/72 95/288/72