# Made in Blockbench 5.0.7
mtllib StFNpcLayFloorDwn.mtl

o Body
v -0.19 -0.4 0.2
v 0.21000000000000002 -0.4 0.2
v 0.21000000000000008 -0.3999999999999999 0.8
v -0.18999999999999992 -0.3999999999999999 0.8
v -0.19 -0.2 0.2
v -0.18999999999999992 -0.19999999999999987 0.8
v 0.21000000000000002 -0.2 0.2
v 0.21000000000000008 -0.19999999999999987 0.8
vt 0.3125 0.5
vt 0.4375 0.5
vt 0.4375 0.6875
vt 0.3125 0.6875
vt 0.25 0.5
vt 0.3125 0.5
vt 0.3125 0.6875
vt 0.25 0.6875
vt 0.5 0.5
vt 0.625 0.5
vt 0.625 0.6875
vt 0.5 0.6875
vt 0.4375 0.5
vt 0.5 0.5
vt 0.5 0.6875
vt 0.4375 0.6875
vt 0.4375 0.75
vt 0.3125 0.75
vt 0.3125 0.6875
vt 0.4375 0.6875
vt 0.5625 0.6875
vt 0.4375 0.6875
vt 0.4375 0.75
vt 0.5625 0.75
vn 0 -1 1.850371707708594e-16
vn -1 0 1.3877787807814457e-16
vn 0 1 -2.3129646346357425e-16
vn 1 0 -9.25185853854297e-17
vn 0 0 1
vn 0 0 -1
usemtl none
f 1/1/1 2/2/1 3/3/1 4/4/1
f 5/5/2 1/6/2 4/7/2 6/8/2
f 7/9/3 5/10/3 6/11/3 8/12/3
f 2/13/4 7/14/4 8/15/4 3/16/4
f 8/17/5 6/18/5 4/19/5 3/20/5
f 2/21/6 1/22/6 5/23/6 7/24/6
o Body
v -0.2025 -0.41250000000000003 0.1875
v 0.22250000000000003 -0.41250000000000003 0.1875
v 0.22250000000000006 -0.41249999999999987 0.8125
v -0.20249999999999996 -0.41249999999999987 0.8125
v -0.2025 -0.1875 0.1875
v -0.20249999999999996 -0.1874999999999999 0.8125
v 0.22250000000000003 -0.1875 0.1875
v 0.22250000000000006 -0.1874999999999999 0.8125
vt 0.3125 0.25
vt 0.4375 0.25
vt 0.4375 0.4375
vt 0.3125 0.4375
vt 0.25 0.25
vt 0.3125 0.25
vt 0.3125 0.4375
vt 0.25 0.4375
vt 0.5 0.25
vt 0.625 0.25
vt 0.625 0.4375
vt 0.5 0.4375
vt 0.4375 0.25
vt 0.5 0.25
vt 0.5 0.4375
vt 0.4375 0.4375
vt 0.4375 0.5
vt 0.3125 0.5
vt 0.3125 0.4375
vt 0.4375 0.4375
vt 0.5625 0.4375
vt 0.4375 0.4375
vt 0.4375 0.5
vt 0.5625 0.5
vn 0 -1 2.664535259100376e-16
vn -1 0 8.881784197001252e-17
vn 0 1 -1.7763568394002506e-16
vn 1 0 -4.440892098500626e-17
vn 0 0 1
vn 0 0 -1
usemtl none
f 9/25/7 10/26/7 11/27/7 12/28/7
f 13/29/8 9/30/8 12/31/8 14/32/8
f 15/33/9 13/34/9 14/35/9 16/36/9
f 10/37/10 15/38/10 16/39/10 11/40/10
f 16/41/11 14/42/11 12/43/11 11/44/11
f 10/45/12 9/46/12 13/47/12 15/48/12
o Head
v 0.21000000000000002 -0.49999999999999994 0.8
v 0.2100000000000001 -0.09999999999999992 0.8
v 0.21000000000000016 -0.09999999999999983 1.2000000000000002
v 0.21000000000000008 -0.49999999999999983 1.2000000000000002
v -0.18999999999999995 -0.49999999999999983 0.8
v -0.18999999999999992 -0.4999999999999998 1.2000000000000002
v -0.18999999999999986 -0.09999999999999983 0.8
v -0.18999999999999984 -0.09999999999999974 1.2000000000000002
vt 0.125 0.75
vt 0.25 0.75
vt 0.25 0.875
vt 0.125 0.875
vt 0 0.75
vt 0.125 0.75
vt 0.125 0.875
vt 0 0.875
vt 0.375 0.75
vt 0.5 0.75
vt 0.5 0.875
vt 0.375 0.875
vt 0.25 0.75
vt 0.375 0.75
vt 0.375 0.875
vt 0.25 0.875
vt 0.25 1
vt 0.125 1
vt 0.125 0.875
vt 0.25 0.875
vt 0.375 0.875
vt 0.25 0.875
vt 0.25 1
vt 0.375 1
vn 1 -2.0816681711721685e-16 -1.3877787807814444e-16
vn -2.775557561562892e-16 -1 2.775557561562891e-16
vn -1 2.0816681711721685e-16 6.938893903907225e-17
vn 2.42861286636753e-16 1 -2.081668171172168e-16
vn 0 0 1
vn 0 0 -1
usemtl none
f 17/49/13 18/50/13 19/51/13 20/52/13
f 21/53/14 17/54/14 20/55/14 22/56/14
f 23/57/15 21/58/15 22/59/15 24/60/15
f 18/61/16 23/62/16 24/63/16 19/64/16
f 24/65/17 22/66/17 20/67/17 19/68/17
f 18/69/18 17/70/18 21/71/18 23/72/18
o Hat
v 0.23500000000000001 -0.5249999999999999 0.775
v 0.2350000000000001 -0.07499999999999991 0.775
v 0.2350000000000002 -0.07499999999999983 1.225
v 0.23500000000000007 -0.5249999999999998 1.225
v -0.215 -0.5249999999999998 0.775
v -0.21499999999999997 -0.5249999999999998 1.225
v -0.2149999999999999 -0.07499999999999983 0.775
v -0.21499999999999983 -0.07499999999999973 1.225
vt 0.625 0.75
vt 0.75 0.75
vt 0.75 0.875
vt 0.625 0.875
vt 0.5 0.75
vt 0.625 0.75
vt 0.625 0.875
vt 0.5 0.875
vt 0.875 0.75
vt 1 0.75
vt 1 0.875
vt 0.875 0.875
vt 0.75 0.75
vt 0.875 0.75
vt 0.875 0.875
vt 0.75 0.875
vt 0.75 1
vt 0.625 1
vt 0.625 0.875
vt 0.75 0.875
vt 0.875 0.875
vt 0.75 0.875
vt 0.75 1
vt 0.875 1
vn 1 -1.850371707708594e-16 -2.4671622769447914e-16
vn -2.4671622769447924e-16 -1 2.4671622769447924e-16
vn -1 1.8503717077085943e-16 6.16790569236198e-17
vn 1.850371707708594e-16 1 -2.1587669923266935e-16
vn 0 0 1
vn 0 0 -1
usemtl none
f 25/73/19 26/74/19 27/75/19 28/76/19
f 29/77/20 25/78/20 28/79/20 30/80/20
f 31/81/21 29/82/21 30/83/21 32/84/21
f 26/85/22 31/86/22 32/87/22 27/88/22
f 32/89/23 30/90/23 28/91/23 27/92/23
f 26/93/24 25/94/24 29/95/24 31/96/24
o Left
v 0.2100000000000001 -0.35498120467731376 1.206929055324541
v 0.3600000000000001 -0.35498120467731376 1.206929055324541
v 0.3600000000000001 -0.17455772497474992 0.6346988848756047
v 0.21000000000000008 -0.17455772497474992 0.6346988848756047
v 0.2100000000000001 -0.5457245948269591 1.1467878954236863
v 0.21000000000000008 -0.3653011151243953 0.57455772497475
v 0.3600000000000001 -0.5457245948269591 1.1467878954236863
v 0.3600000000000001 -0.3653011151243953 0.57455772497475
vt 0.5625 0
vt 0.609375 0
vt 0.609375 0.1875
vt 0.5625 0.1875
vt 0.5 0
vt 0.5625 0
vt 0.5625 0.1875
vt 0.5 0.1875
vt 0.671875 0
vt 0.71875 0
vt 0.71875 0.1875
vt 0.671875 0.1875
vt 0.609375 0
vt 0.671875 0
vt 0.671875 0.1875
vt 0.609375 0.1875
vt 0.609375 0.25
vt 0.5625 0.25
vt 0.5625 0.1875
vt 0.609375 0.1875
vt 0.65625 0.1875
vt 0.609375 0.1875
vt 0.609375 0.25
vt 0.65625 0.25
vn 0 0.9537169507482272 0.30070579950427295
vn -1 -1.391043759366503e-17 4.411827157066572e-17
vn 0 -0.953716950748227 -0.300705799504273
vn 1 0 0
vn 0 0.30070579950427334 -0.9537169507482269
vn 0 -0.30070579950427395 0.9537169507482268
usemtl none
f 33/97/25 34/98/25 35/99/25 36/100/25
f 37/101/26 33/102/26 36/103/26 38/104/26
f 39/105/27 37/106/27 38/107/27 40/108/27
f 34/109/28 39/110/28 40/111/28 35/112/28
f 40/113/29 38/114/29 36/115/29 35/116/29
f 34/117/30 33/118/30 37/119/30 39/120/30
o Left
v 0.19700000000000015 -0.3464920597111424 1.2232365510778236
v 0.3730000000000001 -0.3464920597111424 1.2232365510778234
v 0.37300000000000005 -0.15825022922146748 0.6262097399094335
v 0.19700000000000006 -0.15825022922146748 0.6262097399094335
v 0.19700000000000015 -0.5620320905802416 1.1552770403898578
v 0.19700000000000006 -0.37379026009056676 0.5582502292214679
v 0.3730000000000001 -0.5620320905802416 1.1552770403898578
v 0.37300000000000005 -0.37379026009056676 0.5582502292214679
vt 0.796875 0
vt 0.84375 0
vt 0.84375 0.1875
vt 0.796875 0.1875
vt 0.734375 0
vt 0.796875 0
vt 0.796875 0.1875
vt 0.734375 0.1875
vt 0.90625 0
vt 0.953125 0
vt 0.953125 0.1875
vt 0.90625 0.1875
vt 0.84375 0
vt 0.90625 0
vt 0.90625 0.1875
vt 0.84375 0.1875
vt 0.84375 0.25
vt 0.796875 0.25
vt 0.796875 0.1875
vt 0.84375 0.1875
vt 0.890625 0.1875
vt 0.84375 0.1875
vt 0.84375 0.25
vt 0.890625 0.25
vn 3.793755707363183e-16 0.9537169507482269 0.3007057995042732
vn -1 -3.999806336836586e-17 1.268576498837034e-16
vn 0 -0.9537169507482269 -0.300705799504273
vn 1 2.6665375578910507e-17 -8.457176658913567e-17
vn 0 0.30070579950427256 -0.9537169507482273
vn 1.2032255882908842e-15 -0.3007057995042735 0.9537169507482269
usemtl none
f 41/121/31 42/122/31 43/123/31 44/124/31
f 45/125/32 41/126/32 44/127/32 46/128/32
f 47/129/33 45/130/33 46/131/33 48/132/33
f 42/133/34 47/134/34 48/135/34 43/136/34
f 48/137/35 46/138/35 44/139/35 43/140/35
f 42/141/36 41/142/36 45/143/36 47/144/36
o Right
v -0.33999999999999986 -0.35498120467731376 1.206929055324541
v -0.1899999999999999 -0.35498120467731376 1.206929055324541
v -0.18999999999999995 -0.17455772497474992 0.6346988848756047
v -0.33999999999999997 -0.17455772497474992 0.6346988848756047
v -0.3399999999999999 -0.5457245948269591 1.1467878954236863
v -0.33999999999999997 -0.3653011151243953 0.57455772497475
v -0.1899999999999999 -0.5457245948269591 1.1467878954236863
v -0.18999999999999995 -0.3653011151243953 0.57455772497475
vt 0.6875 0.5
vt 0.734375 0.5
vt 0.734375 0.6875
vt 0.6875 0.6875
vt 0.625 0.5
vt 0.6875 0.5
vt 0.6875 0.6875
vt 0.625 0.6875
vt 0.796875 0.5
vt 0.84375 0.5
vt 0.84375 0.6875
vt 0.796875 0.6875
vt 0.734375 0.5
vt 0.796875 0.5
vt 0.796875 0.6875
vt 0.734375 0.6875
vt 0.734375 0.75
vt 0.6875 0.75
vt 0.6875 0.6875
vt 0.734375 0.6875
vt 0.78125 0.6875
vt 0.734375 0.6875
vt 0.734375 0.75
vt 0.78125 0.75
vn 0 0.953716950748227 0.30070579950427295
vn -1 2.0906787904933436e-16 2.5993571184465284e-16
vn 0 -0.9537169507482269 -0.300705799504273
vn 1 2.782087518733006e-17 -8.823654314133145e-17
vn 0 0.30070579950427334 -0.9537169507482269
vn 0 -0.3007057995042739 0.9537169507482268
usemtl none
f 49/145/37 50/146/37 51/147/37 52/148/37
f 53/149/38 49/150/38 52/151/38 54/152/38
f 55/153/39 53/154/39 54/155/39 56/156/39
f 50/157/40 55/158/40 56/159/40 51/160/40
f 56/161/41 54/162/41 52/163/41 51/164/41
f 50/165/42 49/166/42 53/167/42 55/168/42
o Right
v -0.3529999999999999 -0.3464920597111424 1.2232365510778236
v -0.1769999999999999 -0.3464920597111424 1.2232365510778236
v -0.17699999999999996 -0.15825022922146748 0.6262097399094335
v -0.353 -0.15825022922146748 0.6262097399094335
v -0.3529999999999999 -0.5620320905802416 1.155277040389858
v -0.353 -0.37379026009056676 0.5582502292214679
v -0.1769999999999999 -0.5620320905802416 1.1552770403898578
v -0.17699999999999996 -0.37379026009056676 0.5582502292214679
vt 0.6875 0.25
vt 0.734375 0.25
vt 0.734375 0.4375
vt 0.6875 0.4375
vt 0.625 0.25
vt 0.6875 0.25
vt 0.6875 0.4375
vt 0.625 0.4375
vt 0.796875 0.25
vt 0.84375 0.25
vt 0.84375 0.4375
vt 0.796875 0.4375
vt 0.734375 0.25
vt 0.796875 0.25
vt 0.796875 0.4375
vt 0.734375 0.4375
vt 0.734375 0.5
vt 0.6875 0.5
vt 0.6875 0.4375
vt 0.734375 0.4375
vt 0.78125 0.4375
vt 0.734375 0.4375
vt 0.734375 0.5
vt 0.78125 0.5
vn 0 0.9537169507482269 0.300705799504273
vn -1 -2.6665375578910498e-17 8.457176658913563e-17
vn -3.793755707363179e-16 -0.9537169507482269 -0.30070579950427295
vn 1 2.6665375578910584e-17 -8.457176658913563e-17
vn 0 0.30070579950427256 -0.9537169507482273
vn 0 -0.3007057995042726 0.953716950748227
usemtl none
f 57/169/43 58/170/43 59/171/43 60/172/43
f 61/173/44 57/174/44 60/175/44 62/176/44
f 63/177/45 61/178/45 62/179/45 64/180/45
f 58/181/46 63/182/46 64/183/46 59/184/46
f 64/185/47 62/186/47 60/187/47 59/188/47
f 58/189/48 57/190/48 61/191/48 63/192/48
o Left
v 0.00499999999999996 -0.4000000000000002 -0.4
v 0.20499999999999996 -0.4000000000000002 -0.4
v 0.205 -0.4 0.2
v 0.005000000000000038 -0.4 0.2
v 0.00499999999999996 -0.20000000000000015 -0.4
v 0.005000000000000038 -0.2 0.19999999999999996
v 0.20499999999999996 -0.20000000000000015 -0.4
v 0.205 -0.2 0.19999999999999996
vt 0.3125 0
vt 0.375 0
vt 0.375 0.1875
vt 0.3125 0.1875
vt 0.25 0
vt 0.3125 0
vt 0.3125 0.1875
vt 0.25 0.1875
vt 0.4375 0
vt 0.5 0
vt 0.5 0.1875
vt 0.4375 0.1875
vt 0.375 0
vt 0.4375 0
vt 0.4375 0.1875
vt 0.375 0.1875
vt 0.375 0.25
vt 0.3125 0.25
vt 0.3125 0.1875
vt 0.375 0.1875
vt 0.4375 0.1875
vt 0.375 0.1875
vt 0.375 0.25
vt 0.4375 0.25
vn 0 -1 2.7755575615628914e-16
vn -1 0 1.301042606982605e-16
vn 0 1 -2.312964634635743e-16
vn 1 0 -4.625929269271486e-17
vn 0 2.7755575615628914e-16 1
vn 0 0 -1
usemtl none
f 65/193/49 66/194/49 67/195/49 68/196/49
f 69/197/50 65/198/50 68/199/50 70/200/50
f 71/201/51 69/202/51 70/203/51 72/204/51
f 66/205/52 71/206/52 72/207/52 67/208/52
f 72/209/53 70/210/53 68/211/53 67/212/53
f 66/213/54 65/214/54 69/215/54 71/216/54
o Left
v -0.008000000000000044 -0.4130000000000001 -0.4129999999999999
v 0.21799999999999994 -0.4130000000000001 -0.4129999999999999
v 0.21800000000000003 -0.41300000000000003 0.213
v -0.007999999999999965 -0.41300000000000003 0.213
v -0.008000000000000044 -0.18700000000000017 -0.4129999999999999
v -0.007999999999999965 -0.18700000000000003 0.213
v 0.21799999999999994 -0.18700000000000017 -0.41300000000000003
v 0.21800000000000003 -0.18700000000000003 0.213
vt 0.0625 0
vt 0.125 0
vt 0.125 0.1875
vt 0.0625 0.1875
vt 0 0
vt 0.0625 0
vt 0.0625 0.1875
vt 0 0.1875
vt 0.1875 0
vt 0.25 0
vt 0.25 0.1875
vt 0.1875 0.1875
vt 0.125 0
vt 0.1875 0
vt 0.1875 0.1875
vt 0.125 0.1875
vt 0.125 0.25
vt 0.0625 0.25
vt 0.0625 0.1875
vt 0.125 0.1875
vt 0.1875 0.1875
vt 0.125 0.1875
vt 0.125 0.25
vt 0.1875 0.25
vn 0 -1 8.867596043331923e-17
vn -1 0 1.2470056935935514e-16
vn -1.0890497013696946e-31 1 -2.2168990108329806e-16
vn 1 -6.534298208218167e-32 -1.330139406499788e-16
vn 0 0 1
vn 0 0 -1
usemtl none
f 73/217/55 74/218/55 75/219/55 76/220/55
f 77/221/56 73/222/56 76/223/56 78/224/56
f 79/225/57 77/226/57 78/227/57 80/228/57
f 74/229/58 79/230/58 80/231/58 75/232/58
f 80/233/59 78/234/59 76/235/59 75/236/59
f 74/237/60 73/238/60 77/239/60 79/240/60
o Right
v -0.1850000000000001 -0.4000000000000002 -0.4
v 0.014999999999999914 -0.4000000000000002 -0.4
v 0.01499999999999998 -0.4 0.2
v -0.18500000000000003 -0.4 0.20000000000000007
v -0.1850000000000001 -0.20000000000000015 -0.4
v -0.18500000000000003 -0.2 0.2
v 0.014999999999999914 -0.20000000000000015 -0.4
v 0.01499999999999998 -0.2 0.19999999999999996
vt 0.0625 0.5
vt 0.125 0.5
vt 0.125 0.6875
vt 0.0625 0.6875
vt 0 0.5
vt 0.0625 0.5
vt 0.0625 0.6875
vt 0 0.6875
vt 0.1875 0.5
vt 0.25 0.5
vt 0.25 0.6875
vt 0.1875 0.6875
vt 0.125 0.5
vt 0.1875 0.5
vt 0.1875 0.6875
vt 0.125 0.6875
vt 0.125 0.75
vt 0.0625 0.75
vt 0.0625 0.6875
vt 0.125 0.6875
vt 0.1875 0.6875
vt 0.125 0.6875
vt 0.125 0.75
vt 0.1875 0.75
vn 0 -1 2.7755575615628914e-16
vn -1 0 1.3877787807814454e-16
vn 0 1 -2.3129646346357425e-16
vn 1 0 -1.0986582014519779e-16
vn 2.775557561562891e-16 2.775557561562891e-16 1
vn 0 0 -1
usemtl none
f 81/241/61 82/242/61 83/243/61 84/244/61
f 85/245/62 81/246/62 84/247/62 86/248/62
f 87/249/63 85/250/63 86/251/63 88/252/63
f 82/253/64 87/254/64 88/255/64 83/256/64
f 88/257/65 86/258/65 84/259/65 83/260/65
f 82/261/66 81/262/66 85/263/66 87/264/66
o Right
v -0.1985000000000001 -0.4135000000000002 -0.4134999999999999
v 0.028499999999999914 -0.4135000000000002 -0.4135
v 0.028499999999999994 -0.4135 0.2135
v -0.1985 -0.4135 0.2135
v -0.1985000000000001 -0.18650000000000017 -0.4135
v -0.1985 -0.18650000000000003 0.2135
v 0.028499999999999914 -0.18650000000000017 -0.4135
v 0.028499999999999994 -0.18650000000000003 0.2135
vt 0.0625 0.25
vt 0.125 0.25
vt 0.125 0.4375
vt 0.0625 0.4375
vt 0 0.25
vt 0.0625 0.25
vt 0.0625 0.4375
vt 0 0.4375
vt 0.1875 0.25
vt 0.25 0.25
vt 0.25 0.4375
vt 0.1875 0.4375
vt 0.125 0.25
vt 0.1875 0.25
vt 0.1875 0.4375
vt 0.125 0.4375
vt 0.125 0.5
vt 0.0625 0.5
vt 0.0625 0.4375
vt 0.125 0.4375
vt 0.1875 0.4375
vt 0.125 0.4375
vt 0.125 0.5
vt 0.1875 0.5
vn 8.660182846839583e-32 -1 3.5413812587724297e-16
vn -1 3.2475685675648434e-32 1.328017972039661e-16
vn 0 1 -2.213363286732768e-16
vn 1 0 -1.272683889871342e-16
vn 0 0 1
vn -2.4454251643725913e-16 -2.445425164372591e-16 -1
usemtl none
f 89/265/67 90/266/67 91/267/67 92/268/67
f 93/269/68 89/270/68 92/271/68 94/272/68
f 95/273/69 93/274/69 94/275/69 96/276/69
f 90/277/70 95/278/70 96/279/70 91/280/70
f 96/281/71 94/282/71 92/283/71 91/284/71
f 90/285/72 89/286/72 93/287/72 95/288/72