# Made in Blockbench 5.0.7
mtllib StFNpcLayBedUp.mtl

o Body
v 0.25 -0.75 0
v -0.25 -0.75 0
v -0.25 -0.7499999999999998 0.75
v 0.25 -0.7499999999999998 0.75
v 0.25 -1 0
v 0.25 -0.9999999999999998 0.75
v -0.25 -1 0
v -0.25 -0.9999999999999998 0.75
vt 0.3125 0.5
vt 0.4375 0.5
vt 0.4375 0.6875
vt 0.3125 0.6875
vt 0.25 0.5
vt 0.3125 0.5
vt 0.3125 0.6875
vt 0.25 0.6875
vt 0.5 0.5
vt 0.625 0.5
vt 0.625 0.6875
vt 0.5 0.6875
vt 0.4375 0.5
vt 0.5 0.5
vt 0.5 0.6875
vt 0.4375 0.6875
vt 0.4375 0.75
vt 0.3125 0.75
vt 0.3125 0.6875
vt 0.4375 0.6875
vt 0.5625 0.6875
vt 0.4375 0.6875
vt 0.4375 0.75
vt 0.5625 0.75
vn 0 1 -2.220446049250313e-16
vn 1 0 0
vn 0 -1 2.220446049250313e-16
vn -1 0 0
vn 0 0 1
vn 0 0 -1
usemtl m_1e551e71-f5dc-a7cd-6ff0-38336569c026
f 1/1/1 2/2/1 3/3/1 4/4/1
f 5/5/2 1/6/2 4/7/2 6/8/2
f 7/9/3 5/10/3 6/11/3 8/12/3
f 2/13/4 7/14/4 8/15/4 3/16/4
f 8/17/5 6/18/5 4/19/5 3/20/5
f 2/21/6 1/22/6 5/23/6 7/24/6
o Body
v 0.265625 -0.734375 -0.015625
v -0.265625 -0.734375 -0.015625
v -0.265625 -0.7343749999999998 0.765625
v 0.265625 -0.7343749999999998 0.765625
v 0.265625 -1.015625 -0.015625
v 0.265625 -1.0156249999999998 0.765625
v -0.265625 -1.015625 -0.015625
v -0.265625 -1.0156249999999998 0.765625
vt 0.3125 0.25
vt 0.4375 0.25
vt 0.4375 0.4375
vt 0.3125 0.4375
vt 0.25 0.25
vt 0.3125 0.25
vt 0.3125 0.4375
vt 0.25 0.4375
vt 0.5 0.25
vt 0.625 0.25
vt 0.625 0.4375
vt 0.5 0.4375
vt 0.4375 0.25
vt 0.5 0.25
vt 0.5 0.4375
vt 0.4375 0.4375
vt 0.4375 0.5
vt 0.3125 0.5
vt 0.3125 0.4375
vt 0.4375 0.4375
vt 0.5625 0.4375
vt 0.4375 0.4375
vt 0.4375 0.5
vt 0.5625 0.5
vn 0 1 -2.1316282072803005e-16
vn 1 0 0
vn 0 -1 2.1316282072803005e-16
vn -1 0 0
vn 0 0 1
vn 0 0 -1
usemtl m_1e551e71-f5dc-a7cd-6ff0-38336569c026
f 9/25/7 10/26/7 11/27/7 12/28/7
f 13/29/8 9/30/8 12/31/8 14/32/8
f 15/33/9 13/34/9 14/35/9 16/36/9
f 10/37/10 15/38/10 16/39/10 11/40/10
f 16/41/11 14/42/11 12/43/11 11/44/11
f 10/45/12 9/46/12 13/47/12 15/48/12
o Head
v 0.25 -0.6532472917054445 0.6345628466912414
v -0.25 -0.6532472917054445 0.6345628466912414
v -0.25 -0.4223729850879274 1.0780682632803522
v 0.25 -0.4223729850879274 1.0780682632803522
v 0.25 -1.0967527082945554 0.8654371533087586
v 0.25 -0.8658784016770382 1.3089425698978694
v -0.25 -1.0967527082945554 0.8654371533087586
v -0.25 -0.8658784016770382 1.3089425698978694
vt 0.125 0.75
vt 0.25 0.75
vt 0.25 0.875
vt 0.125 0.875
vt 0 0.75
vt 0.125 0.75
vt 0.125 0.875
vt 0 0.875
vt 0.375 0.75
vt 0.5 0.75
vt 0.5 0.875
vt 0.375 0.875
vt 0.25 0.75
vt 0.375 0.75
vt 0.375 0.875
vt 0.25 0.875
vt 0.25 1
vt 0.125 1
vt 0.125 0.875
vt 0.25 0.875
vt 0.375 0.875
vt 0.25 0.875
vt 0.25 1
vt 0.375 1
vn 0 0.8870108331782216 -0.46174861323503413
vn 1 0 0
vn 0 -0.8870108331782216 0.46174861323503413
vn -1 0 0
vn 0 0.46174861323503436 0.8870108331782216
vn 0 -0.46174861323503436 -0.8870108331782216
usemtl m_1e551e71-f5dc-a7cd-6ff0-38336569c026
f 17/49/13 18/50/13 19/51/13 20/52/13
f 21/53/14 17/54/14 20/55/14 22/56/14
f 23/57/15 21/58/15 22/59/15 24/60/15
f 18/61/16 23/62/16 24/63/16 19/64/16
f 24/65/17 22/66/17 20/67/17 19/68/17
f 18/69/18 17/70/18 21/71/18 23/72/18
o Hat
v 0.28125 -0.6399578473322198 0.5924141139908272
v -0.28125 -0.6399578473322198 0.5924141139908272
v -0.28125 -0.38022425238751323 1.091357707653577
v 0.28125 -0.38022425238751323 1.091357707653577
v 0.28125 -1.1389014409949696 0.8521477089355338
v 0.28125 -0.8791678460502628 1.3510913025982836
v -0.28125 -1.1389014409949696 0.8521477089355338
v -0.28125 -0.8791678460502628 1.3510913025982836
vt 0.625 0.75
vt 0.75 0.75
vt 0.75 0.875
vt 0.625 0.875
vt 0.5 0.75
vt 0.625 0.75
vt 0.625 0.875
vt 0.5 0.875
vt 0.875 0.75
vt 1 0.75
vt 1 0.875
vt 0.875 0.875
vt 0.75 0.75
vt 0.875 0.75
vt 0.875 0.875
vt 0.75 0.875
vt 0.75 1
vt 0.625 1
vt 0.625 0.875
vt 0.75 0.875
vt 0.875 0.875
vt 0.75 0.875
vt 0.75 1
vt 0.875 1
vn 0 0.8870108331782218 -0.46174861323503397
vn 1 0 0
vn 0 -0.8870108331782216 0.46174861323503413
vn -1 0 0
vn 0 0.461748613235034 0.8870108331782216
vn 0 -0.4617486132350341 -0.8870108331782218
usemtl m_1e551e71-f5dc-a7cd-6ff0-38336569c026
f 25/73/19 26/74/19 27/75/19 28/76/19
f 29/77/20 25/78/20 28/79/20 30/80/20
f 31/81/21 29/82/21 30/83/21 32/84/21
f 26/85/22 31/86/22 32/87/22 27/88/22
f 32/89/23 30/90/23 28/91/23 27/92/23
f 26/93/24 25/94/24 29/95/24 31/96/24
o Left
v -0.0903677326678578 -0.8698727861933244 1.225655656336026
v -0.2714788250970581 -0.8593692810304836 1.2730339063923106
v -0.4655931089239487 -1.0161677407316203 0.5657617608572811
v -0.28448201649474836 -1.0266712458944611 0.5183835108009964
v -0.0903677326678578 -0.6257987844133412 1.1715457528515
v -0.2844820164947483 -0.782597244114478 0.46427360731647066
v -0.2714788250970581 -0.6152952792505004 1.2189240029077848
v -0.4655931089239486 -0.7720937389516371 0.5116518573727553
vt 0.5625 0
vt 0.609375 0
vt 0.609375 0.1875
vt 0.5625 0.1875
vt 0.5 0
vt 0.5625 0
vt 0.5625 0.1875
vt 0.5 0.1875
vt 0.671875 0
vt 0.71875 0
vt 0.71875 0.1875
vt 0.671875 0.1875
vt 0.609375 0
vt 0.671875 0
vt 0.671875 0.1875
vt 0.609375 0.1875
vt 0.609375 0.25
vt 0.5625 0.25
vt 0.5625 0.1875
vt 0.609375 0.1875
vt 0.65625 0.1875
vt 0.609375 0.1875
vt 0.609375 0.25
vt 0.65625 0.25
vn -4.934324553889587e-17 -0.9762960071199335 0.21643961393810307
vn 0.9659258262890683 -0.05601869420181819 -0.25268400030018506
vn -9.868649107779172e-17 0.9762960071199333 -0.216439613938103
vn -0.9659258262890683 0.056018694201818174 0.25268400030018495
vn -0.25881904510252063 -0.20906461293484918 -0.9430295273800398
vn 0.2588190451025209 0.2090646129348494 0.9430295273800396
usemtl m_1e551e71-f5dc-a7cd-6ff0-38336569c026
f 33/97/25 34/98/25 35/99/25 36/100/25
f 37/101/26 33/102/26 36/103/26 38/104/26
f 39/105/27 37/106/27 38/107/27 40/108/27
f 34/109/28 39/110/28 40/111/28 35/112/28
f 40/113/29 38/114/29 36/115/29 35/116/29
f 34/117/30 33/118/30 37/119/30 39/120/30
o Left
v -0.07046562850774452 -0.8832506001296117 1.2403909148775676
v -0.2829693102913394 -0.8709264874052117 1.2959813949436083
v -0.48549521308406185 -1.034519547026731 0.5580607897687275
v -0.2729915313004668 -1.046843659751131 0.502470309702687
v -0.07046562850774452 -0.6074469781182307 1.1792467239400535
v -0.2729915313004668 -0.7710400377397499 0.44132611876517314
v -0.2829693102913394 -0.5951228653938306 1.2348372040060942
v -0.48549521308406185 -0.75871592501535 0.49691659883121364
vt 0.796875 0
vt 0.84375 0
vt 0.84375 0.1875
vt 0.796875 0.1875
vt 0.734375 0
vt 0.796875 0
vt 0.796875 0.1875
vt 0.734375 0.1875
vt 0.90625 0
vt 0.953125 0
vt 0.953125 0.1875
vt 0.90625 0.1875
vt 0.84375 0
vt 0.90625 0
vt 0.90625 0.1875
vt 0.84375 0.1875
vt 0.84375 0.25
vt 0.796875 0.25
vt 0.796875 0.1875
vt 0.84375 0.1875
vt 0.890625 0.1875
vt 0.84375 0.1875
vt 0.84375 0.25
vt 0.890625 0.25
vn 2.1161308739769375e-16 -0.9762960071199334 0.21643961393810285
vn 0.9659258262890683 -0.056018694201818084 -0.25268400030018484
vn 2.317667147689028e-16 0.9762960071199334 -0.21643961393810313
vn -0.9659258262890683 0.0560186942018181 0.252684000300185
vn -0.25881904510252 -0.2090646129348486 -0.9430295273800402
vn 0.258819045102521 0.20906461293484926 0.9430295273800396
usemtl m_1e551e71-f5dc-a7cd-6ff0-38336569c026
f 41/121/31 42/122/31 43/123/31 44/124/31
f 45/125/32 41/126/32 44/127/32 46/128/32
f 47/129/33 45/130/33 46/131/33 48/132/33
f 42/133/34 47/134/34 48/135/34 43/136/34
f 48/137/35 46/138/35 44/139/35 43/140/35
f 42/141/36 41/142/36 45/143/36 47/144/36
o Right
v 0.3270708580846945 -0.8308184199425784 1.2728508146775037
v 0.14241940439490552 -0.8392453178539936 1.2414012035219062
v 0.2726555376451033 -1.0304105695371275 0.5279627715987577
v 0.4573069913348923 -1.0219836716257122 0.5594123827543553
v 0.3270708580846945 -0.5893369633703114 1.2081460534018735
v 0.4573069913348923 -0.7805022150534452 0.49470762147872527
v 0.14241940439490552 -0.5977638612817265 1.1766964422462758
v 0.2726555376451033 -0.7889291129648603 0.46325801032312763
vt 0.6875 0.5
vt 0.734375 0.5
vt 0.734375 0.6875
vt 0.6875 0.6875
vt 0.625 0.5
vt 0.6875 0.5
vt 0.6875 0.6875
vt 0.625 0.6875
vt 0.796875 0.5
vt 0.84375 0.5
vt 0.84375 0.6875
vt 0.796875 0.6875
vt 0.734375 0.5
vt 0.796875 0.5
vt 0.796875 0.6875
vt 0.734375 0.6875
vt 0.734375 0.75
vt 0.6875 0.75
vt 0.6875 0.6875
vt 0.734375 0.6875
vt 0.78125 0.6875
vt 0.734375 0.6875
vt 0.734375 0.75
vt 0.78125 0.75
vn -8.635067969306777e-17 -0.9659258262890685 0.25881904510252046
vn 0.9848077530122081 0.04494345552754778 0.16773125949652068
vn 1.1719020815487769e-16 0.9659258262890685 -0.25881904510252046
vn -0.9848077530122081 -0.04494345552754795 -0.16773125949652068
vn 0.17364817766693044 -0.25488700224417843 -0.9512512425641979
vn -0.17364817766692983 0.2548870022441788 0.951251242564198
usemtl m_1e551e71-f5dc-a7cd-6ff0-38336569c026
f 49/145/37 50/146/37 51/147/37 52/148/37
f 53/149/38 49/150/38 52/151/38 54/152/38
f 55/153/39 53/154/39 54/155/39 56/156/39
f 50/157/40 55/158/40 56/159/40 51/160/40
f 56/161/41 54/162/41 52/163/41 51/164/41
f 50/165/42 49/166/42 53/167/42 55/168/42
o Right
v 0.3402522011840553 -0.8416424696809852 1.2952400898189063
v 0.12359449552136947 -0.8515300298970457 1.2583392127296718
v 0.2594741945457425 -1.0509791091531153 0.5139851154231869
v 0.4761319002084282 -1.041091548937055 0.5508859925124217
v 0.3402522011840553 -0.5687684237543236 1.2221237095774442
v 0.4761319002084282 -0.768217503010393 0.4777696122709596
v 0.12359449552136947 -0.578655983970384 1.1852228324882097
v 0.2594741945457425 -0.7781050632264536 0.44086873518172487
vt 0.6875 0.25
vt 0.734375 0.25
vt 0.734375 0.4375
vt 0.6875 0.4375
vt 0.625 0.25
vt 0.6875 0.25
vt 0.6875 0.4375
vt 0.625 0.4375
vt 0.796875 0.25
vt 0.84375 0.25
vt 0.84375 0.4375
vt 0.796875 0.4375
vt 0.734375 0.25
vt 0.796875 0.25
vt 0.796875 0.4375
vt 0.734375 0.4375
vt 0.734375 0.5
vt 0.6875 0.5
vt 0.6875 0.4375
vt 0.734375 0.4375
vt 0.78125 0.4375
vt 0.734375 0.4375
vt 0.734375 0.5
vt 0.78125 0.5
vn -9.06913231704401e-17 -0.9659258262890685 0.25881904510252035
vn 0.9848077530122082 0.04494345552754774 0.1677312594965206
vn 1.0580654369884681e-16 0.9659258262890685 -0.2588190451025204
vn -0.9848077530122082 -0.04494345552754776 -0.1677312594965207
vn 0.1736481776669311 -0.2548870022441786 -0.9512512425641977
vn -0.17364817766693014 0.25488700224417865 0.9512512425641978
usemtl m_1e551e71-f5dc-a7cd-6ff0-38336569c026
f 57/169/43 58/170/43 59/171/43 60/172/43
f 61/173/44 57/174/44 60/175/44 62/176/44
f 63/177/45 61/178/45 62/179/45 64/180/45
f 58/181/46 63/182/46 64/183/46 59/184/46
f 64/185/47 62/186/47 60/187/47 59/188/47
f 58/189/48 57/190/48 61/191/48 63/192/48
o Left
v 0.0062500000000000056 -0.7500000000000002 -0.75
v -0.24375 -0.7500000000000002 -0.75
v -0.24375 -0.75 -2.7755575615628914e-17
v 0.0062500000000000056 -0.75 -2.7755575615628914e-17
v 0.0062500000000000056 -1.0000000000000002 -0.75
v 0.0062500000000000056 -1 2.7755575615628914e-17
v -0.24375 -1.0000000000000002 -0.75
v -0.24375 -1 2.7755575615628914e-17
vt 0.3125 0
vt 0.375 0
vt 0.375 0.1875
vt 0.3125 0.1875
vt 0.25 0
vt 0.3125 0
vt 0.3125 0.1875
vt 0.25 0.1875
vt 0.4375 0
vt 0.5 0
vt 0.5 0.1875
vt 0.4375 0.1875
vt 0.375 0
vt 0.4375 0
vt 0.4375 0.1875
vt 0.375 0.1875
vt 0.375 0.25
vt 0.3125 0.25
vt 0.3125 0.1875
vt 0.375 0.1875
vt 0.4375 0.1875
vt 0.375 0.1875
vt 0.375 0.25
vt 0.4375 0.25
vn 0 1 -2.220446049250313e-16
vn 1 0 0
vn 0 -1 2.4054832200211723e-16
vn -1 0 0
vn 0 2.220446049250313e-16 1
vn 0 0 -1
usemtl m_1e551e71-f5dc-a7cd-6ff0-38336569c026
f 65/193/49 66/194/49 67/195/49 68/196/49
f 69/197/50 65/198/50 68/199/50 70/200/50
f 71/201/51 69/202/51 70/203/51 72/204/51
f 66/205/52 71/206/52 72/207/52 67/208/52
f 72/209/53 70/210/53 68/211/53 67/212/53
f 66/213/54 65/214/54 69/215/54 71/216/54
o Left
v 0.022499999999999992 -0.7337500000000001 -0.76625
v -0.26 -0.7337500000000001 -0.76625
v -0.26 -0.73375 0.016249999999999987
v 0.022499999999999992 -0.73375 0.016249999999999987
v 0.022499999999999992 -1.01625 -0.76625
v 0.022499999999999992 -1.0162499999999999 0.016249999999999987
v -0.26 -1.01625 -0.76625
v -0.26 -1.0162499999999999 0.016249999999999987
vt 0.0625 0
vt 0.125 0
vt 0.125 0.1875
vt 0.0625 0.1875
vt 0 0
vt 0.0625 0
vt 0.0625 0.1875
vt 0 0.1875
vt 0.1875 0
vt 0.25 0
vt 0.25 0.1875
vt 0.1875 0.1875
vt 0.125 0
vt 0.1875 0
vt 0.1875 0.1875
vt 0.125 0.1875
vt 0.125 0.25
vt 0.0625 0.25
vt 0.0625 0.1875
vt 0.125 0.1875
vt 0.1875 0.1875
vt 0.125 0.1875
vt 0.125 0.25
vt 0.1875 0.25
vn 0 1 -2.1282230503996611e-16
vn 1 0 0
vn 0 -1 2.1282230503996611e-16
vn -1 0 0
vn 0 0 1
vn 0 0 -1
usemtl m_1e551e71-f5dc-a7cd-6ff0-38336569c026
f 73/217/55 74/218/55 75/219/55 76/220/55
f 77/221/56 73/222/56 76/223/56 78/224/56
f 79/225/57 77/226/57 78/227/57 80/228/57
f 74/229/58 79/230/58 80/231/58 75/232/58
f 80/233/59 78/234/59 76/235/59 75/236/59
f 74/237/60 73/238/60 77/239/60 79/240/60
o Right
v 0.24375 -0.7500000000000002 -0.75
v -0.0062500000000000056 -0.7500000000000002 -0.75
v -0.0062500000000000056 -0.75 -2.7755575615628914e-17
v 0.24375 -0.75 -2.7755575615628914e-17
v 0.24375 -1.0000000000000002 -0.75
v 0.24375 -1 2.7755575615628914e-17
v -0.0062500000000000056 -1.0000000000000002 -0.75
v -0.0062500000000000056 -1 2.7755575615628914e-17
vt 0.0625 0.5
vt 0.125 0.5
vt 0.125 0.6875
vt 0.0625 0.6875
vt 0 0.5
vt 0.0625 0.5
vt 0.0625 0.6875
vt 0 0.6875
vt 0.1875 0.5
vt 0.25 0.5
vt 0.25 0.6875
vt 0.1875 0.6875
vt 0.125 0.5
vt 0.1875 0.5
vt 0.1875 0.6875
vt 0.125 0.6875
vt 0.125 0.75
vt 0.0625 0.75
vt 0.0625 0.6875
vt 0.125 0.6875
vt 0.1875 0.6875
vt 0.125 0.6875
vt 0.125 0.75
vt 0.1875 0.75
vn 0 1 -2.220446049250313e-16
vn 1 0 0
vn 0 -1 2.4054832200211723e-16
vn -1 0 0
vn 0 2.220446049250313e-16 1
vn 0 0 -1
usemtl m_1e551e71-f5dc-a7cd-6ff0-38336569c026
f 81/241/61 82/242/61 83/243/61 84/244/61
f 85/245/62 81/246/62 84/247/62 86/248/62
f 87/249/63 85/250/63 86/251/63 88/252/63
f 82/253/64 87/254/64 88/255/64 83/256/64
f 88/257/65 86/258/65 84/259/65 83/260/65
f 82/261/66 81/262/66 85/263/66 87/264/66
o Right
v 0.260625 -0.7331250000000001 -0.766875
v -0.023125000000000007 -0.7331250000000001 -0.766875
v -0.023125000000000007 -0.733125 0.016874999999999973
v 0.260625 -0.733125 0.016874999999999973
v 0.260625 -1.0168750000000002 -0.766875
v 0.260625 -1.016875 0.016874999999999973
v -0.023125000000000007 -1.0168750000000002 -0.766875
v -0.023125000000000007 -1.016875 0.016874999999999973
vt 0.0625 0.25
vt 0.125 0.25
vt 0.125 0.4375
vt 0.0625 0.4375
vt 0 0.25
vt 0.0625 0.25
vt 0.0625 0.4375
vt 0 0.4375
vt 0.1875 0.25
vt 0.25 0.25
vt 0.25 0.4375
vt 0.1875 0.4375
vt 0.125 0.25
vt 0.1875 0.25
vt 0.1875 0.4375
vt 0.125 0.4375
vt 0.125 0.5
vt 0.0625 0.5
vt 0.0625 0.4375
vt 0.125 0.4375
vt 0.1875 0.4375
vt 0.125 0.4375
vt 0.125 0.5
vt 0.1875 0.5
vn 0 1 -1.4165525035089717e-16
vn 1 0 0
vn 0 -1 2.1248287552634577e-16
vn -1 0 0
vn 0 0 1
vn 0 0 -1
usemtl m_1e551e71-f5dc-a7cd-6ff0-38336569c026
f 89/265/67 90/266/67 91/267/67 92/268/67
f 93/269/68 89/270/68 92/271/68 94/272/68
f 95/273/69 93/274/69 94/275/69 96/276/69
f 90/277/70 95/278/70 96/279/70 91/280/70
f 96/281/71 94/282/71 92/283/71 91/284/71
f 90/285/72 89/286/72 93/287/72 95/288/72