# Made in Blockbench 5.0.7
mtllib StFNpcLayFloorUp.mtl

o Body
v 0.2 -0.2 0
v -0.2 -0.2 0
v -0.2 -0.19999999999999987 0.6000000000000001
v 0.2 -0.19999999999999987 0.6000000000000001
v 0.2 -0.4 0
v 0.2 -0.3999999999999999 0.6000000000000001
v -0.2 -0.4 0
v -0.2 -0.3999999999999999 0.6000000000000001
vt 0.3125 0.5
vt 0.4375 0.5
vt 0.4375 0.6875
vt 0.3125 0.6875
vt 0.25 0.5
vt 0.3125 0.5
vt 0.3125 0.6875
vt 0.25 0.6875
vt 0.5 0.5
vt 0.625 0.5
vt 0.625 0.6875
vt 0.5 0.6875
vt 0.4375 0.5
vt 0.5 0.5
vt 0.5 0.6875
vt 0.4375 0.6875
vt 0.4375 0.75
vt 0.3125 0.75
vt 0.3125 0.6875
vt 0.4375 0.6875
vt 0.5625 0.6875
vt 0.4375 0.6875
vt 0.4375 0.75
vt 0.5625 0.75
vn 0 1 -2.3129646346357425e-16
vn 1 0 0
vn 0 -1 1.850371707708594e-16
vn -1 0 0
vn 0 0 1
vn 0 0 -1
usemtl none
f 1/1/1 2/2/1 3/3/1 4/4/1
f 5/5/2 1/6/2 4/7/2 6/8/2
f 7/9/3 5/10/3 6/11/3 8/12/3
f 2/13/4 7/14/4 8/15/4 3/16/4
f 8/17/5 6/18/5 4/19/5 3/20/5
f 2/21/6 1/22/6 5/23/6 7/24/6
o Body
v 0.21250000000000002 -0.1875 -0.0125
v -0.21250000000000002 -0.1875 -0.0125
v -0.21250000000000002 -0.1874999999999999 0.6125
v 0.21250000000000002 -0.1874999999999999 0.6125
v 0.21250000000000002 -0.41250000000000003 -0.0125
v 0.21250000000000002 -0.41249999999999987 0.6125
v -0.21250000000000002 -0.41250000000000003 -0.0125
v -0.21250000000000002 -0.41249999999999987 0.6125
vt 0.3125 0.25
vt 0.4375 0.25
vt 0.4375 0.4375
vt 0.3125 0.4375
vt 0.25 0.25
vt 0.3125 0.25
vt 0.3125 0.4375
vt 0.25 0.4375
vt 0.5 0.25
vt 0.625 0.25
vt 0.625 0.4375
vt 0.5 0.4375
vt 0.4375 0.25
vt 0.5 0.25
vt 0.5 0.4375
vt 0.4375 0.4375
vt 0.4375 0.5
vt 0.3125 0.5
vt 0.3125 0.4375
vt 0.4375 0.4375
vt 0.5625 0.4375
vt 0.4375 0.4375
vt 0.4375 0.5
vt 0.5625 0.5
vn 0 1 -1.7763568394002506e-16
vn 1 0 0
vn 0 -1 2.664535259100376e-16
vn -1 0 0
vn 0 0 1
vn 0 0 -1
usemtl none
f 9/25/7 10/26/7 11/27/7 12/28/7
f 13/29/8 9/30/8 12/31/8 14/32/8
f 15/33/9 13/34/9 14/35/9 16/36/9
f 10/37/10 15/38/10 16/39/10 11/40/10
f 16/41/11 14/42/11 12/43/11 11/44/11
f 10/45/12 9/46/12 13/47/12 15/48/12
o Head
v 0.2 -0.12259783336435559 0.5076502773529932
v -0.2 -0.12259783336435559 0.5076502773529932
v -0.2 0.06210161192965807 0.8624546106242819
v 0.2 0.06210161192965807 0.8624546106242819
v 0.2 -0.4774021666356443 0.6923497226470069
v 0.2 -0.2927027213416306 1.0471540559182955
v -0.2 -0.4774021666356443 0.6923497226470069
v -0.2 -0.2927027213416306 1.0471540559182955
vt 0.125 0.75
vt 0.25 0.75
vt 0.25 0.875
vt 0.125 0.875
vt 0 0.75
vt 0.125 0.75
vt 0.125 0.875
vt 0 0.875
vt 0.375 0.75
vt 0.5 0.75
vt 0.5 0.875
vt 0.375 0.875
vt 0.25 0.75
vt 0.375 0.75
vt 0.375 0.875
vt 0.25 0.875
vt 0.25 1
vt 0.125 1
vt 0.125 0.875
vt 0.25 0.875
vt 0.375 0.875
vt 0.25 0.875
vt 0.25 1
vt 0.375 1
vn 0 0.8870108331782216 -0.46174861323503413
vn 1 0 0
vn 0 -0.8870108331782216 0.4617486132350343
vn -1 0 0
vn 0 0.461748613235034 0.8870108331782217
vn 0 -0.4617486132350342 -0.8870108331782216
usemtl none
f 17/49/13 18/50/13 19/51/13 20/52/13
f 21/53/14 17/54/14 20/55/14 22/56/14
f 23/57/15 21/58/15 22/59/15 24/60/15
f 18/61/16 23/62/16 24/63/16 19/64/16
f 24/65/17 22/66/17 20/67/17 19/68/17
f 18/69/18 17/70/18 21/71/18 23/72/18
o Hat
v 0.225 -0.11196627786577587 0.4739312911926618
v -0.225 -0.11196627786577587 0.4739312911926618
v -0.225 0.09582059808998943 0.8730861661228616
v 0.225 0.09582059808998943 0.8730861661228616
v 0.225 -0.5111211527959757 0.6817181671484271
v 0.225 -0.30333427684021025 1.080873042078627
v -0.225 -0.5111211527959757 0.6817181671484271
v -0.225 -0.30333427684021025 1.080873042078627
vt 0.625 0.75
vt 0.75 0.75
vt 0.75 0.875
vt 0.625 0.875
vt 0.5 0.75
vt 0.625 0.75
vt 0.625 0.875
vt 0.5 0.875
vt 0.875 0.75
vt 1 0.75
vt 1 0.875
vt 0.875 0.875
vt 0.75 0.75
vt 0.875 0.75
vt 0.875 0.875
vt 0.75 0.875
vt 0.75 1
vt 0.625 1
vt 0.625 0.875
vt 0.75 0.875
vt 0.875 0.875
vt 0.75 0.875
vt 0.75 1
vt 0.875 1
vn 0 0.8870108331782217 -0.46174861323503397
vn 1 0 0
vn 0 -0.8870108331782216 0.46174861323503413
vn -1 0 0
vn 0 0.4617486132350343 0.8870108331782216
vn 0 -0.461748613235034 -0.8870108331782217
usemtl none
f 25/73/19 26/74/19 27/75/19 28/76/19
f 29/77/20 25/78/20 28/79/20 30/80/20
f 31/81/21 29/82/21 30/83/21 32/84/21
f 26/85/22 31/86/22 32/87/22 27/88/22
f 32/89/23 30/90/23 28/91/23 27/92/23
f 26/93/24 25/94/24 29/95/24 31/96/24
o Left
v -0.07229418613428625 -0.2958982289546596 0.9805245250688208
v -0.2171830600776465 -0.2874954248243869 1.0184271251138486
v -0.372474487139159 -0.41293419258529634 0.45260940868582494
v -0.2275856131957987 -0.4213369967155691 0.4147068086407972
v -0.07229418613428625 -0.10063902753067305 0.9372366022812001
v -0.22758561319579865 -0.22607779529158245 0.37141888585317656
v -0.2171830600776465 -0.09223622340040034 0.9751392023262279
v -0.3724744871391589 -0.21767499116130973 0.4093214858982043
vt 0.5625 0
vt 0.609375 0
vt 0.609375 0.1875
vt 0.5625 0.1875
vt 0.5 0
vt 0.5625 0
vt 0.5625 0.1875
vt 0.5 0.1875
vt 0.671875 0
vt 0.71875 0
vt 0.71875 0.1875
vt 0.671875 0.1875
vt 0.609375 0
vt 0.671875 0
vt 0.671875 0.1875
vt 0.609375 0.1875
vt 0.609375 0.25
vt 0.5625 0.25
vt 0.5625 0.1875
vt 0.609375 0.1875
vt 0.65625 0.1875
vt 0.609375 0.1875
vt 0.609375 0.25
vt 0.65625 0.25
vn -2.8912057932946793e-17 -0.9762960071199334 0.21643961393810313
vn 0.9659258262890684 -0.056018694201818264 -0.252684000300185
vn -3.854941057726239e-17 0.9762960071199334 -0.216439613938103
vn -0.9659258262890683 0.05601869420181825 0.25268400030018495
vn -0.2588190451025205 -0.20906461293484907 -0.9430295273800398
vn 0.2588190451025209 0.20906461293484974 0.9430295273800395
usemtl none
f 33/97/25 34/98/25 35/99/25 36/100/25
f 37/101/26 33/102/26 36/103/26 38/104/26
f 39/105/27 37/106/27 38/107/27 40/108/27
f 34/109/28 39/110/28 40/111/28 35/112/28
f 40/113/29 38/114/29 36/115/29 35/116/29
f 34/117/30 33/118/30 37/119/30 39/120/30
o Left
v -0.056372502806195615 -0.30660048010368934 0.9923127319020542
v -0.22637544823307154 -0.29674118992416937 1.0367851159548866
v -0.3883961704672495 -0.4276156376213848 0.44644863181498207
v -0.21839322504037348 -0.43747492780090486 0.40197624776214963
v -0.056372502806195615 -0.08595758249458452 0.9433973791520428
v -0.21839322504037348 -0.21683203019179997 0.35306089501213855
v -0.22637544823307154 -0.07609829231506454 0.9878697632048754
v -0.3883961704672495 -0.20697274001228003 0.39753327906497093
vt 0.796875 0
vt 0.84375 0
vt 0.84375 0.1875
vt 0.796875 0.1875
vt 0.734375 0
vt 0.796875 0
vt 0.796875 0.1875
vt 0.734375 0.1875
vt 0.90625 0
vt 0.953125 0
vt 0.953125 0.1875
vt 0.90625 0.1875
vt 0.84375 0
vt 0.90625 0
vt 0.90625 0.1875
vt 0.84375 0.1875
vt 0.84375 0.25
vt 0.796875 0.25
vt 0.796875 0.1875
vt 0.84375 0.1875
vt 0.890625 0.1875
vt 0.84375 0.1875
vt 0.84375 0.25
vt 0.890625 0.25
vn -5.510757484314943e-17 -0.9762960071199335 0.21643961393810307
vn 0.9659258262890684 -0.05601869420181815 -0.25268400030018484
vn -1.0234263899442041e-16 0.9762960071199335 -0.21643961393810313
vn -0.9659258262890684 0.056018694201818084 0.2526840003001851
vn -0.25881904510251985 -0.20906461293484838 -0.9430295273800401
vn 0.25881904510252063 0.20906461293484954 0.9430295273800396
usemtl none
f 41/121/31 42/122/31 43/123/31 44/124/31
f 45/125/32 41/126/32 44/127/32 46/128/32
f 47/129/33 45/130/33 46/131/33 48/132/33
f 42/133/34 47/134/34 48/135/34 43/136/34
f 48/137/35 46/138/35 44/139/35 43/140/35
f 42/141/36 41/142/36 45/143/36 47/144/36
o Right
v 0.2616566864677556 -0.26465473595406275 1.018280651742003
v 0.11393552351592443 -0.27139625428319486 0.993120962817525
v 0.21812443011608265 -0.424328455629702 0.4223702172790062
v 0.36584559306791387 -0.41758693730056984 0.4475299062034843
v 0.2616566864677556 -0.07146957069624907 0.9665168427214988
v 0.36584559306791387 -0.22440177204275616 0.3957660971829802
v 0.11393552351592443 -0.07821108902538124 0.9413571537970207
v 0.21812443011608265 -0.2311432903718883 0.3706064082585021
vt 0.6875 0.5
vt 0.734375 0.5
vt 0.734375 0.6875
vt 0.6875 0.6875
vt 0.625 0.5
vt 0.6875 0.5
vt 0.6875 0.6875
vt 0.625 0.6875
vt 0.796875 0.5
vt 0.84375 0.5
vt 0.84375 0.6875
vt 0.796875 0.6875
vt 0.734375 0.5
vt 0.796875 0.5
vt 0.796875 0.6875
vt 0.734375 0.6875
vt 0.734375 0.75
vt 0.6875 0.75
vt 0.6875 0.6875
vt 0.734375 0.6875
vt 0.78125 0.6875
vt 0.734375 0.6875
vt 0.734375 0.75
vt 0.78125 0.75
vn -2.5057116875220554e-16 -0.9659258262890684 0.2588190451025204
vn 0.9848077530122081 0.044943455527547894 0.1677312594965207
vn 7.709882115452477e-17 0.9659258262890684 -0.25881904510252046
vn -0.9848077530122081 -0.04494345552754799 -0.16773125949652068
vn 0.17364817766693047 -0.25488700224417854 -0.9512512425641979
vn -0.17364817766693014 0.2548870022441793 0.9512512425641977
usemtl none
f 49/145/37 50/146/37 51/147/37 52/148/37
f 53/149/38 49/150/38 52/151/38 54/152/38
f 55/153/39 53/154/39 54/155/39 56/156/39
f 50/157/40 55/158/40 56/159/40 51/160/40
f 56/161/41 54/162/41 52/163/41 51/164/41
f 50/165/42 49/166/42 53/167/42 55/168/42
o Right
v 0.27220176094724424 -0.2733139757447882 1.036192071855125
v 0.09887559641709559 -0.2812240239176366 1.0066713701837375
v 0.20757935563659402 -0.4407832873224923 0.4111880923385496
v 0.3809055201667426 -0.43287323914964393 0.44070879400993734
v 0.27220176094724424 -0.05501473900345882 0.9776989676619554
v 0.3809055201667426 -0.21457400240831448 0.3822156898167677
v 0.09887559641709559 -0.06292478717630719 0.9481782659905678
v 0.20757935563659402 -0.22248405058116286 0.3526949881453799
vt 0.6875 0.25
vt 0.734375 0.25
vt 0.734375 0.4375
vt 0.6875 0.4375
vt 0.625 0.25
vt 0.6875 0.25
vt 0.6875 0.4375
vt 0.625 0.4375
vt 0.796875 0.25
vt 0.84375 0.25
vt 0.84375 0.4375
vt 0.796875 0.4375
vt 0.734375 0.25
vt 0.796875 0.25
vt 0.796875 0.4375
vt 0.734375 0.4375
vt 0.734375 0.5
vt 0.6875 0.5
vt 0.6875 0.4375
vt 0.734375 0.4375
vt 0.78125 0.4375
vt 0.734375 0.4375
vt 0.734375 0.5
vt 0.78125 0.5
vn 3.542629811345317e-16 -0.9659258262890684 0.2588190451025204
vn 0.9848077530122081 0.0449434555275477 0.16773125949652068
vn 1.810677459132051e-16 0.9659258262890684 -0.2588190451025204
vn -0.9848077530122081 -0.04494345552754785 -0.16773125949652065
vn 0.17364817766693105 -0.25488700224417865 -0.9512512425641978
vn -0.1736481776669292 0.2548870022441783 0.9512512425641981
usemtl none
f 57/169/43 58/170/43 59/171/43 60/172/43
f 61/173/44 57/174/44 60/175/44 62/176/44
f 63/177/45 61/178/45 62/179/45 64/180/45
f 58/181/46 63/182/46 64/183/46 59/184/46
f 64/185/47 62/186/47 60/187/47 59/188/47
f 58/189/48 57/190/48 61/191/48 63/192/48
o Left
v 0.0050000000000000044 -0.20000000000000015 -0.6000000000000001
v -0.195 -0.20000000000000015 -0.6000000000000001
v -0.195 -0.2 -2.2204460492503132e-17
v 0.0050000000000000044 -0.2 -2.2204460492503132e-17
v 0.0050000000000000044 -0.4000000000000002 -0.6000000000000001
v 0.0050000000000000044 -0.4 2.2204460492503132e-17
v -0.195 -0.4000000000000002 -0.6000000000000001
v -0.195 -0.4 2.2204460492503132e-17
vt 0.3125 0
vt 0.375 0
vt 0.375 0.1875
vt 0.3125 0.1875
vt 0.25 0
vt 0.3125 0
vt 0.3125 0.1875
vt 0.25 0.1875
vt 0.4375 0
vt 0.5 0
vt 0.5 0.1875
vt 0.4375 0.1875
vt 0.375 0
vt 0.4375 0
vt 0.4375 0.1875
vt 0.375 0.1875
vt 0.375 0.25
vt 0.3125 0.25
vt 0.3125 0.1875
vt 0.375 0.1875
vt 0.4375 0.1875
vt 0.375 0.1875
vt 0.375 0.25
vt 0.4375 0.25
vn 0 1 -2.3129646346357425e-16
vn 1 0 0
vn 0 -1 2.7755575615628914e-16
vn -1 0 0
vn 0 2.220446049250313e-16 1
vn 0 0 -1
usemtl none
f 65/193/49 66/194/49 67/195/49 68/196/49
f 69/197/50 65/198/50 68/199/50 70/200/50
f 71/201/51 69/202/51 70/203/51 72/204/51
f 66/205/52 71/206/52 72/207/52 67/208/52
f 72/209/53 70/210/53 68/211/53 67/212/53
f 66/213/54 65/214/54 69/215/54 71/216/54
o Left
v 0.017999999999999995 -0.18700000000000017 -0.613
v -0.20800000000000002 -0.18700000000000017 -0.613
v -0.20800000000000002 -0.18700000000000003 0.01299999999999999
v 0.017999999999999995 -0.18700000000000003 0.01299999999999999
v 0.017999999999999995 -0.4130000000000001 -0.613
v 0.017999999999999995 -0.41300000000000003 0.01299999999999999
v -0.20800000000000002 -0.4130000000000001 -0.613
v -0.20800000000000002 -0.41300000000000003 0.01299999999999999
vt 0.0625 0
vt 0.125 0
vt 0.125 0.1875
vt 0.0625 0.1875
vt 0 0
vt 0.0625 0
vt 0.0625 0.1875
vt 0 0.1875
vt 0.1875 0
vt 0.25 0
vt 0.25 0.1875
vt 0.1875 0.1875
vt 0.125 0
vt 0.1875 0
vt 0.1875 0.1875
vt 0.125 0.1875
vt 0.125 0.25
vt 0.0625 0.25
vt 0.0625 0.1875
vt 0.125 0.1875
vt 0.1875 0.1875
vt 0.125 0.1875
vt 0.125 0.25
vt 0.1875 0.25
vn 0 1 -2.2168990108329806e-16
vn 1 0 0
vn 0 -1 8.867596043331922e-17
vn -1 0 0
vn 0 0 1
vn 0 0 -1
usemtl none
f 73/217/55 74/218/55 75/219/55 76/220/55
f 77/221/56 73/222/56 76/223/56 78/224/56
f 79/225/57 77/226/57 78/227/57 80/228/57
f 74/229/58 79/230/58 80/231/58 75/232/58
f 80/233/59 78/234/59 76/235/59 75/236/59
f 74/237/60 73/238/60 77/239/60 79/240/60
o Right
v 0.195 -0.20000000000000015 -0.6000000000000001
v -0.0050000000000000044 -0.20000000000000015 -0.6000000000000001
v -0.0050000000000000044 -0.2 -2.2204460492503132e-17
v 0.195 -0.2 -2.2204460492503132e-17
v 0.195 -0.4000000000000002 -0.6000000000000001
v 0.195 -0.4 2.2204460492503132e-17
v -0.0050000000000000044 -0.4000000000000002 -0.6000000000000001
v -0.0050000000000000044 -0.4 2.2204460492503132e-17
vt 0.0625 0.5
vt 0.125 0.5
vt 0.125 0.6875
vt 0.0625 0.6875
vt 0 0.5
vt 0.0625 0.5
vt 0.0625 0.6875
vt 0 0.6875
vt 0.1875 0.5
vt 0.25 0.5
vt 0.25 0.6875
vt 0.1875 0.6875
vt 0.125 0.5
vt 0.1875 0.5
vt 0.1875 0.6875
vt 0.125 0.6875
vt 0.125 0.75
vt 0.0625 0.75
vt 0.0625 0.6875
vt 0.125 0.6875
vt 0.1875 0.6875
vt 0.125 0.6875
vt 0.125 0.75
vt 0.1875 0.75
vn 0 1 -2.3129646346357425e-16
vn 1 0 0
vn 0 -1 2.7755575615628914e-16
vn -1 0 0
vn 0 2.220446049250313e-16 1
vn 0 0 -1
usemtl none
f 81/241/61 82/242/61 83/243/61 84/244/61
f 85/245/62 81/246/62 84/247/62 86/248/62
f 87/249/63 85/250/63 86/251/63 88/252/63
f 82/253/64 87/254/64 88/255/64 83/256/64
f 88/257/65 86/258/65 84/259/65 83/260/65
f 82/261/66 81/262/66 85/263/66 87/264/66
o Right
v 0.20850000000000002 -0.18650000000000014 -0.6135
v -0.018500000000000006 -0.18650000000000014 -0.6135
v -0.018500000000000006 -0.1865 0.013499999999999979
v 0.20850000000000002 -0.1865 0.013499999999999979
v 0.20850000000000002 -0.4135000000000002 -0.6135
v 0.20850000000000002 -0.4135 0.013499999999999979
v -0.018500000000000006 -0.4135000000000002 -0.6135
v -0.018500000000000006 -0.4135 0.013499999999999979
vt 0.0625 0.25
vt 0.125 0.25
vt 0.125 0.4375
vt 0.0625 0.4375
vt 0 0.25
vt 0.0625 0.25
vt 0.0625 0.4375
vt 0 0.4375
vt 0.1875 0.25
vt 0.25 0.25
vt 0.25 0.4375
vt 0.1875 0.4375
vt 0.125 0.25
vt 0.1875 0.25
vt 0.1875 0.4375
vt 0.125 0.4375
vt 0.125 0.5
vt 0.0625 0.5
vt 0.0625 0.4375
vt 0.125 0.4375
vt 0.1875 0.4375
vt 0.125 0.4375
vt 0.125 0.5
vt 0.1875 0.5
vn 0 1 -2.2133632867327685e-16
vn 1 0 0
vn 0 -1 3.541381258772429e-16
vn -1 0 0
vn 0 0 1
vn 0 0 -1
usemtl none
f 89/265/67 90/266/67 91/267/67 92/268/67
f 93/269/68 89/270/68 92/271/68 94/272/68
f 95/273/69 93/274/69 94/275/69 96/276/69
f 90/277/70 95/278/70 96/279/70 91/280/70
f 96/281/71 94/282/71 92/283/71 91/284/71
f 90/285/72 89/286/72 93/287/72 95/288/72