# Made in Blockbench 5.0.7
mtllib StFNpcWalk.mtl

o Body
v 0.2 0.2 -0.1
v -0.2 0.2 -0.1
v -0.2 0.8 -0.1
v 0.2 0.8 -0.1
v 0.2 0.2 0.1
v 0.2 0.8 0.1
v -0.2 0.2 0.1
v -0.2 0.8 0.1
vt 0.3125 0.5
vt 0.4375 0.5
vt 0.4375 0.6875
vt 0.3125 0.6875
vt 0.25 0.5
vt 0.3125 0.5
vt 0.3125 0.6875
vt 0.25 0.6875
vt 0.5 0.5
vt 0.625 0.5
vt 0.625 0.6875
vt 0.5 0.6875
vt 0.4375 0.5
vt 0.5 0.5
vt 0.5 0.6875
vt 0.4375 0.6875
vt 0.4375 0.75
vt 0.3125 0.75
vt 0.3125 0.6875
vt 0.4375 0.6875
vt 0.5625 0.6875
vt 0.4375 0.6875
vt 0.4375 0.75
vt 0.5625 0.75
vn 0 0 -1
vn 1 0 0
vn 0 0 1
vn -1 0 0
vn 0 1 0
vn 0 -1 0
usemtl none
f 1/1/1 2/2/1 3/3/1 4/4/1
f 5/5/2 1/6/2 4/7/2 6/8/2
f 7/9/3 5/10/3 6/11/3 8/12/3
f 2/13/4 7/14/4 8/15/4 3/16/4
f 8/17/5 6/18/5 4/19/5 3/20/5
f 2/21/6 1/22/6 5/23/6 7/24/6
o Body
v 0.21250000000000002 0.1875 -0.1125
v -0.21250000000000002 0.1875 -0.1125
v -0.21250000000000002 0.8125 -0.1125
v 0.21250000000000002 0.8125 -0.1125
v 0.21250000000000002 0.1875 0.1125
v 0.21250000000000002 0.8125 0.1125
v -0.21250000000000002 0.1875 0.1125
v -0.21250000000000002 0.8125 0.1125
vt 0.3125 0.25
vt 0.4375 0.25
vt 0.4375 0.4375
vt 0.3125 0.4375
vt 0.25 0.25
vt 0.3125 0.25
vt 0.3125 0.4375
vt 0.25 0.4375
vt 0.5 0.25
vt 0.625 0.25
vt 0.625 0.4375
vt 0.5 0.4375
vt 0.4375 0.25
vt 0.5 0.25
vt 0.5 0.4375
vt 0.4375 0.4375
vt 0.4375 0.5
vt 0.3125 0.5
vt 0.3125 0.4375
vt 0.4375 0.4375
vt 0.5625 0.4375
vt 0.4375 0.4375
vt 0.4375 0.5
vt 0.5625 0.5
vn 0 0 -1
vn 1 0 0
vn 0 0 1
vn -1 0 0
vn 0 1 0
vn 0 -1 0
usemtl none
f 9/25/7 10/26/7 11/27/7 12/28/7
f 13/29/8 9/30/8 12/31/8 14/32/8
f 15/33/9 13/34/9 14/35/9 16/36/9
f 10/37/10 15/38/10 16/39/10 11/40/10
f 16/41/11 14/42/11 12/43/11 11/44/11
f 10/45/12 9/46/12 13/47/12 15/48/12
o Head
v 0.2 0.8 -0.2
v -0.2 0.8 -0.2
v -0.2 1.2000000000000002 -0.2
v 0.2 1.2000000000000002 -0.2
v 0.2 0.8 0.2
v 0.2 1.2000000000000002 0.2
v -0.2 0.8 0.2
v -0.2 1.2000000000000002 0.2
vt 0.125 0.75
vt 0.25 0.75
vt 0.25 0.875
vt 0.125 0.875
vt 0 0.75
vt 0.125 0.75
vt 0.125 0.875
vt 0 0.875
vt 0.375 0.75
vt 0.5 0.75
vt 0.5 0.875
vt 0.375 0.875
vt 0.25 0.75
vt 0.375 0.75
vt 0.375 0.875
vt 0.25 0.875
vt 0.25 1
vt 0.125 1
vt 0.125 0.875
vt 0.25 0.875
vt 0.375 0.875
vt 0.25 0.875
vt 0.25 1
vt 0.375 1
vn 0 0 -1
vn 1 0 0
vn 0 0 1
vn -1 0 0
vn 0 1 0
vn 0 -1 0
usemtl none
f 17/49/13 18/50/13 19/51/13 20/52/13
f 21/53/14 17/54/14 20/55/14 22/56/14
f 23/57/15 21/58/15 22/59/15 24/60/15
f 18/61/16 23/62/16 24/63/16 19/64/16
f 24/65/17 22/66/17 20/67/17 19/68/17
f 18/69/18 17/70/18 21/71/18 23/72/18
o Hat
v 0.225 0.775 -0.225
v -0.225 0.775 -0.225
v -0.225 1.225 -0.225
v 0.225 1.225 -0.225
v 0.225 0.775 0.225
v 0.225 1.225 0.225
v -0.225 0.775 0.225
v -0.225 1.225 0.225
vt 0.625 0.75
vt 0.75 0.75
vt 0.75 0.875
vt 0.625 0.875
vt 0.5 0.75
vt 0.625 0.75
vt 0.625 0.875
vt 0.5 0.875
vt 0.875 0.75
vt 1 0.75
vt 1 0.875
vt 0.875 0.875
vt 0.75 0.75
vt 0.875 0.75
vt 0.875 0.875
vt 0.75 0.875
vt 0.75 1
vt 0.625 1
vt 0.625 0.875
vt 0.75 0.875
vt 0.875 0.875
vt 0.75 0.875
vt 0.75 1
vt 0.875 1
vn 0 0 -1
vn 1 0 0
vn 0 0 1
vn -1 0 0
vn 0 1 0
vn 0 -1 0
usemtl none
f 25/73/19 26/74/19 27/75/19 28/76/19
f 29/77/20 25/78/20 28/79/20 30/80/20
f 31/81/21 29/82/21 30/83/21 32/84/21
f 26/85/22 31/86/22 32/87/22 27/88/22
f 32/89/23 30/90/23 28/91/23 27/92/23
f 26/93/24 25/94/24 29/95/24 31/96/24
o Left
v -0.2 0.21698729810778064 0.16339745962155608
v -0.35000000000000003 0.21698729810778064 0.16339745962155608
v -0.35000000000000003 0.7366025403784439 -0.13660254037844385
v -0.2 0.7366025403784439 -0.13660254037844385
v -0.2 0.31698729810778065 0.33660254037844384
v -0.2 0.836602540378444 0.036602540378443876
v -0.35000000000000003 0.31698729810778065 0.33660254037844384
v -0.35000000000000003 0.836602540378444 0.036602540378443876
vt 0.5625 0
vt 0.609375 0
vt 0.609375 0.1875
vt 0.5625 0.1875
vt 0.5 0
vt 0.5625 0
vt 0.5625 0.1875
vt 0.5 0.1875
vt 0.671875 0
vt 0.71875 0
vt 0.71875 0.1875
vt 0.671875 0.1875
vt 0.609375 0
vt 0.671875 0
vt 0.671875 0.1875
vt 0.609375 0.1875
vt 0.609375 0.25
vt 0.5625 0.25
vt 0.5625 0.1875
vt 0.609375 0.1875
vt 0.65625 0.1875
vt 0.609375 0.1875
vt 0.609375 0.25
vt 0.65625 0.25
vn 0 -0.49999999999999994 -0.8660254037844387
vn 1 0 0
vn 0 0.49999999999999994 0.8660254037844387
vn -1 0 0
vn 0 0.8660254037844385 -0.5000000000000003
vn 0 -0.8660254037844387 0.5
usemtl none
f 33/97/25 34/98/25 35/99/25 36/100/25
f 37/101/26 33/102/26 36/103/26 38/104/26
f 39/105/27 37/106/27 38/107/27 40/108/27
f 34/109/28 39/110/28 40/111/28 35/112/28
f 40/113/29 38/114/29 36/115/29 35/116/29
f 34/117/30 33/118/30 37/119/30 39/120/30
o Left
v -0.18700000000000003 0.1992289678585829 0.1586391293723584
v -0.363 0.1992289678585829 0.1586391293723584
v -0.363 0.7413608706276416 -0.1543608706276415
v -0.18700000000000003 0.7413608706276416 -0.1543608706276415
v -0.18700000000000003 0.3122289678585828 0.35436087062764154
v -0.18700000000000003 0.8543608706276414 0.0413608706276416
v -0.363 0.3122289678585828 0.35436087062764154
v -0.363 0.8543608706276414 0.0413608706276416
vt 0.796875 0
vt 0.84375 0
vt 0.84375 0.1875
vt 0.796875 0.1875
vt 0.734375 0
vt 0.796875 0
vt 0.796875 0.1875
vt 0.734375 0.1875
vt 0.90625 0
vt 0.953125 0
vt 0.953125 0.1875
vt 0.90625 0.1875
vt 0.84375 0
vt 0.90625 0
vt 0.90625 0.1875
vt 0.84375 0.1875
vt 0.84375 0.25
vt 0.796875 0.25
vt 0.796875 0.1875
vt 0.84375 0.1875
vt 0.890625 0.1875
vt 0.84375 0.1875
vt 0.84375 0.25
vt 0.890625 0.25
vn 0 -0.4999999999999999 -0.8660254037844387
vn 1 0 0
vn 0 0.4999999999999999 0.8660254037844387
vn -1 0 0
vn 0 0.8660254037844388 -0.49999999999999967
vn 0 -0.8660254037844388 0.49999999999999967
usemtl none
f 41/121/31 42/122/31 43/123/31 44/124/31
f 45/125/32 41/126/32 44/127/32 46/128/32
f 47/129/33 45/130/33 46/131/33 48/132/33
f 42/133/34 47/134/34 48/135/34 43/136/34
f 48/137/35 46/138/35 44/139/35 43/140/35
f 42/141/36 41/142/36 45/143/36 47/144/36
o Right
v 0.35000000000000003 0.31698729810778065 -0.33660254037844384
v 0.2 0.31698729810778065 -0.33660254037844384
v 0.2 0.836602540378444 -0.036602540378443876
v 0.35000000000000003 0.836602540378444 -0.036602540378443876
v 0.35000000000000003 0.21698729810778064 -0.16339745962155608
v 0.35000000000000003 0.7366025403784439 0.13660254037844385
v 0.2 0.21698729810778064 -0.16339745962155608
v 0.2 0.7366025403784439 0.13660254037844385
vt 0.6875 0.5
vt 0.734375 0.5
vt 0.734375 0.6875
vt 0.6875 0.6875
vt 0.625 0.5
vt 0.6875 0.5
vt 0.6875 0.6875
vt 0.625 0.6875
vt 0.796875 0.5
vt 0.84375 0.5
vt 0.84375 0.6875
vt 0.796875 0.6875
vt 0.734375 0.5
vt 0.796875 0.5
vt 0.796875 0.6875
vt 0.734375 0.6875
vt 0.734375 0.75
vt 0.6875 0.75
vt 0.6875 0.6875
vt 0.734375 0.6875
vt 0.78125 0.6875
vt 0.734375 0.6875
vt 0.734375 0.75
vt 0.78125 0.75
vn 0 0.49999999999999994 -0.8660254037844387
vn 1 0 0
vn 0 -0.49999999999999994 0.8660254037844387
vn -1 0 0
vn 0 0.8660254037844385 0.5000000000000003
vn 0 -0.8660254037844387 -0.5
usemtl none
f 49/145/37 50/146/37 51/147/37 52/148/37
f 53/149/38 49/150/38 52/151/38 54/152/38
f 55/153/39 53/154/39 54/155/39 56/156/39
f 50/157/40 55/158/40 56/159/40 51/160/40
f 56/161/41 54/162/41 52/163/41 51/164/41
f 50/165/42 49/166/42 53/167/42 55/168/42
o Right
v 0.363 0.3122289678585828 -0.35436087062764154
v 0.18700000000000003 0.3122289678585828 -0.35436087062764154
v 0.18700000000000003 0.8543608706276414 -0.0413608706276416
v 0.363 0.8543608706276414 -0.0413608706276416
v 0.363 0.1992289678585829 -0.1586391293723584
v 0.363 0.7413608706276416 0.1543608706276415
v 0.18700000000000003 0.1992289678585829 -0.1586391293723584
v 0.18700000000000003 0.7413608706276416 0.1543608706276415
vt 0.6875 0.25
vt 0.734375 0.25
vt 0.734375 0.4375
vt 0.6875 0.4375
vt 0.625 0.25
vt 0.6875 0.25
vt 0.6875 0.4375
vt 0.625 0.4375
vt 0.796875 0.25
vt 0.84375 0.25
vt 0.84375 0.4375
vt 0.796875 0.4375
vt 0.734375 0.25
vt 0.796875 0.25
vt 0.796875 0.4375
vt 0.734375 0.4375
vt 0.734375 0.5
vt 0.6875 0.5
vt 0.6875 0.4375
vt 0.734375 0.4375
vt 0.78125 0.4375
vt 0.734375 0.4375
vt 0.734375 0.5
vt 0.78125 0.5
vn 0 0.4999999999999999 -0.8660254037844387
vn 1 0 0
vn 0 -0.4999999999999999 0.8660254037844387
vn -1 0 0
vn 0 0.8660254037844388 0.49999999999999967
vn 0 -0.8660254037844388 -0.49999999999999967
usemtl none
f 57/169/43 58/170/43 59/171/43 60/172/43
f 61/173/44 57/174/44 60/175/44 62/176/44
f 63/177/45 61/178/45 62/179/45 64/180/45
f 58/181/46 63/182/46 64/183/46 59/184/46
f 64/185/47 62/186/47 60/187/47 59/188/47
f 58/189/48 57/190/48 61/191/48 63/192/48
o Left
v 0.0050000000000000044 -0.2696152422706633 -0.3866025403784439
v -0.195 -0.2696152422706633 -0.3866025403784439
v -0.195 0.25 -0.08660254037844388
v 0.0050000000000000044 0.25 -0.08660254037844388
v 0.0050000000000000044 -0.36961524227066334 -0.2133974596215561
v 0.0050000000000000044 0.15000000000000002 0.08660254037844387
v -0.195 -0.36961524227066334 -0.2133974596215561
v -0.195 0.15000000000000002 0.08660254037844387
vt 0.3125 0
vt 0.375 0
vt 0.375 0.1875
vt 0.3125 0.1875
vt 0.25 0
vt 0.3125 0
vt 0.3125 0.1875
vt 0.25 0.1875
vt 0.4375 0
vt 0.5 0
vt 0.5 0.1875
vt 0.4375 0.1875
vt 0.375 0
vt 0.4375 0
vt 0.4375 0.1875
vt 0.375 0.1875
vt 0.375 0.25
vt 0.3125 0.25
vt 0.3125 0.1875
vt 0.375 0.1875
vt 0.4375 0.1875
vt 0.375 0.1875
vt 0.375 0.25
vt 0.4375 0.25
vn 0 0.49999999999999994 -0.8660254037844387
vn 1 0 0
vn 0 -0.4999999999999999 0.8660254037844389
vn -1 0 0
vn 0 0.8660254037844388 0.5
vn 0 -0.8660254037844387 -0.5
usemtl none
f 65/193/49 66/194/49 67/195/49 68/196/49
f 69/197/50 65/198/50 68/199/50 70/200/50
f 71/201/51 69/202/51 70/203/51 72/204/51
f 66/205/52 71/206/52 72/207/52 67/208/52
f 72/209/53 70/210/53 68/211/53 67/212/53
f 66/213/54 65/214/54 69/215/54 71/216/54
o Left
v 0.017999999999999995 -0.27437357251986094 -0.40436087062764153
v -0.20800000000000002 -0.27437357251986094 -0.40436087062764153
v -0.20800000000000002 0.26775833024919765 -0.09136087062764156
v 0.017999999999999995 0.26775833024919765 -0.09136087062764156
v 0.017999999999999995 -0.3873735725198609 -0.2086391293723584
v 0.017999999999999995 0.15475833024919777 0.10436087062764154
v -0.20800000000000002 -0.3873735725198609 -0.2086391293723584
v -0.20800000000000002 0.15475833024919777 0.10436087062764154
vt 0.0625 0
vt 0.125 0
vt 0.125 0.1875
vt 0.0625 0.1875
vt 0 0
vt 0.0625 0
vt 0.0625 0.1875
vt 0 0.1875
vt 0.1875 0
vt 0.25 0
vt 0.25 0.1875
vt 0.1875 0.1875
vt 0.125 0
vt 0.1875 0
vt 0.1875 0.1875
vt 0.125 0.1875
vt 0.125 0.25
vt 0.0625 0.25
vt 0.0625 0.1875
vt 0.125 0.1875
vt 0.1875 0.1875
vt 0.125 0.1875
vt 0.125 0.25
vt 0.1875 0.25
vn 0 0.5000000000000001 -0.8660254037844388
vn 1 0 0
vn 0 -0.5 0.8660254037844388
vn -1 0 0
vn 0 0.8660254037844388 0.49999999999999967
vn 0 -0.8660254037844388 -0.4999999999999998
usemtl none
f 73/217/55 74/218/55 75/219/55 76/220/55
f 77/221/56 73/222/56 76/223/56 78/224/56
f 79/225/57 77/226/57 78/227/57 80/228/57
f 74/229/58 79/230/58 80/231/58 75/232/58
f 80/233/59 78/234/59 76/235/59 75/236/59
f 74/237/60 73/238/60 77/239/60 79/240/60
o Right
v 0.195 -0.36961524227066334 0.2133974596215561
v -0.0050000000000000044 -0.36961524227066334 0.2133974596215561
v -0.0050000000000000044 0.15000000000000002 -0.08660254037844387
v 0.195 0.15000000000000002 -0.08660254037844387
v 0.195 -0.2696152422706633 0.3866025403784439
v 0.195 0.25 0.08660254037844388
v -0.0050000000000000044 -0.2696152422706633 0.3866025403784439
v -0.0050000000000000044 0.25 0.08660254037844388
vt 0.0625 0.5
vt 0.125 0.5
vt 0.125 0.6875
vt 0.0625 0.6875
vt 0 0.5
vt 0.0625 0.5
vt 0.0625 0.6875
vt 0 0.6875
vt 0.1875 0.5
vt 0.25 0.5
vt 0.25 0.6875
vt 0.1875 0.6875
vt 0.125 0.5
vt 0.1875 0.5
vt 0.1875 0.6875
vt 0.125 0.6875
vt 0.125 0.75
vt 0.0625 0.75
vt 0.0625 0.6875
vt 0.125 0.6875
vt 0.1875 0.6875
vt 0.125 0.6875
vt 0.125 0.75
vt 0.1875 0.75
vn 0 -0.4999999999999999 -0.8660254037844389
vn 1 0 0
vn 0 0.49999999999999994 0.8660254037844387
vn -1 0 0
vn 0 0.8660254037844388 -0.5
vn 0 -0.8660254037844387 0.5
usemtl none
f 81/241/61 82/242/61 83/243/61 84/244/61
f 85/245/62 81/246/62 84/247/62 86/248/62
f 87/249/63 85/250/63 86/251/63 88/252/63
f 82/253/64 87/254/64 88/255/64 83/256/64
f 88/257/65 86/258/65 84/259/65 83/260/65
f 82/261/66 81/262/66 85/263/66 87/264/66
o Right
v 0.20850000000000002 -0.3880565852217531 0.20845611667046615
v -0.018500000000000006 -0.3880565852217531 0.20845611667046615
v -0.018500000000000006 0.15494134295108994 -0.1050438833295338
v 0.20850000000000002 0.15494134295108994 -0.1050438833295338
v 0.20850000000000002 -0.27455658522175314 0.4050438833295338
v 0.20850000000000002 0.2684413429510899 0.09154388332953381
v -0.018500000000000006 -0.27455658522175314 0.4050438833295338
v -0.018500000000000006 0.2684413429510899 0.09154388332953381
vt 0.0625 0.25
vt 0.125 0.25
vt 0.125 0.4375
vt 0.0625 0.4375
vt 0 0.25
vt 0.0625 0.25
vt 0.0625 0.4375
vt 0 0.4375
vt 0.1875 0.25
vt 0.25 0.25
vt 0.25 0.4375
vt 0.1875 0.4375
vt 0.125 0.25
vt 0.1875 0.25
vt 0.1875 0.4375
vt 0.125 0.4375
vt 0.125 0.5
vt 0.0625 0.5
vt 0.0625 0.4375
vt 0.125 0.4375
vt 0.1875 0.4375
vt 0.125 0.4375
vt 0.125 0.5
vt 0.1875 0.5
vn 0 -0.4999999999999999 -0.8660254037844387
vn 1 0 0
vn 0 0.5000000000000001 0.8660254037844388
vn -1 0 0
vn 0 0.8660254037844389 -0.4999999999999999
vn 0 -0.8660254037844387 0.4999999999999999
usemtl none
f 89/265/67 90/266/67 91/267/67 92/268/67
f 93/269/68 89/270/68 92/271/68 94/272/68
f 95/273/69 93/274/69 94/275/69 96/276/69
f 90/277/70 95/278/70 96/279/70 91/280/70
f 96/281/71 94/282/71 92/283/71 91/284/71
f 90/285/72 89/286/72 93/287/72 95/288/72