# Made in Blockbench 5.0.7
mtllib StFNpcPhone.mtl

o Body
v -0.19999999999999998 0.17411809548974794 0.09659258262890685
v 0.2 0.17411809548974794 0.0965925826289068
v 0.20000000000000007 0.7536735912631891 0.2518840096904193
v -0.19999999999999998 0.7536735912631891 0.25188400969041935
v -0.2 0.22588190451025209 -0.09659258262890681
v -0.2 0.805437400283693 0.058698844432605646
v 0.19999999999999998 0.22588190451025209 -0.09659258262890685
v 0.2 0.805437400283693 0.058698844432605604
vt 0.3125 0.5
vt 0.4375 0.5
vt 0.4375 0.6875
vt 0.3125 0.6875
vt 0.25 0.5
vt 0.3125 0.5
vt 0.3125 0.6875
vt 0.25 0.6875
vt 0.5 0.5
vt 0.625 0.5
vt 0.625 0.6875
vt 0.5 0.6875
vt 0.4375 0.5
vt 0.5 0.5
vt 0.5 0.6875
vt 0.4375 0.6875
vt 0.4375 0.75
vt 0.3125 0.75
vt 0.3125 0.6875
vt 0.4375 0.6875
vt 0.5625 0.6875
vt 0.4375 0.6875
vt 0.4375 0.75
vt 0.5625 0.75
vn 1.3404913655327537e-16 -0.25881904510252074 0.9659258262890683
vn -1 -3.591835788553942e-17 1.3404913655327537e-16
vn -1.0053685241495652e-16 0.2588190451025208 -0.9659258262890683
vn 1 -8.764687632219027e-18 -1.4602192251512185e-16
vn 2.693876841415445e-17 0.9659258262890686 0.25881904510251963
vn -3.591835788553942e-17 -0.9659258262890683 -0.25881904510252074
usemtl none
f 1/1/1 2/2/1 3/3/1 4/4/1
f 5/5/2 1/6/2 4/7/2 6/8/2
f 7/9/3 5/10/3 6/11/3 8/12/3
f 2/13/4 7/14/4 8/15/4 3/16/4
f 8/17/5 6/18/5 4/19/5 3/20/5
f 2/21/6 1/22/6 5/23/6 7/24/6
o Body
v -0.21250000000000002 0.15880878459735304 0.10543141739373872
v 0.21250000000000002 0.15880878459735304 0.10543141739373868
v 0.21250000000000005 0.7625124260280208 0.2671933205828141
v -0.21249999999999997 0.7625124260280208 0.2671933205828142
v -0.21250000000000002 0.21704306974542018 -0.11190189352130167
v -0.21250000000000002 0.820746711176088 0.049860009667773784
v 0.21250000000000002 0.21704306974542018 -0.11190189352130171
v 0.21250000000000002 0.820746711176088 0.04986000966777373
vt 0.3125 0.25
vt 0.4375 0.25
vt 0.4375 0.4375
vt 0.3125 0.4375
vt 0.25 0.25
vt 0.3125 0.25
vt 0.3125 0.4375
vt 0.25 0.4375
vt 0.5 0.25
vt 0.625 0.25
vt 0.625 0.4375
vt 0.5 0.4375
vt 0.4375 0.25
vt 0.5 0.25
vt 0.5 0.4375
vt 0.4375 0.4375
vt 0.4375 0.5
vt 0.3125 0.5
vt 0.3125 0.4375
vt 0.4375 0.4375
vt 0.5625 0.4375
vt 0.4375 0.4375
vt 0.4375 0.5
vt 0.5625 0.5
vn 9.462291991995908e-17 -0.2588190451025206 0.9659258262890683
vn -1 8.579144739409622e-17 2.2987749046745215e-17
vn -9.462291991995908e-17 0.2588190451025207 -0.9659258262890683
vn 1 0 0
vn 3.38055133040371e-17 0.9659258262890684 0.25881904510252074
vn -2.5354134978027817e-17 -0.9659258262890684 -0.25881904510252063
usemtl none
f 9/25/7 10/26/7 11/27/7 12/28/7
f 13/29/8 9/30/8 12/31/8 14/32/8
f 15/33/9 13/34/9 14/35/9 16/36/9
f 10/37/10 15/38/10 16/39/10 11/40/10
f 16/41/11 14/42/11 12/43/11 11/44/11
f 10/45/12 9/46/12 13/47/12 15/48/12
o Head
v -0.19999999999999996 0.7277916867529369 0.34847659231932615
v 0.20000000000000007 0.7277916867529369 0.34847659231932604
v 0.20000000000000007 1.1141620172685642 0.4520042103603344
v -0.19999999999999996 1.1141620172685642 0.4520042103603344
v -0.2 0.8313193047939452 -0.0378937381963012
v -0.2 1.2176896353095725 0.06563387984470713
v 0.2 0.8313193047939452 -0.03789373819630124
v 0.2 1.2176896353095725 0.06563387984470707
vt 0.125 0.75
vt 0.25 0.75
vt 0.25 0.875
vt 0.125 0.875
vt 0 0.75
vt 0.125 0.75
vt 0.125 0.875
vt 0 0.875
vt 0.375 0.75
vt 0.5 0.75
vt 0.5 0.875
vt 0.375 0.875
vt 0.25 0.75
vt 0.375 0.75
vt 0.375 0.875
vt 0.25 0.875
vt 0.25 1
vt 0.125 1
vt 0.125 0.875
vt 0.25 0.875
vt 0.375 0.875
vt 0.25 0.875
vt 0.25 1
vt 0.375 1
vn 2.6809827310655074e-16 -0.25881904510252085 0.9659258262890683
vn -1 -3.5918357885539405e-17 1.3404913655327537e-16
vn -1.0053685241495653e-16 0.25881904510252085 -0.9659258262890683
vn 1 3.591835788553944e-17 -1.3404913655327537e-16
vn 3.591835788553943e-17 0.9659258262890683 0.2588190451025208
vn -7.183671577107883e-17 -0.9659258262890683 -0.2588190451025207
usemtl none
f 17/49/13 18/50/13 19/51/13 20/52/13
f 21/53/14 17/54/14 20/55/14 22/56/14
f 23/57/15 21/58/15 22/59/15 24/60/15
f 18/61/16 23/62/16 24/63/16 19/64/16
f 24/65/17 22/66/17 20/67/17 19/68/17
f 18/69/18 17/70/18 21/71/18 23/72/18
o Hat
v -0.22499999999999998 0.6971730649681471 0.3661542618489899
v 0.22500000000000006 0.6971730649681471 0.3661542618489898
v 0.22500000000000006 1.1318396867982279 0.48262283214512414
v -0.22499999999999998 1.1318396867982279 0.48262283214512414
v -0.225 0.8136416352642813 -0.06851235998109091
v -0.225 1.2483082570943624 0.047956210315043386
v 0.225 0.8136416352642813 -0.06851235998109095
v 0.225 1.2483082570943624 0.04795621031504333
vt 0.625 0.75
vt 0.75 0.75
vt 0.75 0.875
vt 0.625 0.875
vt 0.5 0.75
vt 0.625 0.75
vt 0.625 0.875
vt 0.5 0.875
vt 0.875 0.75
vt 1 0.75
vt 1 0.875
vt 0.875 0.875
vt 0.75 0.75
vt 0.875 0.75
vt 0.875 0.875
vt 0.75 0.875
vt 0.75 1
vt 0.625 1
vt 0.625 0.875
vt 0.75 0.875
vt 0.875 0.875
vt 0.75 0.875
vt 0.75 1
vt 0.875 1
vn 2.3830957609471174e-16 -0.25881904510252074 0.9659258262890684
vn -1 -1.596371461579529e-17 5.957739402367794e-17
vn -8.936609103551692e-17 0.25881904510252046 -0.9659258262890684
vn 1 3.1927429231590556e-17 -1.191547880473559e-16
vn 3.192742923159066e-17 0.9659258262890683 0.25881904510252124
vn -6.385485846318111e-17 -0.9659258262890684 -0.25881904510252046
usemtl none
f 25/73/19 26/74/19 27/75/19 28/76/19
f 29/77/20 25/78/20 28/79/20 30/80/20
f 31/81/21 29/82/21 30/83/21 32/84/21
f 26/85/22 31/86/22 32/87/22 27/88/22
f 32/89/23 30/90/23 28/91/23 27/92/23
f 26/93/24 25/94/24 29/95/24 31/96/24
o Left
v 0.2 0.17411809548974794 0.09659258262890681
v 0.35000000000000003 0.17411809548974794 0.0965925826289068
v 0.3500000000000001 0.753673591263189 0.25188400969041924
v 0.20000000000000007 0.753673591263189 0.25188400969041924
v 0.19999999999999998 0.22588190451025209 -0.09659258262890685
v 0.2 0.805437400283693 0.05869884443260559
v 0.35000000000000003 0.22588190451025209 -0.09659258262890687
v 0.35000000000000003 0.805437400283693 0.05869884443260557
vt 0.5625 0
vt 0.609375 0
vt 0.609375 0.1875
vt 0.5625 0.1875
vt 0.5 0
vt 0.5625 0
vt 0.5625 0.1875
vt 0.5 0.1875
vt 0.671875 0
vt 0.71875 0
vt 0.71875 0.1875
vt 0.671875 0.1875
vt 0.609375 0
vt 0.671875 0
vt 0.671875 0.1875
vt 0.609375 0.1875
vt 0.609375 0.25
vt 0.5625 0.25
vt 0.5625 0.1875
vt 0.609375 0.1875
vt 0.65625 0.1875
vt 0.609375 0.1875
vt 0.609375 0.25
vt 0.65625 0.25
vn 8.936609103551689e-17 -0.25881904510252074 0.9659258262890683
vn -1 5.34477331499775e-17 1.5799470847696833e-16
vn -8.936609103551688e-17 0.2588190451025207 -0.9659258262890683
vn 1 0 0
vn 3.591835788553935e-17 0.9659258262890684 0.25881904510252024
vn -2.3945571923692944e-17 -0.9659258262890683 -0.25881904510252074
usemtl none
f 33/97/25 34/98/25 35/99/25 36/100/25
f 37/101/26 33/102/26 36/103/26 38/104/26
f 39/105/27 37/106/27 38/107/27 40/108/27
f 34/109/28 39/110/28 40/111/28 35/112/28
f 40/113/29 38/114/29 36/115/29 35/116/29
f 34/117/30 33/118/30 37/119/30 39/120/30
o Left
v 0.18700000000000006 0.1581964121616574 0.1057849707843319
v 0.363 0.1581964121616574 0.10578497078433187
v 0.36300000000000004 0.7628659794186141 0.2678056930185098
v 0.18700000000000006 0.7628659794186141 0.2678056930185098
v 0.187 0.21668951635482703 -0.1125142659569975
v 0.18700000000000003 0.8213590836117839 0.04950645627718047
v 0.363 0.21668951635482703 -0.11251426595699753
v 0.363 0.8213590836117839 0.04950645627718045
vt 0.796875 0
vt 0.84375 0
vt 0.84375 0.1875
vt 0.796875 0.1875
vt 0.734375 0
vt 0.796875 0
vt 0.796875 0.1875
vt 0.734375 0.1875
vt 0.90625 0
vt 0.953125 0
vt 0.953125 0.1875
vt 0.90625 0.1875
vt 0.84375 0
vt 0.90625 0
vt 0.90625 0.1875
vt 0.84375 0.1875
vt 0.84375 0.25
vt 0.796875 0.25
vt 0.796875 0.1875
vt 0.84375 0.1875
vt 0.890625 0.1875
vt 0.84375 0.1875
vt 0.84375 0.25
vt 0.890625 0.25
vn 1.523285642650857e-16 -0.25881904510252063 0.9659258262890683
vn -1 -6.357231484166268e-17 2.3725510894385027e-16
vn -1.5232856426508566e-16 0.2588190451025207 -0.9659258262890683
vn 1 0 0
vn 3.061223683426662e-17 0.9659258262890683 0.2588190451025213
vn -4.081631577902206e-17 -0.9659258262890683 -0.2588190451025206
usemtl none
f 41/121/31 42/122/31 43/123/31 44/124/31
f 45/125/32 41/126/32 44/127/32 46/128/32
f 47/129/33 45/130/33 46/131/33 48/132/33
f 42/133/34 47/134/34 48/135/34 43/136/34
f 48/137/35 46/138/35 44/139/35 43/140/35
f 42/141/36 41/142/36 45/143/36 47/144/36
o Right
v -0.3499999999999999 0.9479422468859593 0.5650538186116476
v -0.19999999999999996 0.9479422468859593 0.5650538186116476
v -0.2 0.7427301608905581 0.001238246140102708
v -0.35000000000000003 0.7427301608905581 0.0012382461401027264
v -0.3499999999999999 0.7600037227287778 0.6334578472767813
v -0.35000000000000003 0.5547916367333764 0.06964227480523648
v -0.19999999999999996 0.7600037227287778 0.6334578472767813
v -0.2 0.5547916367333764 0.06964227480523645
vt 0.6875 0.5
vt 0.734375 0.5
vt 0.734375 0.6875
vt 0.6875 0.6875
vt 0.625 0.5
vt 0.6875 0.5
vt 0.6875 0.6875
vt 0.625 0.6875
vt 0.796875 0.5
vt 0.84375 0.5
vt 0.84375 0.6875
vt 0.796875 0.6875
vt 0.734375 0.5
vt 0.796875 0.5
vt 0.796875 0.6875
vt 0.734375 0.6875
vt 0.734375 0.75
vt 0.6875 0.75
vt 0.6875 0.6875
vt 0.734375 0.6875
vt 0.78125 0.6875
vt 0.734375 0.6875
vt 0.734375 0.75
vt 0.78125 0.75
vn 0 0.9396926207859085 -0.34202014332566877
vn -1 6.328643966762564e-17 1.738780639444786e-16
vn 0 -0.9396926207859084 0.34202014332566905
vn 1 -3.164321983381282e-17 -8.693903197223929e-17
vn -1.738780639444786e-16 -0.34202014332566877 -0.9396926207859085
vn 0 0.342020143325669 0.9396926207859083
usemtl none
f 49/145/37 50/146/37 51/147/37 52/148/37
f 53/149/38 49/150/38 52/151/38 54/152/38
f 55/153/39 53/154/39 54/155/39 56/156/39
f 50/157/40 55/158/40 56/159/40 51/160/40
f 56/161/41 54/162/41 52/163/41 51/164/41
f 50/165/42 49/166/42 53/167/42 55/168/42
o Right
v -0.36299999999999993 0.9646045128194098 0.5728235608186307
v -0.18699999999999994 0.9646045128194098 0.5728235608186306
v -0.18700000000000003 0.7504999030975412 -0.015424019793347711
v -0.363 0.7504999030975412 -0.015424019793347689
v -0.36299999999999993 0.7522339805217947 0.650120113210232
v -0.363 0.5381293707999261 0.061872532598253344
v -0.18699999999999994 0.7522339805217947 0.6501201132102319
v -0.18700000000000003 0.5381293707999261 0.061872532598253316
vt 0.6875 0.25
vt 0.734375 0.25
vt 0.734375 0.4375
vt 0.6875 0.4375
vt 0.625 0.25
vt 0.6875 0.25
vt 0.6875 0.4375
vt 0.625 0.4375
vt 0.796875 0.25
vt 0.84375 0.25
vt 0.84375 0.4375
vt 0.796875 0.4375
vt 0.734375 0.25
vt 0.796875 0.25
vt 0.796875 0.4375
vt 0.734375 0.4375
vt 0.734375 0.5
vt 0.6875 0.5
vt 0.6875 0.4375
vt 0.734375 0.4375
vt 0.78125 0.4375
vt 0.734375 0.4375
vt 0.734375 0.5
vt 0.78125 0.5
vn -2.1574922613963283e-16 0.9396926207859085 -0.34202014332566893
vn -1 3.032896469694524e-17 8.332814566029325e-17
vn 2.1574922613963266e-16 -0.9396926207859084 0.3420201433256687
vn 1 -4.549344704541785e-17 -1.2499221849043984e-16
vn -1.481915317708625e-16 -0.3420201433256686 -0.9396926207859086
vn 5.927661270834496e-16 0.34202014332566943 0.9396926207859081
usemtl none
f 57/169/43 58/170/43 59/171/43 60/172/43
f 61/173/44 57/174/44 60/175/44 62/176/44
f 63/177/45 61/178/45 62/179/45 64/180/45
f 58/181/46 63/182/46 64/183/46 59/184/46
f 64/185/47 62/186/47 60/187/47 59/188/47
f 58/189/48 57/190/48 61/191/48 63/192/48
o Left
v -0.004999999999999992 -0.4 0.1
v 0.19500000000000003 -0.4 0.09999999999999998
v 0.19500000000000003 0.2 0.09999999999999998
v -0.004999999999999992 0.2 0.1
v -0.0050000000000000175 -0.4 -0.1
v -0.0050000000000000175 0.2 -0.1
v 0.19499999999999998 -0.4 -0.10000000000000003
v 0.19499999999999998 0.2 -0.10000000000000003
vt 0.3125 0
vt 0.375 0
vt 0.375 0.1875
vt 0.3125 0.1875
vt 0.25 0
vt 0.3125 0
vt 0.3125 0.1875
vt 0.25 0.1875
vt 0.4375 0
vt 0.5 0
vt 0.5 0.1875
vt 0.4375 0.1875
vt 0.375 0
vt 0.4375 0
vt 0.4375 0.1875
vt 0.375 0.1875
vt 0.375 0.25
vt 0.3125 0.25
vt 0.3125 0.1875
vt 0.375 0.1875
vt 0.4375 0.1875
vt 0.375 0.1875
vt 0.375 0.25
vt 0.4375 0.25
vn 1.3877787807814454e-16 0 1
vn -1 0 1.2576745200831851e-16
vn -1.3877787807814457e-16 0 -1
vn 1 0 -2.7755575615628914e-16
vn 0 1 0
vn 0 -1 0
usemtl none
f 65/193/49 66/194/49 67/195/49 68/196/49
f 69/197/50 65/198/50 68/199/50 70/200/50
f 71/201/51 69/202/51 70/203/51 72/204/51
f 66/205/52 71/206/52 72/207/52 67/208/52
f 72/209/53 70/210/53 68/211/53 67/212/53
f 66/213/54 65/214/54 69/215/54 71/216/54
o Left
v -0.01799999999999998 -0.41300000000000003 0.11299999999999999
v 0.20800000000000002 -0.41300000000000003 0.11299999999999998
v 0.20800000000000002 0.213 0.11299999999999998
v -0.01799999999999998 0.213 0.11299999999999999
v -0.01800000000000001 -0.41300000000000003 -0.11299999999999999
v -0.01800000000000001 0.213 -0.11299999999999999
v 0.20800000000000002 -0.41300000000000003 -0.11300000000000002
v 0.20800000000000002 0.213 -0.11300000000000002
vt 0.0625 0
vt 0.125 0
vt 0.125 0.1875
vt 0.0625 0.1875
vt 0 0
vt 0.0625 0
vt 0.0625 0.1875
vt 0 0.1875
vt 0.1875 0
vt 0.25 0
vt 0.25 0.1875
vt 0.1875 0.1875
vt 0.125 0
vt 0.1875 0
vt 0.1875 0.1875
vt 0.125 0.1875
vt 0.125 0.25
vt 0.0625 0.25
vt 0.0625 0.1875
vt 0.125 0.1875
vt 0.1875 0.1875
vt 0.125 0.1875
vt 0.125 0.25
vt 0.1875 0.25
vn 6.140614074254185e-17 0 1
vn -1 0 1.228122814850837e-16
vn -1.2281228148508368e-16 0 -1
vn 1 0 0
vn 0 1 0
vn 0 -1 0
usemtl none
f 73/217/55 74/218/55 75/219/55 76/220/55
f 77/221/56 73/222/56 76/223/56 78/224/56
f 79/225/57 77/226/57 78/227/57 80/228/57
f 74/229/58 79/230/58 80/231/58 75/232/58
f 80/233/59 78/234/59 76/235/59 75/236/59
f 74/237/60 73/238/60 77/239/60 79/240/60
o Right
v -0.19499999999999998 -0.4 0.10000000000000003
v 0.0050000000000000175 -0.4 0.1
v 0.0050000000000000175 0.2 0.1
v -0.19499999999999998 0.2 0.10000000000000003
v -0.19500000000000003 -0.4 -0.09999999999999998
v -0.19500000000000003 0.2 -0.09999999999999998
v 0.004999999999999992 -0.4 -0.1
v 0.004999999999999992 0.2 -0.1
vt 0.0625 0.5
vt 0.125 0.5
vt 0.125 0.6875
vt 0.0625 0.6875
vt 0 0.5
vt 0.0625 0.5
vt 0.0625 0.6875
vt 0 0.6875
vt 0.1875 0.5
vt 0.25 0.5
vt 0.25 0.6875
vt 0.1875 0.6875
vt 0.125 0.5
vt 0.1875 0.5
vt 0.1875 0.6875
vt 0.125 0.6875
vt 0.125 0.75
vt 0.0625 0.75
vt 0.0625 0.6875
vt 0.125 0.6875
vt 0.1875 0.6875
vt 0.125 0.6875
vt 0.125 0.75
vt 0.1875 0.75
vn 1.3877787807814457e-16 0 1
vn -1 0 2.7755575615628914e-16
vn -1.3877787807814454e-16 0 -1
vn 1 0 -1.2576745200831851e-16
vn 0 1 0
vn 0 -1 0
usemtl none
f 81/241/61 82/242/61 83/243/61 84/244/61
f 85/245/62 81/246/62 84/247/62 86/248/62
f 87/249/63 85/250/63 86/251/63 88/252/63
f 82/253/64 87/254/64 88/255/64 83/256/64
f 88/257/65 86/258/65 84/259/65 83/260/65
f 82/261/66 81/262/66 85/263/66 87/264/66
o Right
v -0.20850000000000002 -0.4135 0.11350000000000003
v 0.01850000000000002 -0.4135 0.1135
v 0.01850000000000002 0.2135 0.1135
v -0.20850000000000002 0.2135 0.11350000000000003
v -0.20850000000000002 -0.4135 -0.11349999999999999
v -0.20850000000000002 0.2135 -0.11349999999999999
v 0.018499999999999992 -0.4135 -0.1135
v 0.018499999999999992 0.2135 -0.1135
vt 0.0625 0.25
vt 0.125 0.25
vt 0.125 0.4375
vt 0.0625 0.4375
vt 0 0.25
vt 0.0625 0.25
vt 0.0625 0.4375
vt 0 0.4375
vt 0.1875 0.25
vt 0.25 0.25
vt 0.25 0.4375
vt 0.1875 0.4375
vt 0.125 0.25
vt 0.1875 0.25
vt 0.1875 0.4375
vt 0.125 0.4375
vt 0.125 0.5
vt 0.0625 0.5
vt 0.0625 0.4375
vt 0.125 0.4375
vt 0.1875 0.4375
vt 0.125 0.4375
vt 0.125 0.5
vt 0.1875 0.5
vn 1.2227125821862956e-16 0 1
vn -1 0 0
vn -6.113562910931478e-17 0 -1
vn 1 0 -1.2227125821862956e-16
vn 0 1 0
vn 0 -1 0
usemtl none
f 89/265/67 90/266/67 91/267/67 92/268/67
f 93/269/68 89/270/68 92/271/68 94/272/68
f 95/273/69 93/274/69 94/275/69 96/276/69
f 90/277/70 95/278/70 96/279/70 91/280/70
f 96/281/71 94/282/71 92/283/71 91/284/71
f 90/285/72 89/286/72 93/287/72 95/288/72