# Made in Blockbench 5.0.7
mtllib StFNpcDance.mtl

o Body
v 0.2 0.182635182233307 -0.09848077530122079
v -0.2 0.182635182233307 -0.09848077530122079
v -0.2 0.7735198340406318 -0.20266968190137905
v 0.2 0.7735198340406318 -0.20266968190137905
v 0.2 0.21736481776669303 0.0984807753012208
v 0.2 0.8082494695740178 -0.005708131298937391
v -0.2 0.21736481776669303 0.0984807753012208
v -0.2 0.8082494695740178 -0.005708131298937391
vt 0.3125 0.5
vt 0.4375 0.5
vt 0.4375 0.6875
vt 0.3125 0.6875
vt 0.25 0.5
vt 0.3125 0.5
vt 0.3125 0.6875
vt 0.25 0.6875
vt 0.5 0.5
vt 0.625 0.5
vt 0.625 0.6875
vt 0.5 0.6875
vt 0.4375 0.5
vt 0.5 0.5
vt 0.5 0.6875
vt 0.4375 0.6875
vt 0.4375 0.75
vt 0.3125 0.75
vt 0.3125 0.6875
vt 0.4375 0.6875
vt 0.5625 0.6875
vt 0.4375 0.6875
vt 0.4375 0.75
vt 0.5625 0.75
vn 0 -0.17364817766693044 -0.9848077530122082
vn 1 0 0
vn 0 0.17364817766693036 0.9848077530122081
vn -1 0 0
vn 0 0.9848077530122084 -0.17364817766692964
vn 0 -0.9848077530122081 0.17364817766693022
usemtl none
f 1/1/1 2/2/1 3/3/1 4/4/1
f 5/5/2 1/6/2 4/7/2 6/8/2
f 7/9/3 5/10/3 6/11/3 8/12/3
f 2/13/4 7/14/4 8/15/4 3/16/4
f 8/17/5 6/18/5 4/19/5 3/20/5
f 2/21/6 1/22/6 5/23/6 7/24/6
o Body
v 0.21250000000000002 0.16815448309981776 -0.10862026999303678
v -0.21250000000000002 0.16815448309981776 -0.10862026999303678
v -0.21250000000000002 0.7836593287324477 -0.2171503810348682
v 0.21250000000000002 0.7836593287324477 -0.2171503810348682
v 0.21250000000000002 0.20722532307487712 0.11296147443471004
v 0.21250000000000002 0.822730168707507 0.004431363392878573
v -0.21250000000000002 0.20722532307487712 0.11296147443471004
v -0.21250000000000002 0.822730168707507 0.004431363392878573
vt 0.3125 0.25
vt 0.4375 0.25
vt 0.4375 0.4375
vt 0.3125 0.4375
vt 0.25 0.25
vt 0.3125 0.25
vt 0.3125 0.4375
vt 0.25 0.4375
vt 0.5 0.25
vt 0.625 0.25
vt 0.625 0.4375
vt 0.5 0.4375
vt 0.4375 0.25
vt 0.5 0.25
vt 0.5 0.4375
vt 0.4375 0.4375
vt 0.4375 0.5
vt 0.3125 0.5
vt 0.3125 0.4375
vt 0.4375 0.4375
vt 0.5625 0.4375
vt 0.4375 0.4375
vt 0.4375 0.5
vt 0.5625 0.5
vn 0 -0.1736481776669303 -0.9848077530122082
vn 1 0 0
vn 0 0.1736481776669304 0.9848077530122082
vn -1 0 0
vn 0 0.9848077530122082 -0.17364817766693041
vn 0 -0.984807753012208 0.17364817766693047
usemtl none
f 9/25/7 10/26/7 11/27/7 12/28/7
f 13/29/8 9/30/8 12/31/8 14/32/8
f 15/33/9 13/34/9 14/35/9 16/36/9
f 10/37/10 15/38/10 16/39/10 11/40/10
f 16/41/11 14/42/11 12/43/11 11/44/11
f 10/45/12 9/46/12 13/47/12 15/48/12
o Head
v 0.25088455005050003 0.7682058125253857 -0.23280699550985284
v -0.13060223024879078 0.7473190068862677 -0.35126195660086995
v -0.13060223024879078 1.141242108091151 -0.4207212276676421
v 0.25088455005050003 1.162128913730269 -0.302266266576625
v 0.13060223024879078 0.834450296728382 0.14288414340055355
v 0.13060223024879078 1.2283733979332654 0.07342487233378144
v -0.25088455005050003 0.8135634910892642 0.02442918230953646
v -0.25088455005050003 1.2074865922941473 -0.045030088757235666
vt 0.125 0.75
vt 0.25 0.75
vt 0.25 0.875
vt 0.125 0.875
vt 0 0.75
vt 0.125 0.75
vt 0.125 0.875
vt 0 0.875
vt 0.375 0.75
vt 0.5 0.75
vt 0.5 0.875
vt 0.375 0.875
vt 0.25 0.75
vt 0.375 0.75
vt 0.375 0.875
vt 0.25 0.875
vt 0.25 1
vt 0.125 1
vt 0.125 0.875
vt 0.25 0.875
vt 0.375 0.875
vt 0.25 0.875
vt 0.25 1
vt 0.375 1
vn 0.3007057995042731 -0.16561121050749117 -0.9392278472760162
vn 0.9537169507482269 0.05221701409779434 0.29613740272754285
vn -0.3007057995042731 0.16561121050749106 0.9392278472760162
vn -0.9537169507482269 -0.05221701409779441 -0.2961374027275428
vn -8.023096076392733e-16 0.9848077530122082 -0.17364817766693028
vn 5.421010862427522e-16 -0.9848077530122081 0.17364817766693022
usemtl none
f 17/49/13 18/50/13 19/51/13 20/52/13
f 21/53/14 17/54/14 20/55/14 22/56/14
f 23/57/15 21/58/15 22/59/15 24/60/15
f 18/61/16 23/62/16 24/63/16 19/64/16
f 24/65/17 22/66/17 20/67/17 19/68/17
f 18/69/18 17/70/18 21/71/18 23/72/18
o Hat
v 0.2822451188068125 0.740750763789838 -0.24454305218189143
v -0.14692750902988966 0.7172531074458305 -0.37780488340928564
v -0.14692750902988966 1.1604165963013242 -0.45594656335940426
v 0.2822451188068125 1.1839142526453317 -0.3226847321320101
v 0.14692750902988966 0.815275808518209 0.17810947909231575
v 0.14692750902988966 1.2584392973737026 0.09996779914219711
v -0.2822451188068125 0.7917781521742014 0.04484764786492155
v -0.2822451188068125 1.2349416410296954 -0.03329403208519708
vt 0.625 0.75
vt 0.75 0.75
vt 0.75 0.875
vt 0.625 0.875
vt 0.5 0.75
vt 0.625 0.75
vt 0.625 0.875
vt 0.5 0.875
vt 0.875 0.75
vt 1 0.75
vt 1 0.875
vt 0.875 0.875
vt 0.75 0.75
vt 0.875 0.75
vt 0.875 0.875
vt 0.75 0.875
vt 0.75 1
vt 0.625 1
vt 0.625 0.875
vt 0.75 0.875
vt 0.875 0.875
vt 0.75 0.875
vt 0.75 1
vt 0.875 1
vn 0.300705799504273 -0.16561121050749103 -0.9392278472760163
vn 0.9537169507482269 0.05221701409779433 0.29613740272754263
vn -0.30070579950427306 0.16561121050749117 0.9392278472760163
vn -0.953716950748227 -0.05221701409779432 -0.29613740272754274
vn 3.854941057726238e-16 0.9848077530122081 -0.17364817766693008
vn 0 -0.984807753012208 0.17364817766693044
usemtl none
f 25/73/19 26/74/19 27/75/19 28/76/19
f 29/77/20 25/78/20 28/79/20 30/80/20
f 31/81/21 29/82/21 30/83/21 32/84/21
f 26/85/22 31/86/22 32/87/22 27/88/22
f 32/89/23 30/90/23 28/91/23 27/92/23
f 26/93/24 25/94/24 29/95/24 31/96/24
o Left
v -0.2 1.011979266441443 -0.4841546440990728
v -0.35000000000000003 1.011979266441443 -0.4841546440990728
v -0.35000000000000003 0.7349300985004228 0.048051855807860415
v -0.2 0.7349300985004228 0.048051855807860415
v -0.2 0.8345770998057986 -0.5765043667460795
v -0.2 0.5575279318647784 -0.04429786683914633
v -0.35000000000000003 0.8345770998057986 -0.5765043667460795
v -0.35000000000000003 0.5575279318647784 -0.04429786683914633
vt 0.5625 0
vt 0.609375 0
vt 0.609375 0.1875
vt 0.5625 0.1875
vt 0.5 0
vt 0.5625 0
vt 0.5625 0.1875
vt 0.5 0.1875
vt 0.671875 0
vt 0.71875 0
vt 0.71875 0.1875
vt 0.671875 0.1875
vt 0.609375 0
vt 0.671875 0
vt 0.671875 0.1875
vt 0.609375 0.1875
vt 0.609375 0.25
vt 0.5625 0.25
vt 0.5625 0.1875
vt 0.609375 0.1875
vt 0.65625 0.1875
vt 0.609375 0.1875
vt 0.609375 0.25
vt 0.65625 0.25
vn 0 0.8870108331782218 0.4617486132350338
vn 1 0 0
vn 0 -0.8870108331782219 -0.46174861323503363
vn -1 0 0
vn 0 -0.4617486132350338 0.8870108331782218
vn 0 0.4617486132350336 -0.8870108331782219
usemtl none
f 33/97/25 34/98/25 35/99/25 36/100/25
f 37/101/26 33/102/26 36/103/26 38/104/26
f 39/105/27 37/106/27 38/107/27 40/108/27
f 34/109/28 39/110/28 40/111/28 35/112/28
f 40/113/29 38/114/29 36/115/29 35/116/29
f 34/117/30 33/118/30 37/119/30 39/120/30
o Left
v -0.18700000000000003 1.0295131392448151 -0.4896830529583343
v -0.363 1.0295131392448151 -0.4896830529583343
v -0.363 0.7404585073596843 0.0655857286112326
v -0.18700000000000003 0.7404585073596843 0.0655857286112326
v -0.18700000000000003 0.8290486909465371 -0.594038239549452
v -0.18700000000000003 0.5399940590614061 -0.03876945797988505
v -0.363 0.8290486909465371 -0.594038239549452
v -0.363 0.5399940590614061 -0.03876945797988505
vt 0.796875 0
vt 0.84375 0
vt 0.84375 0.1875
vt 0.796875 0.1875
vt 0.734375 0
vt 0.796875 0
vt 0.796875 0.1875
vt 0.734375 0.1875
vt 0.90625 0
vt 0.953125 0
vt 0.953125 0.1875
vt 0.90625 0.1875
vt 0.84375 0
vt 0.90625 0
vt 0.90625 0.1875
vt 0.84375 0.1875
vt 0.84375 0.25
vt 0.796875 0.25
vt 0.796875 0.1875
vt 0.84375 0.1875
vt 0.890625 0.1875
vt 0.84375 0.1875
vt 0.84375 0.25
vt 0.890625 0.25
vn 0 0.887010833178222 0.4617486132350333
vn 1 0 0
vn 0 -0.8870108331782219 -0.4617486132350336
vn -1 0 0
vn 0 -0.4617486132350336 0.8870108331782219
vn 0 0.46174861323503424 -0.8870108331782216
usemtl none
f 41/121/31 42/122/31 43/123/31 44/124/31
f 45/125/32 41/126/32 44/127/32 46/128/32
f 47/129/33 45/130/33 46/131/33 48/132/33
f 42/133/34 47/134/34 48/135/34 43/136/34
f 48/137/35 46/138/35 44/139/35 43/140/35
f 42/141/36 41/142/36 45/143/36 47/144/36
o Right
v 0.35000000000000003 0.4283365063792863 -0.5230217780000931
v 0.2 0.4283365063792863 -0.5230217780000931
v 0.2 0.8336906309486825 -0.08065537591401879
v 0.35000000000000003 0.8336906309486825 -0.08065537591401879
v 0.35000000000000003 0.2808810390172615 -0.3879037364769611
v 0.35000000000000003 0.6862351635866576 0.054462665609113226
v 0.2 0.2808810390172615 -0.3879037364769611
v 0.2 0.6862351635866576 0.054462665609113226
vt 0.6875 0.5
vt 0.734375 0.5
vt 0.734375 0.6875
vt 0.6875 0.6875
vt 0.625 0.5
vt 0.6875 0.5
vt 0.6875 0.6875
vt 0.625 0.6875
vt 0.796875 0.5
vt 0.84375 0.5
vt 0.84375 0.6875
vt 0.796875 0.6875
vt 0.734375 0.5
vt 0.796875 0.5
vt 0.796875 0.6875
vt 0.734375 0.6875
vt 0.734375 0.75
vt 0.6875 0.75
vt 0.6875 0.6875
vt 0.734375 0.6875
vt 0.78125 0.6875
vt 0.734375 0.6875
vt 0.734375 0.75
vt 0.78125 0.75
vn 0 0.737277336810124 -0.6755902076156604
vn 1 0 0
vn 0 -0.7372773368101241 0.6755902076156604
vn -1 0 0
vn 0 0.67559020761566 0.7372773368101244
vn 0 -0.6755902076156602 -0.7372773368101241
usemtl none
f 49/145/37 50/146/37 51/147/37 52/148/37
f 53/149/38 49/150/38 52/151/38 54/152/38
f 55/153/39 53/154/39 54/155/39 56/156/39
f 50/157/40 55/158/40 56/159/40 51/160/40
f 56/161/41 54/162/41 52/163/41 51/164/41
f 50/165/42 49/166/42 53/167/42 55/168/42
o Right
v 0.363 0.4291384390588143 -0.5413890560776283
v 0.18700000000000003 0.4291384390588143 -0.5413890560776283
v 0.18700000000000003 0.8520579090262175 -0.07985344323449084
v 0.363 0.8520579090262175 -0.07985344323449084
v 0.363 0.26251376093972634 -0.38870566915648913
v 0.363 0.6854332309071296 0.07282994368664823
v 0.18700000000000003 0.26251376093972634 -0.38870566915648913
v 0.18700000000000003 0.6854332309071296 0.07282994368664823
vt 0.6875 0.25
vt 0.734375 0.25
vt 0.734375 0.4375
vt 0.6875 0.4375
vt 0.625 0.25
vt 0.6875 0.25
vt 0.6875 0.4375
vt 0.625 0.4375
vt 0.796875 0.25
vt 0.84375 0.25
vt 0.84375 0.4375
vt 0.796875 0.4375
vt 0.734375 0.25
vt 0.796875 0.25
vt 0.796875 0.4375
vt 0.734375 0.4375
vt 0.734375 0.5
vt 0.6875 0.5
vt 0.6875 0.4375
vt 0.734375 0.4375
vt 0.78125 0.4375
vt 0.734375 0.4375
vt 0.734375 0.5
vt 0.78125 0.5
vn 0 0.7372773368101241 -0.6755902076156601
vn 1 0 0
vn 0 -0.7372773368101239 0.6755902076156606
vn -1 0 0
vn 0 0.6755902076156604 0.7372773368101241
vn 0 -0.6755902076156604 -0.7372773368101241
usemtl none
f 57/169/43 58/170/43 59/171/43 60/172/43
f 61/173/44 57/174/44 60/175/44 62/176/44
f 63/177/45 61/178/45 62/179/45 64/180/45
f 58/181/46 63/182/46 64/183/46 59/184/46
f 64/185/47 62/186/47 60/187/47 59/188/47
f 58/189/48 57/190/48 61/191/48 63/192/48
o Left
v 0.0050000000000000044 -0.3890012445802815 -0.15191291545776942
v -0.195 -0.3890012445802815 -0.15191291545776942
v -0.195 0.20871557427476584 -0.09961946980917455
v 0.0050000000000000044 0.20871557427476584 -0.09961946980917455
v 0.0050000000000000044 -0.4064323931298131 0.04732602416057966
v 0.0050000000000000044 0.1912844257252342 0.09961946980917454
v -0.195 -0.4064323931298131 0.04732602416057966
v -0.195 0.1912844257252342 0.09961946980917454
vt 0.3125 0
vt 0.375 0
vt 0.375 0.1875
vt 0.3125 0.1875
vt 0.25 0
vt 0.3125 0
vt 0.3125 0.1875
vt 0.25 0.1875
vt 0.4375 0
vt 0.5 0
vt 0.5 0.1875
vt 0.4375 0.1875
vt 0.375 0
vt 0.4375 0
vt 0.4375 0.1875
vt 0.375 0.1875
vt 0.375 0.25
vt 0.3125 0.25
vt 0.3125 0.1875
vt 0.375 0.1875
vt 0.4375 0.1875
vt 0.375 0.1875
vt 0.375 0.25
vt 0.4375 0.25
vn 0 0.08715574274765811 -0.9961946980917455
vn 1 0 0
vn 0 -0.08715574274765814 0.9961946980917455
vn -1 0 0
vn 0 0.9961946980917455 0.08715574274765825
vn 0 -0.9961946980917455 -0.08715574274765799
usemtl none
f 65/193/49 66/194/49 67/195/49 68/196/49
f 69/197/50 65/198/50 68/199/50 70/200/50
f 71/201/51 69/202/51 70/203/51 72/204/51
f 66/205/52 71/206/52 72/207/52 67/208/52
f 72/209/53 70/210/53 68/211/53 67/212/53
f 66/213/54 65/214/54 69/215/54 71/216/54
o Left
v 0.017999999999999995 -0.4008187509997546 -0.16599647118868166
v -0.20800000000000002 -0.4008187509997546 -0.16599647118868166
v -0.20800000000000002 0.22279913000567797 -0.11143697622864766
v 0.017999999999999995 0.22279913000567797 -0.11143697622864766
v 0.017999999999999995 -0.42051594886072535 0.059143530580052776
v 0.017999999999999995 0.20310193214470731 0.11370302554008678
v -0.20800000000000002 -0.42051594886072535 0.059143530580052776
v -0.20800000000000002 0.20310193214470731 0.11370302554008678
vt 0.0625 0
vt 0.125 0
vt 0.125 0.1875
vt 0.0625 0.1875
vt 0 0
vt 0.0625 0
vt 0.0625 0.1875
vt 0 0.1875
vt 0.1875 0
vt 0.25 0
vt 0.25 0.1875
vt 0.1875 0.1875
vt 0.125 0
vt 0.1875 0
vt 0.1875 0.1875
vt 0.125 0.1875
vt 0.125 0.25
vt 0.0625 0.25
vt 0.0625 0.1875
vt 0.125 0.1875
vt 0.1875 0.1875
vt 0.125 0.1875
vt 0.125 0.25
vt 0.1875 0.25
vn 0 0.08715574274765817 -0.9961946980917455
vn 1 0 0
vn 0 -0.08715574274765817 0.9961946980917455
vn -1 0 0
vn 0 0.9961946980917455 0.08715574274765779
vn 0 -0.9961946980917455 -0.08715574274765815
usemtl none
f 73/217/55 74/218/55 75/219/55 76/220/55
f 77/221/56 73/222/56 76/223/56 78/224/56
f 79/225/57 77/226/57 78/227/57 80/228/57
f 74/229/58 79/230/58 80/231/58 75/232/58
f 80/233/59 78/234/59 76/235/59 75/236/59
f 74/237/60 73/238/60 77/239/60 79/240/60
o Right
v 0.195 -0.4082494695740179 0.005708131298937393
v -0.0050000000000000044 -0.4082494695740179 0.005708131298937393
v -0.0050000000000000044 0.18263518223330696 -0.0984807753012208
v 0.195 0.18263518223330696 -0.0984807753012208
v 0.195 -0.3735198340406318 0.20266968190137902
v 0.195 0.21736481776669303 0.0984807753012208
v -0.0050000000000000044 -0.3735198340406318 0.20266968190137902
v -0.0050000000000000044 0.21736481776669303 0.0984807753012208
vt 0.0625 0.5
vt 0.125 0.5
vt 0.125 0.6875
vt 0.0625 0.6875
vt 0 0.5
vt 0.0625 0.5
vt 0.0625 0.6875
vt 0 0.6875
vt 0.1875 0.5
vt 0.25 0.5
vt 0.25 0.6875
vt 0.1875 0.6875
vt 0.125 0.5
vt 0.1875 0.5
vt 0.1875 0.6875
vt 0.125 0.6875
vt 0.125 0.75
vt 0.0625 0.75
vt 0.0625 0.6875
vt 0.125 0.6875
vt 0.1875 0.6875
vt 0.125 0.6875
vt 0.125 0.75
vt 0.1875 0.75
vn 0 -0.17364817766693033 -0.9848077530122081
vn 1 0 0
vn 0 0.17364817766693036 0.9848077530122081
vn -1 0 0
vn 0 0.9848077530122082 -0.17364817766693033
vn 0 -0.984807753012208 0.17364817766693044
usemtl none
f 81/241/61 82/242/61 83/243/61 84/244/61
f 85/245/62 81/246/62 84/247/62 86/248/62
f 87/249/63 85/250/63 86/251/63 88/252/63
f 82/253/64 87/254/64 88/255/64 83/256/64
f 88/257/65 86/258/65 84/259/65 83/260/65
f 82/261/66 81/262/66 85/263/66 87/264/66
o Right
v 0.20850000000000002 -0.42388862463818616 -0.005242522968223873
v -0.018500000000000006 -0.42388862463818616 -0.005242522968223873
v -0.018500000000000006 0.19358583650046823 -0.1141199303653892
v 0.20850000000000002 0.19358583650046823 -0.1141199303653892
v 0.20850000000000002 -0.384470488307793 0.2183088369655474
v 0.20850000000000002 0.23300397283086147 0.10943142956838209
v -0.018500000000000006 -0.384470488307793 0.2183088369655474
v -0.018500000000000006 0.23300397283086147 0.10943142956838209
vt 0.0625 0.25
vt 0.125 0.25
vt 0.125 0.4375
vt 0.0625 0.4375
vt 0 0.25
vt 0.0625 0.25
vt 0.0625 0.4375
vt 0 0.4375
vt 0.1875 0.25
vt 0.25 0.25
vt 0.25 0.4375
vt 0.1875 0.4375
vt 0.125 0.25
vt 0.1875 0.25
vt 0.1875 0.4375
vt 0.125 0.4375
vt 0.125 0.5
vt 0.0625 0.5
vt 0.0625 0.4375
vt 0.125 0.4375
vt 0.1875 0.4375
vt 0.125 0.4375
vt 0.125 0.5
vt 0.1875 0.5
vn 0 -0.17364817766693036 -0.9848077530122081
vn 1 0 0
vn 0 0.17364817766693033 0.9848077530122081
vn -1 0 0
vn 0 0.984807753012208 -0.1736481776669305
vn 0 -0.9848077530122081 0.17364817766693016
usemtl none
f 89/265/67 90/266/67 91/267/67 92/268/67
f 93/269/68 89/270/68 92/271/68 94/272/68
f 95/273/69 93/274/69 94/275/69 96/276/69
f 90/277/70 95/278/70 96/279/70 91/280/70
f 96/281/71 94/282/71 92/283/71 91/284/71
f 90/285/72 89/286/72 93/287/72 95/288/72