# Made in Blockbench 5.0.7
mtllib StFNpcWaving.mtl

o Body
v 0.2 0.2 -0.1
v -0.2 0.2 -0.1
v -0.2 0.8 -0.1
v 0.2 0.8 -0.1
v 0.2 0.2 0.1
v 0.2 0.8 0.1
v -0.2 0.2 0.1
v -0.2 0.8 0.1
vt 0.3125 0.5
vt 0.4375 0.5
vt 0.4375 0.6875
vt 0.3125 0.6875
vt 0.25 0.5
vt 0.3125 0.5
vt 0.3125 0.6875
vt 0.25 0.6875
vt 0.5 0.5
vt 0.625 0.5
vt 0.625 0.6875
vt 0.5 0.6875
vt 0.4375 0.5
vt 0.5 0.5
vt 0.5 0.6875
vt 0.4375 0.6875
vt 0.4375 0.75
vt 0.3125 0.75
vt 0.3125 0.6875
vt 0.4375 0.6875
vt 0.5625 0.6875
vt 0.4375 0.6875
vt 0.4375 0.75
vt 0.5625 0.75
vn 0 0 -1
vn 1 0 0
vn 0 0 1
vn -1 0 0
vn 0 1 0
vn 0 -1 0
usemtl none
f 1/1/1 2/2/1 3/3/1 4/4/1
f 5/5/2 1/6/2 4/7/2 6/8/2
f 7/9/3 5/10/3 6/11/3 8/12/3
f 2/13/4 7/14/4 8/15/4 3/16/4
f 8/17/5 6/18/5 4/19/5 3/20/5
f 2/21/6 1/22/6 5/23/6 7/24/6
o Body
v 0.21250000000000002 0.1875 -0.1125
v -0.21250000000000002 0.1875 -0.1125
v -0.21250000000000002 0.8125 -0.1125
v 0.21250000000000002 0.8125 -0.1125
v 0.21250000000000002 0.1875 0.1125
v 0.21250000000000002 0.8125 0.1125
v -0.21250000000000002 0.1875 0.1125
v -0.21250000000000002 0.8125 0.1125
vt 0.3125 0.25
vt 0.4375 0.25
vt 0.4375 0.4375
vt 0.3125 0.4375
vt 0.25 0.25
vt 0.3125 0.25
vt 0.3125 0.4375
vt 0.25 0.4375
vt 0.5 0.25
vt 0.625 0.25
vt 0.625 0.4375
vt 0.5 0.4375
vt 0.4375 0.25
vt 0.5 0.25
vt 0.5 0.4375
vt 0.4375 0.4375
vt 0.4375 0.5
vt 0.3125 0.5
vt 0.3125 0.4375
vt 0.4375 0.4375
vt 0.5625 0.4375
vt 0.4375 0.4375
vt 0.4375 0.5
vt 0.5625 0.5
vn 0 0 -1
vn 1 0 0
vn 0 0 1
vn -1 0 0
vn 0 1 0
vn 0 -1 0
usemtl none
f 9/25/7 10/26/7 11/27/7 12/28/7
f 13/29/8 9/30/8 12/31/8 14/32/8
f 15/33/9 13/34/9 14/35/9 16/36/9
f 10/37/10 15/38/10 16/39/10 11/40/10
f 16/41/11 14/42/11 12/43/11 11/44/11
f 10/45/12 9/46/12 13/47/12 15/48/12
o Head
v 0.2 0.8 -0.2
v -0.2 0.8 -0.2
v -0.2 1.2000000000000002 -0.2
v 0.2 1.2000000000000002 -0.2
v 0.2 0.8 0.2
v 0.2 1.2000000000000002 0.2
v -0.2 0.8 0.2
v -0.2 1.2000000000000002 0.2
vt 0.125 0.75
vt 0.25 0.75
vt 0.25 0.875
vt 0.125 0.875
vt 0 0.75
vt 0.125 0.75
vt 0.125 0.875
vt 0 0.875
vt 0.375 0.75
vt 0.5 0.75
vt 0.5 0.875
vt 0.375 0.875
vt 0.25 0.75
vt 0.375 0.75
vt 0.375 0.875
vt 0.25 0.875
vt 0.25 1
vt 0.125 1
vt 0.125 0.875
vt 0.25 0.875
vt 0.375 0.875
vt 0.25 0.875
vt 0.25 1
vt 0.375 1
vn 0 0 -1
vn 1 0 0
vn 0 0 1
vn -1 0 0
vn 0 1 0
vn 0 -1 0
usemtl none
f 17/49/13 18/50/13 19/51/13 20/52/13
f 21/53/14 17/54/14 20/55/14 22/56/14
f 23/57/15 21/58/15 22/59/15 24/60/15
f 18/61/16 23/62/16 24/63/16 19/64/16
f 24/65/17 22/66/17 20/67/17 19/68/17
f 18/69/18 17/70/18 21/71/18 23/72/18
o Hat
v 0.225 0.775 -0.225
v -0.225 0.775 -0.225
v -0.225 1.225 -0.225
v 0.225 1.225 -0.225
v 0.225 0.775 0.225
v 0.225 1.225 0.225
v -0.225 0.775 0.225
v -0.225 1.225 0.225
vt 0.625 0.75
vt 0.75 0.75
vt 0.75 0.875
vt 0.625 0.875
vt 0.5 0.75
vt 0.625 0.75
vt 0.625 0.875
vt 0.5 0.875
vt 0.875 0.75
vt 1 0.75
vt 1 0.875
vt 0.875 0.875
vt 0.75 0.75
vt 0.875 0.75
vt 0.875 0.875
vt 0.75 0.875
vt 0.75 1
vt 0.625 1
vt 0.625 0.875
vt 0.75 0.875
vt 0.875 0.875
vt 0.75 0.875
vt 0.75 1
vt 0.875 1
vn 0 0 -1
vn 1 0 0
vn 0 0 1
vn -1 0 0
vn 0 1 0
vn 0 -1 0
usemtl none
f 25/73/19 26/74/19 27/75/19 28/76/19
f 29/77/20 25/78/20 28/79/20 30/80/20
f 31/81/21 29/82/21 30/83/21 32/84/21
f 26/85/22 31/86/22 32/87/22 27/88/22
f 32/89/23 30/90/23 28/91/23 27/92/23
f 26/93/24 25/94/24 29/95/24 31/96/24
o Left
v -0.2 0.2 -0.1
v -0.35000000000000003 0.2 -0.1
v -0.35000000000000003 0.8 -0.1
v -0.2 0.8 -0.1
v -0.2 0.2 0.1
v -0.2 0.8 0.1
v -0.35000000000000003 0.2 0.1
v -0.35000000000000003 0.8 0.1
vt 0.5625 0
vt 0.609375 0
vt 0.609375 0.1875
vt 0.5625 0.1875
vt 0.5 0
vt 0.5625 0
vt 0.5625 0.1875
vt 0.5 0.1875
vt 0.671875 0
vt 0.71875 0
vt 0.71875 0.1875
vt 0.671875 0.1875
vt 0.609375 0
vt 0.671875 0
vt 0.671875 0.1875
vt 0.609375 0.1875
vt 0.609375 0.25
vt 0.5625 0.25
vt 0.5625 0.1875
vt 0.609375 0.1875
vt 0.65625 0.1875
vt 0.609375 0.1875
vt 0.609375 0.25
vt 0.65625 0.25
vn 0 0 -1
vn 1 0 0
vn 0 0 1
vn -1 0 0
vn 0 1 0
vn 0 -1 0
usemtl none
f 33/97/25 34/98/25 35/99/25 36/100/25
f 37/101/26 33/102/26 36/103/26 38/104/26
f 39/105/27 37/106/27 38/107/27 40/108/27
f 34/109/28 39/110/28 40/111/28 35/112/28
f 40/113/29 38/114/29 36/115/29 35/116/29
f 34/117/30 33/118/30 37/119/30 39/120/30
o Left
v -0.18700000000000003 0.18700000000000003 -0.11299999999999999
v -0.363 0.18700000000000003 -0.11299999999999999
v -0.363 0.813 -0.11299999999999999
v -0.18700000000000003 0.813 -0.11299999999999999
v -0.18700000000000003 0.18700000000000003 0.11299999999999999
v -0.18700000000000003 0.813 0.11299999999999999
v -0.363 0.18700000000000003 0.11299999999999999
v -0.363 0.813 0.11299999999999999
vt 0.796875 0
vt 0.84375 0
vt 0.84375 0.1875
vt 0.796875 0.1875
vt 0.734375 0
vt 0.796875 0
vt 0.796875 0.1875
vt 0.734375 0.1875
vt 0.90625 0
vt 0.953125 0
vt 0.953125 0.1875
vt 0.90625 0.1875
vt 0.84375 0
vt 0.90625 0
vt 0.90625 0.1875
vt 0.84375 0.1875
vt 0.84375 0.25
vt 0.796875 0.25
vt 0.796875 0.1875
vt 0.84375 0.1875
vt 0.890625 0.1875
vt 0.84375 0.1875
vt 0.84375 0.25
vt 0.890625 0.25
vn 0 0 -1
vn 1 0 0
vn 0 0 1
vn -1 0 0
vn 0 1 0
vn 0 -1 0
usemtl none
f 41/121/31 42/122/31 43/123/31 44/124/31
f 45/125/32 41/126/32 44/127/32 46/128/32
f 47/129/33 45/130/33 46/131/33 48/132/33
f 42/133/34 47/134/34 48/135/34 43/136/34
f 48/137/35 46/138/35 44/139/35 43/140/35
f 42/141/36 41/142/36 45/143/36 47/144/36
o Right
v 0.359647095651481 1.207664639117522 0.01594141163357937
v 0.3172614425282014 1.1917627516706093 -0.12706413505933298
v 0.11204935653267811 0.6413118595143764 -0.005032110222515812
v 0.15443500965595772 0.6572137469612893 0.13797343647039656
v 0.538887251838764 1.1309560310720834 -0.028654057437724863
v 0.3336751658432407 0.5805051389158503 0.09337796739909232
v 0.4965015987154844 1.1150541436251704 -0.1716596041306372
v 0.29128951271996106 0.5646032514689374 -0.04962757929382004
vt 0.6875 0.5
vt 0.734375 0.5
vt 0.734375 0.6875
vt 0.6875 0.6875
vt 0.625 0.5
vt 0.6875 0.5
vt 0.6875 0.6875
vt 0.625 0.6875
vt 0.796875 0.5
vt 0.84375 0.5
vt 0.84375 0.6875
vt 0.796875 0.6875
vt 0.734375 0.5
vt 0.796875 0.5
vt 0.796875 0.6875
vt 0.734375 0.6875
vt 0.734375 0.75
vt 0.6875 0.75
vt 0.6875 0.6875
vt 0.734375 0.6875
vt 0.78125 0.6875
vt 0.734375 0.6875
vt 0.734375 0.75
vt 0.78125 0.75
vn -0.8962007809364149 0.3835430402271946 0.22297734535652097
vn 0.2825710208218646 0.10601258297941936 0.9533703112860823
vn 0.896200780936415 -0.3835430402271943 -0.22297734535652017
vn -0.28257102082186447 -0.10601258297941928 -0.9533703112860823
vn -0.3420201433258723 -0.917418153593721 0.20338670806136175
vn 0.34202014332587116 0.9174181535937218 -0.2033867080613609
usemtl none
f 49/145/37 50/146/37 51/147/37 52/148/37
f 53/149/38 49/150/38 52/151/38 54/152/38
f 55/153/39 53/154/39 54/155/39 56/156/39
f 50/157/40 55/158/40 56/159/40 51/160/40
f 56/161/41 54/162/41 52/163/41 51/164/41
f 50/165/42 49/166/42 53/167/42 55/168/42
o Right
v 0.3561161706332281 1.2259552982159265 0.02858990396513557
v 0.30638367096858005 1.2072970836115486 -0.13920327082121497
v 0.09227906124658417 0.6329933194618788 -0.011883191574802332
v 0.14201156091123224 0.6516515340662568 0.15590998321154814
v 0.5586575471248579 1.1392745711245806 -0.021802976085438266
v 0.344552937402862 0.5649708069749109 0.10551710316097429
v 0.5089250474602098 1.1206163565202025 -0.18959615087178872
v 0.2948204377382139 0.5463125923705329 -0.06227607162537612
vt 0.6875 0.25
vt 0.734375 0.25
vt 0.734375 0.4375
vt 0.6875 0.4375
vt 0.625 0.25
vt 0.6875 0.25
vt 0.6875 0.4375
vt 0.625 0.4375
vt 0.796875 0.25
vt 0.84375 0.25
vt 0.84375 0.4375
vt 0.796875 0.4375
vt 0.734375 0.25
vt 0.796875 0.25
vt 0.796875 0.4375
vt 0.734375 0.4375
vt 0.734375 0.5
vt 0.6875 0.5
vt 0.6875 0.4375
vt 0.734375 0.4375
vt 0.78125 0.4375
vt 0.734375 0.4375
vt 0.734375 0.5
vt 0.78125 0.5
vn -0.8962007809364149 0.38354304022719427 0.2229773453565202
vn 0.28257102082186475 0.10601258297941925 0.9533703112860821
vn 0.896200780936415 -0.3835430402271944 -0.2229773453565201
vn -0.2825710208218645 -0.10601258297941937 -0.9533703112860823
vn -0.3420201433258712 -0.9174181535937213 0.20338670806136266
vn 0.34202014332587133 0.9174181535937213 -0.2033867080613619
usemtl none
f 57/169/43 58/170/43 59/171/43 60/172/43
f 61/173/44 57/174/44 60/175/44 62/176/44
f 63/177/45 61/178/45 62/179/45 64/180/45
f 58/181/46 63/182/46 64/183/46 59/184/46
f 64/185/47 62/186/47 60/187/47 59/188/47
f 58/189/48 57/190/48 61/191/48 63/192/48
o Left
v 0.0050000000000000044 -0.4 -0.1
v -0.195 -0.4 -0.1
v -0.195 0.2 -0.1
v 0.0050000000000000044 0.2 -0.1
v 0.0050000000000000044 -0.4 0.1
v 0.0050000000000000044 0.2 0.1
v -0.195 -0.4 0.1
v -0.195 0.2 0.1
vt 0.3125 0
vt 0.375 0
vt 0.375 0.1875
vt 0.3125 0.1875
vt 0.25 0
vt 0.3125 0
vt 0.3125 0.1875
vt 0.25 0.1875
vt 0.4375 0
vt 0.5 0
vt 0.5 0.1875
vt 0.4375 0.1875
vt 0.375 0
vt 0.4375 0
vt 0.4375 0.1875
vt 0.375 0.1875
vt 0.375 0.25
vt 0.3125 0.25
vt 0.3125 0.1875
vt 0.375 0.1875
vt 0.4375 0.1875
vt 0.375 0.1875
vt 0.375 0.25
vt 0.4375 0.25
vn 0 0 -1
vn 1 0 0
vn 0 0 1
vn -1 0 0
vn 0 1 0
vn 0 -1 0
usemtl none
f 65/193/49 66/194/49 67/195/49 68/196/49
f 69/197/50 65/198/50 68/199/50 70/200/50
f 71/201/51 69/202/51 70/203/51 72/204/51
f 66/205/52 71/206/52 72/207/52 67/208/52
f 72/209/53 70/210/53 68/211/53 67/212/53
f 66/213/54 65/214/54 69/215/54 71/216/54
o Left
v 0.017999999999999995 -0.41300000000000003 -0.11299999999999999
v -0.20800000000000002 -0.41300000000000003 -0.11299999999999999
v -0.20800000000000002 0.213 -0.11299999999999999
v 0.017999999999999995 0.213 -0.11299999999999999
v 0.017999999999999995 -0.41300000000000003 0.11299999999999999
v 0.017999999999999995 0.213 0.11299999999999999
v -0.20800000000000002 -0.41300000000000003 0.11299999999999999
v -0.20800000000000002 0.213 0.11299999999999999
vt 0.0625 0
vt 0.125 0
vt 0.125 0.1875
vt 0.0625 0.1875
vt 0 0
vt 0.0625 0
vt 0.0625 0.1875
vt 0 0.1875
vt 0.1875 0
vt 0.25 0
vt 0.25 0.1875
vt 0.1875 0.1875
vt 0.125 0
vt 0.1875 0
vt 0.1875 0.1875
vt 0.125 0.1875
vt 0.125 0.25
vt 0.0625 0.25
vt 0.0625 0.1875
vt 0.125 0.1875
vt 0.1875 0.1875
vt 0.125 0.1875
vt 0.125 0.25
vt 0.1875 0.25
vn 0 0 -1
vn 1 0 0
vn 0 0 1
vn -1 0 0
vn 0 1 0
vn 0 -1 0
usemtl none
f 73/217/55 74/218/55 75/219/55 76/220/55
f 77/221/56 73/222/56 76/223/56 78/224/56
f 79/225/57 77/226/57 78/227/57 80/228/57
f 74/229/58 79/230/58 80/231/58 75/232/58
f 80/233/59 78/234/59 76/235/59 75/236/59
f 74/237/60 73/238/60 77/239/60 79/240/60
o Right
v 0.195 -0.4 -0.1
v -0.0050000000000000044 -0.4 -0.1
v -0.0050000000000000044 0.2 -0.1
v 0.195 0.2 -0.1
v 0.195 -0.4 0.1
v 0.195 0.2 0.1
v -0.0050000000000000044 -0.4 0.1
v -0.0050000000000000044 0.2 0.1
vt 0.0625 0.5
vt 0.125 0.5
vt 0.125 0.6875
vt 0.0625 0.6875
vt 0 0.5
vt 0.0625 0.5
vt 0.0625 0.6875
vt 0 0.6875
vt 0.1875 0.5
vt 0.25 0.5
vt 0.25 0.6875
vt 0.1875 0.6875
vt 0.125 0.5
vt 0.1875 0.5
vt 0.1875 0.6875
vt 0.125 0.6875
vt 0.125 0.75
vt 0.0625 0.75
vt 0.0625 0.6875
vt 0.125 0.6875
vt 0.1875 0.6875
vt 0.125 0.6875
vt 0.125 0.75
vt 0.1875 0.75
vn 0 0 -1
vn 1 0 0
vn 0 0 1
vn -1 0 0
vn 0 1 0
vn 0 -1 0
usemtl none
f 81/241/61 82/242/61 83/243/61 84/244/61
f 85/245/62 81/246/62 84/247/62 86/248/62
f 87/249/63 85/250/63 86/251/63 88/252/63
f 82/253/64 87/254/64 88/255/64 83/256/64
f 88/257/65 86/258/65 84/259/65 83/260/65
f 82/261/66 81/262/66 85/263/66 87/264/66
o Right
v 0.20850000000000002 -0.4135 -0.1135
v -0.018500000000000006 -0.4135 -0.1135
v -0.018500000000000006 0.2135 -0.1135
v 0.20850000000000002 0.2135 -0.1135
v 0.20850000000000002 -0.4135 0.1135
v 0.20850000000000002 0.2135 0.1135
v -0.018500000000000006 -0.4135 0.1135
v -0.018500000000000006 0.2135 0.1135
vt 0.0625 0.25
vt 0.125 0.25
vt 0.125 0.4375
vt 0.0625 0.4375
vt 0 0.25
vt 0.0625 0.25
vt 0.0625 0.4375
vt 0 0.4375
vt 0.1875 0.25
vt 0.25 0.25
vt 0.25 0.4375
vt 0.1875 0.4375
vt 0.125 0.25
vt 0.1875 0.25
vt 0.1875 0.4375
vt 0.125 0.4375
vt 0.125 0.5
vt 0.0625 0.5
vt 0.0625 0.4375
vt 0.125 0.4375
vt 0.1875 0.4375
vt 0.125 0.4375
vt 0.125 0.5
vt 0.1875 0.5
vn 0 0 -1
vn 1 0 0
vn 0 0 1
vn -1 0 0
vn 0 1 0
vn 0 -1 0
usemtl none
f 89/265/67 90/266/67 91/267/67 92/268/67
f 93/269/68 89/270/68 92/271/68 94/272/68
f 95/273/69 93/274/69 94/275/69 96/276/69
f 90/277/70 95/278/70 96/279/70 91/280/70
f 96/281/71 94/282/71 92/283/71 91/284/71
f 90/285/72 89/286/72 93/287/72 95/288/72