# Made in Blockbench 5.0.7
mtllib tanque_externo.mtl

o tanque
v 0.937499932206465 0.4374999403953552 0.46875008122803546
v 0.9375000136639204 0.4374999403953552 -0.468749918771961
v 0.937499932206465 0.3124999403953552 0.46875008122803546
v 0.9375000136639204 0.3124999403953552 -0.468749918771961
v -0.9999999863360722 0.4374999403953552 -0.46875008711736904
v -1.0000000677935277 0.4374999403953552 0.4687499128826274
v -0.9999999863360722 0.3124999403953552 -0.46875008711736904
v -1.0000000677935277 0.3124999403953552 0.4687499128826274
vt 0.1171875 0.8828125
vt 0.359375 0.8828125
vt 0.359375 0.8984375
vt 0.1171875 0.8984375
vt 0.1171875 0.8828125
vt 0.234375 0.8828125
vt 0.234375 0.8984375
vt 0.1171875 0.8984375
vt 0.359375 0.8828125
vt 0.6015625 0.8828125
vt 0.6015625 0.8984375
vt 0.359375 0.8984375
vt 0.359375 0.8828125
vt 0.4765625 0.8828125
vt 0.4765625 0.8984375
vt 0.359375 0.8984375
vt 0.359375 1
vt 0.1171875 1
vt 0.1171875 0.8828125
vt 0.359375 0.8828125
vt 0.6015625 0.8828125
vt 0.359375 0.8828125
vt 0.359375 1
vt 0.6015625 1
vn 8.688795256531763e-8 -1.0127553081282584e-26 -0.9999999999999962
vn 0.9999999999999962 -1.165587723300213e-19 8.688795256531763e-8
vn -8.688795256531763e-8 1.0127553081282584e-26 0.9999999999999962
vn -0.9999999999999962 1.165587723300213e-19 -8.688795256531763e-8
vn 1.1655877233002175e-19 1 2.8698592549372254e-42
vn -1.1655877233002175e-19 -1 -2.8698592549372254e-42
usemtl m_b29caa3c-f14b-1488-937f-31c5bb589b85
f 4/4/1 7/3/1 5/2/1 2/1/1
f 3/8/2 4/7/2 2/6/2 1/5/2
f 8/12/3 3/11/3 1/10/3 6/9/3
f 7/16/4 8/15/4 6/14/4 5/13/4
f 6/20/5 1/19/5 2/18/5 5/17/5
f 7/24/6 4/23/6 3/22/6 8/21/6
o sabao
v -0.4521876008788608 0.9140624403953552 0.22313107947259048
v -0.4043521555324327 0.9140624403953552 0.10764614466069003
v -0.4521876008788608 0.4140624403953552 0.22313107947259048
v -0.4043521555324327 0.4140624403953552 0.10764614466069003
v -0.750806959968134 0.9140624403953552 -0.03586019137859424
v -0.7986424053145621 0.9140624403953552 0.0796247434333062
v -0.750806959968134 0.4140624403953552 -0.03586019137859424
v -0.7986424053145621 0.4140624403953552 0.0796247434333062
vt 0.3125 0.7578125
vt 0.359375 0.7578125
vt 0.359375 0.6953125
vt 0.3125 0.6953125
vt 0.296875 0.7578125
vt 0.3125 0.7578125
vt 0.3125 0.6953125
vt 0.296875 0.6953125
vt 0.375 0.7578125
vt 0.421875 0.7578125
vt 0.421875 0.6953125
vt 0.375 0.6953125
vt 0.359375 0.7578125
vt 0.375 0.7578125
vt 0.375 0.6953125
vt 0.359375 0.6953125
vt 0.359375 0.7578125
vt 0.3125 0.7578125
vt 0.3125 0.7734375
vt 0.359375 0.7734375
vt 0.40625 0.7734375
vt 0.359375 0.7734375
vt 0.359375 0.7578125
vt 0.40625 0.7578125
vn 0.38268356277142473 -4.4605126267516074e-20 -0.9238794784952035
vn 0.9238794784952035 -1.0768625779430163e-19 0.38268356277142473
vn -0.38268356277142473 4.4605126267516074e-20 0.9238794784952035
vn -0.9238794784952035 1.0768625779430163e-19 -0.38268356277142473
vn 1.1655877233002175e-19 1 -6.018531076210112e-36
vn -1.1655877233002175e-19 -1 6.018531076210112e-36
usemtl m_b29caa3c-f14b-1488-937f-31c5bb589b85
f 12/28/7 15/27/7 13/26/7 10/25/7
f 11/32/8 12/31/8 10/30/8 9/29/8
f 16/36/9 11/35/9 9/34/9 14/33/9
f 15/40/10 16/39/10 14/38/10 13/37/10
f 14/44/11 9/43/11 10/42/11 13/41/11
f 15/48/12 12/47/12 11/46/12 16/45/12
o pia
v 0.31249989084797025 0.4140625 0.26562512654176823
v 0.3124999908127632 0.4140625 -0.3593748734582238
v 0.31249989084797025 0.1640625 0.26562512654176823
v 0.3124999908127632 0.1640625 -0.3593748734582238
v -0.3125000091872288 0.4140625 -0.35937497342301666
v -0.31250010915202175 0.4140625 0.26562502657697534
v -0.3125000091872288 0.1640625 -0.35937497342301666
v -0.31250010915202175 0.1640625 0.26562502657697534
vt 0.3828125 0.8046875
vt 0.4609375 0.8046875
vt 0.4609375 0.7734375
vt 0.3828125 0.7734375
vt 0.3046875 0.8046875
vt 0.3828125 0.8046875
vt 0.3828125 0.7734375
vt 0.3046875 0.7734375
vt 0.2265625 0.8046875
vt 0.3046875 0.8046875
vt 0.3046875 0.7734375
vt 0.2265625 0.7734375
vt 0.1484375 0.8046875
vt 0.2265625 0.8046875
vt 0.2265625 0.7734375
vt 0.1484375 0.7734375
vt 0.2265625 0.8828125
vt 0.3046875 0.8828125
vt 0.3046875 0.8046875
vt 0.2265625 0.8046875
vt 0.3046875 0.8828125
vt 0.3828125 0.8828125
vt 0.3828125 0.8046875
vt 0.3046875 0.8046875
vn 1.599436687085615e-7 -1.8642837666629638e-26 -0.9999999999999872
vn 0.9999999999999872 -1.1655877233002023e-19 1.599436687085615e-7
vn -1.599436687085615e-7 1.8642837666629638e-26 0.9999999999999872
vn -0.9999999999999872 1.1655877233002023e-19 -1.599436687085615e-7
vn 1.1655877233002173e-19 1 2.8698592549372254e-42
vn -1.1655877233002173e-19 -1 -2.8698592549372254e-42
usemtl m_b29caa3c-f14b-1488-937f-31c5bb589b85
f 20/52/13 23/51/13 21/50/13 18/49/13
f 19/56/14 20/55/14 18/54/14 17/53/14
f 24/60/15 19/59/15 17/58/15 22/57/15
f 23/64/16 24/63/16 22/62/16 21/61/16
f 22/68/17 17/67/17 18/66/17 21/65/17
f 23/72/18 20/71/18 19/70/18 24/69/18
o escova
v 0.8581525131847865 0.5703125 -0.03696776697338896
v 0.8103170923072055 0.5703125 -0.15245271192061874
v 0.8581525131847865 0.5078125 -0.03696776697338896
v 0.8103170923072055 0.5078125 -0.15245271192061874
v 0.579347202412746 0.5703125 -0.05678187016545687
v 0.6271826232903269 0.5703125 0.058703074781772925
v 0.579347202412746 0.5078125 -0.05678187016545687
v 0.6271826232903269 0.5078125 0.058703074781772925
vt 0.015625 0.9609375
vt 0.046875 0.9609375
vt 0.046875 0.953125
vt 0.015625 0.953125
vt 0 0.9609375
vt 0.015625 0.9609375
vt 0.015625 0.953125
vt 0 0.953125
vt 0.0625 0.9609375
vt 0.09375 0.9609375
vt 0.09375 0.953125
vt 0.0625 0.953125
vt 0.046875 0.9609375
vt 0.0625 0.9609375
vt 0.0625 0.953125
vt 0.046875 0.953125
vt 0.046875 0.9609375
vt 0.015625 0.9609375
vt 0.015625 0.9765625
vt 0.046875 0.9765625
vt 0.078125 0.9765625
vt 0.046875 0.9765625
vt 0.046875 0.9609375
vt 0.078125 0.9609375
vn -0.38268336702064754 4.4605103451045804e-20 -0.9238795595778383
vn 0.9238795595778383 -1.07686267245194e-19 -0.38268336702064754
vn 0.38268336702064754 -4.4605103451045804e-20 0.9238795595778383
vn -0.9238795595778383 1.07686267245194e-19 0.38268336702064754
vn 1.1655877233002175e-19 1 -6.018531076210112e-36
vn -1.1655877233002175e-19 -1 6.018531076210112e-36
usemtl m_b29caa3c-f14b-1488-937f-31c5bb589b85
f 28/76/19 31/75/19 29/74/19 26/73/19
f 27/80/20 28/79/20 26/78/20 25/77/20
f 32/84/21 27/83/21 25/82/21 30/81/21
f 31/88/22 32/87/22 30/86/22 29/85/22
f 30/92/23 25/91/23 26/90/23 29/89/23
f 31/96/24 28/95/24 27/94/24 32/93/24
o Block2
v 0.281249866079763 0.5703125 0.3593750849367181
v 0.2812498791892829 0.5703125 0.23437508493671885
v 0.281249866079763 0.4453125 0.3593750849367181
v 0.2812498791892829 0.4453125 0.23437508493671885
v 0.1562498791892835 0.5703125 0.23437507182719897
v 0.15624986607976366 0.5703125 0.35937507182719824
v 0.1562498791892835 0.4453125 0.23437507182719897
v 0.15624986607976366 0.4453125 0.35937507182719824
vt 0.046875 0.9375
vt 0.0625 0.9375
vt 0.0625 0.921875
vt 0.046875 0.921875
vt 0.046875 0.9375
vt 0.0625 0.9375
vt 0.0625 0.921875
vt 0.046875 0.921875
vt 0.046875 0.9375
vt 0.0625 0.9375
vt 0.0625 0.921875
vt 0.046875 0.921875
vt 0.046875 0.9375
vt 0.0625 0.9375
vt 0.0625 0.921875
vt 0.046875 0.921875
vt 0.03125 0.9375
vt 0.015625 0.9375
vt 0.015625 0.953125
vt 0.03125 0.953125
vn 1.048761590452306e-7 -1.2224236345000183e-26 -0.9999999999999946
vn 0.9999999999999946 -1.165587723300211e-19 1.048761590452306e-7
vn -1.048761590452306e-7 1.2224236345000183e-26 0.9999999999999946
vn -0.9999999999999946 1.165587723300211e-19 -1.048761590452306e-7
vn 1.165587723300217e-19 1 -1.4349296274686124e-42
usemtl m_b29caa3c-f14b-1488-937f-31c5bb589b85
f 36/100/25 39/99/25 37/98/25 34/97/25
f 35/104/26 36/103/26 34/102/26 33/101/26
f 40/108/27 35/107/27 33/106/27 38/105/27
f 39/112/28 40/111/28 38/110/28 37/109/28
f 38/116/29 33/115/29 34/114/29 37/113/29
o escova
v 0.8581525131847865 0.5078125 -0.03696776697338896
v 0.8103170923072055 0.5078125 -0.15245271192061874
v 0.8581525131847865 0.4453125 -0.03696776697338896
v 0.8103170923072055 0.4453125 -0.15245271192061874
v 0.579347202412746 0.5078125 -0.05678187016545687
v 0.6271826232903269 0.5078125 0.058703074781772925
v 0.579347202412746 0.4453125 -0.05678187016545687
v 0.6271826232903269 0.4453125 0.058703074781772925
vt 0.015625 0.984375
vt 0.046875 0.984375
vt 0.046875 0.9765625
vt 0.015625 0.9765625
vt 0 0.984375
vt 0.015625 0.984375
vt 0.015625 0.9765625
vt 0 0.9765625
vt 0.0625 0.984375
vt 0.09375 0.984375
vt 0.09375 0.9765625
vt 0.0625 0.9765625
vt 0.046875 0.984375
vt 0.0625 0.984375
vt 0.0625 0.9765625
vt 0.046875 0.9765625
vt 0.046875 0.984375
vt 0.015625 0.984375
vt 0.015625 1
vt 0.046875 1
vt 0.078125 1
vt 0.046875 1
vt 0.046875 0.984375
vt 0.078125 0.984375
vn -0.38268336702064754 4.4605103451045804e-20 -0.9238795595778383
vn 0.9238795595778383 -1.07686267245194e-19 -0.38268336702064754
vn 0.38268336702064754 -4.4605103451045804e-20 0.9238795595778383
vn -0.9238795595778383 1.07686267245194e-19 0.38268336702064754
vn 1.1655877233002175e-19 1 -6.018531076210112e-36
vn -1.1655877233002175e-19 -1 6.018531076210112e-36
usemtl m_b29caa3c-f14b-1488-937f-31c5bb589b85
f 44/120/30 47/119/30 45/118/30 42/117/30
f 43/124/31 44/123/31 42/122/31 41/121/31
f 48/128/32 43/127/32 41/126/32 46/125/32
f 47/132/33 48/131/33 46/130/33 45/129/33
f 46/136/34 41/135/34 42/134/34 45/133/34
f 47/140/35 44/139/35 43/138/35 48/137/35
o Block3
v 0.06249986607976385 0.5703125 0.3593750653678471
v 0.06249987918928373 0.5703125 0.23437506536784777
v 0.06249986607976385 0.4453125 0.3593750653678471
v 0.06249987918928373 0.4453125 0.23437506536784777
v -1.2081071593117443e-7 0.5703125 0.23437505881308784
v -1.3392023581054735e-7 0.5703125 0.3593750588130871
v -1.2081071593117443e-7 0.4453125 0.23437505881308784
v -1.3392023581054735e-7 0.4453125 0.3593750588130871
vt 0.015625 0.9375
vt 0.0234375 0.9375
vt 0.0234375 0.921875
vt 0.015625 0.921875
vt 0 0.921875
vt 0.015625 0.921875
vt 0.015625 0.90625
vt 0 0.90625
vt 0.046875 0.9375
vt 0.0546875 0.9375
vt 0.0546875 0.921875
vt 0.046875 0.921875
vt 0 0.921875
vt 0.015625 0.921875
vt 0.015625 0.90625
vt 0 0.90625
vt 0.03125 0.9375
vt 0.0234375 0.9375
vt 0.0234375 0.953125
vt 0.03125 0.953125
vt 0.046875 0.953125
vt 0.0390625 0.953125
vt 0.0390625 0.9375
vt 0.046875 0.9375
vn 1.048761590452306e-7 -1.2224236345000183e-26 -0.9999999999999946
vn 0.9999999999999946 -1.165587723300211e-19 1.048761590452306e-7
vn -1.048761590452306e-7 1.2224236345000183e-26 0.9999999999999946
vn -0.9999999999999946 1.165587723300211e-19 -1.048761590452306e-7
vn 1.165587723300217e-19 1 -1.4349296274686124e-42
vn -1.165587723300217e-19 -1 1.4349296274686124e-42
usemtl m_b29caa3c-f14b-1488-937f-31c5bb589b85
f 52/144/36 55/143/36 53/142/36 50/141/36
f 51/148/37 52/147/37 50/146/37 49/145/37
f 56/152/38 51/151/38 49/150/38 54/149/38
f 55/156/39 56/155/39 54/154/39 53/153/39
f 54/160/40 49/159/40 50/158/40 53/157/40
f 55/164/41 52/163/41 51/162/41 56/161/41
o Block
v -0.8437500797362307 0.375 0.5156247964168548
v -0.8437499814148315 0.375 -0.42187520358314007
v -0.8437500797362307 -0.5 0.5156247964168548
v -0.8437499814148315 -0.5 -0.42187520358314007
v -0.9687499814148308 0.375 -0.4218752166926599
v -0.9687500797362301 0.375 0.515624783307335
v -0.9687499814148308 -0.5 -0.4218752166926599
v -0.9687500797362301 -0.5 0.515624783307335
vt 0.1171875 0.7578125
vt 0.1328125 0.7578125
vt 0.1328125 0.6484375
vt 0.1171875 0.6484375
vt 0 0.7578125
vt 0.1171875 0.7578125
vt 0.1171875 0.6484375
vt 0 0.6484375
vt 0.25 0.7578125
vt 0.265625 0.7578125
vt 0.265625 0.6484375
vt 0.25 0.6484375
vt 0.1328125 0.7578125
vt 0.25 0.7578125
vt 0.25 0.6484375
vt 0.1328125 0.6484375
vt 0.1328125 0.7578125
vt 0.1171875 0.7578125
vt 0.1171875 0.875
vt 0.1328125 0.875
vt 0.1484375 0.875
vt 0.1328125 0.875
vt 0.1328125 0.7578125
vt 0.1484375 0.7578125
vn 1.048761590452306e-7 -1.2224236345000183e-26 -0.9999999999999946
vn 0.9999999999999946 -1.165587723300211e-19 1.048761590452306e-7
vn -1.048761590452306e-7 1.2224236345000183e-26 0.9999999999999946
vn -0.9999999999999946 1.165587723300211e-19 -1.048761590452306e-7
vn 1.165587723300217e-19 1 -1.4349296274686124e-42
vn -1.165587723300217e-19 -1 1.4349296274686124e-42
usemtl m_b29caa3c-f14b-1488-937f-31c5bb589b85
f 60/168/42 63/167/42 61/166/42 58/165/42
f 59/172/43 60/171/43 58/170/43 57/169/43
f 64/176/44 59/175/44 57/174/44 62/173/44
f 63/180/45 64/179/45 62/178/45 61/177/45
f 62/184/46 57/183/46 58/182/46 61/181/46
f 63/188/47 60/187/47 59/186/47 64/185/47
o Block
v 0.9687498606590925 0.375 0.5156252489803139
v 0.9687499589804917 0.375 -0.4218747510196809
v 0.9687498606590925 -0.5 0.5156252489803139
v 0.9687499589804917 -0.5 -0.4218747510196809
v 0.8437499589804923 0.375 -0.42187476412920083
v 0.8437498606590933 0.375 0.515625235870794
v 0.8437499589804923 -0.5 -0.42187476412920083
v 0.8437498606590933 -0.5 0.515625235870794
vt 0.265625 0.640625
vt 0.28125 0.640625
vt 0.28125 0.53125
vt 0.265625 0.53125
vt 0.1484375 0.640625
vt 0.265625 0.640625
vt 0.265625 0.53125
vt 0.1484375 0.53125
vt 0.3984375 0.640625
vt 0.4140625 0.640625
vt 0.4140625 0.53125
vt 0.3984375 0.53125
vt 0.28125 0.640625
vt 0.3984375 0.640625
vt 0.3984375 0.53125
vt 0.28125 0.53125
vt 0.28125 0.640625
vt 0.265625 0.640625
vt 0.265625 0.7578125
vt 0.28125 0.7578125
vt 0.296875 0.7578125
vt 0.28125 0.7578125
vt 0.28125 0.640625
vt 0.296875 0.640625
vn 1.048761590452306e-7 -1.2224236345000183e-26 -0.9999999999999946
vn 0.9999999999999946 -1.165587723300211e-19 1.048761590452306e-7
vn -1.048761590452306e-7 1.2224236345000183e-26 0.9999999999999946
vn -0.9999999999999946 1.165587723300211e-19 -1.048761590452306e-7
vn 1.165587723300217e-19 1 -1.4349296274686124e-42
vn -1.165587723300217e-19 -1 1.4349296274686124e-42
usemtl m_b29caa3c-f14b-1488-937f-31c5bb589b85
f 68/192/48 71/191/48 69/190/48 66/189/48
f 67/196/49 68/195/49 66/194/49 65/193/49
f 72/200/50 67/199/50 65/198/50 70/197/50
f 71/204/51 72/203/51 70/202/51 69/201/51
f 70/208/52 65/207/52 66/206/52 69/205/52
f 71/212/53 68/211/53 67/210/53 72/209/53
o Block3
v -0.09375013392023704 0.5703125 0.3593750849367182
v -0.09375012081071718 0.5703125 0.23437508493671882
v -0.09375013392023704 0.4453125 0.3593750849367182
v -0.09375012081071718 0.4453125 0.23437508493671882
v -0.21875012081071651 0.5703125 0.23437507182719894
v -0.21875013392023637 0.5703125 0.35937507182719836
v -0.21875012081071651 0.4453125 0.23437507182719894
v -0.21875013392023637 0.4453125 0.35937507182719836
vt 0.046875 0.9375
vt 0.0625 0.9375
vt 0.0625 0.921875
vt 0.046875 0.921875
vt 0.046875 0.9375
vt 0.0625 0.9375
vt 0.0625 0.921875
vt 0.046875 0.921875
vt 0.046875 0.9375
vt 0.0625 0.9375
vt 0.0625 0.921875
vt 0.046875 0.921875
vt 0.046875 0.9375
vt 0.0625 0.9375
vt 0.0625 0.921875
vt 0.046875 0.921875
vt 0.03125 0.9375
vt 0.015625 0.9375
vt 0.015625 0.953125
vt 0.03125 0.953125
vn 1.048761590452306e-7 -1.2224236345000183e-26 -0.9999999999999946
vn 0.9999999999999946 -1.165587723300211e-19 1.048761590452306e-7
vn -1.048761590452306e-7 1.2224236345000183e-26 0.9999999999999946
vn -0.9999999999999946 1.165587723300211e-19 -1.048761590452306e-7
vn 1.165587723300217e-19 1 -1.4349296274686124e-42
usemtl m_b29caa3c-f14b-1488-937f-31c5bb589b85
f 76/216/54 79/215/54 77/214/54 74/213/54
f 75/220/55 76/219/55 74/218/55 73/217/55
f 80/224/56 75/223/56 73/222/56 78/221/56
f 79/228/57 80/227/57 78/226/57 77/225/57
f 78/232/58 73/231/58 74/230/58 77/229/58
o Block3
v 0.06312494098145728 0.625 0.33812501100023395
v 0.06312496720049704 0.625 0.0881250110002354
v 0.06312494098145728 0.5625 0.33812501100023395
v 0.06312496720049704 0.5625 0.0881250110002354
v 0.0006249672004973832 0.625 0.08812500444547547
v 0.000624940981457621 0.625 0.33812500444547405
v 0.0006249672004973832 0.5625 0.08812500444547547
v 0.000624940981457621 0.5625 0.33812500444547405
vt 0.0390625 0.90625
vt 0.03125 0.90625
vt 0.03125 0.8984375
vt 0.0390625 0.8984375
vt 0.0546875 0.90625
vt 0.0234375 0.90625
vt 0.0234375 0.8984375
vt 0.0546875 0.8984375
vt 0.0546875 0.90625
vt 0.046875 0.90625
vt 0.046875 0.8984375
vt 0.0546875 0.8984375
vt 0.03125 0.90625
vt 0 0.90625
vt 0 0.8984375
vt 0.03125 0.8984375
vt 0.015625 0.8984375
vt 0.0234375 0.8984375
vt 0.0234375 0.9296875
vt 0.015625 0.9296875
vt 0.046875 0.9296875
vt 0.0546875 0.9296875
vt 0.0546875 0.8984375
vt 0.046875 0.8984375
vn 1.048761590452306e-7 -1.2224236345000183e-26 -0.9999999999999946
vn 0.9999999999999946 -1.165587723300211e-19 1.048761590452306e-7
vn -1.048761590452306e-7 1.2224236345000183e-26 0.9999999999999946
vn -0.9999999999999946 1.165587723300211e-19 -1.048761590452306e-7
vn 1.165587723300217e-19 1 -1.4349296274686124e-42
vn -1.165587723300217e-19 -1 1.4349296274686124e-42
usemtl m_b29caa3c-f14b-1488-937f-31c5bb589b85
f 84/236/59 87/235/59 85/234/59 82/233/59
f 83/240/60 84/239/60 82/238/60 81/237/60
f 88/244/61 83/243/61 81/242/61 86/241/61
f 87/248/62 88/247/62 86/246/62 85/245/62
f 86/252/63 81/251/63 82/250/63 85/249/63
f 87/256/64 84/255/64 83/254/64 88/253/64
o cube
v 0.0625 0.5625 0.140625
v 0.0625 0.5625 0.078125
v 0.0625 0.1875 0.140625
v 0.0625 0.1875 0.078125
v 0 0.5625 0.078125
v 0 0.5625 0.140625
v 0 0.1875 0.078125
v 0 0.1875 0.140625
vt 0.765625 1
vt 0.7734375 1
vt 0.7734375 0.953125
vt 0.765625 0.953125
vt 0.765625 1
vt 0.7734375 1
vt 0.7734375 0.953125
vt 0.765625 0.953125
vt 0.765625 1
vt 0.7734375 1
vt 0.7734375 0.953125
vt 0.765625 0.953125
vt 0.765625 1
vt 0.7734375 1
vt 0.7734375 0.953125
vt 0.765625 0.953125
vt 0.765625 1
vt 0.7734375 1
vt 0.7734375 0.9921875
vt 0.765625 0.9921875
vn 0 0 -1
vn 1 0 0
vn 0 0 1
vn -1 0 0
vn 0 1 0
usemtl m_b29caa3c-f14b-1488-937f-31c5bb589b85
f 92/260/65 95/259/65 93/258/65 90/257/65
f 91/264/66 92/263/66 90/262/66 89/261/66
f 96/268/67 91/267/67 89/266/67 94/265/67
f 95/272/68 96/271/68 94/270/68 93/269/68
f 94/276/69 89/275/69 90/274/69 93/273/69