# Made in Blockbench 5.0.7
mtllib torradeira.mtl

o cube
v 0.3125 -0.1875 0.0625
v 0.3125 -0.1875 -0.0625
v 0.3125 -0.25 0.0625
v 0.3125 -0.25 -0.0625
v 0.25 -0.1875 -0.0625
v 0.25 -0.1875 0.0625
v 0.25 -0.25 -0.0625
v 0.25 -0.25 0.0625
vt 0.0625 0.9375
vt 0.09375 0.9375
vt 0.09375 0.90625
vt 0.0625 0.90625
vt 0 0.9375
vt 0.0625 0.9375
vt 0.0625 0.90625
vt 0 0.90625
vt 0.15625 0.9375
vt 0.1875 0.9375
vt 0.1875 0.90625
vt 0.15625 0.90625
vt 0.09375 0.9375
vt 0.15625 0.9375
vt 0.15625 0.90625
vt 0.09375 0.90625
vt 0.09375 0.9375
vt 0.0625 0.9375
vt 0.0625 1
vt 0.09375 1
vt 0.125 1
vt 0.09375 1
vt 0.09375 0.9375
vt 0.125 0.9375
vn 0 0 -1
vn 1 0 0
vn 0 0 1
vn -1 0 0
vn 0 1 0
vn 0 -1 0
usemtl m_7719a809-9788-9934-ae4c-03595bef2ff5
f 4/4/1 7/3/1 5/2/1 2/1/1
f 3/8/2 4/7/2 2/6/2 1/5/2
f 8/12/3 3/11/3 1/10/3 6/9/3
f 7/16/4 8/15/4 6/14/4 5/13/4
f 6/20/5 1/19/5 2/18/5 5/17/5
f 7/24/6 4/23/6 3/22/6 8/21/6
o cube
v 0.25 -0.125 0.15625
v 0.25 -0.125 -0.15625
v 0.25 -0.5 0.15625
v 0.25 -0.5 -0.15625
v -0.25 -0.125 -0.15625
v -0.25 -0.125 0.15625
v -0.25 -0.5 -0.15625
v -0.25 -0.5 0.15625
vt 0.21875 0.84375
vt 0.46875 0.84375
vt 0.46875 0.65625
vt 0.21875 0.65625
vt 0.0625 0.84375
vt 0.21875 0.84375
vt 0.21875 0.65625
vt 0.0625 0.65625
vt 0.625 0.84375
vt 0.875 0.84375
vt 0.875 0.65625
vt 0.625 0.65625
vt 0.46875 0.84375
vt 0.625 0.84375
vt 0.625 0.65625
vt 0.46875 0.65625
vt 0.46875 0.84375
vt 0.21875 0.84375
vt 0.21875 1
vt 0.46875 1
vt 0.71875 1
vt 0.46875 1
vt 0.46875 0.84375
vt 0.71875 0.84375
vn 0 0 -1
vn 1 0 0
vn 0 0 1
vn -1 0 0
vn 0 1 0
vn 0 -1 0
usemtl m_7719a809-9788-9934-ae4c-03595bef2ff5
f 12/28/7 15/27/7 13/26/7 10/25/7
f 11/32/8 12/31/8 10/30/8 9/29/8
f 16/36/9 11/35/9 9/34/9 14/33/9
f 15/40/10 16/39/10 14/38/10 13/37/10
f 14/44/11 9/43/11 10/42/11 13/41/11
f 15/48/12 12/47/12 11/46/12 16/45/12
o bread-A1
v 0.125 -0.125 -0.0625
v 0.125 -0.125 -0.0625
v 0.125 -0.4375 -0.0625
v 0.125 -0.4375 -0.0625
v -0.125 -0.125 -0.0625
v -0.125 -0.125 -0.0625
v -0.125 -0.4375 -0.0625
v -0.125 -0.4375 -0.0625
vt 0.28125 0.625
vt 0.40625 0.625
vt 0.40625 0.46875
vt 0.28125 0.46875
vn 0 0 -1
usemtl m_7719a809-9788-9934-ae4c-03595bef2ff5
f 20/52/13 23/51/13 21/50/13 18/49/13
o bread-A2
v 0.125 -0.125 0.0625
v 0.125 -0.125 0.0625
v 0.125 -0.4375 0.0625
v 0.125 -0.4375 0.0625
v -0.125 -0.125 0.0625
v -0.125 -0.125 0.0625
v -0.125 -0.4375 0.0625
v -0.125 -0.4375 0.0625
vt 0.28125 0.625
vt 0.40625 0.625
vt 0.40625 0.46875
vt 0.28125 0.46875
vn 0 0 -1
usemtl m_7719a809-9788-9934-ae4c-03595bef2ff5
f 28/56/14 31/55/14 29/54/14 26/53/14
o bread-B2
v 0.125 -0.1875 0.0625
v 0.125 -0.1875 0.0625
v 0.125 -0.5 0.0625
v 0.125 -0.5 0.0625
v -0.125 -0.1875 0.0625
v -0.125 -0.1875 0.0625
v -0.125 -0.5 0.0625
v -0.125 -0.5 0.0625
vt 0.4375 0.625
vt 0.5625 0.625
vt 0.5625 0.46875
vt 0.4375 0.46875
vn 0 0 -1
usemtl m_7719a809-9788-9934-ae4c-03595bef2ff5
f 36/60/15 39/59/15 37/58/15 34/57/15
o bread-B1
v 0.125 -0.1875 -0.0625
v 0.125 -0.1875 -0.0625
v 0.125 -0.5 -0.0625
v 0.125 -0.5 -0.0625
v -0.125 -0.1875 -0.0625
v -0.125 -0.1875 -0.0625
v -0.125 -0.5 -0.0625
v -0.125 -0.5 -0.0625
vt 0.4375 0.625
vt 0.5625 0.625
vt 0.5625 0.46875
vt 0.4375 0.46875
vn 0 0 -1
usemtl m_7719a809-9788-9934-ae4c-03595bef2ff5
f 44/64/16 47/63/16 45/62/16 42/61/16