# Made in Blockbench 5.0.7
mtllib tv_antiga_on.mtl

o antena pe1
v 0.09375 0.25000000000000006 0.15625
v 0.09375 0.25000000000000006 -0.03125
v 0.09375 0.18750000000000006 0.15625
v 0.09375 0.18750000000000006 -0.03125
v -0.09375 0.25000000000000006 -0.03125
v -0.09375 0.25000000000000006 0.15625
v -0.09375 0.18750000000000006 -0.03125
v -0.09375 0.18750000000000006 0.15625
vt 0.359375 0.375
vt 0.40625 0.375
vt 0.40625 0.34375
vt 0.359375 0.34375
vt 0.359375 0.375
vt 0.40625 0.375
vt 0.40625 0.34375
vt 0.359375 0.34375
vt 0.359375 0.375
vt 0.40625 0.375
vt 0.40625 0.34375
vt 0.359375 0.34375
vt 0.359375 0.375
vt 0.40625 0.375
vt 0.40625 0.34375
vt 0.359375 0.34375
vt 0.359375 0.375
vt 0.40625 0.375
vt 0.40625 0.28125
vt 0.359375 0.28125
vt 0.359375 0.375
vt 0.40625 0.375
vt 0.40625 0.28125
vt 0.359375 0.28125
vn 0 0 -1
vn 1 0 0
vn 0 0 1
vn -1 0 0
vn 0 1 0
vn 0 -1 0
usemtl m_texture-0
f 4/4/1 7/3/1 5/2/1 2/1/1
f 3/8/2 4/7/2 2/6/2 1/5/2
f 8/12/3 3/11/3 1/10/3 6/9/3
f 7/16/4 8/15/4 6/14/4 5/13/4
f 6/20/5 1/19/5 2/18/5 5/17/5
f 7/24/6 4/23/6 3/22/6 8/21/6
o antena haste
v 0.31045002252788634 0.8179097174303235 0.1171875
v 0.31045002252788634 0.8179097174303235 0.0546875
v 0.023437448254069043 0.12500006804685848 0.1171875
v 0.023437448254069043 0.12500006804685848 0.0546875
v 0.25270755174593096 0.8418274319531416 0.0546875
v 0.25270755174593096 0.8418274319531416 0.1171875
v -0.03430502252788639 0.14891778256967658 0.0546875
v -0.03430502252788639 0.14891778256967658 0.1171875
vt 0.78125 0.8125
vt 0.796875 0.8125
vt 0.796875 0.4375
vt 0.78125 0.4375
vt 0.78125 0.8125
vt 0.796875 0.8125
vt 0.796875 0.4375
vt 0.78125 0.4375
vt 0.78125 0.8125
vt 0.796875 0.8125
vt 0.796875 0.4375
vt 0.78125 0.4375
vt 0.78125 0.8125
vt 0.796875 0.8125
vt 0.796875 0.4375
vt 0.78125 0.4375
vt 0.78125 0.8125
vt 0.796875 0.8125
vt 0.796875 0.78125
vt 0.78125 0.78125
vt 0.78125 0.8125
vt 0.796875 0.8125
vt 0.796875 0.78125
vt 0.78125 0.78125
vn 0 0 -1
vn 0.9238795325112867 -0.3826834323650897 0
vn 0 0 1
vn -0.9238795325112867 0.3826834323650897 0
vn 0.3826834323650897 0.9238795325112867 0
vn -0.3826834323650897 -0.9238795325112867 0
usemtl m_texture-0
f 12/28/7 15/27/7 13/26/7 10/25/7
f 11/32/8 12/31/8 10/30/8 9/29/8
f 16/36/9 11/35/9 9/34/9 14/33/9
f 15/40/10 16/39/10 14/38/10 13/37/10
f 14/44/11 9/43/11 10/42/11 13/41/11
f 15/48/12 12/47/12 11/46/12 16/45/12
o antena haste
v -0.25270755174593096 0.8418274319531416 0.1171875
v -0.25270755174593096 0.8418274319531416 0.0546875
v 0.03430502252788639 0.14891778256967658 0.1171875
v 0.03430502252788639 0.14891778256967658 0.0546875
v -0.31045002252788634 0.8179097174303235 0.0546875
v -0.31045002252788634 0.8179097174303235 0.1171875
v -0.023437448254069043 0.12500006804685848 0.0546875
v -0.023437448254069043 0.12500006804685848 0.1171875
vt 0.78125 0.8125
vt 0.796875 0.8125
vt 0.796875 0.4375
vt 0.78125 0.4375
vt 0.78125 0.8125
vt 0.796875 0.8125
vt 0.796875 0.4375
vt 0.78125 0.4375
vt 0.78125 0.8125
vt 0.796875 0.8125
vt 0.796875 0.4375
vt 0.78125 0.4375
vt 0.78125 0.8125
vt 0.796875 0.8125
vt 0.796875 0.4375
vt 0.78125 0.4375
vt 0.78125 0.8125
vt 0.796875 0.8125
vt 0.796875 0.78125
vt 0.78125 0.78125
vt 0.78125 0.8125
vt 0.796875 0.8125
vt 0.796875 0.78125
vt 0.78125 0.78125
vn 0 0 -1
vn 0.9238795325112867 0.3826834323650897 0
vn 0 0 1
vn -0.9238795325112867 -0.3826834323650897 0
vn -0.3826834323650897 0.9238795325112867 0
vn 0.3826834323650897 -0.9238795325112867 0
usemtl m_texture-0
f 20/52/13 23/51/13 21/50/13 18/49/13
f 19/56/14 20/55/14 18/54/14 17/53/14
f 24/60/15 19/59/15 17/58/15 22/57/15
f 23/64/16 24/63/16 22/62/16 21/61/16
f 22/68/17 17/67/17 18/66/17 21/65/17
f 23/72/18 20/71/18 19/70/18 24/69/18
o group
v -0.43749999999999994 0.1875 -0.31250000000000006
v -0.43750000000000006 0.1875 0.24999999999999994
v -0.43749999999999994 -0.5 -0.31250000000000006
v -0.43750000000000006 -0.5 0.24999999999999994
v 0.43749999999999994 0.1875 0.25000000000000006
v 0.43750000000000006 0.1875 -0.31249999999999994
v 0.43749999999999994 -0.5 0.25000000000000006
v 0.43750000000000006 -0.5 -0.31249999999999994
vt 0.390625 0.75
vt 0.609375 0.75
vt 0.609375 0.40625
vt 0.390625 0.40625
vt 0 0.75
vt 0.140625 0.75
vt 0.140625 0.40625
vt 0 0.40625
vt 0.125 0.75
vt 0.34375 0.75
vt 0.34375 0.40625
vt 0.125 0.40625
vt 0.359375 0.75
vt 0.5 0.75
vt 0.5 0.40625
vt 0.359375 0.40625
vt 0.125 1
vt 0.34375 1
vt 0.34375 0.71875
vt 0.125 0.71875
vt 0.125 1
vt 0.34375 1
vt 0.34375 0.71875
vt 0.125 0.71875
vn -1.2246467991473532e-16 0 1
vn -1 0 -1.2246467991473532e-16
vn 1.2246467991473532e-16 0 -1
vn 1 0 1.2246467991473532e-16
vn 0 1 0
vn 0 -1 0
usemtl m_texture-0
f 28/76/19 31/75/19 29/74/19 26/73/19
f 27/80/20 28/79/20 26/78/20 25/77/20
f 32/84/21 27/83/21 25/82/21 30/81/21
f 31/88/22 32/87/22 30/86/22 29/85/22
f 30/92/23 25/91/23 26/90/23 29/89/23
f 31/96/24 28/95/24 27/94/24 32/93/24